<?xml version="1.0" standalone="no"?>
<!DOCTYPE svg PUBLIC "-//W3C//DTD SVG 1.1//EN" "http://www.w3.org/Graphics/SVG/1.1/DTD/svg11.dtd" >
<svg xmlns="http://www.w3.org/2000/svg">
<metadata></metadata>
<defs>
<font id="dosisextrabold" horiz-adv-x="496" >
<font-face units-per-em="1000" ascent="800" descent="-200" />
<missing-glyph horiz-adv-x="200" />
<glyph unicode="&#xfb01;" horiz-adv-x="590" d="M46 47v470q0 99 72 165t191 66q69 0 123.5 -21.5t54.5 -53.5q0 -23 -14.5 -57t-39.5 -34q-8 0 -43 18t-81 18q-108 0 -108 -94v-48h92q18 0 28 -16.5t10 -38.5q0 -23 -10 -39t-28 -16h-92v-319q0 -20 -23.5 -33.5t-55.5 -13.5q-33 0 -54.5 13t-21.5 34zM391 48v381 q0 21 21.5 34t54.5 13q34 0 56.5 -13t22.5 -34v-381q0 -18 -23.5 -33t-55.5 -15t-54 14.5t-22 33.5z" />
<glyph unicode="&#xfb02;" horiz-adv-x="602" d="M46 47v470q0 108 82 169.5t201 61.5q62 0 125.5 -16t93.5 -45v-639q0 -18 -23.5 -33t-55.5 -15t-54 14.5t-22 33.5v557q-25 14 -71 14q-49 0 -85 -24.5t-36 -70.5v-48h92q18 0 28 -16.5t10 -38.5q0 -23 -10 -39t-28 -16h-92v-319q0 -20 -23.5 -33.5t-55.5 -13.5 q-33 0 -54.5 13t-21.5 34z" />
<glyph horiz-adv-x="0" />
<glyph horiz-adv-x="0" />
<glyph unicode="&#xd;" horiz-adv-x="333" />
<glyph unicode=" "  horiz-adv-x="200" />
<glyph unicode="&#x09;" horiz-adv-x="200" />
<glyph unicode="&#xa0;" horiz-adv-x="200" />
<glyph unicode="!" horiz-adv-x="229" d="M39 71q0 32 22 54.5t55 22.5q31 0 53.5 -23t22.5 -54t-22.5 -54t-53.5 -23q-32 0 -54.5 23t-22.5 54zM42 670q0 28 20.5 44.5t52.5 16.5q31 0 51.5 -16.5t20.5 -44.5q0 -60 -7 -205t-7 -204q0 -21 -18.5 -32.5t-39.5 -11.5q-59 0 -59 44q0 59 -7 204t-7 205z" />
<glyph unicode="&#x22;" horiz-adv-x="315" d="M23 731q0 16 16 26.5t38 10.5t38.5 -10.5t16.5 -26.5l-10 -134q0 -16 -11.5 -27t-33.5 -11t-33 11t-11 27zM183 731q0 16 16 26.5t38 10.5t38.5 -10.5t16.5 -26.5l-10 -134q0 -16 -11.5 -27t-33.5 -11t-33 11t-11 27z" />
<glyph unicode="#" horiz-adv-x="717" d="M21 263q0 25 12 42t31 17h92l21 108h-71q-19 0 -30.5 15t-11.5 41q0 25 12 42t31 17h93l26 136q3 14 22 23t43 9q30 0 50 -14t20 -43l-21 -111h103l26 136q3 14 22 23t43 9q29 0 49.5 -14t21.5 -43l-22 -111h70q17 0 30 -16.5t13 -40.5q0 -25 -13.5 -41.5t-30.5 -16.5 h-90l-22 -108h70q17 0 30.5 -17t13.5 -40q0 -25 -14 -41.5t-31 -16.5h-91l-28 -145q-3 -14 -21.5 -24t-38.5 -10q-28 0 -52.5 15.5t-24.5 41.5l23 122h-101l-28 -145q-3 -14 -22 -24t-38 -10q-28 0 -52 15.5t-24 41.5l22 122h-70q-19 0 -30.5 15.5t-11.5 40.5zM297 322h102 l21 108h-102z" />
<glyph unicode="$" horiz-adv-x="541" d="M24 130q0 28 20.5 56t47.5 28q19 0 65 -32.5t85 -39.5v162q-36 14 -57 23t-52 27.5t-48 38t-30 50t-13 67.5q0 89 56.5 140t143.5 63v28q0 11 11 19t27 8q14 0 26 -8.5t12 -18.5v-25q28 -1 55 -5t57 -13t48.5 -27t18.5 -42q0 -26 -16.5 -54t-45.5 -28q-14 0 -47.5 17 t-69.5 20v-146q33 -13 56 -23t52 -29t46.5 -40t30 -53t12.5 -71q0 -91 -53.5 -147t-143.5 -71v-29q0 -10 -12 -18.5t-26 -8.5q-16 0 -27 8t-11 19v25q-89 3 -153.5 42t-64.5 88zM188 525q0 -36 64 -63v119q-64 -13 -64 -56zM308 143q61 14 61 63q0 42 -61 71v-134z" />
<glyph unicode="%" horiz-adv-x="807" d="M24 454v142q0 70 40.5 102.5t109.5 32.5q68 0 109 -32.5t41 -102.5v-142q0 -70 -41 -102.5t-109 -32.5q-69 0 -109.5 32.5t-40.5 102.5zM125 454q0 -48 49 -48q50 0 50 48v142q0 48 -50 48q-49 0 -49 -48v-142zM177 7q0 9 5 19l351 721q12 25 42 25q22 0 40.5 -15 t18.5 -38q0 -11 -4 -19l-352 -721q-12 -25 -45 -25q-24 0 -40 16.5t-16 36.5zM483 132v142q0 70 40.5 102.5t109.5 32.5q68 0 109 -32.5t41 -102.5v-142q0 -70 -41 -102.5t-109 -32.5q-69 0 -109.5 32.5t-40.5 102.5zM584 132q0 -48 49 -48q50 0 50 48v142q0 48 -50 48 q-49 0 -49 -48v-142z" />
<glyph unicode="&#x26;" horiz-adv-x="655" d="M18 213q0 63 34.5 118.5t85.5 86.5q-65 72 -65 145q0 85 63 135t158 50q89 0 149.5 -40.5t60.5 -84.5q0 -27 -23.5 -49.5t-50.5 -22.5q-17 0 -32 11.5t-26 25t-31 25t-46 11.5q-34 0 -56 -18t-22 -50q0 -16 6 -32.5t21 -35.5l24 -30q8 -9 31 -32l25 -25l144 -149 q14 33 14 78.5t12 63t60 17.5q39 0 52.5 -17.5t13.5 -53.5q0 -92 -58 -184l76 -78q9 -10 9 -25q0 -23 -22.5 -43t-49.5 -20q-20 0 -38 18l-54 55q-88 -73 -205 -73q-115 0 -187.5 65.5t-72.5 157.5zM175 226q0 -45 31.5 -73t88.5 -28q60 0 97 32l-167 171q-50 -43 -50 -102z " />
<glyph unicode="'" horiz-adv-x="155" d="M23 731q0 16 16 26.5t38 10.5t38.5 -10.5t16.5 -26.5l-10 -134q0 -16 -11.5 -27t-33.5 -11t-33 11t-11 27z" />
<glyph unicode="(" horiz-adv-x="358" d="M43 173v388q0 91 70.5 149t153.5 58q77 0 77 -67q0 -31 -13 -49.5t-34 -18.5q-45 0 -71.5 -22t-26.5 -50v-388q0 -58 98 -58q47 0 47 -69q0 -33 -16 -49.5t-65 -16.5q-39 0 -76 11t-70 33t-53.5 60.5t-20.5 88.5z" />
<glyph unicode=")" horiz-adv-x="358" d="M14 46q0 69 47 69q98 0 98 58v388q0 28 -26.5 50t-71.5 22q-21 0 -34 18.5t-13 49.5q0 67 77 67q83 0 153.5 -58t70.5 -149v-388q0 -50 -20.5 -88.5t-53.5 -60.5t-70 -33t-76 -11q-49 0 -65 16.5t-16 49.5z" />
<glyph unicode="*" horiz-adv-x="491" d="M22 563q0 21 16 38t39 17q8 0 15 -3l105 -34l-5 102q1 23 16 35.5t38 12.5q22 0 37 -12t16 -36l-4 -104l106 36q7 3 15 3q22 0 37 -19.5t15 -42.5q0 -37 -34 -44l-102 -24l70 -101q8 -10 8 -29q0 -23 -19 -38.5t-42 -15.5q-26 0 -38 19l-65 100l-66 -101q-11 -18 -35 -18 q-21 0 -42 14.5t-21 37.5q0 18 12 32l66 94l-104 30q-34 7 -34 51z" />
<glyph unicode="+" horiz-adv-x="455" d="M20 240q0 27 13 45.5t34 18.5h97v96q0 19 19 33.5t45 14.5q27 0 45 -14.5t18 -33.5v-96h96q19 0 33.5 -19t14.5 -45q0 -27 -14.5 -45t-33.5 -18h-96v-97q0 -21 -17.5 -34t-45.5 -13q-27 0 -45.5 13t-18.5 34v97h-97q-21 0 -34 17.5t-13 45.5z" />
<glyph unicode="," horiz-adv-x="199" d="M23 71q0 32 22.5 54.5t53.5 22.5t54 -22.5t23 -53.5q0 -16 -62 -160q-8 -18 -30 -18q-18 0 -34 11t-16 28q0 8 4 16l25 54q-40 23 -40 68z" />
<glyph unicode="-" horiz-adv-x="416" d="M31 240q0 27 13 45.5t34 18.5h260q19 0 33.5 -19t14.5 -45q0 -27 -14.5 -45t-33.5 -18h-260q-21 0 -34 17.5t-13 45.5z" />
<glyph unicode="." horiz-adv-x="199" d="M23 71q0 32 22 54.5t55 22.5q31 0 53.5 -23t22.5 -54t-22.5 -54t-53.5 -23q-32 0 -54.5 23t-22.5 54z" />
<glyph unicode="/" horiz-adv-x="491" d="M17 7q0 9 5 19l351 721q12 25 42 25q22 0 40.5 -15t18.5 -38q0 -11 -4 -19l-352 -721q-12 -25 -45 -25q-24 0 -40 16.5t-16 36.5z" />
<glyph unicode="0" horiz-adv-x="569" d="M39 230v265q0 122 67 179t178 57q112 0 179 -57t67 -179v-265q0 -122 -67 -179t-179 -57q-111 0 -178 57t-67 179zM195 230q0 -100 89 -100q90 0 90 100v265q0 100 -90 100q-89 0 -89 -100v-265zM234 362q0 23 13.5 36.5t37.5 13.5q23 0 36.5 -13.5t13.5 -36.5t-13.5 -37 t-36.5 -14q-24 0 -37.5 14t-13.5 37z" />
<glyph unicode="1" horiz-adv-x="308" d="M-2 593q0 36 29 53l132 80q11 7 29 7q26 0 47.5 -14t21.5 -35v-636q0 -23 -23 -35.5t-55 -12.5t-55 12.5t-23 35.5v509l-29 -18q-12 -8 -25 -8q-21 0 -35 19t-14 43z" />
<glyph unicode="2" horiz-adv-x="517" d="M23 48v97q0 43 32.5 86t78.5 77l92 68q47 34 79.5 71t32.5 72q0 28 -19 49.5t-57 21.5q-33 0 -54 -18t-21 -57q0 -23 -22.5 -40t-59.5 -17q-70 0 -70 81q0 87 67.5 139.5t158.5 52.5q93 0 163 -56t70 -151q0 -60 -32 -113t-77 -89t-90.5 -66t-77.5 -58.5t-32 -52.5v-9 h262q19 0 33 -20t14 -47t-14 -48t-33 -21h-356q-23 0 -45.5 14t-22.5 34z" />
<glyph unicode="3" horiz-adv-x="534" d="M16 183q0 33 16 45t58 12q47 0 63.5 -11.5t16.5 -40.5q0 -58 89 -58q51 0 71.5 20.5t20.5 69.5v19q0 47 -24.5 63.5t-71.5 16.5q-45 0 -45 60t45 60q17 0 28.5 2.5t24 10t19 26t6.5 47.5q0 72 -74 72q-38 0 -56 -11.5t-18 -39.5t-16 -42.5t-57 -14.5q-52 0 -66.5 12.5 t-14.5 50.5q0 70 55.5 124.5t172.5 54.5q223 0 223 -181q0 -57 -20.5 -102t-56.5 -62q102 -38 102 -147v-19q0 -116 -69.5 -171t-183.5 -55q-118 0 -178 58t-60 131z" />
<glyph unicode="4" horiz-adv-x="525" d="M-5 208q0 15 8 30l231 453q21 40 65 40q24 0 51 -17t27 -42q0 -7 -5 -19l-177 -355h86v70q0 23 23 35t55 12t55 -12t23 -35v-70h43q23 0 35.5 -21.5t12.5 -50.5q0 -27 -15 -49.5t-33 -22.5h-43v-106q0 -23 -23 -35.5t-55 -12.5t-55 12.5t-23 35.5v106h-234 q-23 0 -37.5 14.5t-14.5 39.5z" />
<glyph unicode="5" horiz-adv-x="521" d="M13 180q0 39 19.5 54t58.5 15q47 0 62.5 -15t15.5 -43q0 -29 24.5 -45t62.5 -16q91 0 91 94v19q0 49 -23.5 73.5t-65.5 24.5h-152q-33 0 -46.5 15.5t-13.5 45.5q0 7 2 29l27 252q5 48 28 48h319q21 0 33 -20t12 -48t-12 -48t-33 -20h-219l-10 -134h65q112 0 178.5 -52 t66.5 -166v-19q0 -118 -67 -174t-176 -56q-115 0 -181 55t-66 131z" />
<glyph unicode="6" horiz-adv-x="562" d="M39 230v265q0 122 69.5 179t185.5 57t176 -58t60 -130q0 -35 -17 -49t-56 -14q-81 0 -81 57q0 27 -25 42.5t-62 15.5q-94 0 -94 -100v-90q40 44 125 44q95 0 152.5 -49t57.5 -161v-9q0 -122 -67 -179t-178 -57q-112 0 -179 57t-67 179zM195 219q0 -99 90 -99q89 0 89 99 v9q0 101 -90 101q-89 0 -89 -92v-18z" />
<glyph unicode="7" horiz-adv-x="512" d="M12 528v155q0 18 21 33t47 15h355q23 0 45.5 -15t22.5 -33v-125q0 -35 -32 -95l-234 -448q-11 -21 -44 -21q-38 0 -68.5 23t-30.5 56q0 13 7 26l246 426v70h-179v-67q0 -20 -24 -34t-55 -14q-32 0 -54.5 14t-22.5 34z" />
<glyph unicode="8" horiz-adv-x="545" d="M27 200v12q0 146 124 188q-99 34 -99 153q0 90 59.5 134t161.5 44t161.5 -44t59.5 -134q0 -119 -99 -153q123 -42 123 -188v-12q0 -106 -67 -156t-178 -50t-178.5 50t-67.5 156zM183 219q0 -100 90 -100q89 0 89 100v22q0 95 -89 95q-90 0 -90 -95v-22zM202 533 q0 -72 71 -72t71 72q0 73 -71 73t-71 -73z" />
<glyph unicode="9" horiz-adv-x="563" d="M33 182q0 35 17 49t56 14q81 0 81 -57q0 -27 25 -42.5t62 -15.5q94 0 94 100v90q-40 -44 -125 -44q-95 0 -152.5 49t-57.5 161v9q0 122 67 179t178 57q112 0 179 -57t67 -179v-265q0 -122 -69.5 -179t-185.5 -57t-176 58t-60 130zM189 497q0 -101 90 -101q89 0 89 92v18 q0 99 -90 99q-89 0 -89 -99v-9z" />
<glyph unicode=":" horiz-adv-x="225" d="M36 71q0 32 22 54.5t55 22.5q31 0 53.5 -23t22.5 -54t-22.5 -54t-53.5 -23q-32 0 -54.5 23t-22.5 54zM36 345q0 32 22 54.5t55 22.5q31 0 53.5 -23t22.5 -54t-22.5 -54t-53.5 -23q-32 0 -54.5 23t-22.5 54z" />
<glyph unicode=";" horiz-adv-x="225" d="M33 71q0 32 22.5 54.5t53.5 22.5t54 -22.5t23 -53.5q0 -16 -62 -160q-8 -18 -30 -18q-18 0 -34 11t-16 28q0 8 4 16l25 54q-40 23 -40 68zM39 345q0 32 22 54.5t55 22.5q31 0 53.5 -23t22.5 -54t-22.5 -54t-53.5 -23q-32 0 -54.5 23t-22.5 54z" />
<glyph unicode="&#x3c;" horiz-adv-x="427" d="M19 277q0 36 31 56l254 165q6 5 19 5q24 0 46 -22t22 -51q0 -28 -18 -39l-176 -114l176 -114q18 -11 18 -39q0 -29 -22 -51t-46 -22q-13 0 -19 5l-254 165q-31 20 -31 56z" />
<glyph unicode="=" horiz-adv-x="448" d="M47 135q0 27 13 45.5t34 18.5h260q19 0 33.5 -19t14.5 -45q0 -27 -14.5 -45t-33.5 -18h-260q-21 0 -34 17.5t-13 45.5zM47 338q0 27 13 45.5t34 18.5h260q19 0 33.5 -19t14.5 -45q0 -27 -14.5 -45t-33.5 -18h-260q-21 0 -34 17.5t-13 45.5z" />
<glyph unicode="&#x3e;" horiz-adv-x="427" d="M36 124q0 28 18 39l176 114l-176 114q-18 11 -18 39q0 29 22 51t46 22q13 0 19 -5l254 -165q31 -20 31 -56t-31 -56l-254 -165q-6 -5 -19 -5q-24 0 -46 22t-22 51z" />
<glyph unicode="?" horiz-adv-x="453" d="M20 597q0 48 52 91t145 43q95 0 154 -47t59 -118q0 -96 -112 -183q-26 -21 -38.5 -41.5t-15 -36t-2.5 -47.5q0 -41 -59 -41q-31 0 -43 14t-12 53q0 94 67 152q3 3 26 21t32 27t20 27.5t11 37.5q0 33 -25 50.5t-65 17.5q-34 0 -56 -12t-29 -26.5t-19 -26.5t-30 -12 q-23 0 -41.5 15t-18.5 42zM128 71q0 32 22.5 54.5t53.5 22.5q32 0 54.5 -23t22.5 -54t-22.5 -54t-54.5 -23t-54 23t-22 54z" />
<glyph unicode="@" horiz-adv-x="753" d="M35 206q0 164 90.5 266.5t262.5 102.5q160 0 251 -90.5t91 -244.5q0 -103 -41 -169.5t-118 -66.5q-44 0 -73 21t-35 55q-54 -73 -126 -73q-49 0 -87 30.5t-38 87.5q0 127 203 127h27v13q0 64 -74 64q-35 0 -65 -14t-34 -14q-14 0 -24.5 20t-10.5 37q0 30 46.5 52 t102.5 22q69 0 119 -36t50 -100v-171q4 -27 10.5 -37t17.5 -10q54 0 54 137q0 276 -245 276q-257 0 -257 -284q0 -266 227 -266q46 0 85 12t44 12q17 0 27 -15t10 -29q0 -32 -62 -48t-123 -16q-127 0 -216 91t-89 258zM334 127q0 -41 34 -41q28 0 54 25.5t26 56.5v22h-18 q-96 0 -96 -63z" />
<glyph unicode="A" horiz-adv-x="589" d="M4 64q0 3 2 11l186 610q8 25 36.5 38.5t65.5 13.5t65.5 -13.5t36.5 -38.5l187 -610q2 -8 2 -11q0 -26 -32.5 -45t-67.5 -19q-43 0 -51 29l-34 125h-211l-34 -125q-8 -29 -51 -29q-35 0 -67.5 19t-32.5 45zM221 274h146l-73 268z" />
<glyph unicode="B" horiz-adv-x="572" d="M54 47v636q0 23 20 35.5t48 12.5h205q200 0 200 -178q0 -120 -85 -157q51 -19 77 -54.5t26 -105.5v-21q0 -112 -54.5 -163.5t-146.5 -51.5h-222q-31 0 -49.5 14t-18.5 33zM209 136h100q80 0 80 92v16q0 92 -80 92h-100v-200zM209 456h105q27 0 42 20.5t15 48.5t-15 49 t-42 21h-105v-139z" />
<glyph unicode="C" horiz-adv-x="562" d="M46 230v265q0 122 66.5 179t173.5 57q110 0 180.5 -53t70.5 -146q0 -43 -18 -58.5t-60 -15.5q-75 0 -78 47q-3 90 -89 90q-90 0 -90 -100v-265q0 -100 91 -100q28 0 46.5 9t26.5 27.5t10.5 30.5t4.5 33q4 47 77 47q43 0 61 -15.5t18 -58.5q0 -97 -70.5 -153t-180.5 -56 q-107 0 -173.5 57t-66.5 179z" />
<glyph unicode="D" horiz-adv-x="590" d="M54 47v637q0 19 19 33t49 14h177q112 0 179 -57t67 -179v-259q0 -122 -67 -179t-179 -57h-177q-30 0 -49 14t-19 33zM210 136h89q90 0 90 100v259q0 100 -90 100h-89v-459z" />
<glyph unicode="E" horiz-adv-x="539" d="M54 48v635q0 23 20 35.5t48 12.5h356q23 0 35 -20t12 -47q0 -29 -12.5 -49t-34.5 -20h-268v-169h150q22 0 34.5 -18t12.5 -43q0 -23 -12 -41t-35 -18h-150v-170h268q22 0 34.5 -20t12.5 -49q0 -27 -12 -47t-35 -20h-356q-28 0 -48 12.5t-20 35.5z" />
<glyph unicode="F" horiz-adv-x="515" d="M54 48v635q0 23 20 35.5t48 12.5h347q23 0 35 -20t12 -47q0 -29 -12.5 -49t-34.5 -20h-259v-169h151q22 0 34.5 -18t12.5 -43q0 -23 -12 -41t-35 -18h-151v-258q0 -23 -23 -35.5t-55 -12.5t-55 12.5t-23 35.5z" />
<glyph unicode="G" horiz-adv-x="573" d="M46 230v265q0 122 66.5 179t173.5 57q110 0 180.5 -53t70.5 -146q0 -43 -18 -58.5t-60 -15.5q-77 0 -78 47q0 14 -1 23.5t-6 23.5t-14 22t-26.5 14.5t-41.5 6.5q-90 0 -90 -100v-265q0 -100 89 -100q90 0 90 100v34h-59q-22 0 -34.5 17.5t-12.5 42.5q0 23 13 41.5 t34 18.5h168q22 0 34.5 -14.5t12.5 -34.5v-105q0 -122 -67 -179t-179 -57q-111 0 -178 57t-67 179z" />
<glyph unicode="H" horiz-adv-x="619" d="M54 48v636q0 23 23 35t55 12t55 -12t23 -35v-245h199v245q0 23 23 35t55 12t55 -12t23 -35v-636q0 -23 -23 -35.5t-55 -12.5t-55 12.5t-23 35.5v271h-199v-271q0 -23 -23 -35.5t-55 -12.5t-55 12.5t-23 35.5z" />
<glyph unicode="I" horiz-adv-x="264" d="M54 48v636q0 23 23 35t55 12t55 -12t23 -35v-636q0 -23 -23 -35.5t-55 -12.5t-55 12.5t-23 35.5z" />
<glyph unicode="J" horiz-adv-x="548" d="M6 203q0 43 18 58.5t61 15.5q73 0 77 -47q2 -21 4.5 -33t10.5 -30.5t26.5 -27.5t46.5 -9q91 0 91 100v365h-87q-22 0 -34.5 20t-12.5 49q0 27 12 47t35 20h175q28 0 48 -12.5t20 -35.5v-453q0 -122 -66.5 -179t-173.5 -57q-110 0 -180.5 56t-70.5 153z" />
<glyph unicode="K" horiz-adv-x="566" d="M54 48v636q0 23 23 35t55 12t55 -12t23 -35v-240l187 265q15 22 41 22q31 0 61.5 -25.5t30.5 -54.5q0 -16 -10 -30l-164 -206l207 -317q8 -13 8 -26q0 -29 -30 -53.5t-64 -24.5q-36 0 -54 29l-171 260l-42 -54v-181q0 -23 -23 -35.5t-55 -12.5t-55 12.5t-23 35.5z" />
<glyph unicode="L" horiz-adv-x="492" d="M54 48v636q0 23 23 35t55 12t55 -12t23 -35v-548h228q21 0 33 -20t12 -48t-12 -48t-33 -20h-316q-28 0 -48 12.5t-20 35.5z" />
<glyph unicode="M" horiz-adv-x="712" d="M54 48v605q0 40 22.5 59t55.5 19q45 0 68.5 -13.5t52.5 -64.5l103 -180l103 180q29 51 52.5 64.5t68.5 13.5q33 0 55.5 -19t22.5 -59v-605q0 -23 -23 -35.5t-55 -12.5t-55 12.5t-23 35.5v375l-96 -164q-17 -29 -52 -29q-34 0 -49 29l-95 174v-385q0 -23 -23 -35.5 t-55 -12.5t-55 12.5t-23 35.5z" />
<glyph unicode="N" horiz-adv-x="619" d="M54 48v635q0 23 23 35.5t55 12.5q45 0 66.5 -13t48.5 -65l162 -309v340q0 23 23 35t55 12t55 -12t23 -35v-636q0 -23 -23 -35.5t-55 -12.5q-64 0 -87 42l-190 346v-340q0 -23 -23 -35.5t-55 -12.5t-55 12.5t-23 35.5z" />
<glyph unicode="O" horiz-adv-x="583" d="M46 230v265q0 122 67 179t178 57q112 0 179 -57t67 -179v-265q0 -122 -67 -179t-179 -57q-111 0 -178 57t-67 179zM202 230q0 -100 89 -100q90 0 90 100v265q0 100 -90 100q-89 0 -89 -100v-265z" />
<glyph unicode="P" horiz-adv-x="569" d="M54 48v636q0 19 16 33t42 14h207q107 0 171.5 -55.5t64.5 -174.5v-5q0 -119 -67.5 -175.5t-178.5 -56.5h-99v-216q0 -23 -23 -35.5t-55 -12.5t-55 12.5t-23 35.5zM210 384h99q90 0 90 100v11q0 100 -90 100h-99v-211z" />
<glyph unicode="Q" horiz-adv-x="583" d="M46 230v265q0 123 66.5 179.5t178.5 56.5t179 -56.5t67 -179.5v-265q0 -108 -53.5 -165t-144.5 -68v-58q0 -23 -14.5 -35.5t-33.5 -12.5t-33.5 12.5t-14.5 35.5v58q-91 11 -144 67.5t-53 165.5zM202 230q0 -67 41 -90v44q0 23 14 35t34 12t34 -12t14 -35v-44q42 24 42 90 v265q0 100 -90 100q-89 0 -89 -100v-265z" />
<glyph unicode="R" horiz-adv-x="584" d="M54 48v636q0 19 13.5 33t34.5 14h207q246 0 246 -214q0 -156 -121 -203l122 -221q5 -7 5 -18q0 -29 -31.5 -55t-66.5 -26t-50 29l-137 266h-66v-241q0 -23 -23 -35.5t-55 -12.5t-55 12.5t-23 35.5zM210 409h99q44 0 67 21.5t23 71.5t-23 71.5t-67 21.5h-99v-186z" />
<glyph unicode="S" horiz-adv-x="533" d="M19 120q0 28 20.5 56t47.5 28q15 0 33.5 -11.5t34 -25.5t43.5 -25.5t59 -11.5q39 0 68 16.5t29 49.5t-32.5 58t-79 45.5t-93.5 46t-79.5 72.5t-32.5 112q0 104 75 155.5t181 51.5q26 0 54.5 -3t64 -11.5t58 -27.5t22.5 -46q0 -26 -16.5 -54t-45.5 -28q-12 0 -51 19 t-86 19q-50 0 -75 -17.5t-25 -42.5q0 -23 23.5 -42t58.5 -32.5t76.5 -35t76.5 -47t58.5 -71.5t23.5 -105q0 -105 -69 -163.5t-181 -58.5q-97 0 -169 40t-72 90z" />
<glyph unicode="T" horiz-adv-x="542" d="M8 662q0 28 12 48.5t35 20.5h432q23 0 35 -20.5t12 -48.5q0 -30 -12.5 -50.5t-34.5 -20.5h-138v-543q0 -23 -23 -35.5t-55 -12.5t-55 12.5t-23 35.5v543h-138q-22 0 -34.5 20.5t-12.5 50.5z" />
<glyph unicode="U" horiz-adv-x="606" d="M51 230v454q0 23 22.5 35t55.5 12q32 0 55 -12t23 -35v-454q0 -100 96 -100t96 100v454q0 23 22.5 35t55.5 12q32 0 55 -12t23 -35v-454q0 -122 -69 -179t-183 -57q-115 0 -183.5 57t-68.5 179z" />
<glyph unicode="V" horiz-adv-x="589" d="M4 667q0 26 32.5 45t67.5 19q43 0 51 -29l140 -513l139 513q8 29 51 29q35 0 67.5 -19t32.5 -45q0 -3 -2 -11l-186 -610q-8 -25 -36.5 -38.5t-65.5 -13.5t-65.5 13.5t-36.5 38.5l-187 610q-2 8 -2 11z" />
<glyph unicode="W" horiz-adv-x="920" d="M3 669q0 24 32.5 43t68.5 19q42 0 50 -29l152 -513l79 338q4 19 26 30t49 11t49 -11t26 -30l79 -338l152 513q8 29 50 29q36 0 68.5 -19t32.5 -43q0 -7 -2 -13l-199 -610q-9 -25 -37.5 -38.5t-65.5 -13.5t-66 13.5t-35 38.5l-52 237l-52 -237q-6 -25 -35 -38.5t-66 -13.5 t-66 13.5t-37 38.5l-199 610q-2 6 -2 13z" />
<glyph unicode="X" horiz-adv-x="590" d="M8 71q0 13 9 28l173 267l-166 266q-10 16 -10 31q0 30 33 52t68 22q33 0 47 -26l133 -232l133 232q14 26 47 26q35 0 68 -22t33 -52q0 -15 -10 -31l-166 -266l173 -267q9 -15 9 -28q0 -30 -34.5 -53.5t-69.5 -23.5q-28 0 -37 16l-146 248l-146 -248q-10 -16 -37 -16 q-35 0 -69.5 23.5t-34.5 53.5z" />
<glyph unicode="Y" horiz-adv-x="590" d="M4 667q0 26 35.5 45t70.5 19q18 0 27 -6.5t18 -22.5l140 -257l139 257q15 29 45 29q35 0 70.5 -19t35.5 -45q0 -7 -2 -11l-206 -343q-4 -6 -4 -14v-251q0 -23 -23 -35.5t-55 -12.5t-55 12.5t-23 35.5v251q0 8 -4 14l-207 343q-2 4 -2 11z" />
<glyph unicode="Z" horiz-adv-x="536" d="M9 41q0 26 17 55l282 499h-232q-22 0 -34.5 20t-12.5 48t12 48t35 20h386q45 0 45 -41q0 -24 -17 -55l-282 -499h272q21 0 34 -21t13 -47t-13 -47t-34 -21h-426q-45 0 -45 41z" />
<glyph unicode="[" horiz-adv-x="355" d="M50 27v693q0 23 20 35.5t48 12.5h176q23 0 35 -20t12 -47q0 -29 -12.5 -49t-34.5 -20h-88v-517h88q22 0 34.5 -20t12.5 -49q0 -27 -12 -47t-35 -20h-176q-28 0 -48 12.5t-20 35.5z" />
<glyph unicode="\" horiz-adv-x="382" d="M18 704q0 20 17 35.5t41 15.5q34 0 45 -30l240 -658q2 -5 2 -14q0 -21 -17 -37.5t-39 -16.5q-34 0 -46 32l-240 658q-3 7 -3 15z" />
<glyph unicode="]" horiz-adv-x="355" d="M14 46q0 29 12.5 49t34.5 20h88v517h-88q-22 0 -34.5 20t-12.5 49q0 27 12 47t35 20h176q28 0 48 -12.5t20 -35.5v-693q0 -23 -20 -35.5t-48 -12.5h-176q-23 0 -35 20t-12 47z" />
<glyph unicode="^" horiz-adv-x="292" d="M0 615q0 30 25 44l104 56q10 5 17 5t17 -5l104 -56q25 -14 25 -44q0 -18 -9 -32t-22 -14q-5 0 -11 3l-104 56l-104 -56q-6 -3 -11 -3q-13 0 -22 14t-9 32z" />
<glyph unicode="_" horiz-adv-x="306" d="M-54 -64q0 27 13 45.5t34 18.5h320q19 0 33.5 -19t14.5 -45q0 -27 -14.5 -45t-33.5 -18h-320q-21 0 -34 17.5t-13 45.5z" />
<glyph unicode="`" horiz-adv-x="221" d="M0 662q0 21 14 39.5t33 18.5q7 0 14 -3l140 -65q20 -10 20 -35q0 -21 -13.5 -39.5t-32.5 -18.5q-5 0 -15 4l-140 65q-20 10 -20 34z" />
<glyph unicode="a" horiz-adv-x="484" d="M18 123q0 83 60.5 117t173.5 34h36v10q0 30 -18 52t-57 22q-48 0 -79 -16.5t-38 -16.5q-24 0 -38 23.5t-14 53.5q0 33 55.5 56.5t115.5 23.5q115 0 171.5 -56t56.5 -140v-238q0 -20 -21.5 -34t-54.5 -14q-29 0 -49 14t-20 34v22q-69 -80 -152 -80q-55 0 -91.5 34 t-36.5 99zM174 145q0 -42 39 -42q25 0 50 28t25 64v4h-4q-33 0 -54.5 -3t-38.5 -15.5t-17 -35.5z" />
<glyph unicode="b" horiz-adv-x="533" d="M46 48v653q0 21 21.5 34t54.5 13q34 0 56.5 -13t22.5 -34v-295q17 32 50.5 54t76.5 22q73 0 125 -62t52 -148v-70q0 -84 -52.5 -148t-121.5 -64q-46 0 -85 23.5t-55 56.5v-22q0 -18 -20.5 -33t-48.5 -15q-32 0 -54 14.5t-22 33.5zM201 189q0 -16 24 -40t53 -24t50.5 23.5 t21.5 53.5v70q0 29 -21.5 52t-51.5 23q-29 0 -52.5 -21t-23.5 -54v-83z" />
<glyph unicode="c" horiz-adv-x="442" d="M28 202v68q0 95 56.5 153.5t168.5 58.5q72 0 120.5 -24.5t48.5 -58.5q0 -25 -17.5 -50.5t-42.5 -25.5q-8 0 -36.5 12t-59.5 12q-83 0 -83 -77v-68q0 -77 84 -77q30 0 57.5 13.5t37.5 13.5q29 0 47.5 -24t18.5 -50q0 -35 -51 -61.5t-122 -26.5q-114 0 -170.5 58t-56.5 154 z" />
<glyph unicode="d" horiz-adv-x="533" d="M28 202v70q0 86 52 148t125 62q43 0 76.5 -22t50.5 -54v295q0 21 22.5 34t56.5 13q33 0 54.5 -13t21.5 -34v-653q0 -19 -22 -33.5t-54 -14.5q-28 0 -48.5 15t-20.5 33v22q-16 -33 -55 -56.5t-85 -23.5q-69 0 -121.5 64t-52.5 148zM183 202q0 -30 21.5 -53.5t50.5 -23.5 t53 24t24 40v83q0 33 -23.5 54t-52.5 21q-30 0 -51.5 -23t-21.5 -52v-70z" />
<glyph unicode="e" d="M27 202v73q0 85 67.5 146t162.5 61q89 0 152 -53.5t63 -136.5q0 -32 -8 -52t-24 -28t-29.5 -10.5t-35.5 -2.5h-193v-6q0 -37 28 -59.5t74 -22.5q35 0 73.5 18.5t51.5 18.5q25 0 41 -23.5t16 -44.5q0 -31 -53.5 -60.5t-132.5 -29.5q-112 0 -182.5 58.5t-70.5 153.5z M182 286h124q21 0 21 24q0 28 -21.5 44t-51.5 16q-29 0 -50.5 -16t-21.5 -44v-24z" />
<glyph unicode="f" horiz-adv-x="354" d="M46 47v500q0 86 51.5 143.5t124.5 57.5h72q28 0 43 -19.5t15 -45.5q0 -27 -15 -46t-43 -19h-38q-55 0 -55 -54v-88h113q18 0 28 -16.5t10 -38.5q0 -23 -10 -39t-28 -16h-113v-319q0 -20 -23.5 -33.5t-55.5 -13.5q-33 0 -54.5 13t-21.5 34z" />
<glyph unicode="g" horiz-adv-x="478" d="M12 -72q0 66 67 104q-36 21 -36 62q0 44 51 81q-65 48 -65 127v15q0 73 56.5 119t148.5 46q63 0 113 -24q17 41 30 55.5t27 14.5q26 0 42.5 -15.5t16.5 -30.5q0 -16 -16 -30l-20 -16q-15 -12 -23 -20q38 -41 38 -99v-15q0 -72 -58.5 -119.5t-149.5 -47.5q-33 0 -60 6 q-4 -7 -4 -13q0 -14 30.5 -21t74 -13t87 -17.5t74 -44.5t30.5 -86q0 -82 -66 -122.5t-160 -40.5t-161 39t-67 106zM158 -56q0 -29 23.5 -46t55.5 -17t55.5 17t23.5 44q0 17 -9 28t-27.5 17.5t-36 10t-45.5 6.5q-40 -21 -40 -60zM179 303q0 -34 15 -56t42 -22q26 0 41 21.5 t15 55.5v15q0 32 -15 53.5t-42 21.5q-26 0 -41 -21.5t-15 -53.5v-14z" />
<glyph unicode="h" horiz-adv-x="535" d="M46 48v653q0 21 21.5 34t55.5 13q32 0 55 -13t23 -34v-295q15 32 47.5 54t76.5 22q69 0 119.5 -62t50.5 -148v-224q0 -23 -23 -35.5t-55 -12.5q-30 0 -53.5 13t-23.5 35v224q0 29 -21.5 52t-50.5 23q-26 0 -46.5 -20.5t-20.5 -54.5v-224q0 -18 -23.5 -33t-54.5 -15 q-33 0 -55 14.5t-22 33.5z" />
<glyph unicode="i" horiz-adv-x="244" d="M40 640q0 29 24 50t58 21q33 0 57 -21t24 -50t-24 -50.5t-57 -21.5q-34 0 -58 21.5t-24 50.5zM45 48v381q0 21 21.5 34t55.5 13q33 0 55.5 -13t22.5 -34v-381q0 -18 -23 -33t-55 -15q-33 0 -55 14.5t-22 33.5z" />
<glyph unicode="j" horiz-adv-x="245" d="M-40 -154q0 30 16.5 48.5t41.5 18.5q17 0 22 14.5t5 44.5v457q0 21 21.5 34t54.5 13q34 0 56.5 -13t22.5 -34v-457q0 -85 -42 -137t-117 -52q-81 0 -81 63zM40 640q0 29 24 50t58 21q33 0 57 -21t24 -50t-24 -50.5t-57 -21.5q-34 0 -58 21.5t-24 50.5z" />
<glyph unicode="k" horiz-adv-x="509" d="M46 48v653q0 21 21.5 34t54.5 13q34 0 56.5 -13t22.5 -34v-392l166 161q12 12 30 12q25 0 50 -24.5t25 -49.5q0 -15 -12 -27l-106 -98l137 -192q8 -13 8 -24q0 -26 -30 -51.5t-59 -25.5q-24 0 -37 19l-121 179l-51 -47v-93q0 -18 -23.5 -33t-55.5 -15t-54 14.5t-22 33.5z " />
<glyph unicode="l" horiz-adv-x="263" d="M54 48v653q0 21 21.5 34t55.5 13q33 0 55.5 -13t22.5 -34v-653q0 -18 -23 -33t-55 -15q-33 0 -55 14.5t-22 33.5z" />
<glyph unicode="m" horiz-adv-x="813" d="M45 48v381q0 21 21.5 34t55.5 13q28 0 48 -13t20 -34v-23q43 76 132 76q40 0 71.5 -27.5t46.5 -72.5q25 49 65 74.5t85 25.5q75 0 128.5 -57t53.5 -153v-224q0 -18 -23 -33t-55 -15q-30 0 -53.5 15t-23.5 33v224q0 36 -20 56t-47 20q-26 0 -45 -20t-19 -56v-225 q0 -23 -23 -35t-55 -12q-30 0 -53.5 12t-23.5 35v224q0 35 -20.5 55.5t-47.5 20.5q-26 0 -44.5 -19.5t-18.5 -55.5v-224q0 -18 -23.5 -33t-54.5 -15q-33 0 -55 14.5t-22 33.5z" />
<glyph unicode="n" horiz-adv-x="534" d="M45 48v381q0 21 21.5 34t55.5 13q28 0 48 -13t20 -34v-23q16 32 51.5 54t82.5 22q69 0 119.5 -62t50.5 -148v-224q0 -23 -23 -35.5t-55 -12.5q-30 0 -53.5 13t-23.5 35v224q0 29 -21.5 52t-50.5 23q-26 0 -46.5 -20.5t-20.5 -54.5v-224q0 -18 -23.5 -33t-54.5 -15 q-33 0 -55 14.5t-22 33.5z" />
<glyph unicode="o" horiz-adv-x="509" d="M27 202v70q0 85 67 147.5t160 62.5q92 0 160 -62t68 -148v-70q0 -84 -68.5 -148t-159.5 -64t-159 64t-68 148zM182 202q0 -30 21 -53.5t51 -23.5t51.5 23.5t21.5 53.5v70q0 29 -22 52t-51 23t-50.5 -23t-21.5 -52v-70z" />
<glyph unicode="p" horiz-adv-x="533" d="M46 -169v598q0 21 21.5 34t52.5 13t51 -13t20 -34v-23q19 32 55 54t80 22q75 0 127 -61.5t52 -148.5v-70q0 -84 -52.5 -148t-121.5 -64q-42 0 -78.5 23.5t-51.5 56.5v-239q0 -18 -23.5 -33t-55.5 -15t-54 14.5t-22 33.5zM201 189q0 -16 22.5 -40t52.5 -24q29 0 51.5 23.5 t22.5 53.5v70q0 29 -22.5 52t-53.5 23q-29 0 -51 -20.5t-22 -54.5v-83z" />
<glyph unicode="q" horiz-adv-x="533" d="M28 202v70q0 87 52 148.5t127 61.5q44 0 80 -22t55 -54v23q0 21 20 34t51 13t52.5 -13t21.5 -34v-598q0 -19 -22 -33.5t-54 -14.5t-55.5 15t-23.5 33v239q-15 -33 -51.5 -56.5t-78.5 -23.5q-69 0 -121.5 64t-52.5 148zM183 202q0 -30 22.5 -53.5t51.5 -23.5q30 0 52.5 24 t22.5 40v83q0 34 -22 54.5t-51 20.5q-31 0 -53.5 -23t-22.5 -52v-70z" />
<glyph unicode="r" horiz-adv-x="394" d="M45 48v381q0 21 21.5 34t54.5 13q29 0 49 -13t20 -34v-37q16 36 49.5 63t69.5 27h29q22 0 38.5 -20t16.5 -47q0 -28 -16.5 -48t-38.5 -20h-29q-43 0 -76 -41.5t-33 -107.5v-150q0 -18 -23.5 -33t-55.5 -15t-54 14.5t-22 33.5z" />
<glyph unicode="s" horiz-adv-x="429" d="M21 82q0 21 15 44.5t36 23.5q12 0 29.5 -11t44 -22.5t61.5 -11.5q62 0 62 33q0 18 -24 29.5t-58.5 19.5t-69 21t-58.5 43t-24 77q0 64 45 109t143 45q67 0 118.5 -20.5t51.5 -51.5q0 -20 -16 -46.5t-40 -26.5q-10 0 -46 15t-66 15q-28 0 -42.5 -9.5t-14.5 -22.5 q0 -15 24.5 -24t59 -17.5t69 -22t59 -46t24.5 -81.5q0 -72 -50.5 -113t-142.5 -41q-78 0 -134 27.5t-56 64.5z" />
<glyph unicode="t" horiz-adv-x="364" d="M43 169v467q0 20 24 33.5t53 13.5q31 0 54.5 -13.5t23.5 -33.5v-160h113q18 0 28 -16.5t10 -38.5q0 -23 -10 -39t-28 -16h-113v-197q0 -22 9 -30.5t32 -8.5h43q32 0 49 -19.5t17 -45.5q0 -27 -17 -46t-49 -19h-43q-196 0 -196 169z" />
<glyph unicode="u" horiz-adv-x="535" d="M40 200v228q0 18 23 33t55 15q30 0 53.5 -15t23.5 -33v-228q0 -29 22 -52t51 -23t50.5 23t21.5 52v229q0 19 23.5 33t54.5 14q33 0 55 -14t22 -33v-229q0 -84 -67.5 -147t-159.5 -63q-93 0 -160.5 63t-67.5 147z" />
<glyph unicode="v" horiz-adv-x="503" d="M1 418q0 25 36 45t69 20t43 -25l103 -261l103 261q10 25 42 25q28 0 66.5 -20.5t38.5 -45.5q0 -9 -4 -18l-176 -385q-12 -27 -70 -27t-70 27l-176 385q-5 8 -5 19z" />
<glyph unicode="w" horiz-adv-x="702" d="M2 420q0 25 34.5 43.5t67.5 18.5q35 0 43 -24l89 -254l64 215q9 30 51 30t51 -30l64 -215l89 254q8 24 42 24q33 0 67.5 -19t34.5 -45q0 -11 -4 -19l-154 -385q-11 -27 -60 -27q-54 0 -64 27l-66 174l-66 -174q-10 -27 -65 -27q-48 0 -59 27l-154 385q-5 13 -5 21z" />
<glyph unicode="x" horiz-adv-x="493" d="M18 67q0 13 9 26l113 150l-102 136q-10 13 -10 25q0 25 37 51.5t68 26.5q23 0 33 -16l80 -131l81 130q10 17 35 17q29 0 66 -26.5t37 -51.5q0 -11 -10 -25l-103 -137l114 -149q9 -11 9 -26q0 -24 -35.5 -50.5t-66.5 -26.5q-24 0 -35 16l-92 138l-91 -138q-12 -16 -37 -16 q-26 0 -63 26t-37 51z" />
<glyph unicode="y" d="M1 -151q0 64 38 64q142 0 142 128l-175 348q-5 10 -5 20q0 28 36 51t69 23t43 -25l113 -271l83 271q10 25 40 25q31 0 69 -23.5t38 -53.5q0 -10 -4 -17l-142 -354q-5 -14 -18 -47l-18 -46q-5 -15 -18.5 -41.5t-25 -39.5t-31.5 -31t-42 -26t-53 -14.5t-68 -6.5 q-35 0 -53 13t-18 53z" />
<glyph unicode="z" horiz-adv-x="448" d="M18 54q0 29 27 64l177 233h-153q-18 0 -31 18.5t-13 44.5t12 44t32 18h299q20 0 34 -13t14 -38q0 -34 -25 -67l-178 -233h177q18 0 31 -18.5t13 -44.5t-12 -44t-32 -18h-321q-26 0 -38.5 16t-12.5 38z" />
<glyph unicode="{" horiz-adv-x="380" d="M17 387q0 24 9.5 36.5t20.5 15.5t20.5 10t9.5 20q0 9 -7.5 57.5t-7.5 66.5q0 67 69 121t150 54q47 0 67 -19.5t20 -48.5q0 -24 -12.5 -43.5t-34.5 -19.5q-34 0 -68.5 -15t-34.5 -50q0 -12 7.5 -61.5t7.5 -61.5q0 -21 -13 -41.5t-23 -23.5q12 -3 24 -22.5t12 -41.5 q0 -13 -7.5 -80t-7.5 -76q0 -28 33.5 -40.5t69.5 -12.5q25 0 36 -20.5t11 -44.5q0 -66 -89 -66q-83 0 -150 47.5t-67 116.5q0 19 7.5 83.5t7.5 73.5q0 14 -9.5 21.5t-20.5 10.5t-20.5 16.5t-9.5 37.5z" />
<glyph unicode="|" horiz-adv-x="255" d="M50 27v694q0 21 21.5 34t55.5 13q33 0 55.5 -13t22.5 -34v-694q0 -18 -23 -33t-55 -15q-33 0 -55 14.5t-22 33.5z" />
<glyph unicode="}" horiz-adv-x="380" d="M12 46q0 24 11 44.5t36 20.5q36 0 69.5 12.5t33.5 40.5q0 9 -7.5 76t-7.5 80q0 22 12 41.5t24 22.5q-10 3 -23 23.5t-13 41.5q0 12 7.5 61.5t7.5 61.5q0 35 -34.5 50t-68.5 15q-22 0 -34.5 19.5t-12.5 43.5q0 29 20 48.5t67 19.5q81 0 150 -54t69 -121q0 -18 -7.5 -66.5 t-7.5 -57.5q0 -13 9.5 -20t20.5 -10t20.5 -15.5t9.5 -36.5t-9.5 -37.5t-20.5 -16.5t-20.5 -10.5t-9.5 -21.5q0 -9 7.5 -73.5t7.5 -83.5q0 -69 -67 -116.5t-150 -47.5q-89 0 -89 66z" />
<glyph unicode="~" horiz-adv-x="411" d="M28 247q0 73 85 73q31 0 75 -13.5t71 -13.5q23 0 50 10.5t36 10.5q20 0 29 -17.5t9 -31.5q0 -73 -85 -73q-38 0 -81.5 13.5t-64.5 13.5q-23 0 -50 -10.5t-36 -10.5q-20 0 -29 17.5t-9 31.5z" />
<glyph unicode="&#xa1;" horiz-adv-x="229" d="M37 654q0 31 22.5 54t53.5 23q32 0 54.5 -23t22.5 -54q0 -32 -22 -54.5t-55 -22.5q-31 0 -53.5 23t-22.5 54zM42 55q0 59 7 204t7 205q0 21 18.5 32.5t39.5 11.5q59 0 59 -44q0 -60 7 -205t7 -204q0 -28 -20.5 -44.5t-52.5 -16.5q-31 0 -51.5 16.5t-20.5 44.5z" />
<glyph unicode="&#xa2;" horiz-adv-x="448" d="M23 362v18q0 88 48.5 145t145.5 66v64q0 18 12.5 29t30.5 11t31 -11.5t13 -28.5v-68q51 -8 82 -30t31 -48q0 -24 -17.5 -47.5t-42.5 -23.5q-7 0 -15 3.5t-18.5 9.5t-19.5 9v-177q8 4 18.5 10.5t18.5 10.5t16 4q29 0 47.5 -22.5t18.5 -47.5q0 -27 -33.5 -50.5t-85.5 -33.5 v-73q0 -16 -13.5 -29t-30.5 -13q-18 0 -30.5 13t-12.5 29v70q-98 9 -146 65.5t-48 145.5zM158 362q0 -67 59 -82v182q-59 -15 -59 -82v-18z" />
<glyph unicode="&#xa3;" horiz-adv-x="565" d="M20 68q0 28 12 48t33 20h50l32 230h-47q-18 0 -28 16t-10 39q0 22 10 38.5t28 16.5h63l10 69q14 97 92 160t177 63h42q23 0 36.5 -20t13.5 -47t-13.5 -47.5t-36.5 -20.5h-47q-97 0 -109 -88l-10 -69h107q18 0 28 -16.5t10 -38.5q0 -23 -10 -39t-28 -16h-123l-33 -230h220 q21 0 33 -20t12 -48t-12 -48t-33 -20h-424q-21 0 -33 20t-12 48z" />
<glyph unicode="&#xa4;" horiz-adv-x="440" d="M42 335q0 7 6 13l26 24q-31 45 -31 100t31 100l-26 24q-6 6 -6 13q0 11 9.5 21t21.5 10q8 0 14 -5l24 -22q49 39 109 39q59 0 109 -39l24 22q6 5 14 5q12 0 21.5 -10t9.5 -21q0 -7 -6 -13l-26 -24q32 -45 32 -99q0 -55 -32 -101l26 -24q6 -6 6 -13q0 -11 -9.5 -21 t-21.5 -10q-8 0 -14 5l-24 22q-49 -41 -109 -41q-59 0 -109 40l-24 -21q-6 -5 -14 -5q-12 0 -21.5 10t-9.5 21zM123 472q0 -40 28.5 -70.5t68.5 -30.5t69 30.5t29 69.5t-29 69.5t-69 30.5t-68.5 -30t-28.5 -69z" />
<glyph unicode="&#xa5;" horiz-adv-x="587" d="M20 674q0 23 31.5 43.5t62.5 20.5q15 0 23.5 -8.5t18.5 -27.5l138 -251l137 251q10 19 18.5 27.5t23.5 8.5q30 0 62 -21t32 -42q0 -11 -5 -19l-156 -239h49q18 0 33 -16t15 -38q0 -23 -14.5 -38t-33.5 -15h-83v-60h83q18 0 33 -16t15 -38t-14.5 -37.5t-33.5 -15.5h-83 v-95q0 -23 -23 -35.5t-55 -12.5t-55 12.5t-23 35.5v95h-81q-21 0 -34 14.5t-13 37.5q0 24 13 39.5t34 15.5h81v60h-81q-21 0 -34 14.5t-13 37.5q0 24 13 39.5t34 15.5h46l-156 239q-5 6 -5 18z" />
<glyph unicode="&#xa6;" horiz-adv-x="255" d="M50 27v241q0 21 21.5 34t55.5 13q33 0 55.5 -13t22.5 -34v-241q0 -18 -23 -33t-55 -15q-33 0 -55 14.5t-22 33.5zM50 480v241q0 21 21.5 34t55.5 13q33 0 55.5 -13t22.5 -34v-241q0 -18 -23 -33t-55 -15q-33 0 -55 14.5t-22 33.5z" />
<glyph unicode="&#xa7;" horiz-adv-x="485" d="M38 99q0 34 16 47t49 13q66 0 66 -41q0 -60 60 -60q34 0 50 15t16 37q0 28 -26.5 47.5t-64.5 36.5t-75.5 40t-64 69.5t-26.5 113.5v100q0 62 19 106t51 66.5t65 32t69 9.5q90 0 139.5 -51.5t49.5 -117.5q0 -34 -14 -46.5t-43 -12.5q-65 0 -65 47q0 57 -62 57 q-34 0 -50.5 -16.5t-16.5 -38.5q0 -28 28 -47.5t68 -36.5t79.5 -40t67.5 -69.5t28 -113.5v-100q0 -62 -20 -106t-53.5 -66.5t-68 -32t-72.5 -9.5q-94 0 -146.5 51.5t-52.5 116.5zM165 384q0 -32 19 -55t42 -33l55 -24q31 -13 45 -24v18q0 32 -19 55t-43 33l-54 24 q-31 13 -45 24v-18z" />
<glyph unicode="&#xa8;" horiz-adv-x="273" d="M0 630q0 23 17 40.5t40 17.5t39.5 -17.5t16.5 -40.5q0 -24 -16.5 -41.5t-39.5 -17.5t-40 18t-17 41zM160 630q0 23 17 40.5t40 17.5t39.5 -17.5t16.5 -40.5q0 -24 -16.5 -41.5t-39.5 -17.5t-40 18t-17 41z" />
<glyph unicode="&#xa9;" horiz-adv-x="680" d="M33 358q0 80 28.5 144.5t74.5 103t99.5 59t107.5 20.5t107 -20.5t97.5 -59t72 -102t27.5 -141.5q0 -80 -28.5 -144.5t-74.5 -103t-99.5 -59t-107.5 -20.5t-107 20.5t-97.5 59t-72 102t-27.5 141.5zM103 358q0 -112 63.5 -182.5t170.5 -70.5t173.5 71t66.5 186 q0 112 -64 182.5t-170 70.5q-107 0 -173.5 -71t-66.5 -186zM216 302v130q0 68 34.5 99.5t90.5 31.5q57 0 93.5 -29.5t36.5 -80.5q0 -23 -9.5 -31.5t-30.5 -8.5q-40 0 -41 26q-3 51 -46 51q-47 0 -47 -58v-130q0 -58 47 -58q19 0 30 11t12.5 20t3.5 26q1 25 40 25 q22 0 31.5 -8.5t9.5 -31.5q0 -53 -36.5 -84t-93.5 -31q-56 0 -90.5 31.5t-34.5 99.5z" />
<glyph unicode="&#xaa;" horiz-adv-x="338" d="M21 524q0 56 41.5 79t117.5 23h25v7q0 22 -13 38t-40 16q-32 0 -53.5 -11t-25.5 -11q-15 0 -24.5 15.5t-9.5 34.5q0 22 37 37.5t77 15.5q77 0 114.5 -38.5t37.5 -95.5v-163q0 -13 -14 -22t-35 -9q-19 0 -31.5 9t-12.5 22v17q-35 -40 -73 -50q-13 -4 -32 -4 q-37 1 -61.5 24t-24.5 66zM122 538q0 -31 29 -31q19 0 36.5 19t17.5 44v6h-18q-65 0 -65 -38z" />
<glyph unicode="&#xab;" horiz-adv-x="537" d="M21 276q0 8 3 15t12 21l13 24l67 125q10 19 42 19q37 0 67.5 -26.5t30.5 -51.5q0 -8 -3 -14l-59 -111l59 -111q3 -6 3 -14q0 -25 -30.5 -51.5t-67.5 -26.5q-32 0 -42 19l-67 125q-5 10 -13.5 23t-11.5 20t-3 15zM271 276q0 8 3 15t12 21l13 24l67 125q10 19 42 19 q37 0 67.5 -26.5t30.5 -51.5q0 -8 -3 -14l-59 -111l59 -111q3 -6 3 -14q0 -25 -30.5 -51.5t-67.5 -26.5q-32 0 -42 19l-67 125q-5 10 -13.5 23t-11.5 20t-3 15z" />
<glyph unicode="&#xac;" horiz-adv-x="504" d="M26 240q0 27 13 45.5t34 18.5h341q19 0 33.5 -19t14.5 -45v-129q0 -18 -23 -33t-55 -15q-33 0 -55 14.5t-22 33.5v66h-234q-21 0 -34 17.5t-13 45.5z" />
<glyph unicode="&#xad;" horiz-adv-x="476" d="M31 240q0 27 13 45.5t34 18.5h320q19 0 33.5 -19t14.5 -45q0 -27 -14.5 -45t-33.5 -18h-320q-21 0 -34 17.5t-13 45.5z" />
<glyph unicode="&#xae;" horiz-adv-x="680" d="M33 358q0 80 28.5 144.5t74.5 103t99.5 59t107.5 20.5t107 -20.5t97.5 -59t72 -102t27.5 -141.5q0 -80 -28.5 -144.5t-74.5 -103t-99.5 -59t-107.5 -20.5t-107 20.5t-97.5 59t-72 102t-27.5 141.5zM103 358q0 -112 63.5 -182.5t170.5 -70.5t173.5 71t66.5 186 q0 112 -64 182.5t-170 70.5q-107 0 -173.5 -71t-66.5 -186zM228 208v314q0 10 7 17.5t18 7.5h101q54 0 88 -25.5t34 -82.5q0 -77 -63 -102l59 -108q1 -2 1 -7q0 -15 -13 -28t-28 -13q-14 0 -23 17l-63 126h-42v-116q0 -12 -10.5 -19t-25.5 -7q-16 0 -28 7t-12 19zM304 388 h50q47 0 47 43q0 49 -47 49h-50v-92z" />
<glyph unicode="&#xaf;" horiz-adv-x="295" d="M0 649q0 21 13 35.5t34 14.5h200q19 0 33.5 -14.5t14.5 -35.5t-14.5 -35t-33.5 -14h-200q-21 0 -34 13.5t-13 35.5z" />
<glyph unicode="&#xb0;" horiz-adv-x="389" d="M17 588q0 72 52.5 126t124.5 54t125 -53t53 -126t-53.5 -128t-124.5 -55t-124 55t-53 127zM97 588q0 -40 28.5 -70.5t68.5 -30.5t69 30.5t29 69.5t-29 69.5t-69 30.5t-68.5 -30t-28.5 -69z" />
<glyph unicode="&#xb1;" horiz-adv-x="473" d="M29 85q0 27 13 45.5t34 18.5h320q19 0 33.5 -19t14.5 -45q0 -27 -14.5 -45t-33.5 -18h-320q-21 0 -34 17.5t-13 45.5zM29 375q0 27 13 45.5t34 18.5h97v86q0 19 19 33.5t45 14.5q27 0 45 -14.5t18 -33.5v-86h96q19 0 33.5 -19t14.5 -45q0 -27 -14.5 -45t-33.5 -18h-96 v-87q0 -21 -17.5 -34t-45.5 -13q-27 0 -45.5 13t-18.5 34v87h-97q-21 0 -34 17.5t-13 45.5z" />
<glyph unicode="&#xb2;" horiz-adv-x="326" d="M19 352v55q0 29 29 59t64.5 51t64.5 46.5t29 46.5q0 12 -10 21.5t-31 9.5q-41 0 -41 -36q0 -14 -14.5 -25t-38.5 -11q-45 0 -45 51t41 81t97 30q57 0 100 -31t43 -87q0 -40 -28.5 -74.5t-63 -54t-63 -39t-28.5 -32.5v-4h152q12 0 21 -13t9 -30t-9 -30.5t-21 -13.5h-213 q-15 0 -29.5 8.5t-14.5 21.5z" />
<glyph unicode="&#xb3;" horiz-adv-x="336" d="M15 428q0 21 10.5 28t37.5 7q30 0 40.5 -7t10.5 -25q0 -12 9 -17.5t17.5 -6.5t23.5 -1q29 0 40 9t11 32v11q0 23 -13.5 30t-40.5 7q-29 0 -29 38t29 39q11 1 15.5 1.5t12.5 4t11.5 12.5t3.5 23q0 33 -41 33q-16 0 -22.5 -1t-12 -5.5t-5.5 -14.5q0 -35 -47 -35 q-34 0 -43 7.5t-9 30.5q0 42 33.5 72.5t105.5 30.5q137 0 137 -102q0 -30 -12 -56t-34 -35q61 -20 61 -80v-11q0 -66 -42.5 -97t-112.5 -31q-72 0 -108.5 33.5t-36.5 75.5z" />
<glyph unicode="&#xb4;" horiz-adv-x="221" d="M0 617q0 25 20 35l140 65q8 3 14 3q19 0 33 -18.5t14 -39.5q0 -24 -20 -34l-140 -65q-10 -4 -15 -4q-19 0 -32.5 18.5t-13.5 39.5z" />
<glyph unicode="&#xb5;" horiz-adv-x="529" d="M51 -169v597q0 18 23 33t55 15q30 0 53.5 -15t23.5 -33v-228q0 -29 22 -52t51 -23t50.5 23t21.5 52v229q0 19 23.5 33t54.5 14q33 0 55 -14t22 -33v-229q0 -84 -67 -147t-160 -63q-48 0 -93 29v-188q0 -18 -17.5 -33t-41.5 -15q-32 0 -54 14.5t-22 33.5z" />
<glyph unicode="&#xb6;" horiz-adv-x="572" d="M22 513v12q0 107 53.5 156.5t142.5 49.5h247q19 0 33.5 -12.5t14.5 -35.5v-636q0 -23 -14 -35t-34 -12t-34 12t-14 35v618h-85v-617q0 -23 -14 -35.5t-34 -12.5t-34 12.5t-14 35.5v258h-18q-89 0 -142.5 50t-53.5 157z" />
<glyph unicode="&#xb7;" horiz-adv-x="213" d="M25 300q0 29 24 50t58 21q33 0 57 -21t24 -50t-24 -50.5t-57 -21.5q-34 0 -58 21.5t-24 50.5z" />
<glyph unicode="&#xb8;" horiz-adv-x="199" d="M0 -188q0 10 7 26t19 16q4 0 22 -7t36 -7q46 0 46 31q0 30 -43 34l-62 6l29 98h64l-19 -56q49 -2 74.5 -24t25.5 -55q0 -34 -26 -63.5t-85 -29.5q-32 0 -60 8.5t-28 22.5z" />
<glyph unicode="&#xb9;" horiz-adv-x="201" d="M1 657q0 23 18 33l84 40q7 3 17 3q17 0 31 -8.5t14 -22.5v-350q0 -14 -15 -22t-35 -8q-21 0 -36 8t-15 22v273l-16 -4q-9 -3 -16 -3q-13 0 -22 12t-9 27z" />
<glyph unicode="&#xba;" horiz-adv-x="349" d="M22 576v50q0 57 44.5 99.5t107.5 42.5q62 0 107.5 -42t45.5 -100v-50q0 -57 -46 -100t-107 -43t-106.5 43t-45.5 100zM122 576q0 -22 15.5 -38.5t36.5 -16.5q22 0 37.5 16.5t15.5 38.5v50q0 21 -16 37.5t-37 16.5t-36.5 -16.5t-15.5 -37.5v-50z" />
<glyph unicode="&#xbb;" horiz-adv-x="537" d="M31 152q0 8 3 14l59 111l-59 111q-3 6 -3 14q0 25 30.5 51.5t67.5 26.5q33 0 42 -19l67 -125l11 -20l9 -15q3 -5 5.5 -12t2.5 -13q0 -8 -3 -15t-11.5 -20t-13.5 -23l-67 -125q-9 -19 -42 -19q-37 0 -67.5 26.5t-30.5 51.5zM281 152q0 8 3 14l59 111l-59 111q-3 6 -3 14 q0 25 30.5 51.5t67.5 26.5q33 0 42 -19l67 -125l11 -20l9 -15q3 -5 5.5 -12t2.5 -13q0 -8 -3 -15t-11.5 -20t-13.5 -23l-67 -125q-9 -19 -42 -19q-37 0 -67.5 26.5t-30.5 51.5z" />
<glyph unicode="&#xbc;" horiz-adv-x="691" d="M23 657q0 23 18 33l84 40q7 3 17 3q17 0 31 -8.5t14 -22.5v-350q0 -14 -15 -22t-35 -8q-21 0 -36 8t-15 22v273l-16 -4q-9 -3 -16 -3q-13 0 -22 12t-9 27zM81 7q0 9 5 19l351 721q12 25 42 25q22 0 40.5 -15t18.5 -38q0 -11 -4 -19l-352 -721q-12 -25 -45 -25 q-24 0 -40 16.5t-16 36.5zM345 118q0 9 5 18l137 248q14 25 42 25q15 0 32.5 -10.5t17.5 -26.5q0 -6 -3 -12l-102 -184h43v21q0 15 14.5 22.5t35.5 7.5q51 0 51 -30v-21h25q14 0 22 -13.5t8 -32.5q0 -17 -9.5 -31.5t-20.5 -14.5h-25v-54q0 -14 -15 -22t-36 -8q-20 0 -35 8 t-15 22v54h-139q-14 0 -23.5 9t-9.5 25z" />
<glyph unicode="&#xbd;" horiz-adv-x="674" d="M21 657q0 23 18 33l84 40q7 3 17 3q17 0 31 -8.5t14 -22.5v-350q0 -14 -15 -22t-35 -8q-21 0 -36 8t-15 22v273l-16 -4q-9 -3 -16 -3q-13 0 -22 12t-9 27zM63 7q0 9 5 19l351 721q12 25 42 25q22 0 40.5 -15t18.5 -38q0 -11 -4 -19l-352 -721q-12 -25 -45 -25 q-24 0 -40 16.5t-16 36.5zM360 30v55q0 29 29 59t64.5 51t64.5 46.5t29 46.5q0 12 -10 21.5t-31 9.5q-41 0 -41 -36q0 -14 -14.5 -25t-38.5 -11q-45 0 -45 51t41 81t97 30q57 0 100 -31t43 -87q0 -40 -28.5 -74.5t-63 -54t-63 -39t-28.5 -32.5v-4h152q12 0 21 -13t9 -30 t-9 -30.5t-21 -13.5h-213q-15 0 -29.5 8.5t-14.5 21.5z" />
<glyph unicode="&#xbe;" horiz-adv-x="826" d="M27 428q0 21 10.5 28t37.5 7q30 0 40.5 -7t10.5 -25q0 -12 9 -17.5t17.5 -6.5t23.5 -1q29 0 40 9t11 32v11q0 23 -13.5 30t-40.5 7q-29 0 -29 38t29 39q11 1 15.5 1.5t12.5 4t11.5 12.5t3.5 23q0 33 -41 33q-16 0 -22.5 -1t-12 -5.5t-5.5 -14.5q0 -35 -47 -35 q-34 0 -43 7.5t-9 30.5q0 42 33.5 72.5t105.5 30.5q137 0 137 -102q0 -30 -12 -56t-34 -35q61 -20 61 -80v-11q0 -66 -42.5 -97t-112.5 -31q-72 0 -108.5 33.5t-36.5 75.5zM210 7q0 9 5 19l351 721q12 25 42 25q22 0 40.5 -15t18.5 -38q0 -11 -4 -19l-352 -721 q-12 -25 -45 -25q-24 0 -40 16.5t-16 36.5zM480 118q0 9 5 18l137 248q14 25 42 25q15 0 32.5 -10.5t17.5 -26.5q0 -6 -3 -12l-102 -184h43v21q0 15 14.5 22.5t35.5 7.5q51 0 51 -30v-21h25q14 0 22 -13.5t8 -32.5q0 -17 -9.5 -31.5t-20.5 -14.5h-25v-54q0 -14 -15 -22 t-36 -8q-20 0 -35 8t-15 22v54h-139q-14 0 -23.5 9t-9.5 25z" />
<glyph unicode="&#xbf;" horiz-adv-x="452" d="M22 159q0 96 112 183q26 21 38.5 41.5t15 36t2.5 47.5q0 41 59 41q31 0 43 -14t12 -53q0 -94 -67 -152q-3 -3 -26 -21t-32 -27t-20 -27.5t-11 -37.5q0 -33 25 -50.5t65 -17.5q34 0 56 12t29 26.5t19 26.5t30 12q23 0 41.5 -15t18.5 -42q0 -48 -52 -91t-145 -43 q-95 0 -154 47t-59 118zM171 654q0 31 22.5 54t54.5 23t54 -23t22 -54q0 -32 -22.5 -54.5t-53.5 -22.5q-32 0 -54.5 22.5t-22.5 54.5z" />
<glyph unicode="&#xc0;" horiz-adv-x="589" d="M4 64q0 3 2 11l186 610q8 25 36.5 38.5t65.5 13.5t65.5 -13.5t36.5 -38.5l187 -610q2 -8 2 -11q0 -26 -32.5 -45t-67.5 -19q-43 0 -51 29l-34 125h-211l-34 -125q-8 -29 -51 -29q-35 0 -67.5 19t-32.5 45zM166 901q0 21 14 39.5t33 18.5q7 0 14 -3l140 -65q20 -10 20 -35 q0 -21 -13.5 -39.5t-32.5 -18.5q-5 0 -15 4l-140 65q-20 10 -20 34zM221 274h146l-73 268z" />
<glyph unicode="&#xc1;" horiz-adv-x="589" d="M4 64q0 3 2 11l186 610q8 25 36.5 38.5t65.5 13.5t65.5 -13.5t36.5 -38.5l187 -610q2 -8 2 -11q0 -26 -32.5 -45t-67.5 -19q-43 0 -51 29l-34 125h-211l-34 -125q-8 -29 -51 -29q-35 0 -67.5 19t-32.5 45zM221 274h146l-73 268zM221 856q0 25 20 35l140 65q7 3 14 3 q19 0 33 -18.5t14 -39.5q0 -24 -20 -34l-140 -65q-10 -4 -15 -4q-19 0 -32.5 18.5t-13.5 39.5z" />
<glyph unicode="&#xc2;" horiz-adv-x="589" d="M4 64q0 3 2 11l186 610q8 25 36.5 38.5t65.5 13.5t65.5 -13.5t36.5 -38.5l187 -610q2 -8 2 -11q0 -26 -32.5 -45t-67.5 -19q-43 0 -51 29l-34 125h-211l-34 -125q-8 -29 -51 -29q-35 0 -67.5 19t-32.5 45zM148 854q0 30 25 44l104 56q10 5 17 5t17 -5l104 -56 q25 -14 25 -44q0 -18 -9 -32t-22 -14q-5 0 -11 3l-104 56l-104 -56q-6 -3 -11 -3q-13 0 -22 14t-9 32zM221 274h146l-73 268z" />
<glyph unicode="&#xc3;" horiz-adv-x="589" d="M4 64q0 3 2 11l186 610q8 25 36.5 38.5t65.5 13.5t65.5 -13.5t36.5 -38.5l187 -610q2 -8 2 -11q0 -26 -32.5 -45t-67.5 -19q-43 0 -51 29l-34 125h-211l-34 -125q-8 -29 -51 -29q-35 0 -67.5 19t-32.5 45zM117 873q0 73 85 73q31 0 75 -13.5t71 -13.5q23 0 50 10.5 t36 10.5q20 0 29 -17.5t9 -31.5q0 -73 -85 -73q-38 0 -81.5 13.5t-64.5 13.5q-23 0 -50 -10.5t-36 -10.5q-20 0 -29 17.5t-9 31.5zM221 274h146l-73 268z" />
<glyph unicode="&#xc4;" horiz-adv-x="589" d="M4 64q0 3 2 11l186 610q8 25 36.5 38.5t65.5 13.5t65.5 -13.5t36.5 -38.5l187 -610q2 -8 2 -11q0 -26 -32.5 -45t-67.5 -19q-43 0 -51 29l-34 125h-211l-34 -125q-8 -29 -51 -29q-35 0 -67.5 19t-32.5 45zM159 869q0 23 17 40.5t40 17.5t39.5 -17.5t16.5 -40.5 q0 -24 -16.5 -41.5t-39.5 -17.5t-40 18t-17 41zM221 274h146l-73 268zM319 869q0 23 17 40.5t40 17.5t39.5 -17.5t16.5 -40.5q0 -24 -16.5 -41.5t-39.5 -17.5t-40 18t-17 41z" />
<glyph unicode="&#xc5;" horiz-adv-x="589" d="M4 64q0 3 2 11l186 610q8 25 36.5 38.5t65.5 13.5t65.5 -13.5t36.5 -38.5l187 -610q2 -8 2 -11q0 -26 -32.5 -45t-67.5 -19q-43 0 -51 29l-34 125h-211l-34 -125q-8 -29 -51 -29q-35 0 -67.5 19t-32.5 45zM194 907q0 40 29 70.5t70 30.5q40 0 70.5 -30.5t30.5 -70.5 q0 -41 -30.5 -72t-70.5 -31t-69.5 31t-29.5 72zM221 274h146l-73 268zM253 906q0 -16 12 -29t29 -13q16 0 27.5 13t11.5 29q0 15 -11.5 27t-27.5 12q-17 0 -29 -12t-12 -27z" />
<glyph unicode="&#xc6;" horiz-adv-x="817" d="M51 53v442q0 122 64.5 179t171.5 57h469q23 0 35 -20t12 -47q0 -29 -12.5 -49t-34.5 -20h-226v-169h108q22 0 34.5 -18t12.5 -43q0 -23 -12 -41t-35 -18h-108v-170h226q22 0 34.5 -20t12.5 -49q0 -27 -12 -47t-35 -20h-314q-28 0 -48 12.5t-20 35.5v258h-177v-253 q0 -26 -15.5 -39.5t-62.5 -13.5q-68 0 -68 53zM197 426h177v169h-87q-90 0 -90 -100v-69z" />
<glyph unicode="&#xc7;" horiz-adv-x="562" d="M46 230v265q0 122 66.5 179t173.5 57q110 0 180.5 -53t70.5 -146q0 -43 -18 -58.5t-60 -15.5q-75 0 -78 47q-3 90 -89 90q-90 0 -90 -100v-265q0 -100 91 -100q28 0 46.5 9t26.5 27.5t10.5 30.5t4.5 33q4 47 77 47q43 0 61 -15.5t18 -58.5q0 -89 -59 -143.5t-156 -63.5 l-14 -43q49 -2 74.5 -24t25.5 -55q0 -34 -26 -63.5t-85 -29.5q-32 0 -60 8.5t-28 22.5q0 10 7 26t19 16q3 0 21 -7t37 -7q46 0 46 31q0 30 -43 34l-62 6l25 84q-96 6 -154.5 63.5t-58.5 171.5z" />
<glyph unicode="&#xc8;" horiz-adv-x="539" d="M54 48v635q0 23 20 35.5t48 12.5h356q23 0 35 -20t12 -47q0 -29 -12.5 -49t-34.5 -20h-268v-169h150q22 0 34.5 -18t12.5 -43q0 -23 -12 -41t-35 -18h-150v-170h268q22 0 34.5 -20t12.5 -49q0 -27 -12 -47t-35 -20h-356q-28 0 -48 12.5t-20 35.5zM173 901q0 21 14 39.5 t33 18.5q6 0 14 -3l140 -65q20 -10 20 -35q0 -21 -13.5 -39.5t-32.5 -18.5q-5 0 -15 4l-140 65q-20 10 -20 34z" />
<glyph unicode="&#xc9;" horiz-adv-x="539" d="M54 48v635q0 23 20 35.5t48 12.5h356q23 0 35 -20t12 -47q0 -29 -12.5 -49t-34.5 -20h-268v-169h150q22 0 34.5 -18t12.5 -43q0 -23 -12 -41t-35 -18h-150v-170h268q22 0 34.5 -20t12.5 -49q0 -27 -12 -47t-35 -20h-356q-28 0 -48 12.5t-20 35.5zM203 856q0 25 20 35 l140 65q7 3 14 3q19 0 33 -18.5t14 -39.5q0 -24 -20 -34l-140 -65q-10 -4 -15 -4q-19 0 -32.5 18.5t-13.5 39.5z" />
<glyph unicode="&#xca;" horiz-adv-x="539" d="M54 48v635q0 23 20 35.5t48 12.5h356q23 0 35 -20t12 -47q0 -29 -12.5 -49t-34.5 -20h-268v-169h150q22 0 34.5 -18t12.5 -43q0 -23 -12 -41t-35 -18h-150v-170h268q22 0 34.5 -20t12.5 -49q0 -27 -12 -47t-35 -20h-356q-28 0 -48 12.5t-20 35.5zM153 854q0 30 25 44 l104 56q10 5 17 5t17 -5l104 -56q25 -14 25 -44q0 -18 -9 -32t-22 -14q-5 0 -11 3l-104 56l-104 -56q-6 -3 -11 -3q-13 0 -22 14t-9 32z" />
<glyph unicode="&#xcb;" horiz-adv-x="539" d="M54 48v635q0 23 20 35.5t48 12.5h356q23 0 35 -20t12 -47q0 -29 -12.5 -49t-34.5 -20h-268v-169h150q22 0 34.5 -18t12.5 -43q0 -23 -12 -41t-35 -18h-150v-170h268q22 0 34.5 -20t12.5 -49q0 -27 -12 -47t-35 -20h-356q-28 0 -48 12.5t-20 35.5zM156 869q0 23 17 40.5 t40 17.5t39.5 -17.5t16.5 -40.5q0 -24 -16.5 -41.5t-39.5 -17.5t-40 18t-17 41zM316 869q0 23 17 40.5t40 17.5t39.5 -17.5t16.5 -40.5q0 -24 -16.5 -41.5t-39.5 -17.5t-40 18t-17 41z" />
<glyph unicode="&#xcc;" horiz-adv-x="264" d="M13 901q0 21 14 39.5t33 18.5q6 0 14 -3l140 -65q20 -10 20 -35q0 -21 -13.5 -39.5t-32.5 -18.5q-5 0 -15 4l-140 65q-20 10 -20 34zM54 48v636q0 23 23 35t55 12t55 -12t23 -35v-636q0 -23 -23 -35.5t-55 -12.5t-55 12.5t-23 35.5z" />
<glyph unicode="&#xcd;" horiz-adv-x="264" d="M31 856q0 25 20 35l140 65q7 3 14 3q19 0 33 -18.5t14 -39.5q0 -24 -20 -34l-140 -65q-10 -4 -15 -4q-19 0 -32.5 18.5t-13.5 39.5zM54 48v636q0 23 23 35t55 12t55 -12t23 -35v-636q0 -23 -23 -35.5t-55 -12.5t-55 12.5t-23 35.5z" />
<glyph unicode="&#xce;" horiz-adv-x="264" d="M-12 854q0 30 25 44l104 56q10 5 17 5t17 -5l104 -56q25 -14 25 -44q0 -18 -9 -32t-22 -14q-5 0 -11 3l-104 56l-104 -56q-6 -3 -11 -3q-13 0 -22 14t-9 32zM54 48v636q0 23 23 35t55 12t55 -12t23 -35v-636q0 -23 -23 -35.5t-55 -12.5t-55 12.5t-23 35.5z" />
<glyph unicode="&#xcf;" horiz-adv-x="264" d="M-3 869q0 23 17 40.5t40 17.5t39.5 -17.5t16.5 -40.5q0 -24 -16.5 -41.5t-39.5 -17.5t-40 18t-17 41zM54 48v636q0 23 23 35t55 12t55 -12t23 -35v-636q0 -23 -23 -35.5t-55 -12.5t-55 12.5t-23 35.5zM157 869q0 23 17 40.5t40 17.5t39.5 -17.5t16.5 -40.5 q0 -24 -16.5 -41.5t-39.5 -17.5t-40 18t-17 41z" />
<glyph unicode="&#xd0;" horiz-adv-x="596" d="M-10 382q0 22 10 38.5t28 16.5h32v247q0 19 19 33t49 14h177q112 0 179 -57t67 -179v-259q0 -122 -67 -179t-179 -57h-177q-30 0 -49 14t-19 33v280h-32q-18 0 -28 16t-10 39zM216 136h89q90 0 90 100v259q0 100 -90 100h-89v-158h62q18 0 28 -16.5t10 -38.5 q0 -23 -10 -39t-28 -16h-62v-191z" />
<glyph unicode="&#xd1;" horiz-adv-x="619" d="M54 48v635q0 23 23 35.5t55 12.5q45 0 66.5 -13t48.5 -65l162 -309v340q0 23 23 35t55 12t55 -12t23 -35v-636q0 -23 -23 -35.5t-55 -12.5q-64 0 -87 42l-190 346v-340q0 -23 -23 -35.5t-55 -12.5t-55 12.5t-23 35.5zM123 873q0 73 85 73q31 0 75 -13.5t71 -13.5 q23 0 50 10.5t36 10.5q20 0 29 -17.5t9 -31.5q0 -73 -85 -73q-38 0 -81.5 13.5t-64.5 13.5q-23 0 -50 -10.5t-36 -10.5q-20 0 -29 17.5t-9 31.5z" />
<glyph unicode="&#xd2;" horiz-adv-x="583" d="M46 230v265q0 122 67 179t178 57q112 0 179 -57t67 -179v-265q0 -122 -67 -179t-179 -57q-111 0 -178 57t-67 179zM165 901q0 21 14 39.5t33 18.5q6 0 14 -3l140 -65q20 -10 20 -35q0 -21 -13.5 -39.5t-32.5 -18.5q-5 0 -15 4l-140 65q-20 10 -20 34zM202 230 q0 -100 89 -100q90 0 90 100v265q0 100 -90 100q-89 0 -89 -100v-265z" />
<glyph unicode="&#xd3;" horiz-adv-x="583" d="M46 230v265q0 122 67 179t178 57q112 0 179 -57t67 -179v-265q0 -122 -67 -179t-179 -57q-111 0 -178 57t-67 179zM202 230q0 -100 89 -100q90 0 90 100v265q0 100 -90 100q-89 0 -89 -100v-265zM225 856q0 25 20 35l140 65q7 3 14 3q19 0 33 -18.5t14 -39.5 q0 -24 -20 -34l-140 -65q-10 -4 -15 -4q-19 0 -32.5 18.5t-13.5 39.5z" />
<glyph unicode="&#xd4;" horiz-adv-x="583" d="M46 230v265q0 122 67 179t178 57q112 0 179 -57t67 -179v-265q0 -122 -67 -179t-179 -57q-111 0 -178 57t-67 179zM145 854q0 30 25 44l104 56q10 5 17 5t17 -5l104 -56q25 -14 25 -44q0 -18 -9 -32t-22 -14q-5 0 -11 3l-104 56l-104 -56q-6 -3 -11 -3q-13 0 -22 14 t-9 32zM202 230q0 -100 89 -100q90 0 90 100v265q0 100 -90 100q-89 0 -89 -100v-265z" />
<glyph unicode="&#xd5;" horiz-adv-x="583" d="M46 230v265q0 122 67 179t178 57q112 0 179 -57t67 -179v-265q0 -122 -67 -179t-179 -57q-111 0 -178 57t-67 179zM114 873q0 73 85 73q31 0 75 -13.5t71 -13.5q23 0 50 10.5t36 10.5q20 0 29 -17.5t9 -31.5q0 -73 -85 -73q-38 0 -81.5 13.5t-64.5 13.5q-23 0 -50 -10.5 t-36 -10.5q-20 0 -29 17.5t-9 31.5zM202 230q0 -100 89 -100q90 0 90 100v265q0 100 -90 100q-89 0 -89 -100v-265z" />
<glyph unicode="&#xd6;" horiz-adv-x="583" d="M46 230v265q0 122 67 179t178 57q112 0 179 -57t67 -179v-265q0 -122 -67 -179t-179 -57q-111 0 -178 57t-67 179zM156 869q0 23 17 40.5t40 17.5t39.5 -17.5t16.5 -40.5q0 -24 -16.5 -41.5t-39.5 -17.5t-40 18t-17 41zM202 230q0 -100 89 -100q90 0 90 100v265 q0 100 -90 100q-89 0 -89 -100v-265zM316 869q0 23 17 40.5t40 17.5t39.5 -17.5t16.5 -40.5q0 -24 -16.5 -41.5t-39.5 -17.5t-40 18t-17 41z" />
<glyph unicode="&#xd7;" horiz-adv-x="410" d="M34 177q0 17 12 29l79 69l-78 67q-11 11 -11 29q0 27 22.5 49.5t48.5 22.5q17 0 30 -11l67 -68l68 68q11 11 29 11q27 0 49.5 -22.5t22.5 -48.5q0 -19 -11 -30l-78 -67l79 -69q12 -12 12 -30q0 -26 -23.5 -49t-49.5 -23q-17 0 -29 12l-69 69l-68 -69q-12 -12 -30 -12 q-24 0 -48 24t-24 49z" />
<glyph unicode="&#xd8;" horiz-adv-x="583" d="M46 230v265q0 122 67 179t178 57q64 0 114 -19l17 35q12 25 42 25q22 0 40.5 -15t18.5 -38q0 -11 -4 -19l-26 -52q44 -58 44 -153v-265q0 -122 -67 -179t-179 -57q-61 0 -109 16l-15 -31q-12 -25 -45 -25q-24 0 -40 16.5t-16 36.5q0 9 5 19l22 45q-47 58 -47 159z M202 295l140 288q-21 12 -51 12q-89 0 -89 -100v-200zM245 139q19 -9 46 -9q90 0 90 100v187z" />
<glyph unicode="&#xd9;" horiz-adv-x="606" d="M51 230v454q0 23 22.5 35t55.5 12q32 0 55 -12t23 -35v-454q0 -100 96 -100t96 100v454q0 23 22.5 35t55.5 12q32 0 55 -12t23 -35v-454q0 -122 -69 -179t-183 -57q-115 0 -183.5 57t-68.5 179zM170 901q0 21 14 39.5t33 18.5q7 0 14 -3l140 -65q20 -10 20 -35 q0 -21 -13.5 -39.5t-32.5 -18.5q-5 0 -15 4l-140 65q-20 10 -20 34z" />
<glyph unicode="&#xda;" horiz-adv-x="606" d="M51 230v454q0 23 22.5 35t55.5 12q32 0 55 -12t23 -35v-454q0 -100 96 -100t96 100v454q0 23 22.5 35t55.5 12q32 0 55 -12t23 -35v-454q0 -122 -69 -179t-183 -57q-115 0 -183.5 57t-68.5 179zM220 856q0 25 20 35l140 65q8 3 14 3q19 0 33 -18.5t14 -39.5 q0 -24 -20 -34l-140 -65q-10 -4 -15 -4q-19 0 -32.5 18.5t-13.5 39.5z" />
<glyph unicode="&#xdb;" horiz-adv-x="606" d="M51 230v454q0 23 22.5 35t55.5 12q32 0 55 -12t23 -35v-454q0 -100 96 -100t96 100v454q0 23 22.5 35t55.5 12q32 0 55 -12t23 -35v-454q0 -122 -69 -179t-183 -57q-115 0 -183.5 57t-68.5 179zM150 854q0 30 25 44l104 56q10 5 17 5t17 -5l104 -56q25 -14 25 -44 q0 -18 -9 -32t-22 -14q-5 0 -11 3l-104 56l-104 -56q-6 -3 -11 -3q-13 0 -22 14t-9 32z" />
<glyph unicode="&#xdc;" horiz-adv-x="606" d="M51 230v454q0 23 22.5 35t55.5 12q32 0 55 -12t23 -35v-454q0 -100 96 -100t96 100v454q0 23 22.5 35t55.5 12q32 0 55 -12t23 -35v-454q0 -122 -69 -179t-183 -57q-115 0 -183.5 57t-68.5 179zM166 869q0 23 17 40.5t40 17.5t39.5 -17.5t16.5 -40.5q0 -24 -16.5 -41.5 t-39.5 -17.5t-40 18t-17 41zM326 869q0 23 17 40.5t40 17.5t39.5 -17.5t16.5 -40.5q0 -24 -16.5 -41.5t-39.5 -17.5t-40 18t-17 41z" />
<glyph unicode="&#xdd;" horiz-adv-x="590" d="M4 667q0 26 35.5 45t70.5 19q18 0 27 -6.5t18 -22.5l140 -257l139 257q15 29 45 29q35 0 70.5 -19t35.5 -45q0 -7 -2 -11l-206 -343q-4 -6 -4 -14v-251q0 -23 -23 -35.5t-55 -12.5t-55 12.5t-23 35.5v251q0 8 -4 14l-207 343q-2 4 -2 11zM205 856q0 25 20 35l140 65 q7 3 14 3q19 0 33 -18.5t14 -39.5q0 -24 -20 -34l-140 -65q-10 -4 -15 -4q-19 0 -32.5 18.5t-13.5 39.5z" />
<glyph unicode="&#xde;" horiz-adv-x="529" d="M54 48v653q0 21 21.5 34t52.5 13q35 0 58 -13t23 -34v-154q17 32 50.5 54t74.5 22q75 0 127 -61.5t52 -148.5v-70q0 -84 -52.5 -148t-121.5 -64q-42 0 -78.5 23.5t-51.5 56.5v-163q0 -18 -23.5 -33t-55.5 -15t-54 14.5t-22 33.5zM209 330q0 -16 22.5 -40t52.5 -24 q29 0 51.5 23.5t22.5 53.5v70q0 29 -22.5 52t-53.5 23q-29 0 -51 -20.5t-22 -54.5v-83z" />
<glyph unicode="&#xdf;" horiz-adv-x="617" d="M-1 421q0 22 10 38.5t28 16.5h49v84q0 91 50 149.5t157 58.5q91 0 149 -47t58 -139q0 -49 -18 -92t-48 -59q60 -11 110 -68t50 -138v-11q0 -108 -68 -171t-167 -63q-19 0 -30 0.5t-25.5 4t-22.5 10.5t-13.5 20t-5.5 32q0 25 9 49t27 24q5 0 25.5 -4.5t36.5 -4.5 q39 0 60.5 23.5t21.5 65.5v11q0 36 -8.5 61t-26.5 40t-32.5 22t-40.5 16q-22 7 -32 19t-10 44q0 30 9 39.5t34 16.5q39 11 39 78q0 86 -69 86q-64 0 -64 -73v-513q0 -20 -23.5 -33.5t-55.5 -13.5q-33 0 -54.5 13t-21.5 34v319h-49q-18 0 -28 16t-10 39z" />
<glyph unicode="&#xe0;" horiz-adv-x="484" d="M18 123q0 83 60.5 117t173.5 34h36v10q0 30 -18 52t-57 22q-48 0 -79 -16.5t-38 -16.5q-24 0 -38 23.5t-14 53.5q0 33 55.5 56.5t115.5 23.5q115 0 171.5 -56t56.5 -140v-238q0 -20 -21.5 -34t-54.5 -14q-29 0 -49 14t-20 34v22q-69 -80 -152 -80q-55 0 -91.5 34 t-36.5 99zM125 662q0 21 14 39.5t33 18.5q6 0 14 -3l140 -65q20 -10 20 -35q0 -21 -13.5 -39.5t-32.5 -18.5q-5 0 -15 4l-140 65q-20 10 -20 34zM174 145q0 -42 39 -42q25 0 50 28t25 64v4h-4q-33 0 -54.5 -3t-38.5 -15.5t-17 -35.5z" />
<glyph unicode="&#xe1;" horiz-adv-x="484" d="M18 123q0 83 60.5 117t173.5 34h36v10q0 30 -18 52t-57 22q-48 0 -79 -16.5t-38 -16.5q-24 0 -38 23.5t-14 53.5q0 33 55.5 56.5t115.5 23.5q115 0 171.5 -56t56.5 -140v-238q0 -20 -21.5 -34t-54.5 -14q-29 0 -49 14t-20 34v22q-69 -80 -152 -80q-55 0 -91.5 34 t-36.5 99zM145 617q0 25 20 35l140 65q7 3 14 3q19 0 33 -18.5t14 -39.5q0 -24 -20 -34l-140 -65q-10 -4 -15 -4q-19 0 -32.5 18.5t-13.5 39.5zM174 145q0 -42 39 -42q25 0 50 28t25 64v4h-4q-33 0 -54.5 -3t-38.5 -15.5t-17 -35.5z" />
<glyph unicode="&#xe2;" horiz-adv-x="484" d="M18 123q0 83 60.5 117t173.5 34h36v10q0 30 -18 52t-57 22q-48 0 -79 -16.5t-38 -16.5q-24 0 -38 23.5t-14 53.5q0 33 55.5 56.5t115.5 23.5q115 0 171.5 -56t56.5 -140v-238q0 -20 -21.5 -34t-54.5 -14q-29 0 -49 14t-20 34v22q-69 -80 -152 -80q-55 0 -91.5 34 t-36.5 99zM80 615q0 30 25 44l104 56q10 5 17 5t17 -5l104 -56q25 -14 25 -44q0 -18 -9 -32t-22 -14q-5 0 -11 3l-104 56l-104 -56q-6 -3 -11 -3q-13 0 -22 14t-9 32zM174 145q0 -42 39 -42q25 0 50 28t25 64v4h-4q-33 0 -54.5 -3t-38.5 -15.5t-17 -35.5z" />
<glyph unicode="&#xe3;" horiz-adv-x="484" d="M18 123q0 83 60.5 117t173.5 34h36v10q0 30 -18 52t-57 22q-48 0 -79 -16.5t-38 -16.5q-24 0 -38 23.5t-14 53.5q0 33 55.5 56.5t115.5 23.5q115 0 171.5 -56t56.5 -140v-238q0 -20 -21.5 -34t-54.5 -14q-29 0 -49 14t-20 34v22q-69 -80 -152 -80q-55 0 -91.5 34 t-36.5 99zM58 634q0 73 85 73q31 0 75 -13.5t71 -13.5q23 0 50 10.5t36 10.5q20 0 29 -17.5t9 -31.5q0 -73 -85 -73q-38 0 -81.5 13.5t-64.5 13.5q-23 0 -50 -10.5t-36 -10.5q-20 0 -29 17.5t-9 31.5zM174 145q0 -42 39 -42q25 0 50 28t25 64v4h-4q-33 0 -54.5 -3 t-38.5 -15.5t-17 -35.5z" />
<glyph unicode="&#xe4;" horiz-adv-x="484" d="M18 123q0 83 60.5 117t173.5 34h36v10q0 30 -18 52t-57 22q-48 0 -79 -16.5t-38 -16.5q-24 0 -38 23.5t-14 53.5q0 33 55.5 56.5t115.5 23.5q115 0 171.5 -56t56.5 -140v-238q0 -20 -21.5 -34t-54.5 -14q-29 0 -49 14t-20 34v22q-69 -80 -152 -80q-55 0 -91.5 34 t-36.5 99zM97 630q0 23 17 40.5t40 17.5t39.5 -17.5t16.5 -40.5q0 -24 -16.5 -41.5t-39.5 -17.5t-40 18t-17 41zM174 145q0 -42 39 -42q25 0 50 28t25 64v4h-4q-33 0 -54.5 -3t-38.5 -15.5t-17 -35.5zM257 630q0 23 17 40.5t40 17.5t39.5 -17.5t16.5 -40.5 q0 -24 -16.5 -41.5t-39.5 -17.5t-40 18t-17 41z" />
<glyph unicode="&#xe5;" horiz-adv-x="484" d="M18 123q0 83 60.5 117t173.5 34h36v10q0 30 -18 52t-57 22q-48 0 -79 -16.5t-38 -16.5q-24 0 -38 23.5t-14 53.5q0 33 55.5 56.5t115.5 23.5q115 0 171.5 -56t56.5 -140v-238q0 -20 -21.5 -34t-54.5 -14q-29 0 -49 14t-20 34v22q-69 -80 -152 -80q-55 0 -91.5 34 t-36.5 99zM137 668q0 40 29 70.5t70 30.5q40 0 70.5 -30.5t30.5 -70.5q0 -41 -30.5 -72t-70.5 -31t-69.5 31t-29.5 72zM174 145q0 -42 39 -42q25 0 50 28t25 64v4h-4q-33 0 -54.5 -3t-38.5 -15.5t-17 -35.5zM196 667q0 -16 12 -29t29 -13q16 0 27.5 13t11.5 29 q0 15 -11.5 27t-27.5 12q-17 0 -29 -12t-12 -27z" />
<glyph unicode="&#xe6;" horiz-adv-x="756" d="M17 123q0 83 60.5 117t173.5 34h36v10q0 30 -18 52t-57 22q-48 0 -79 -16.5t-38 -16.5q-24 0 -38 23.5t-14 53.5q0 33 55.5 56.5t115.5 23.5q101 0 158 -72q64 72 145 72q89 0 152 -53.5t63 -136.5q0 -32 -8 -52t-24 -28t-29.5 -10.5t-35.5 -2.5h-193v-6q0 -37 28 -59.5 t74 -22.5q35 0 73.5 18.5t51.5 18.5q25 0 41 -23.5t16 -44.5q0 -31 -53.5 -60.5t-132.5 -29.5q-119 0 -189 94q-82 -94 -176 -94q-68 0 -113 34t-45 99zM173 145q0 -42 39 -42q25 0 50 28t25 64v4h-4q-33 0 -54.5 -3t-38.5 -15.5t-17 -35.5zM442 286h124q21 0 21 24 q0 28 -21.5 44t-51.5 16q-29 0 -50.5 -16t-21.5 -44v-24z" />
<glyph unicode="&#xe7;" horiz-adv-x="442" d="M28 202v68q0 95 56.5 153.5t168.5 58.5q72 0 120.5 -24.5t48.5 -58.5q0 -25 -17.5 -50.5t-42.5 -25.5q-8 0 -36.5 12t-59.5 12q-83 0 -83 -77v-68q0 -77 84 -77q30 0 57.5 13.5t37.5 13.5q29 0 47.5 -24t18.5 -50q0 -31 -42 -56.5t-104 -30.5l-13 -38q49 -2 74.5 -24 t25.5 -55q0 -34 -26 -63.5t-85 -29.5q-32 0 -60 8.5t-28 22.5q0 10 7 26t19 16q4 0 22 -7t36 -7q46 0 46 31q0 30 -43 34l-62 6l24 81q-96 9 -143.5 65.5t-47.5 144.5z" />
<glyph unicode="&#xe8;" d="M27 202v73q0 85 67.5 146t162.5 61q89 0 152 -53.5t63 -136.5q0 -32 -8 -52t-24 -28t-29.5 -10.5t-35.5 -2.5h-193v-6q0 -37 28 -59.5t74 -22.5q35 0 73.5 18.5t51.5 18.5q25 0 41 -23.5t16 -44.5q0 -31 -53.5 -60.5t-132.5 -29.5q-112 0 -182.5 58.5t-70.5 153.5z M128 662q0 21 14 39.5t33 18.5q7 0 14 -3l140 -65q20 -10 20 -35q0 -21 -13.5 -39.5t-32.5 -18.5q-5 0 -15 4l-140 65q-20 10 -20 34zM182 286h124q21 0 21 24q0 28 -21.5 44t-51.5 16q-29 0 -50.5 -16t-21.5 -44v-24z" />
<glyph unicode="&#xe9;" d="M27 202v73q0 85 67.5 146t162.5 61q89 0 152 -53.5t63 -136.5q0 -32 -8 -52t-24 -28t-29.5 -10.5t-35.5 -2.5h-193v-6q0 -37 28 -59.5t74 -22.5q35 0 73.5 18.5t51.5 18.5q25 0 41 -23.5t16 -44.5q0 -31 -53.5 -60.5t-132.5 -29.5q-112 0 -182.5 58.5t-70.5 153.5z M148 617q0 25 20 35l140 65q8 3 14 3q19 0 33 -18.5t14 -39.5q0 -24 -20 -34l-140 -65q-10 -4 -15 -4q-19 0 -32.5 18.5t-13.5 39.5zM182 286h124q21 0 21 24q0 28 -21.5 44t-51.5 16q-29 0 -50.5 -16t-21.5 -44v-24z" />
<glyph unicode="&#xea;" d="M27 202v73q0 85 67.5 146t162.5 61q89 0 152 -53.5t63 -136.5q0 -32 -8 -52t-24 -28t-29.5 -10.5t-35.5 -2.5h-193v-6q0 -37 28 -59.5t74 -22.5q35 0 73.5 18.5t51.5 18.5q25 0 41 -23.5t16 -44.5q0 -31 -53.5 -60.5t-132.5 -29.5q-112 0 -182.5 58.5t-70.5 153.5z M109 615q0 30 25 44l104 56q10 5 17 5t17 -5l104 -56q25 -14 25 -44q0 -18 -9 -32t-22 -14q-5 0 -11 3l-104 56l-104 -56q-6 -3 -11 -3q-13 0 -22 14t-9 32zM182 286h124q21 0 21 24q0 28 -21.5 44t-51.5 16q-29 0 -50.5 -16t-21.5 -44v-24z" />
<glyph unicode="&#xeb;" d="M27 202v73q0 85 67.5 146t162.5 61q89 0 152 -53.5t63 -136.5q0 -32 -8 -52t-24 -28t-29.5 -10.5t-35.5 -2.5h-193v-6q0 -37 28 -59.5t74 -22.5q35 0 73.5 18.5t51.5 18.5q25 0 41 -23.5t16 -44.5q0 -31 -53.5 -60.5t-132.5 -29.5q-112 0 -182.5 58.5t-70.5 153.5z M117 630q0 23 17 40.5t40 17.5t39.5 -17.5t16.5 -40.5q0 -24 -16.5 -41.5t-39.5 -17.5t-40 18t-17 41zM182 286h124q21 0 21 24q0 28 -21.5 44t-51.5 16q-29 0 -50.5 -16t-21.5 -44v-24zM277 630q0 23 17 40.5t40 17.5t39.5 -17.5t16.5 -40.5q0 -24 -16.5 -41.5t-39.5 -17.5 t-40 18t-17 41z" />
<glyph unicode="&#xec;" horiz-adv-x="244" d="M-7 662q0 21 14 39.5t33 18.5q6 0 14 -3l140 -65q20 -10 20 -35q0 -21 -13.5 -39.5t-32.5 -18.5q-5 0 -15 4l-140 65q-20 10 -20 34zM45 48v381q0 21 21.5 34t55.5 13q33 0 55.5 -13t22.5 -34v-381q0 -18 -23 -33t-55 -15q-33 0 -55 14.5t-22 33.5z" />
<glyph unicode="&#xed;" horiz-adv-x="244" d="M33 617q0 25 20 35l140 65q7 3 14 3q19 0 33 -18.5t14 -39.5q0 -24 -20 -34l-140 -65q-10 -4 -15 -4q-19 0 -32.5 18.5t-13.5 39.5zM45 48v381q0 21 21.5 34t55.5 13q33 0 55.5 -13t22.5 -34v-381q0 -18 -23 -33t-55 -15q-33 0 -55 14.5t-22 33.5z" />
<glyph unicode="&#xee;" horiz-adv-x="244" d="M-23 615q0 30 25 44l104 56q10 5 17 5t17 -5l104 -56q25 -14 25 -44q0 -18 -9 -32t-22 -14q-5 0 -11 3l-104 56l-104 -56q-6 -3 -11 -3q-13 0 -22 14t-9 32zM45 48v381q0 21 21.5 34t55.5 13q33 0 55.5 -13t22.5 -34v-381q0 -18 -23 -33t-55 -15q-33 0 -55 14.5t-22 33.5 z" />
<glyph unicode="&#xef;" horiz-adv-x="244" d="M-10 630q0 23 17 40.5t40 17.5t39.5 -17.5t16.5 -40.5q0 -24 -16.5 -41.5t-39.5 -17.5t-40 18t-17 41zM45 48v381q0 21 21.5 34t55.5 13q33 0 55.5 -13t22.5 -34v-381q0 -18 -23 -33t-55 -15q-33 0 -55 14.5t-22 33.5zM150 630q0 23 17 40.5t40 17.5t39.5 -17.5 t16.5 -40.5q0 -24 -16.5 -41.5t-39.5 -17.5t-40 18t-17 41z" />
<glyph unicode="&#xf0;" horiz-adv-x="525" d="M27 202v70q0 86 52 148t125 62q43 0 76.5 -22t50.5 -54q0 62 -35 129l-41 -25q-5 -4 -14 -4q-19 0 -36 20t-17 41q0 18 16 28l33 20q-1 2 -4.5 4.5t-4.5 3.5l-6 6l-6 6l-6 6q-4 4 -5.5 7.5t-3.5 7.5t-3 9t-1 10q0 26 18.5 50t56.5 24q53 0 98 -53l49 30q7 4 15 4 q19 0 35.5 -19.5t16.5 -40.5q0 -19 -16 -29l-47 -29q63 -131 63 -269v-141q0 -84 -68.5 -148t-160.5 -64t-161 64t-69 148zM182 202q0 -30 22.5 -53.5t52.5 -23.5t52 23.5t22 53.5v70q0 33 -23.5 54t-52.5 21q-30 0 -51.5 -23t-21.5 -52v-70z" />
<glyph unicode="&#xf1;" horiz-adv-x="534" d="M45 48v381q0 21 21.5 34t55.5 13q28 0 48 -13t20 -34v-23q16 32 51.5 54t82.5 22q69 0 119.5 -62t50.5 -148v-224q0 -23 -23 -35.5t-55 -12.5q-30 0 -53.5 13t-23.5 35v224q0 29 -21.5 52t-50.5 23q-26 0 -46.5 -20.5t-20.5 -54.5v-224q0 -18 -23.5 -33t-54.5 -15 q-33 0 -55 14.5t-22 33.5zM89 634q0 73 85 73q31 0 75 -13.5t71 -13.5q23 0 50 10.5t36 10.5q20 0 29 -17.5t9 -31.5q0 -73 -85 -73q-38 0 -81.5 13.5t-64.5 13.5q-23 0 -50 -10.5t-36 -10.5q-20 0 -29 17.5t-9 31.5z" />
<glyph unicode="&#xf2;" horiz-adv-x="509" d="M27 202v70q0 85 67 147.5t160 62.5q92 0 160 -62t68 -148v-70q0 -84 -68.5 -148t-159.5 -64t-159 64t-68 148zM128 662q0 21 14 39.5t33 18.5q7 0 14 -3l140 -65q20 -10 20 -35q0 -21 -13.5 -39.5t-32.5 -18.5q-5 0 -15 4l-140 65q-20 10 -20 34zM182 202q0 -30 21 -53.5 t51 -23.5t51.5 23.5t21.5 53.5v70q0 29 -22 52t-51 23t-50.5 -23t-21.5 -52v-70z" />
<glyph unicode="&#xf3;" horiz-adv-x="509" d="M27 202v70q0 85 67 147.5t160 62.5q92 0 160 -62t68 -148v-70q0 -84 -68.5 -148t-159.5 -64t-159 64t-68 148zM148 617q0 25 20 35l140 65q8 3 14 3q19 0 33 -18.5t14 -39.5q0 -24 -20 -34l-140 -65q-10 -4 -15 -4q-19 0 -32.5 18.5t-13.5 39.5zM182 202q0 -30 21 -53.5 t51 -23.5t51.5 23.5t21.5 53.5v70q0 29 -22 52t-51 23t-50.5 -23t-21.5 -52v-70z" />
<glyph unicode="&#xf4;" horiz-adv-x="509" d="M27 202v70q0 85 67 147.5t160 62.5q92 0 160 -62t68 -148v-70q0 -84 -68.5 -148t-159.5 -64t-159 64t-68 148zM108 615q0 30 25 44l104 56q10 5 17 5t17 -5l104 -56q25 -14 25 -44q0 -18 -9 -32t-22 -14q-5 0 -11 3l-104 56l-104 -56q-6 -3 -11 -3q-13 0 -22 14t-9 32z M182 202q0 -30 21 -53.5t51 -23.5t51.5 23.5t21.5 53.5v70q0 29 -22 52t-51 23t-50.5 -23t-21.5 -52v-70z" />
<glyph unicode="&#xf5;" horiz-adv-x="509" d="M27 202v70q0 85 67 147.5t160 62.5q92 0 160 -62t68 -148v-70q0 -84 -68.5 -148t-159.5 -64t-159 64t-68 148zM78 634q0 73 85 73q31 0 75 -13.5t71 -13.5q23 0 50 10.5t36 10.5q20 0 29 -17.5t9 -31.5q0 -73 -85 -73q-38 0 -81.5 13.5t-64.5 13.5q-23 0 -50 -10.5 t-36 -10.5q-20 0 -29 17.5t-9 31.5zM182 202q0 -30 21 -53.5t51 -23.5t51.5 23.5t21.5 53.5v70q0 29 -22 52t-51 23t-50.5 -23t-21.5 -52v-70z" />
<glyph unicode="&#xf6;" horiz-adv-x="509" d="M27 202v70q0 85 67 147.5t160 62.5q92 0 160 -62t68 -148v-70q0 -84 -68.5 -148t-159.5 -64t-159 64t-68 148zM119 630q0 23 17 40.5t40 17.5t39.5 -17.5t16.5 -40.5q0 -24 -16.5 -41.5t-39.5 -17.5t-40 18t-17 41zM182 202q0 -30 21 -53.5t51 -23.5t51.5 23.5t21.5 53.5 v70q0 29 -22 52t-51 23t-50.5 -23t-21.5 -52v-70zM279 630q0 23 17 40.5t40 17.5t39.5 -17.5t16.5 -40.5q0 -24 -16.5 -41.5t-39.5 -17.5t-40 18t-17 41z" />
<glyph unicode="&#xf7;" horiz-adv-x="455" d="M20 238q0 26 13.5 43t35.5 17h316q19 0 34.5 -17.5t15.5 -42.5q0 -26 -15 -42.5t-35 -16.5h-316q-22 0 -35.5 16t-13.5 43zM157 66q0 27 20 45t47 18q25 0 45.5 -18t20.5 -45q0 -25 -20.5 -44.5t-45.5 -19.5q-26 0 -46.5 19.5t-20.5 44.5zM157 411q0 26 20 45t47 19 q25 0 45.5 -19t20.5 -45t-20.5 -44.5t-45.5 -18.5q-27 0 -47 18.5t-20 44.5z" />
<glyph unicode="&#xf8;" horiz-adv-x="509" d="M27 202v70q0 85 67 147.5t160 62.5q64 0 121 -33l36 48q9 13 22 13t23 -9.5t10 -22.5q0 -10 -8 -21l-35 -46q59 -61 59 -139v-70q0 -84 -68.5 -148t-159.5 -64q-66 0 -126 37l-39 -51q-6 -8 -17 -8q-12 0 -21.5 9t-9.5 21q0 9 7 18l36 48q-57 62 -57 138zM182 194 l108 142q-17 11 -36 11q-29 0 -50.5 -23t-21.5 -52v-78zM214 138q18 -13 40 -13q30 0 51.5 23.5t21.5 53.5v70q0 2 -0.5 6t-0.5 6z" />
<glyph unicode="&#xf9;" horiz-adv-x="535" d="M40 200v228q0 18 23 33t55 15q30 0 53.5 -15t23.5 -33v-228q0 -29 22 -52t51 -23t50.5 23t21.5 52v229q0 19 23.5 33t54.5 14q33 0 55 -14t22 -33v-229q0 -84 -67.5 -147t-159.5 -63q-93 0 -160.5 63t-67.5 147zM141 662q0 21 14 39.5t33 18.5q6 0 14 -3l140 -65 q20 -10 20 -35q0 -21 -13.5 -39.5t-32.5 -18.5q-5 0 -15 4l-140 65q-20 10 -20 34z" />
<glyph unicode="&#xfa;" horiz-adv-x="535" d="M40 200v228q0 18 23 33t55 15q30 0 53.5 -15t23.5 -33v-228q0 -29 22 -52t51 -23t50.5 23t21.5 52v229q0 19 23.5 33t54.5 14q33 0 55 -14t22 -33v-229q0 -84 -67.5 -147t-159.5 -63q-93 0 -160.5 63t-67.5 147zM171 617q0 25 20 35l140 65q7 3 14 3q19 0 33 -18.5 t14 -39.5q0 -24 -20 -34l-140 -65q-10 -4 -15 -4q-19 0 -32.5 18.5t-13.5 39.5z" />
<glyph unicode="&#xfb;" horiz-adv-x="535" d="M40 200v228q0 18 23 33t55 15q30 0 53.5 -15t23.5 -33v-228q0 -29 22 -52t51 -23t50.5 23t21.5 52v229q0 19 23.5 33t54.5 14q33 0 55 -14t22 -33v-229q0 -84 -67.5 -147t-159.5 -63q-93 0 -160.5 63t-67.5 147zM123 615q0 30 25 44l104 56q10 5 17 5t17 -5l104 -56 q25 -14 25 -44q0 -18 -9 -32t-22 -14q-5 0 -11 3l-104 56l-104 -56q-6 -3 -11 -3q-13 0 -22 14t-9 32z" />
<glyph unicode="&#xfc;" horiz-adv-x="535" d="M40 200v228q0 18 23 33t55 15q30 0 53.5 -15t23.5 -33v-228q0 -29 22 -52t51 -23t50.5 23t21.5 52v229q0 19 23.5 33t54.5 14q33 0 55 -14t22 -33v-229q0 -84 -67.5 -147t-159.5 -63q-93 0 -160.5 63t-67.5 147zM132 630q0 23 17 40.5t40 17.5t39.5 -17.5t16.5 -40.5 q0 -24 -16.5 -41.5t-39.5 -17.5t-40 18t-17 41zM292 630q0 23 17 40.5t40 17.5t39.5 -17.5t16.5 -40.5q0 -24 -16.5 -41.5t-39.5 -17.5t-40 18t-17 41z" />
<glyph unicode="&#xfd;" d="M1 -151q0 64 38 64q142 0 142 128l-175 348q-5 10 -5 20q0 28 36 51t69 23t43 -25l113 -271l83 271q10 25 40 25q31 0 69 -23.5t38 -53.5q0 -10 -4 -17l-142 -354q-5 -14 -18 -47l-18 -46q-5 -15 -18.5 -41.5t-25 -39.5t-31.5 -31t-42 -26t-53 -14.5t-68 -6.5 q-35 0 -53 13t-18 53zM187 617q0 25 20 35l140 65q7 3 14 3q19 0 33 -18.5t14 -39.5q0 -24 -20 -34l-140 -65q-10 -4 -15 -4q-19 0 -32.5 18.5t-13.5 39.5z" />
<glyph unicode="&#xfe;" horiz-adv-x="533" d="M46 -169v870q0 21 21.5 34t52.5 13q35 0 58 -13t23 -34v-295q17 32 50.5 54t74.5 22q75 0 127 -61.5t52 -148.5v-70q0 -84 -52.5 -148t-121.5 -64q-42 0 -78.5 23.5t-51.5 56.5v-239q0 -18 -23.5 -33t-55.5 -15t-54 14.5t-22 33.5zM201 189q0 -16 22.5 -40t52.5 -24 q29 0 51.5 23.5t22.5 53.5v70q0 29 -22.5 52t-53.5 23q-29 0 -51 -20.5t-22 -54.5v-83z" />
<glyph unicode="&#xff;" d="M1 -151q0 64 38 64q142 0 142 128l-175 348q-5 10 -5 20q0 28 36 51t69 23t43 -25l113 -271l83 271q10 25 40 25q31 0 69 -23.5t38 -53.5q0 -10 -4 -17l-142 -354q-5 -14 -18 -47l-18 -46q-5 -15 -18.5 -41.5t-25 -39.5t-31.5 -31t-42 -26t-53 -14.5t-68 -6.5 q-35 0 -53 13t-18 53zM124 630q0 23 17 40.5t40 17.5t39.5 -17.5t16.5 -40.5q0 -24 -16.5 -41.5t-39.5 -17.5t-40 18t-17 41zM284 630q0 23 17 40.5t40 17.5t39.5 -17.5t16.5 -40.5q0 -24 -16.5 -41.5t-39.5 -17.5t-40 18t-17 41z" />
<glyph unicode="&#x100;" horiz-adv-x="589" d="M4 64q0 3 2 11l186 610q8 25 36.5 38.5t65.5 13.5t65.5 -13.5t36.5 -38.5l187 -610q2 -8 2 -11q0 -26 -32.5 -45t-67.5 -19q-43 0 -51 29l-34 125h-211l-34 -125q-8 -29 -51 -29q-35 0 -67.5 19t-32.5 45zM147 888q0 21 13 35.5t34 14.5h200q18 0 33 -15t15 -35 q0 -21 -14.5 -35t-33.5 -14h-200q-21 0 -34 13.5t-13 35.5zM221 274h146l-73 268z" />
<glyph unicode="&#x101;" horiz-adv-x="484" d="M18 123q0 83 60.5 117t173.5 34h36v10q0 30 -18 52t-57 22q-48 0 -79 -16.5t-38 -16.5q-24 0 -38 23.5t-14 53.5q0 33 55.5 56.5t115.5 23.5q115 0 171.5 -56t56.5 -140v-238q0 -20 -21.5 -34t-54.5 -14q-29 0 -49 14t-20 34v22q-69 -80 -152 -80q-55 0 -91.5 34 t-36.5 99zM91 649q0 21 13 35.5t34 14.5h200q18 0 33 -14.5t15 -35.5t-14.5 -35t-33.5 -14h-200q-21 0 -34 13.5t-13 35.5zM174 145q0 -42 39 -42q25 0 50 28t25 64v4h-4q-33 0 -54.5 -3t-38.5 -15.5t-17 -35.5z" />
<glyph unicode="&#x102;" horiz-adv-x="589" d="M4 64q0 3 2 11l186 610q8 25 36.5 38.5t65.5 13.5t65.5 -13.5t36.5 -38.5l187 -610q2 -8 2 -11q0 -26 -32.5 -45t-67.5 -19q-43 0 -51 29l-34 125h-211l-34 -125q-8 -29 -51 -29q-35 0 -67.5 19t-32.5 45zM155 963h80q0 -31 18.5 -52t41.5 -21q22 0 40.5 21t18.5 52h80 q0 -55 -42.5 -97t-96.5 -42t-97 42t-43 97zM221 274h146l-73 268z" />
<glyph unicode="&#x103;" horiz-adv-x="484" d="M18 123q0 83 60.5 117t173.5 34h36v10q0 30 -18 52t-57 22q-48 0 -79 -16.5t-38 -16.5q-24 0 -38 23.5t-14 53.5q0 33 55.5 56.5t115.5 23.5q115 0 171.5 -56t56.5 -140v-238q0 -20 -21.5 -34t-54.5 -14q-29 0 -49 14t-20 34v22q-69 -80 -152 -80q-55 0 -91.5 34 t-36.5 99zM94 724h80q0 -31 18.5 -52t41.5 -21q22 0 40.5 21t18.5 52h80q0 -55 -42.5 -97t-96.5 -42t-97 42t-43 97zM174 145q0 -42 39 -42q25 0 50 28t25 64v4h-4q-33 0 -54.5 -3t-38.5 -15.5t-17 -35.5z" />
<glyph unicode="&#x104;" horiz-adv-x="589" d="M4 64q0 3 2 11l186 610q8 25 36.5 38.5t65.5 13.5t65.5 -13.5t36.5 -38.5l187 -610q2 -8 2 -11q0 -36 -58 -57q-33 -19 -54.5 -51.5t-21.5 -62.5q0 -48 58 -48q25 0 25 -34q0 -29 -31 -29q-63 0 -94 27t-31 70q0 33 18.5 68.5t51.5 61.5q-11 6 -14 20l-34 125h-211 l-34 -125q-8 -29 -51 -29q-35 0 -67.5 19t-32.5 45zM221 274h146l-73 268z" />
<glyph unicode="&#x105;" horiz-adv-x="484" d="M18 123q0 83 60.5 117t173.5 34h36v10q0 30 -18 52t-57 22q-48 0 -79 -16.5t-38 -16.5q-24 0 -38 23.5t-14 53.5q0 33 55.5 56.5t115.5 23.5q115 0 171.5 -56t56.5 -140v-238q0 -29 -37 -42q-32 -18 -53 -51t-21 -62q0 -48 58 -48q25 0 25 -34q0 -29 -31 -29 q-63 0 -94 27t-31 70q0 74 69 129q-30 13 -30 40v22q-69 -80 -152 -80q-55 0 -91.5 34t-36.5 99zM174 145q0 -42 39 -42q25 0 50 28t25 64v4h-4q-33 0 -54.5 -3t-38.5 -15.5t-17 -35.5z" />
<glyph unicode="&#x106;" horiz-adv-x="562" d="M46 230v265q0 122 66.5 179t173.5 57q110 0 180.5 -53t70.5 -146q0 -43 -18 -58.5t-60 -15.5q-75 0 -78 47q-3 90 -89 90q-90 0 -90 -100v-265q0 -100 91 -100q28 0 46.5 9t26.5 27.5t10.5 30.5t4.5 33q4 47 77 47q43 0 61 -15.5t18 -58.5q0 -97 -70.5 -153t-180.5 -56 q-107 0 -173.5 57t-66.5 179zM205 856q0 25 20 35l140 65q7 3 14 3q19 0 33 -18.5t14 -39.5q0 -24 -20 -34l-140 -65q-10 -4 -15 -4q-19 0 -32.5 18.5t-13.5 39.5z" />
<glyph unicode="&#x107;" horiz-adv-x="442" d="M28 202v68q0 95 56.5 153.5t168.5 58.5q72 0 120.5 -24.5t48.5 -58.5q0 -25 -17.5 -50.5t-42.5 -25.5q-8 0 -36.5 12t-59.5 12q-83 0 -83 -77v-68q0 -77 84 -77q30 0 57.5 13.5t37.5 13.5q29 0 47.5 -24t18.5 -50q0 -35 -51 -61.5t-122 -26.5q-114 0 -170.5 58t-56.5 154 zM141 617q0 25 20 35l140 65q7 3 14 3q19 0 33 -18.5t14 -39.5q0 -24 -20 -34l-140 -65q-10 -4 -15 -4q-19 0 -32.5 18.5t-13.5 39.5z" />
<glyph unicode="&#x108;" horiz-adv-x="562" d="M46 230v265q0 122 66.5 179t173.5 57q110 0 180.5 -53t70.5 -146q0 -43 -18 -58.5t-60 -15.5q-75 0 -78 47q-3 90 -89 90q-90 0 -90 -100v-265q0 -100 91 -100q28 0 46.5 9t26.5 27.5t10.5 30.5t4.5 33q4 47 77 47q43 0 61 -15.5t18 -58.5q0 -97 -70.5 -153t-180.5 -56 q-107 0 -173.5 57t-66.5 179zM145 854q0 30 25 44l104 56q10 5 17 5t17 -5l104 -56q25 -14 25 -44q0 -18 -9 -32t-22 -14q-5 0 -11 3l-104 56l-104 -56q-6 -3 -11 -3q-13 0 -22 14t-9 32z" />
<glyph unicode="&#x109;" horiz-adv-x="442" d="M28 202v68q0 95 56.5 153.5t168.5 58.5q72 0 120.5 -24.5t48.5 -58.5q0 -25 -17.5 -50.5t-42.5 -25.5q-8 0 -36.5 12t-59.5 12q-83 0 -83 -77v-68q0 -77 84 -77q30 0 57.5 13.5t37.5 13.5q29 0 47.5 -24t18.5 -50q0 -35 -51 -61.5t-122 -26.5q-114 0 -170.5 58t-56.5 154 zM96 615q0 30 25 44l104 56q10 5 17 5t17 -5l104 -56q25 -14 25 -44q0 -18 -9 -32t-22 -14q-5 0 -11 3l-104 56l-104 -56q-6 -3 -11 -3q-13 0 -22 14t-9 32z" />
<glyph unicode="&#x10a;" horiz-adv-x="562" d="M46 230v265q0 122 66.5 179t173.5 57q110 0 180.5 -53t70.5 -146q0 -43 -18 -58.5t-60 -15.5q-75 0 -78 47q-3 90 -89 90q-90 0 -90 -100v-265q0 -100 91 -100q28 0 46.5 9t26.5 27.5t10.5 30.5t4.5 33q4 47 77 47q43 0 61 -15.5t18 -58.5q0 -97 -70.5 -153t-180.5 -56 q-107 0 -173.5 57t-66.5 179zM236 869q0 23 17 40.5t40 17.5t39.5 -17.5t16.5 -40.5q0 -24 -16.5 -41.5t-39.5 -17.5t-40 18t-17 41z" />
<glyph unicode="&#x10b;" horiz-adv-x="442" d="M28 202v68q0 95 56.5 153.5t168.5 58.5q72 0 120.5 -24.5t48.5 -58.5q0 -25 -17.5 -50.5t-42.5 -25.5q-8 0 -36.5 12t-59.5 12q-83 0 -83 -77v-68q0 -77 84 -77q30 0 57.5 13.5t37.5 13.5q29 0 47.5 -24t18.5 -50q0 -35 -51 -61.5t-122 -26.5q-114 0 -170.5 58t-56.5 154 zM181 630q0 23 17 40.5t40 17.5t39.5 -17.5t16.5 -40.5q0 -24 -16.5 -41.5t-39.5 -17.5t-40 18t-17 41z" />
<glyph unicode="&#x10c;" horiz-adv-x="562" d="M46 230v265q0 122 66.5 179t173.5 57q110 0 180.5 -53t70.5 -146q0 -43 -18 -58.5t-60 -15.5q-75 0 -78 47q-3 90 -89 90q-90 0 -90 -100v-265q0 -100 91 -100q28 0 46.5 9t26.5 27.5t10.5 30.5t4.5 33q4 47 77 47q43 0 61 -15.5t18 -58.5q0 -97 -70.5 -153t-180.5 -56 q-107 0 -173.5 57t-66.5 179zM144 925q0 18 9 32t22 14q5 0 11 -3l104 -56l104 56q6 3 11 3q13 0 22 -14t9 -32q0 -30 -25 -44l-104 -56q-10 -5 -17 -5t-17 5l-104 56q-25 14 -25 44z" />
<glyph unicode="&#x10d;" horiz-adv-x="442" d="M28 202v68q0 95 56.5 153.5t168.5 58.5q72 0 120.5 -24.5t48.5 -58.5q0 -25 -17.5 -50.5t-42.5 -25.5q-8 0 -36.5 12t-59.5 12q-83 0 -83 -77v-68q0 -77 84 -77q30 0 57.5 13.5t37.5 13.5q29 0 47.5 -24t18.5 -50q0 -35 -51 -61.5t-122 -26.5q-114 0 -170.5 58t-56.5 154 zM89 686q0 18 9 32t22 14q5 0 11 -3l104 -56l104 56q6 3 11 3q13 0 22 -14t9 -32q0 -30 -25 -44l-104 -56q-10 -5 -17 -5t-17 5l-104 56q-25 14 -25 44z" />
<glyph unicode="&#x10e;" horiz-adv-x="590" d="M54 47v637q0 19 19 33t49 14h177q112 0 179 -57t67 -179v-259q0 -122 -67 -179t-179 -57h-177q-30 0 -49 14t-19 33zM128 925q0 18 9 32t22 14q5 0 11 -3l104 -56l104 56q6 3 11 3q13 0 22 -14t9 -32q0 -30 -25 -44l-104 -56q-10 -5 -17 -5t-17 5l-104 56q-25 14 -25 44z M210 136h89q90 0 90 100v259q0 100 -90 100h-89v-459z" />
<glyph unicode="&#x10f;" horiz-adv-x="533" d="M28 202v70q0 86 52 148t125 62q43 0 76.5 -22t50.5 -54v295q0 21 22.5 34t56.5 13q33 0 54.5 -13t21.5 -34v-653q0 -19 -22 -33.5t-54 -14.5q-28 0 -48.5 15t-20.5 33v22q-16 -33 -55 -56.5t-85 -23.5q-69 0 -121.5 64t-52.5 148zM183 202q0 -30 21.5 -53.5t50.5 -23.5 t53 24t24 40v83q0 33 -23.5 54t-52.5 21q-30 0 -51.5 -23t-21.5 -52v-70zM534 664q0 32 22.5 54.5t53.5 22.5t54 -22.5t23 -53.5q0 -16 -62 -160q-8 -18 -30 -18q-18 0 -34 11t-16 28q0 8 4 16l25 54q-40 23 -40 68z" />
<glyph unicode="&#x110;" horiz-adv-x="596" d="M-10 382q0 22 10 38.5t28 16.5h32v247q0 19 19 33t49 14h177q112 0 179 -57t67 -179v-259q0 -122 -67 -179t-179 -57h-177q-30 0 -49 14t-19 33v280h-32q-18 0 -28 16t-10 39zM216 136h89q90 0 90 100v259q0 100 -90 100h-89v-158h62q18 0 28 -16.5t10 -38.5 q0 -23 -10 -39t-28 -16h-62v-191z" />
<glyph unicode="&#x111;" horiz-adv-x="533" d="M28 202v70q0 86 52 148t125 62q43 0 76.5 -22t50.5 -54v139h-61q-18 0 -28 16t-10 39q0 22 10 38.5t28 16.5h61v46q0 21 22.5 34t56.5 13q33 0 54.5 -13t21.5 -34v-46h22q18 0 28 -16.5t10 -38.5q0 -23 -10 -39t-28 -16h-22v-497q0 -19 -22 -33.5t-54 -14.5 q-28 0 -48.5 15t-20.5 33v22q-16 -33 -55 -56.5t-85 -23.5q-69 0 -121.5 64t-52.5 148zM183 202q0 -30 21.5 -53.5t50.5 -23.5t53 24t24 40v83q0 33 -23.5 54t-52.5 21q-30 0 -51.5 -23t-21.5 -52v-70z" />
<glyph unicode="&#x112;" horiz-adv-x="539" d="M54 48v635q0 23 20 35.5t48 12.5h356q23 0 35 -20t12 -47q0 -29 -12.5 -49t-34.5 -20h-268v-169h150q22 0 34.5 -18t12.5 -43q0 -23 -12 -41t-35 -18h-150v-170h268q22 0 34.5 -20t12.5 -49q0 -27 -12 -47t-35 -20h-356q-28 0 -48 12.5t-20 35.5zM147 888q0 21 13 35.5 t34 14.5h200q18 0 33 -15t15 -35q0 -21 -14.5 -35t-33.5 -14h-200q-21 0 -34 13.5t-13 35.5z" />
<glyph unicode="&#x113;" d="M27 202v73q0 85 67.5 146t162.5 61q89 0 152 -53.5t63 -136.5q0 -32 -8 -52t-24 -28t-29.5 -10.5t-35.5 -2.5h-193v-6q0 -37 28 -59.5t74 -22.5q35 0 73.5 18.5t51.5 18.5q25 0 41 -23.5t16 -44.5q0 -31 -53.5 -60.5t-132.5 -29.5q-112 0 -182.5 58.5t-70.5 153.5z M109 649q0 21 13 35.5t34 14.5h200q18 0 33 -14.5t15 -35.5t-14.5 -35t-33.5 -14h-200q-21 0 -34 13.5t-13 35.5zM182 286h124q21 0 21 24q0 28 -21.5 44t-51.5 16q-29 0 -50.5 -16t-21.5 -44v-24z" />
<glyph unicode="&#x114;" horiz-adv-x="539" d="M54 48v635q0 23 20 35.5t48 12.5h356q23 0 35 -20t12 -47q0 -29 -12.5 -49t-34.5 -20h-268v-169h150q22 0 34.5 -18t12.5 -43q0 -23 -12 -41t-35 -18h-150v-170h268q22 0 34.5 -20t12.5 -49q0 -27 -12 -47t-35 -20h-356q-28 0 -48 12.5t-20 35.5zM149 963h80 q0 -31 18.5 -52t41.5 -21q22 0 40.5 21t18.5 52h80q0 -55 -42.5 -97t-96.5 -42t-97 42t-43 97z" />
<glyph unicode="&#x115;" d="M27 202v73q0 85 67.5 146t162.5 61q89 0 152 -53.5t63 -136.5q0 -32 -8 -52t-24 -28t-29.5 -10.5t-35.5 -2.5h-193v-6q0 -37 28 -59.5t74 -22.5q35 0 73.5 18.5t51.5 18.5q25 0 41 -23.5t16 -44.5q0 -31 -53.5 -60.5t-132.5 -29.5q-112 0 -182.5 58.5t-70.5 153.5z M115 724h80q0 -31 18.5 -52t41.5 -21q22 0 40.5 21t18.5 52h80q0 -55 -42.5 -97t-96.5 -42t-97 42t-43 97zM182 286h124q21 0 21 24q0 28 -21.5 44t-51.5 16q-29 0 -50.5 -16t-21.5 -44v-24z" />
<glyph unicode="&#x116;" horiz-adv-x="539" d="M54 48v635q0 23 20 35.5t48 12.5h356q23 0 35 -20t12 -47q0 -29 -12.5 -49t-34.5 -20h-268v-169h150q22 0 34.5 -18t12.5 -43q0 -23 -12 -41t-35 -18h-150v-170h268q22 0 34.5 -20t12.5 -49q0 -27 -12 -47t-35 -20h-356q-28 0 -48 12.5t-20 35.5zM246 869q0 23 17 40.5 t40 17.5t39.5 -17.5t16.5 -40.5q0 -24 -16.5 -41.5t-39.5 -17.5t-40 18t-17 41z" />
<glyph unicode="&#x117;" d="M27 202v73q0 85 67.5 146t162.5 61q89 0 152 -53.5t63 -136.5q0 -32 -8 -52t-24 -28t-29.5 -10.5t-35.5 -2.5h-193v-6q0 -37 28 -59.5t74 -22.5q35 0 73.5 18.5t51.5 18.5q25 0 41 -23.5t16 -44.5q0 -31 -53.5 -60.5t-132.5 -29.5q-112 0 -182.5 58.5t-70.5 153.5z M182 286h124q21 0 21 24q0 28 -21.5 44t-51.5 16q-29 0 -50.5 -16t-21.5 -44v-24zM198 630q0 23 17 40.5t40 17.5t39.5 -17.5t16.5 -40.5q0 -24 -16.5 -41.5t-39.5 -17.5t-40 18t-17 41z" />
<glyph unicode="&#x118;" horiz-adv-x="539" d="M54 48v635q0 23 20 35.5t48 12.5h356q23 0 35 -20t12 -47q0 -29 -12.5 -49t-34.5 -20h-268v-169h150q22 0 34.5 -18t12.5 -43q0 -23 -12 -41t-35 -18h-150v-170h268q22 0 34.5 -20t12.5 -49q0 -54 -34 -65q-29 -20 -48 -51t-19 -58q0 -48 58 -48q25 0 25 -34 q0 -29 -31 -29q-63 0 -94 27t-31 70q0 67 60 121h-289q-28 0 -48 12.5t-20 35.5z" />
<glyph unicode="&#x119;" d="M27 202v73q0 85 67.5 146t162.5 61q89 0 152 -53.5t63 -136.5q0 -32 -8 -52t-24 -28t-29.5 -10.5t-35.5 -2.5h-193v-6q0 -37 28 -59.5t74 -22.5q35 0 73.5 18.5t51.5 18.5q25 0 41 -23.5t16 -44.5q0 -19 -20.5 -38.5t-55.5 -32.5q-33 -19 -56 -52.5t-23 -63.5 q0 -48 58 -48q25 0 25 -34q0 -29 -31 -29q-63 0 -94 27t-31 70q0 59 49 111h-7q-112 0 -182.5 58.5t-70.5 153.5zM182 286h124q21 0 21 24q0 28 -21.5 44t-51.5 16q-29 0 -50.5 -16t-21.5 -44v-24z" />
<glyph unicode="&#x11a;" horiz-adv-x="539" d="M54 48v635q0 23 20 35.5t48 12.5h356q23 0 35 -20t12 -47q0 -29 -12.5 -49t-34.5 -20h-268v-169h150q22 0 34.5 -18t12.5 -43q0 -23 -12 -41t-35 -18h-150v-170h268q22 0 34.5 -20t12.5 -49q0 -27 -12 -47t-35 -20h-356q-28 0 -48 12.5t-20 35.5zM142 925q0 18 9 32 t22 14q5 0 11 -3l104 -56l104 56q6 3 11 3q13 0 22 -14t9 -32q0 -30 -25 -44l-104 -56q-10 -5 -17 -5t-17 5l-104 56q-25 14 -25 44z" />
<glyph unicode="&#x11b;" d="M27 202v73q0 85 67.5 146t162.5 61q89 0 152 -53.5t63 -136.5q0 -32 -8 -52t-24 -28t-29.5 -10.5t-35.5 -2.5h-193v-6q0 -37 28 -59.5t74 -22.5q35 0 73.5 18.5t51.5 18.5q25 0 41 -23.5t16 -44.5q0 -31 -53.5 -60.5t-132.5 -29.5q-112 0 -182.5 58.5t-70.5 153.5z M111 686q0 18 9 32t22 14q5 0 11 -3l104 -56l104 56q6 3 11 3q13 0 22 -14t9 -32q0 -30 -25 -44l-104 -56q-10 -5 -17 -5t-17 5l-104 56q-25 14 -25 44zM182 286h124q21 0 21 24q0 28 -21.5 44t-51.5 16q-29 0 -50.5 -16t-21.5 -44v-24z" />
<glyph unicode="&#x11c;" horiz-adv-x="573" d="M46 230v265q0 122 66.5 179t173.5 57q110 0 180.5 -53t70.5 -146q0 -43 -18 -58.5t-60 -15.5q-77 0 -78 47q0 14 -1 23.5t-6 23.5t-14 22t-26.5 14.5t-41.5 6.5q-90 0 -90 -100v-265q0 -100 89 -100q90 0 90 100v34h-59q-22 0 -34.5 17.5t-12.5 42.5q0 23 13 41.5 t34 18.5h168q22 0 34.5 -14.5t12.5 -34.5v-105q0 -122 -67 -179t-179 -57q-111 0 -178 57t-67 179zM130 854q0 30 25 44l104 56q10 5 17 5t17 -5l104 -56q25 -14 25 -44q0 -18 -9 -32t-22 -14q-5 0 -11 3l-104 56l-104 -56q-6 -3 -11 -3q-13 0 -22 14t-9 32z" />
<glyph unicode="&#x11d;" horiz-adv-x="478" d="M12 -72q0 66 67 104q-36 21 -36 62q0 44 51 81q-65 48 -65 127v15q0 73 56.5 119t148.5 46q63 0 113 -24q17 41 30 55.5t27 14.5q26 0 42.5 -15.5t16.5 -30.5q0 -16 -16 -30l-20 -16q-15 -12 -23 -20q38 -41 38 -99v-15q0 -72 -58.5 -119.5t-149.5 -47.5q-33 0 -60 6 q-4 -7 -4 -13q0 -14 30.5 -21t74 -13t87 -17.5t74 -44.5t30.5 -86q0 -82 -66 -122.5t-160 -40.5t-161 39t-67 106zM89 615q0 30 25 44l104 56q10 5 17 5t17 -5l104 -56q25 -14 25 -44q0 -18 -9 -32t-22 -14q-5 0 -11 3l-104 56l-104 -56q-6 -3 -11 -3q-13 0 -22 14t-9 32z M158 -56q0 -29 23.5 -46t55.5 -17t55.5 17t23.5 44q0 17 -9 28t-27.5 17.5t-36 10t-45.5 6.5q-40 -21 -40 -60zM179 303q0 -34 15 -56t42 -22q26 0 41 21.5t15 55.5v15q0 32 -15 53.5t-42 21.5q-26 0 -41 -21.5t-15 -53.5v-14z" />
<glyph unicode="&#x11e;" horiz-adv-x="573" d="M46 230v265q0 122 66.5 179t173.5 57q110 0 180.5 -53t70.5 -146q0 -43 -18 -58.5t-60 -15.5q-77 0 -78 47q0 14 -1 23.5t-6 23.5t-14 22t-26.5 14.5t-41.5 6.5q-90 0 -90 -100v-265q0 -100 89 -100q90 0 90 100v34h-59q-22 0 -34.5 17.5t-12.5 42.5q0 23 13 41.5 t34 18.5h168q22 0 34.5 -14.5t12.5 -34.5v-105q0 -122 -67 -179t-179 -57q-111 0 -178 57t-67 179zM150 963h80q0 -31 18.5 -52t41.5 -21q22 0 40.5 21t18.5 52h80q0 -55 -42.5 -97t-96.5 -42t-97 42t-43 97z" />
<glyph unicode="&#x11f;" horiz-adv-x="478" d="M12 -72q0 66 67 104q-36 21 -36 62q0 44 51 81q-65 48 -65 127v15q0 73 56.5 119t148.5 46q63 0 113 -24q17 41 30 55.5t27 14.5q26 0 42.5 -15.5t16.5 -30.5q0 -16 -16 -30l-20 -16q-15 -12 -23 -20q38 -41 38 -99v-15q0 -72 -58.5 -119.5t-149.5 -47.5q-33 0 -60 6 q-4 -7 -4 -13q0 -14 30.5 -21t74 -13t87 -17.5t74 -44.5t30.5 -86q0 -82 -66 -122.5t-160 -40.5t-161 39t-67 106zM95 724h80q0 -31 18.5 -52t41.5 -21q22 0 40.5 21t18.5 52h80q0 -55 -42.5 -97t-96.5 -42t-97 42t-43 97zM158 -56q0 -29 23.5 -46t55.5 -17t55.5 17t23.5 44 q0 17 -9 28t-27.5 17.5t-36 10t-45.5 6.5q-40 -21 -40 -60zM179 303q0 -34 15 -56t42 -22q26 0 41 21.5t15 55.5v15q0 32 -15 53.5t-42 21.5q-26 0 -41 -21.5t-15 -53.5v-14z" />
<glyph unicode="&#x120;" horiz-adv-x="573" d="M46 230v265q0 122 66.5 179t173.5 57q110 0 180.5 -53t70.5 -146q0 -43 -18 -58.5t-60 -15.5q-77 0 -78 47q0 14 -1 23.5t-6 23.5t-14 22t-26.5 14.5t-41.5 6.5q-90 0 -90 -100v-265q0 -100 89 -100q90 0 90 100v34h-59q-22 0 -34.5 17.5t-12.5 42.5q0 23 13 41.5 t34 18.5h168q22 0 34.5 -14.5t12.5 -34.5v-105q0 -122 -67 -179t-179 -57q-111 0 -178 57t-67 179zM230 869q0 23 17 40.5t40 17.5t39.5 -17.5t16.5 -40.5q0 -24 -16.5 -41.5t-39.5 -17.5t-40 18t-17 41z" />
<glyph unicode="&#x121;" horiz-adv-x="478" d="M12 -72q0 66 67 104q-36 21 -36 62q0 44 51 81q-65 48 -65 127v15q0 73 56.5 119t148.5 46q63 0 113 -24q17 41 30 55.5t27 14.5q26 0 42.5 -15.5t16.5 -30.5q0 -16 -16 -30l-20 -16q-15 -12 -23 -20q38 -41 38 -99v-15q0 -72 -58.5 -119.5t-149.5 -47.5q-33 0 -60 6 q-4 -7 -4 -13q0 -14 30.5 -21t74 -13t87 -17.5t74 -44.5t30.5 -86q0 -82 -66 -122.5t-160 -40.5t-161 39t-67 106zM158 -56q0 -29 23.5 -46t55.5 -17t55.5 17t23.5 44q0 17 -9 28t-27.5 17.5t-36 10t-45.5 6.5q-40 -21 -40 -60zM178 630q0 23 17 40.5t40 17.5t39.5 -17.5 t16.5 -40.5q0 -24 -16.5 -41.5t-39.5 -17.5t-40 18t-17 41zM179 303q0 -34 15 -56t42 -22q26 0 41 21.5t15 55.5v15q0 32 -15 53.5t-42 21.5q-26 0 -41 -21.5t-15 -53.5v-14z" />
<glyph unicode="&#x122;" horiz-adv-x="573" d="M46 230v265q0 122 66.5 179t173.5 57q110 0 180.5 -53t70.5 -146q0 -43 -18 -58.5t-60 -15.5q-77 0 -78 47q0 14 -1 23.5t-6 23.5t-14 22t-26.5 14.5t-41.5 6.5q-90 0 -90 -100v-265q0 -100 89 -100q90 0 90 100v34h-59q-22 0 -34.5 17.5t-12.5 42.5q0 23 13 41.5 t34 18.5h168q22 0 34.5 -14.5t12.5 -34.5v-105q0 -122 -67 -179t-179 -57q-111 0 -178 57t-67 179zM180 -151q0 25 20 35l140 65q8 3 14 3q19 0 33 -18.5t14 -39.5q0 -24 -20 -34l-140 -65q-10 -4 -15 -4q-19 0 -32.5 18.5t-13.5 39.5z" />
<glyph unicode="&#x123;" horiz-adv-x="478" d="M12 -72q0 66 67 104q-36 21 -36 62q0 44 51 81q-65 48 -65 127v15q0 73 56.5 119t148.5 46q63 0 113 -24q17 41 30 55.5t27 14.5q26 0 42.5 -15.5t16.5 -30.5q0 -16 -16 -30l-20 -16q-15 -12 -23 -20q38 -41 38 -99v-15q0 -72 -58.5 -119.5t-149.5 -47.5q-33 0 -60 6 q-4 -7 -4 -13q0 -14 30.5 -21t74 -13t87 -17.5t74 -44.5t30.5 -86q0 -82 -66 -122.5t-160 -40.5t-161 39t-67 106zM147 617q0 25 20 35l140 65q7 3 14 3q19 0 33 -18.5t14 -39.5q0 -24 -20 -34l-140 -65q-10 -4 -15 -4q-19 0 -32.5 18.5t-13.5 39.5zM158 -56q0 -29 23.5 -46 t55.5 -17t55.5 17t23.5 44q0 17 -9 28t-27.5 17.5t-36 10t-45.5 6.5q-40 -21 -40 -60zM166 822q0 16 62 160q8 18 30 18q18 0 34 -11t16 -28q0 -8 -4 -16l-25 -54q40 -23 40 -68q0 -32 -22.5 -54.5t-53.5 -22.5t-54 22.5t-23 53.5zM179 303q0 -34 15 -56t42 -22 q26 0 41 21.5t15 55.5v15q0 32 -15 53.5t-42 21.5q-26 0 -41 -21.5t-15 -53.5v-14z" />
<glyph unicode="&#x124;" horiz-adv-x="619" d="M54 48v636q0 23 23 35t55 12t55 -12t23 -35v-245h199v245q0 23 23 35t55 12t55 -12t23 -35v-636q0 -23 -23 -35.5t-55 -12.5t-55 12.5t-23 35.5v271h-199v-271q0 -23 -23 -35.5t-55 -12.5t-55 12.5t-23 35.5zM164 854q0 30 25 44l104 56q10 5 17 5t17 -5l104 -56 q25 -14 25 -44q0 -18 -9 -32t-22 -14q-5 0 -11 3l-104 56l-104 -56q-6 -3 -11 -3q-13 0 -22 14t-9 32z" />
<glyph unicode="&#x125;" horiz-adv-x="535" d="M-26 870q0 30 25 44l104 56q10 5 17 5t17 -5l104 -56q25 -14 25 -44q0 -18 -9 -32t-22 -14q-5 0 -11 3l-104 56l-104 -56q-6 -3 -11 -3q-13 0 -22 14t-9 32zM46 48v653q0 21 21.5 34t55.5 13q32 0 55 -13t23 -34v-295q15 32 47.5 54t76.5 22q69 0 119.5 -62t50.5 -148 v-224q0 -23 -23 -35.5t-55 -12.5q-30 0 -53.5 13t-23.5 35v224q0 29 -21.5 52t-50.5 23q-26 0 -46.5 -20.5t-20.5 -54.5v-224q0 -18 -23.5 -33t-54.5 -15q-33 0 -55 14.5t-22 33.5z" />
<glyph unicode="&#x126;" horiz-adv-x="623" d="M15 581q0 20 9.5 34.5t27.5 14.5h4v54q0 23 23 35t55 12t55 -12t23 -35v-54h199v54q0 23 23 35t55 12t55 -12t23 -35v-54h4q18 0 27 -14.5t9 -34.5q0 -21 -9 -35t-27 -14h-4v-484q0 -23 -23 -35.5t-55 -12.5t-55 12.5t-23 35.5v271h-199v-271q0 -23 -23 -35.5t-55 -12.5 t-55 12.5t-23 35.5v484h-4q-18 0 -27.5 14.5t-9.5 34.5zM212 439h199v93h-199v-93z" />
<glyph unicode="&#x127;" horiz-adv-x="535" d="M-24 594q0 21 13 35.5t34 14.5h23v57q0 21 21.5 34t55.5 13q32 0 55 -13t23 -34v-57h22q19 0 33.5 -15t14.5 -35q0 -21 -14.5 -35t-33.5 -14h-22v-139q15 32 47.5 54t76.5 22q69 0 119.5 -62t50.5 -148v-224q0 -23 -23 -35.5t-55 -12.5q-30 0 -53.5 13t-23.5 35v224 q0 29 -21.5 52t-50.5 23q-26 0 -46.5 -20.5t-20.5 -54.5v-224q0 -18 -23.5 -33t-54.5 -15q-33 0 -55 14.5t-22 33.5v497h-23q-21 0 -34 13.5t-13 35.5z" />
<glyph unicode="&#x128;" horiz-adv-x="264" d="M-46 873q0 73 85 73q31 0 75 -13.5t71 -13.5q23 0 50 10.5t36 10.5q20 0 29 -17.5t9 -31.5q0 -73 -85 -73q-38 0 -81.5 13.5t-64.5 13.5q-23 0 -50 -10.5t-36 -10.5q-20 0 -29 17.5t-9 31.5zM54 48v636q0 23 23 35t55 12t55 -12t23 -35v-636q0 -23 -23 -35.5t-55 -12.5 t-55 12.5t-23 35.5z" />
<glyph unicode="&#x129;" horiz-adv-x="244" d="M-54 634q0 73 85 73q31 0 75 -13.5t71 -13.5q23 0 50 10.5t36 10.5q20 0 29 -17.5t9 -31.5q0 -73 -85 -73q-38 0 -81.5 13.5t-64.5 13.5q-23 0 -50 -10.5t-36 -10.5q-20 0 -29 17.5t-9 31.5zM45 48v381q0 21 21.5 34t55.5 13q33 0 55.5 -13t22.5 -34v-381q0 -18 -23 -33 t-55 -15q-33 0 -55 14.5t-22 33.5z" />
<glyph unicode="&#x12a;" horiz-adv-x="264" d="M-16 888q0 21 13 35.5t34 14.5h200q19 0 33.5 -15t14.5 -35q0 -21 -14.5 -35t-33.5 -14h-200q-21 0 -34 13.5t-13 35.5zM54 48v636q0 23 23 35t55 12t55 -12t23 -35v-636q0 -23 -23 -35.5t-55 -12.5t-55 12.5t-23 35.5z" />
<glyph unicode="&#x12b;" horiz-adv-x="244" d="M-24 649q0 21 13 35.5t34 14.5h200q19 0 33.5 -14.5t14.5 -35.5t-14.5 -35t-33.5 -14h-200q-21 0 -34 13.5t-13 35.5zM45 48v381q0 21 21.5 34t55.5 13q33 0 55.5 -13t22.5 -34v-381q0 -18 -23 -33t-55 -15q-33 0 -55 14.5t-22 33.5z" />
<glyph unicode="&#x12c;" horiz-adv-x="264" d="M-7 963h80q0 -31 18.5 -52t41.5 -21q22 0 40.5 21t18.5 52h80q0 -55 -42.5 -97t-96.5 -42t-97 42t-43 97zM54 48v636q0 23 23 35t55 12t55 -12t23 -35v-636q0 -23 -23 -35.5t-55 -12.5t-55 12.5t-23 35.5z" />
<glyph unicode="&#x12d;" horiz-adv-x="244" d="M-17 724h80q0 -31 18.5 -52t41.5 -21q22 0 40.5 21t18.5 52h80q0 -55 -42.5 -97t-96.5 -42t-97 42t-43 97zM45 48v381q0 21 21.5 34t55.5 13q33 0 55.5 -13t22.5 -34v-381q0 -18 -23 -33t-55 -15q-33 0 -55 14.5t-22 33.5z" />
<glyph unicode="&#x12e;" horiz-adv-x="264" d="M26 -121q0 72 66 127q-38 12 -38 42v636q0 23 23 35t55 12t55 -12t23 -35v-636q0 -29 -36 -41q-32 -18 -53.5 -51.5t-21.5 -62.5q0 -48 58 -48q25 0 25 -34q0 -29 -31 -29q-63 0 -94 27t-31 70z" />
<glyph unicode="&#x12f;" horiz-adv-x="244" d="M13 -121q0 34 18 68.5t50 59.5q-36 15 -36 41v381q0 21 21.5 34t55.5 13q33 0 55.5 -13t22.5 -34v-381q0 -25 -36 -40q-33 -18 -55.5 -51.5t-22.5 -63.5q0 -48 58 -48q25 0 25 -34q0 -29 -31 -29q-63 0 -94 27t-31 70zM40 640q0 29 24 50t58 21q33 0 57 -21t24 -50 t-24 -50.5t-57 -21.5q-34 0 -58 21.5t-24 50.5z" />
<glyph unicode="&#x130;" horiz-adv-x="264" d="M54 48v636q0 23 23 35t55 12t55 -12t23 -35v-636q0 -23 -23 -35.5t-55 -12.5t-55 12.5t-23 35.5zM76 869q0 23 17 40.5t40 17.5t39.5 -17.5t16.5 -40.5q0 -24 -16.5 -41.5t-39.5 -17.5t-40 18t-17 41z" />
<glyph unicode="&#x131;" horiz-adv-x="244" d="M45 48v381q0 21 21.5 34t55.5 13q33 0 55.5 -13t22.5 -34v-381q0 -18 -23 -33t-55 -15q-33 0 -55 14.5t-22 33.5z" />
<glyph unicode="&#x132;" horiz-adv-x="805" d="M54 48v636q0 23 23 35t55 12t55 -12t23 -35v-636q0 -23 -23 -35.5t-55 -12.5t-55 12.5t-23 35.5zM263 203q0 43 18 58.5t61 15.5q73 0 77 -47q2 -21 4.5 -33t10.5 -30.5t26.5 -27.5t46.5 -9q91 0 91 100v365h-87q-22 0 -34.5 20t-12.5 49q0 27 12 47t35 20h175 q28 0 48 -12.5t20 -35.5v-453q0 -122 -66.5 -179t-173.5 -57q-110 0 -180.5 56t-70.5 153z" />
<glyph unicode="&#x133;" horiz-adv-x="463" d="M40 640q0 29 24 50t58 21q33 0 57 -21t24 -50t-24 -50.5t-57 -21.5q-34 0 -58 21.5t-24 50.5zM45 48v381q0 21 21.5 34t55.5 13q33 0 55.5 -13t22.5 -34v-381q0 -18 -23 -33t-55 -15q-33 0 -55 14.5t-22 33.5zM178 -154q0 30 16.5 48.5t41.5 18.5q17 0 22 14.5t5 44.5 v457q0 21 21.5 34t54.5 13q34 0 56.5 -13t22.5 -34v-457q0 -85 -42 -137t-117 -52q-81 0 -81 63zM258 640q0 29 24 50t58 21q33 0 57 -21t24 -50t-24 -50.5t-57 -21.5q-34 0 -58 21.5t-24 50.5z" />
<glyph unicode="&#x134;" horiz-adv-x="548" d="M6 203q0 43 18 58.5t61 15.5q73 0 77 -47q2 -21 4.5 -33t10.5 -30.5t26.5 -27.5t46.5 -9q91 0 91 100v365h-87q-22 0 -34.5 20t-12.5 49q0 27 12 47t35 20h175q28 0 48 -12.5t20 -35.5v-453q0 -122 -66.5 -179t-173.5 -57q-110 0 -180.5 56t-70.5 153zM128 854 q0 30 25 44l104 56q10 5 17 5t17 -5l104 -56q25 -14 25 -44q0 -18 -9 -32t-22 -14q-5 0 -11 3l-104 56l-104 -56q-6 -3 -11 -3q-13 0 -22 14t-9 32z" />
<glyph unicode="&#x135;" horiz-adv-x="245" d="M-40 -154q0 30 16.5 48.5t41.5 18.5q17 0 22 14.5t5 44.5v457q0 21 21.5 34t54.5 13q34 0 56.5 -13t22.5 -34v-457q0 -85 -42 -137t-117 -52q-81 0 -81 63zM-23 615q0 30 25 44l104 56q10 5 17 5t17 -5l104 -56q25 -14 25 -44q0 -18 -9 -32t-22 -14q-5 0 -11 3l-104 56 l-104 -56q-6 -3 -11 -3q-13 0 -22 14t-9 32z" />
<glyph unicode="&#x136;" horiz-adv-x="566" d="M54 48v636q0 23 23 35t55 12t55 -12t23 -35v-240l187 265q15 22 41 22q31 0 61.5 -25.5t30.5 -54.5q0 -16 -10 -30l-164 -206l207 -317q8 -13 8 -26q0 -29 -30 -53.5t-64 -24.5q-36 0 -54 29l-171 260l-42 -54v-181q0 -23 -23 -35.5t-55 -12.5t-55 12.5t-23 35.5z M177 -151q0 25 20 35l140 65q7 3 14 3q19 0 33 -18.5t14 -39.5q0 -24 -20 -34l-140 -65q-10 -4 -15 -4q-19 0 -32.5 18.5t-13.5 39.5z" />
<glyph unicode="&#x137;" horiz-adv-x="509" d="M46 48v653q0 21 21.5 34t54.5 13q34 0 56.5 -13t22.5 -34v-392l166 161q12 12 30 12q25 0 50 -24.5t25 -49.5q0 -15 -12 -27l-106 -98l137 -192q8 -13 8 -24q0 -26 -30 -51.5t-59 -25.5q-24 0 -37 19l-121 179l-51 -47v-93q0 -18 -23.5 -33t-55.5 -15t-54 14.5t-22 33.5z M142 -151q0 25 20 35l140 65q8 3 14 3q19 0 33 -18.5t14 -39.5q0 -24 -20 -34l-140 -65q-10 -4 -15 -4q-19 0 -32.5 18.5t-13.5 39.5z" />
<glyph unicode="&#x138;" horiz-adv-x="508" d="M45 48v381q0 21 21.5 34t54.5 13q34 0 56.5 -13t22.5 -34v-120l166 161q12 12 30 12q25 0 50 -24.5t25 -49.5q0 -15 -12 -27l-106 -98l137 -192q8 -13 8 -24q0 -26 -30 -51.5t-59 -25.5q-24 0 -37 19l-121 179l-51 -47v-93q0 -18 -23.5 -33t-55.5 -15t-54 14.5t-22 33.5z " />
<glyph unicode="&#x139;" horiz-adv-x="492" d="M54 48v636q0 23 23 35t55 12t55 -12t23 -35v-548h228q21 0 33 -20t12 -48t-12 -48t-33 -20h-316q-28 0 -48 12.5t-20 35.5zM146 856q0 25 20 35l140 65q8 3 14 3q19 0 33 -18.5t14 -39.5q0 -24 -20 -34l-140 -65q-10 -4 -15 -4q-19 0 -32.5 18.5t-13.5 39.5z" />
<glyph unicode="&#x13a;" horiz-adv-x="263" d="M51 847q0 25 20 35l140 65q7 3 14 3q19 0 33 -18.5t14 -39.5q0 -24 -20 -34l-140 -65q-10 -4 -15 -4q-19 0 -32.5 18.5t-13.5 39.5zM54 48v653q0 21 21.5 34t55.5 13q33 0 55.5 -13t22.5 -34v-653q0 -18 -23 -33t-55 -15q-33 0 -55 14.5t-22 33.5z" />
<glyph unicode="&#x13b;" horiz-adv-x="492" d="M54 48v636q0 23 23 35t55 12t55 -12t23 -35v-548h228q21 0 33 -20t12 -48t-12 -48t-33 -20h-316q-28 0 -48 12.5t-20 35.5zM150 -151q0 25 20 35l140 65q8 3 14 3q19 0 33 -18.5t14 -39.5q0 -24 -20 -34l-140 -65q-10 -4 -15 -4q-19 0 -32.5 18.5t-13.5 39.5z" />
<glyph unicode="&#x13c;" horiz-adv-x="263" d="M21 -151q0 25 20 35l140 65q7 3 14 3q19 0 33 -18.5t14 -39.5q0 -24 -20 -34l-140 -65q-10 -4 -15 -4q-19 0 -32.5 18.5t-13.5 39.5zM54 48v653q0 21 21.5 34t55.5 13q33 0 55.5 -13t22.5 -34v-653q0 -18 -23 -33t-55 -15q-33 0 -55 14.5t-22 33.5z" />
<glyph unicode="&#x13d;" horiz-adv-x="494" d="M54 48v636q0 23 23 35t55 12t55 -12t23 -35v-548h228q21 0 33 -20t12 -48t-12 -48t-33 -20h-316q-28 0 -48 12.5t-20 35.5zM313 664q0 32 22.5 54.5t53.5 22.5t54 -22.5t23 -53.5q0 -16 -62 -160q-8 -18 -30 -18q-18 0 -34 11t-16 28q0 8 4 16l25 54q-40 23 -40 68z" />
<glyph unicode="&#x13e;" horiz-adv-x="263" d="M54 48v653q0 21 21.5 34t55.5 13q33 0 55.5 -13t22.5 -34v-653q0 -18 -23 -33t-55 -15q-33 0 -55 14.5t-22 33.5zM258 664q0 32 22.5 54.5t53.5 22.5t54 -22.5t23 -53.5q0 -16 -62 -160q-8 -18 -30 -18q-18 0 -34 11t-16 28q0 8 4 16l25 54q-40 23 -40 68z" />
<glyph unicode="&#x13f;" horiz-adv-x="493" d="M54 48v636q0 23 23 35t55 12t55 -12t23 -35v-548h228q21 0 33 -20t12 -48t-12 -48t-33 -20h-316q-28 0 -48 12.5t-20 35.5zM300 421q0 29 24 50t58 21q33 0 57 -21t24 -50t-24 -50.5t-57 -21.5q-34 0 -58 21.5t-24 50.5z" />
<glyph unicode="&#x140;" horiz-adv-x="392" d="M54 48v653q0 21 21.5 34t55.5 13q33 0 55.5 -13t22.5 -34v-653q0 -18 -23 -33t-55 -15q-33 0 -55 14.5t-22 33.5zM235 300q0 29 24 50t58 21q33 0 57 -21t24 -50t-24 -50.5t-57 -21.5q-34 0 -58 21.5t-24 50.5z" />
<glyph unicode="&#x141;" horiz-adv-x="498" d="M-10 317q0 26 18 34l52 24v309q0 23 23 35t55 12t55 -12t23 -35v-236l45 21q6 3 12 3q21 0 37.5 -23t16.5 -46q0 -25 -19 -34l-92 -43v-190h228q21 0 33 -20t12 -48t-12 -48t-33 -20h-316q-28 0 -48 12.5t-20 35.5v205l-5 -2q-6 -3 -13 -3q-20 0 -36 22t-16 47z" />
<glyph unicode="&#x142;" horiz-adv-x="336" d="M13 317q0 26 18 34l59 27v323q0 21 21.5 34t55.5 13q33 0 55.5 -13t22.5 -34v-250l13 6q6 3 12 3q21 0 37.5 -23t16.5 -46q0 -25 -19 -34l-60 -28v-281q0 -18 -23 -33t-55 -15q-33 0 -55 14.5t-22 33.5v208l-12 -5q-6 -3 -13 -3q-20 0 -36 22t-16 47z" />
<glyph unicode="&#x143;" horiz-adv-x="619" d="M54 48v635q0 23 23 35.5t55 12.5q45 0 66.5 -13t48.5 -65l162 -309v340q0 23 23 35t55 12t55 -12t23 -35v-636q0 -23 -23 -35.5t-55 -12.5q-64 0 -87 42l-190 346v-340q0 -23 -23 -35.5t-55 -12.5t-55 12.5t-23 35.5zM185 856q0 25 20 35l140 65q7 3 14 3q19 0 33 -18.5 t14 -39.5q0 -24 -20 -34l-140 -65q-10 -4 -15 -4q-19 0 -32.5 18.5t-13.5 39.5z" />
<glyph unicode="&#x144;" horiz-adv-x="534" d="M45 48v381q0 21 21.5 34t55.5 13q28 0 48 -13t20 -34v-23q16 32 51.5 54t82.5 22q69 0 119.5 -62t50.5 -148v-224q0 -23 -23 -35.5t-55 -12.5q-30 0 -53.5 13t-23.5 35v224q0 29 -21.5 52t-50.5 23q-26 0 -46.5 -20.5t-20.5 -54.5v-224q0 -18 -23.5 -33t-54.5 -15 q-33 0 -55 14.5t-22 33.5zM166 617q0 25 20 35l140 65q8 3 14 3q19 0 33 -18.5t14 -39.5q0 -24 -20 -34l-140 -65q-10 -4 -15 -4q-19 0 -32.5 18.5t-13.5 39.5z" />
<glyph unicode="&#x145;" horiz-adv-x="619" d="M54 48v635q0 23 23 35.5t55 12.5q45 0 66.5 -13t48.5 -65l162 -309v340q0 23 23 35t55 12t55 -12t23 -35v-636q0 -23 -23 -35.5t-55 -12.5q-64 0 -87 42l-190 346v-340q0 -23 -23 -35.5t-55 -12.5t-55 12.5t-23 35.5zM199 -151q0 25 20 35l140 65q7 3 14 3q19 0 33 -18.5 t14 -39.5q0 -24 -20 -34l-140 -65q-10 -4 -15 -4q-19 0 -32.5 18.5t-13.5 39.5z" />
<glyph unicode="&#x146;" horiz-adv-x="534" d="M45 48v381q0 21 21.5 34t55.5 13q28 0 48 -13t20 -34v-23q16 32 51.5 54t82.5 22q69 0 119.5 -62t50.5 -148v-224q0 -23 -23 -35.5t-55 -12.5q-30 0 -53.5 13t-23.5 35v224q0 29 -21.5 52t-50.5 23q-26 0 -46.5 -20.5t-20.5 -54.5v-224q0 -18 -23.5 -33t-54.5 -15 q-33 0 -55 14.5t-22 33.5zM158 -151q0 25 20 35l140 65q8 3 14 3q19 0 33 -18.5t14 -39.5q0 -24 -20 -34l-140 -65q-10 -4 -15 -4q-19 0 -32.5 18.5t-13.5 39.5z" />
<glyph unicode="&#x147;" horiz-adv-x="619" d="M54 48v635q0 23 23 35.5t55 12.5q45 0 66.5 -13t48.5 -65l162 -309v340q0 23 23 35t55 12t55 -12t23 -35v-636q0 -23 -23 -35.5t-55 -12.5q-64 0 -87 42l-190 346v-340q0 -23 -23 -35.5t-55 -12.5t-55 12.5t-23 35.5zM164 925q0 18 9 32t22 14q5 0 11 -3l104 -56l104 56 q6 3 11 3q13 0 22 -14t9 -32q0 -30 -25 -44l-104 -56q-10 -5 -17 -5t-17 5l-104 56q-25 14 -25 44z" />
<glyph unicode="&#x148;" horiz-adv-x="534" d="M45 48v381q0 21 21.5 34t55.5 13q28 0 48 -13t20 -34v-23q16 32 51.5 54t82.5 22q69 0 119.5 -62t50.5 -148v-224q0 -23 -23 -35.5t-55 -12.5q-30 0 -53.5 13t-23.5 35v224q0 29 -21.5 52t-50.5 23q-26 0 -46.5 -20.5t-20.5 -54.5v-224q0 -18 -23.5 -33t-54.5 -15 q-33 0 -55 14.5t-22 33.5zM118 686q0 18 9 32t22 14q5 0 11 -3l104 -56l104 56q6 3 11 3q13 0 22 -14t9 -32q0 -30 -25 -44l-104 -56q-10 -5 -17 -5t-17 5l-104 56q-25 14 -25 44z" />
<glyph unicode="&#x14a;" horiz-adv-x="620" d="M54 48v635q0 23 23 35.5t55 12.5q45 0 66.5 -13t48.5 -65l162 -309v340q0 23 23 35t55 12t55 -12t23 -35v-712q0 -85 -42 -137t-117 -52q-81 0 -81 63q0 30 16.5 48.5t41.5 18.5q26 0 26 59v36q0 18 -9 34l-190 346v-340q0 -23 -23 -35.5t-55 -12.5t-55 12.5t-23 35.5z " />
<glyph unicode="&#x14b;" horiz-adv-x="535" d="M45 48v381q0 21 21.5 34t55.5 13q28 0 48 -13t20 -34v-23q16 32 51.5 54t82.5 22q69 0 119.5 -62t50.5 -148v-300q0 -85 -42 -137t-117 -52q-81 0 -81 63q0 30 16.5 48.5t41.5 18.5q17 0 22 14.5t5 44.5v300q0 29 -21.5 52t-50.5 23q-26 0 -46.5 -20.5t-20.5 -54.5v-224 q0 -18 -23.5 -33t-54.5 -15q-33 0 -55 14.5t-22 33.5z" />
<glyph unicode="&#x14c;" horiz-adv-x="583" d="M46 230v265q0 122 67 179t178 57q112 0 179 -57t67 -179v-265q0 -122 -67 -179t-179 -57q-111 0 -178 57t-67 179zM144 888q0 21 13 35.5t34 14.5h200q19 0 33.5 -15t14.5 -35q0 -21 -14.5 -35t-33.5 -14h-200q-21 0 -34 13.5t-13 35.5zM202 230q0 -100 89 -100 q90 0 90 100v265q0 100 -90 100q-89 0 -89 -100v-265z" />
<glyph unicode="&#x14d;" horiz-adv-x="509" d="M27 202v70q0 85 67 147.5t160 62.5q92 0 160 -62t68 -148v-70q0 -84 -68.5 -148t-159.5 -64t-159 64t-68 148zM107 649q0 21 13 35.5t34 14.5h200q18 0 33 -14.5t15 -35.5t-14.5 -35t-33.5 -14h-200q-21 0 -34 13.5t-13 35.5zM182 202q0 -30 21 -53.5t51 -23.5t51.5 23.5 t21.5 53.5v70q0 29 -22 52t-51 23t-50.5 -23t-21.5 -52v-70z" />
<glyph unicode="&#x14e;" horiz-adv-x="583" d="M46 230v265q0 122 67 179t178 57q112 0 179 -57t67 -179v-265q0 -122 -67 -179t-179 -57q-111 0 -178 57t-67 179zM151 963h80q0 -31 18.5 -52t41.5 -21q22 0 40.5 21t18.5 52h80q0 -55 -42.5 -97t-96.5 -42t-97 42t-43 97zM202 230q0 -100 89 -100q90 0 90 100v265 q0 100 -90 100q-89 0 -89 -100v-265z" />
<glyph unicode="&#x14f;" horiz-adv-x="509" d="M27 202v70q0 85 67 147.5t160 62.5q92 0 160 -62t68 -148v-70q0 -84 -68.5 -148t-159.5 -64t-159 64t-68 148zM116 724h80q0 -31 18.5 -52t41.5 -21q22 0 40.5 21t18.5 52h80q0 -55 -42.5 -97t-96.5 -42t-97 42t-43 97zM182 202q0 -30 21 -53.5t51 -23.5t51.5 23.5 t21.5 53.5v70q0 29 -22 52t-51 23t-50.5 -23t-21.5 -52v-70z" />
<glyph unicode="&#x150;" horiz-adv-x="583" d="M46 230v265q0 122 67 179t178 57q112 0 179 -57t67 -179v-265q0 -122 -67 -179t-179 -57q-111 0 -178 57t-67 179zM162 839q0 9 7 17l79 95q8 10 22 10q16 0 30 -14.5t14 -28.5q0 -10 -6 -17l-79 -95q-8 -11 -21 -11q-17 0 -31.5 14.5t-14.5 29.5zM202 230 q0 -100 89 -100q90 0 90 100v265q0 100 -90 100q-89 0 -89 -100v-265zM322 839q0 9 7 17l79 95q8 10 22 10q16 0 30 -14.5t14 -28.5q0 -10 -6 -17l-79 -95q-8 -11 -21 -11q-17 0 -31.5 14.5t-14.5 29.5z" />
<glyph unicode="&#x151;" horiz-adv-x="509" d="M27 202v70q0 85 67 147.5t160 62.5q92 0 160 -62t68 -148v-70q0 -84 -68.5 -148t-159.5 -64t-159 64t-68 148zM129 602q0 9 7 17l79 95q7 10 22 10t29.5 -14t14.5 -29q0 -9 -6 -17l-79 -95q-8 -11 -21 -11q-17 0 -31.5 14.5t-14.5 29.5zM182 202q0 -30 21 -53.5t51 -23.5 t51.5 23.5t21.5 53.5v70q0 29 -22 52t-51 23t-50.5 -23t-21.5 -52v-70zM289 602q0 9 7 17l79 95q7 10 22 10t29.5 -14t14.5 -29q0 -9 -6 -17l-79 -95q-8 -11 -21 -11q-17 0 -31.5 14.5t-14.5 29.5z" />
<glyph unicode="&#x152;" horiz-adv-x="826" d="M47 230v265q0 236 215 236q43 0 83 -19.5t58 -54.5v26q0 23 20 35.5t48 12.5h294q23 0 35 -20t12 -47q0 -29 -12.5 -49t-34.5 -20h-226v-169h108q22 0 34.5 -18t12.5 -43q0 -23 -12 -41t-35 -18h-108v-170h226q22 0 34.5 -20t12.5 -49q0 -27 -12 -47t-35 -20h-294 q-28 0 -48 12.5t-20 35.5v20q-18 -35 -58 -54.5t-83 -19.5q-215 0 -215 236zM203 230q0 -100 89 -100q90 0 90 100v265q0 100 -90 100q-89 0 -89 -100v-265z" />
<glyph unicode="&#x153;" horiz-adv-x="796" d="M27 202v70q0 85 67 147.5t160 62.5q94 0 158 -72q64 72 145 72q89 0 152 -53.5t63 -136.5q0 -32 -8 -52t-24 -28t-29.5 -10.5t-35.5 -2.5h-193v-6q0 -37 28 -59.5t74 -22.5q35 0 73.5 18.5t51.5 18.5q25 0 41 -23.5t16 -44.5q0 -31 -53.5 -60.5t-132.5 -29.5 q-102 0 -168 72q-67 -72 -158 -72t-159 64t-68 148zM182 202q0 -30 21 -53.5t51 -23.5t51.5 23.5t21.5 53.5v70q0 29 -22 52t-51 23t-50.5 -23t-21.5 -52v-70zM482 286h124q21 0 21 24q0 28 -21.5 44t-51.5 16q-29 0 -50.5 -16t-21.5 -44v-24z" />
<glyph unicode="&#x154;" horiz-adv-x="584" d="M54 48v636q0 19 13.5 33t34.5 14h207q246 0 246 -214q0 -156 -121 -203l122 -221q5 -7 5 -18q0 -29 -31.5 -55t-66.5 -26t-50 29l-137 266h-66v-241q0 -23 -23 -35.5t-55 -12.5t-55 12.5t-23 35.5zM210 409h99q44 0 67 21.5t23 71.5t-23 71.5t-67 21.5h-99v-186zM218 856 q0 25 20 35l140 65q8 3 14 3q19 0 33 -18.5t14 -39.5q0 -24 -20 -34l-140 -65q-10 -4 -15 -4q-19 0 -32.5 18.5t-13.5 39.5z" />
<glyph unicode="&#x155;" horiz-adv-x="394" d="M45 48v381q0 21 21.5 34t54.5 13q29 0 49 -13t20 -34v-37q16 36 49.5 63t69.5 27h29q22 0 38.5 -20t16.5 -47q0 -28 -16.5 -48t-38.5 -20h-29q-43 0 -76 -41.5t-33 -107.5v-150q0 -18 -23.5 -33t-55.5 -15t-54 14.5t-22 33.5zM116 617q0 25 20 35l140 65q8 3 14 3 q19 0 33 -18.5t14 -39.5q0 -24 -20 -34l-140 -65q-10 -4 -15 -4q-19 0 -32.5 18.5t-13.5 39.5z" />
<glyph unicode="&#x156;" horiz-adv-x="584" d="M54 48v636q0 19 13.5 33t34.5 14h207q246 0 246 -214q0 -156 -121 -203l122 -221q5 -7 5 -18q0 -29 -31.5 -55t-66.5 -26t-50 29l-137 266h-66v-241q0 -23 -23 -35.5t-55 -12.5t-55 12.5t-23 35.5zM183 -151q0 25 20 35l140 65q7 3 14 3q19 0 33 -18.5t14 -39.5 q0 -24 -20 -34l-140 -65q-10 -4 -15 -4q-19 0 -32.5 18.5t-13.5 39.5zM210 409h99q44 0 67 21.5t23 71.5t-23 71.5t-67 21.5h-99v-186z" />
<glyph unicode="&#x157;" horiz-adv-x="394" d="M11 -151q0 25 20 35l140 65q7 3 14 3q19 0 33 -18.5t14 -39.5q0 -24 -20 -34l-140 -65q-10 -4 -15 -4q-19 0 -32.5 18.5t-13.5 39.5zM45 48v381q0 21 21.5 34t54.5 13q29 0 49 -13t20 -34v-37q16 36 49.5 63t69.5 27h29q22 0 38.5 -20t16.5 -47q0 -28 -16.5 -48 t-38.5 -20h-29q-43 0 -76 -41.5t-33 -107.5v-150q0 -18 -23.5 -33t-55.5 -15t-54 14.5t-22 33.5z" />
<glyph unicode="&#x158;" horiz-adv-x="584" d="M54 48v636q0 19 13.5 33t34.5 14h207q246 0 246 -214q0 -156 -121 -203l122 -221q5 -7 5 -18q0 -29 -31.5 -55t-66.5 -26t-50 29l-137 266h-66v-241q0 -23 -23 -35.5t-55 -12.5t-55 12.5t-23 35.5zM128 925q0 18 9 32t22 14q5 0 11 -3l104 -56l104 56q6 3 11 3 q13 0 22 -14t9 -32q0 -30 -25 -44l-104 -56q-10 -5 -17 -5t-17 5l-104 56q-25 14 -25 44zM210 409h99q44 0 67 21.5t23 71.5t-23 71.5t-67 21.5h-99v-186z" />
<glyph unicode="&#x159;" horiz-adv-x="394" d="M45 48v381q0 21 21.5 34t54.5 13q29 0 49 -13t20 -34v-37q16 36 49.5 63t69.5 27h29q22 0 38.5 -20t16.5 -47q0 -28 -16.5 -48t-38.5 -20h-29q-43 0 -76 -41.5t-33 -107.5v-150q0 -18 -23.5 -33t-55.5 -15t-54 14.5t-22 33.5zM61 686q0 18 9 32t22 14q5 0 11 -3l104 -56 l104 56q6 3 11 3q13 0 22 -14t9 -32q0 -30 -25 -44l-104 -56q-10 -5 -17 -5t-17 5l-104 56q-25 14 -25 44z" />
<glyph unicode="&#x15a;" horiz-adv-x="533" d="M19 120q0 28 20.5 56t47.5 28q15 0 33.5 -11.5t34 -25.5t43.5 -25.5t59 -11.5q39 0 68 16.5t29 49.5t-32.5 58t-79 45.5t-93.5 46t-79.5 72.5t-32.5 112q0 104 75 155.5t181 51.5q26 0 54.5 -3t64 -11.5t58 -27.5t22.5 -46q0 -26 -16.5 -54t-45.5 -28q-12 0 -51 19 t-86 19q-50 0 -75 -17.5t-25 -42.5q0 -23 23.5 -42t58.5 -32.5t76.5 -35t76.5 -47t58.5 -71.5t23.5 -105q0 -105 -69 -163.5t-181 -58.5q-97 0 -169 40t-72 90zM178 856q0 25 20 35l140 65q8 3 14 3q19 0 33 -18.5t14 -39.5q0 -24 -20 -34l-140 -65q-10 -4 -15 -4 q-19 0 -32.5 18.5t-13.5 39.5z" />
<glyph unicode="&#x15b;" horiz-adv-x="429" d="M21 82q0 21 15 44.5t36 23.5q12 0 29.5 -11t44 -22.5t61.5 -11.5q62 0 62 33q0 18 -24 29.5t-58.5 19.5t-69 21t-58.5 43t-24 77q0 64 45 109t143 45q67 0 118.5 -20.5t51.5 -51.5q0 -20 -16 -46.5t-40 -26.5q-10 0 -46 15t-66 15q-28 0 -42.5 -9.5t-14.5 -22.5 q0 -15 24.5 -24t59 -17.5t69 -22t59 -46t24.5 -81.5q0 -72 -50.5 -113t-142.5 -41q-78 0 -134 27.5t-56 64.5zM117 617q0 25 20 35l140 65q7 3 14 3q19 0 33 -18.5t14 -39.5q0 -24 -20 -34l-140 -65q-10 -4 -15 -4q-19 0 -32.5 18.5t-13.5 39.5z" />
<glyph unicode="&#x15c;" horiz-adv-x="533" d="M19 120q0 28 20.5 56t47.5 28q15 0 33.5 -11.5t34 -25.5t43.5 -25.5t59 -11.5q39 0 68 16.5t29 49.5t-32.5 58t-79 45.5t-93.5 46t-79.5 72.5t-32.5 112q0 104 75 155.5t181 51.5q26 0 54.5 -3t64 -11.5t58 -27.5t22.5 -46q0 -26 -16.5 -54t-45.5 -28q-12 0 -51 19 t-86 19q-50 0 -75 -17.5t-25 -42.5q0 -23 23.5 -42t58.5 -32.5t76.5 -35t76.5 -47t58.5 -71.5t23.5 -105q0 -105 -69 -163.5t-181 -58.5q-97 0 -169 40t-72 90zM118 854q0 30 25 44l104 56q10 5 17 5t17 -5l104 -56q25 -14 25 -44q0 -18 -9 -32t-22 -14q-5 0 -11 3l-104 56 l-104 -56q-6 -3 -11 -3q-13 0 -22 14t-9 32z" />
<glyph unicode="&#x15d;" horiz-adv-x="429" d="M21 82q0 21 15 44.5t36 23.5q12 0 29.5 -11t44 -22.5t61.5 -11.5q62 0 62 33q0 18 -24 29.5t-58.5 19.5t-69 21t-58.5 43t-24 77q0 64 45 109t143 45q67 0 118.5 -20.5t51.5 -51.5q0 -20 -16 -46.5t-40 -26.5q-10 0 -46 15t-66 15q-28 0 -42.5 -9.5t-14.5 -22.5 q0 -15 24.5 -24t59 -17.5t69 -22t59 -46t24.5 -81.5q0 -72 -50.5 -113t-142.5 -41q-78 0 -134 27.5t-56 64.5zM67 615q0 30 25 44l104 56q10 5 17 5t17 -5l104 -56q25 -14 25 -44q0 -18 -9 -32t-22 -14q-5 0 -11 3l-104 56l-104 -56q-6 -3 -11 -3q-13 0 -22 14t-9 32z" />
<glyph unicode="&#x15e;" horiz-adv-x="533" d="M19 120q0 28 20.5 56t47.5 28q15 0 33.5 -11.5t34 -25.5t43.5 -25.5t59 -11.5q39 0 68 16.5t29 49.5t-32.5 58t-79 45.5t-93.5 46t-79.5 72.5t-32.5 112q0 104 75 155.5t181 51.5q26 0 54.5 -3t64 -11.5t58 -27.5t22.5 -46q0 -26 -16.5 -54t-45.5 -28q-12 0 -51 19 t-86 19q-50 0 -75 -17.5t-25 -42.5q0 -23 23.5 -42t58.5 -32.5t76.5 -35t76.5 -47t58.5 -71.5t23.5 -105q0 -93 -54 -149.5t-146 -68.5l-13 -41q49 -2 74.5 -24t25.5 -55q0 -34 -26 -63.5t-85 -29.5q-32 0 -60 8.5t-28 22.5q0 10 7 26t19 16q4 0 22 -7t36 -7q46 0 46 31 q0 30 -43 34l-62 6l23 79q-93 3 -160 42t-67 88z" />
<glyph unicode="&#x15f;" horiz-adv-x="429" d="M21 82q0 21 15 44.5t36 23.5q12 0 29.5 -11t44 -22.5t61.5 -11.5q62 0 62 33q0 18 -24 29.5t-58.5 19.5t-69 21t-58.5 43t-24 77q0 64 45 109t143 45q67 0 118.5 -20.5t51.5 -51.5q0 -20 -16 -46.5t-40 -26.5q-10 0 -46 15t-66 15q-28 0 -42.5 -9.5t-14.5 -22.5 q0 -15 24.5 -24t59 -17.5t69 -22t59 -46t24.5 -81.5q0 -64 -39.5 -103.5t-113.5 -47.5l-13 -40q49 -2 74.5 -24t25.5 -55q0 -34 -26 -63.5t-85 -29.5q-32 0 -60 8.5t-28 22.5q0 10 7 26t19 16q3 0 21 -7t37 -7q46 0 46 31q0 30 -43 34l-62 6l23 80q-71 5 -118.5 31t-47.5 60 z" />
<glyph unicode="&#x160;" horiz-adv-x="533" d="M19 120q0 28 20.5 56t47.5 28q15 0 33.5 -11.5t34 -25.5t43.5 -25.5t59 -11.5q39 0 68 16.5t29 49.5t-32.5 58t-79 45.5t-93.5 46t-79.5 72.5t-32.5 112q0 104 75 155.5t181 51.5q26 0 54.5 -3t64 -11.5t58 -27.5t22.5 -46q0 -26 -16.5 -54t-45.5 -28q-12 0 -51 19 t-86 19q-50 0 -75 -17.5t-25 -42.5q0 -23 23.5 -42t58.5 -32.5t76.5 -35t76.5 -47t58.5 -71.5t23.5 -105q0 -105 -69 -163.5t-181 -58.5q-97 0 -169 40t-72 90zM119 925q0 18 9 32t22 14q5 0 11 -3l104 -56l104 56q6 3 11 3q13 0 22 -14t9 -32q0 -30 -25 -44l-104 -56 q-10 -5 -17 -5t-17 5l-104 56q-25 14 -25 44z" />
<glyph unicode="&#x161;" horiz-adv-x="429" d="M21 82q0 21 15 44.5t36 23.5q12 0 29.5 -11t44 -22.5t61.5 -11.5q62 0 62 33q0 18 -24 29.5t-58.5 19.5t-69 21t-58.5 43t-24 77q0 64 45 109t143 45q67 0 118.5 -20.5t51.5 -51.5q0 -20 -16 -46.5t-40 -26.5q-10 0 -46 15t-66 15q-28 0 -42.5 -9.5t-14.5 -22.5 q0 -15 24.5 -24t59 -17.5t69 -22t59 -46t24.5 -81.5q0 -72 -50.5 -113t-142.5 -41q-78 0 -134 27.5t-56 64.5zM71 686q0 18 9 32t22 14q5 0 11 -3l104 -56l104 56q6 3 11 3q13 0 22 -14t9 -32q0 -30 -25 -44l-104 -56q-10 -5 -17 -5t-17 5l-104 56q-25 14 -25 44z" />
<glyph unicode="&#x162;" horiz-adv-x="542" d="M8 662q0 28 12 48.5t35 20.5h432q23 0 35 -20.5t12 -48.5q0 -30 -12.5 -50.5t-34.5 -20.5h-138v-543q0 -23 -23 -35.5t-55 -12.5t-55 12.5t-23 35.5v543h-138q-22 0 -34.5 20.5t-12.5 50.5zM157 -151q0 25 20 35l140 65q7 3 14 3q19 0 33 -18.5t14 -39.5q0 -24 -20 -34 l-140 -65q-10 -4 -15 -4q-19 0 -32.5 18.5t-13.5 39.5z" />
<glyph unicode="&#x163;" horiz-adv-x="364" d="M43 169v467q0 20 24 33.5t53 13.5q31 0 54.5 -13.5t23.5 -33.5v-160h113q18 0 28 -16.5t10 -38.5q0 -23 -10 -39t-28 -16h-113v-197q0 -22 9 -30.5t32 -8.5h43q32 0 49 -19.5t17 -45.5q0 -27 -17 -46t-49 -19h-43q-196 0 -196 169zM67 -151q0 25 20 35l140 65q7 3 14 3 q19 0 33 -18.5t14 -39.5q0 -24 -20 -34l-140 -65q-10 -4 -15 -4q-19 0 -32.5 18.5t-13.5 39.5z" />
<glyph unicode="&#x164;" horiz-adv-x="542" d="M8 662q0 28 12 48.5t35 20.5h432q23 0 35 -20.5t12 -48.5q0 -30 -12.5 -50.5t-34.5 -20.5h-138v-543q0 -23 -23 -35.5t-55 -12.5t-55 12.5t-23 35.5v543h-138q-22 0 -34.5 20.5t-12.5 50.5zM124 925q0 18 9 32t22 14q5 0 11 -3l104 -56l104 56q6 3 11 3q13 0 22 -14 t9 -32q0 -30 -25 -44l-104 -56q-10 -5 -17 -5t-17 5l-104 56q-25 14 -25 44z" />
<glyph unicode="&#x165;" horiz-adv-x="364" d="M43 169v467q0 20 24 33.5t53 13.5q31 0 54.5 -13.5t23.5 -33.5v-160h113q18 0 28 -16.5t10 -38.5q0 -23 -10 -39t-28 -16h-113v-197q0 -22 9 -30.5t32 -8.5h43q32 0 49 -19.5t17 -45.5q0 -27 -17 -46t-49 -19h-43q-196 0 -196 169zM231 691q0 32 22.5 54.5t53.5 22.5 t54 -22.5t23 -53.5q0 -16 -62 -160q-8 -18 -30 -18q-18 0 -34 11t-16 28q0 8 4 16l25 54q-40 23 -40 68z" />
<glyph unicode="&#x166;" horiz-adv-x="542" d="M8 662q0 28 12 48.5t35 20.5h432q23 0 35 -20.5t12 -48.5q0 -30 -12.5 -50.5t-34.5 -20.5h-138v-171h67q18 0 28 -16.5t10 -38.5q0 -23 -10 -39t-28 -16h-67v-262q0 -23 -23 -35.5t-55 -12.5t-55 12.5t-23 35.5v262h-68q-18 0 -28 16t-10 39q0 22 10 38.5t28 16.5h68v171 h-138q-22 0 -34.5 20.5t-12.5 50.5z" />
<glyph unicode="&#x167;" horiz-adv-x="366" d="M43 169v467q0 20 24 33.5t53 13.5q31 0 54.5 -13.5t23.5 -33.5v-160h113q18 0 28 -16.5t10 -38.5q0 -23 -10 -39t-28 -16h-113v-62h113q18 0 28 -16.5t10 -38.5q0 -23 -10 -39t-28 -16h-113v-25q0 -22 9 -30.5t32 -8.5h43q32 0 49 -19.5t17 -45.5q0 -27 -17 -46t-49 -19 h-43q-196 0 -196 169z" />
<glyph unicode="&#x168;" horiz-adv-x="606" d="M51 230v454q0 23 22.5 35t55.5 12q32 0 55 -12t23 -35v-454q0 -100 96 -100t96 100v454q0 23 22.5 35t55.5 12q32 0 55 -12t23 -35v-454q0 -122 -69 -179t-183 -57q-115 0 -183.5 57t-68.5 179zM119 873q0 73 85 73q31 0 75 -13.5t71 -13.5q23 0 50 10.5t36 10.5 q20 0 29 -17.5t9 -31.5q0 -73 -85 -73q-38 0 -81.5 13.5t-64.5 13.5q-23 0 -50 -10.5t-36 -10.5q-20 0 -29 17.5t-9 31.5z" />
<glyph unicode="&#x169;" horiz-adv-x="535" d="M40 200v228q0 18 23 33t55 15q30 0 53.5 -15t23.5 -33v-228q0 -29 22 -52t51 -23t50.5 23t21.5 52v229q0 19 23.5 33t54.5 14q33 0 55 -14t22 -33v-229q0 -84 -67.5 -147t-159.5 -63q-93 0 -160.5 63t-67.5 147zM91 634q0 73 85 73q31 0 75 -13.5t71 -13.5q23 0 50 10.5 t36 10.5q20 0 29 -17.5t9 -31.5q0 -73 -85 -73q-38 0 -81.5 13.5t-64.5 13.5q-23 0 -50 -10.5t-36 -10.5q-20 0 -29 17.5t-9 31.5z" />
<glyph unicode="&#x16a;" horiz-adv-x="606" d="M51 230v454q0 23 22.5 35t55.5 12q32 0 55 -12t23 -35v-454q0 -100 96 -100t96 100v454q0 23 22.5 35t55.5 12q32 0 55 -12t23 -35v-454q0 -122 -69 -179t-183 -57q-115 0 -183.5 57t-68.5 179zM153 888q0 21 13 35.5t34 14.5h200q18 0 33 -15t15 -35q0 -21 -14.5 -35 t-33.5 -14h-200q-21 0 -34 13.5t-13 35.5z" />
<glyph unicode="&#x16b;" horiz-adv-x="535" d="M40 200v228q0 18 23 33t55 15q30 0 53.5 -15t23.5 -33v-228q0 -29 22 -52t51 -23t50.5 23t21.5 52v229q0 19 23.5 33t54.5 14q33 0 55 -14t22 -33v-229q0 -84 -67.5 -147t-159.5 -63q-93 0 -160.5 63t-67.5 147zM123 649q0 21 13 35.5t34 14.5h200q18 0 33 -14.5 t15 -35.5t-14.5 -35t-33.5 -14h-200q-21 0 -34 13.5t-13 35.5z" />
<glyph unicode="&#x16c;" horiz-adv-x="606" d="M51 230v454q0 23 22.5 35t55.5 12q32 0 55 -12t23 -35v-454q0 -100 96 -100t96 100v454q0 23 22.5 35t55.5 12q32 0 55 -12t23 -35v-454q0 -122 -69 -179t-183 -57q-115 0 -183.5 57t-68.5 179zM159 963h80q0 -31 18.5 -52t41.5 -21q22 0 40.5 21t18.5 52h80 q0 -55 -42.5 -97t-96.5 -42t-97 42t-43 97z" />
<glyph unicode="&#x16d;" horiz-adv-x="535" d="M40 200v228q0 18 23 33t55 15q30 0 53.5 -15t23.5 -33v-228q0 -29 22 -52t51 -23t50.5 23t21.5 52v229q0 19 23.5 33t54.5 14q33 0 55 -14t22 -33v-229q0 -84 -67.5 -147t-159.5 -63q-93 0 -160.5 63t-67.5 147zM130 724h80q0 -31 18.5 -52t41.5 -21q22 0 40.5 21 t18.5 52h80q0 -55 -42.5 -97t-96.5 -42t-97 42t-43 97z" />
<glyph unicode="&#x16e;" horiz-adv-x="606" d="M51 230v454q0 23 22.5 35t55.5 12q32 0 55 -12t23 -35v-454q0 -100 96 -100t96 100v454q0 23 22.5 35t55.5 12q32 0 55 -12t23 -35v-454q0 -122 -69 -179t-183 -57q-115 0 -183.5 57t-68.5 179zM202 907q0 40 29 70.5t70 30.5q40 0 70.5 -30.5t30.5 -70.5 q0 -41 -30.5 -72t-70.5 -31t-69.5 31t-29.5 72zM261 906q0 -16 12 -29t29 -13q16 0 27.5 13t11.5 29q0 15 -11.5 27t-27.5 12q-17 0 -29 -12t-12 -27z" />
<glyph unicode="&#x16f;" horiz-adv-x="535" d="M40 200v228q0 18 23 33t55 15q30 0 53.5 -15t23.5 -33v-228q0 -29 22 -52t51 -23t50.5 23t21.5 52v229q0 19 23.5 33t54.5 14q33 0 55 -14t22 -33v-229q0 -84 -67.5 -147t-159.5 -63q-93 0 -160.5 63t-67.5 147zM167 668q0 40 29 70.5t70 30.5q40 0 70.5 -30.5 t30.5 -70.5q0 -41 -30.5 -72t-70.5 -31t-69.5 31t-29.5 72zM226 667q0 -16 12 -29t29 -13q16 0 27.5 13t11.5 29q0 15 -11.5 27t-27.5 12q-17 0 -29 -12t-12 -27z" />
<glyph unicode="&#x170;" horiz-adv-x="606" d="M51 230v454q0 23 22.5 35t55.5 12q32 0 55 -12t23 -35v-454q0 -100 96 -100t96 100v454q0 23 22.5 35t55.5 12q32 0 55 -12t23 -35v-454q0 -122 -69 -179t-183 -57q-115 0 -183.5 57t-68.5 179zM168 839q0 9 7 17l79 95q8 10 22 10q16 0 30 -14.5t14 -28.5q0 -10 -6 -17 l-79 -95q-8 -11 -21 -11q-17 0 -31.5 14.5t-14.5 29.5zM328 839q0 9 7 17l79 95q8 10 22 10q16 0 30 -14.5t14 -28.5q0 -10 -6 -17l-79 -95q-8 -11 -21 -11q-17 0 -31.5 14.5t-14.5 29.5z" />
<glyph unicode="&#x171;" horiz-adv-x="535" d="M40 200v228q0 18 23 33t55 15q30 0 53.5 -15t23.5 -33v-228q0 -29 22 -52t51 -23t50.5 23t21.5 52v229q0 19 23.5 33t54.5 14q33 0 55 -14t22 -33v-229q0 -84 -67.5 -147t-159.5 -63q-93 0 -160.5 63t-67.5 147zM137 600q0 9 7 17l79 95q7 10 22 10t29.5 -14t14.5 -29 q0 -9 -6 -17l-79 -95q-8 -11 -21 -11q-17 0 -31.5 14.5t-14.5 29.5zM297 600q0 9 7 17l79 95q7 10 22 10t29.5 -14t14.5 -29q0 -9 -6 -17l-79 -95q-8 -11 -21 -11q-17 0 -31.5 14.5t-14.5 29.5z" />
<glyph unicode="&#x172;" horiz-adv-x="606" d="M51 230v454q0 23 22.5 35t55.5 12q32 0 55 -12t23 -35v-454q0 -100 96 -100t96 100v454q0 23 22.5 35t55.5 12q32 0 55 -12t23 -35v-454q0 -176 -146 -221q-33 -19 -56 -52.5t-23 -63.5q0 -48 58 -48q25 0 25 -34q0 -29 -31 -29q-63 0 -94 27t-31 70q0 64 53 115h-7 q-115 0 -183.5 57t-68.5 179z" />
<glyph unicode="&#x173;" horiz-adv-x="535" d="M40 200v228q0 18 23 33t55 15q30 0 53.5 -15t23.5 -33v-228q0 -29 22 -52t51 -23t50.5 23t21.5 52v229q0 19 23.5 33t54.5 14q33 0 55 -14t22 -33v-229q0 -63 -39 -116t-101 -78q-32 -19 -53.5 -51.5t-21.5 -61.5q0 -48 58 -48q25 0 25 -34q0 -29 -31 -29q-63 0 -94 27 t-31 70q0 59 49 111q-90 4 -153 66.5t-63 143.5z" />
<glyph unicode="&#x174;" horiz-adv-x="920" d="M3 669q0 24 32.5 43t68.5 19q42 0 50 -29l152 -513l79 338q4 19 26 30t49 11t49 -11t26 -30l79 -338l152 513q8 29 50 29q36 0 68.5 -19t32.5 -43q0 -7 -2 -13l-199 -610q-9 -25 -37.5 -38.5t-65.5 -13.5t-66 13.5t-35 38.5l-52 237l-52 -237q-6 -25 -35 -38.5t-66 -13.5 t-66 13.5t-37 38.5l-199 610q-2 6 -2 13zM314 854q0 30 25 44l104 56q10 5 17 5t17 -5l104 -56q25 -14 25 -44q0 -18 -9 -32t-22 -14q-5 0 -11 3l-104 56l-104 -56q-6 -3 -11 -3q-13 0 -22 14t-9 32z" />
<glyph unicode="&#x175;" horiz-adv-x="702" d="M2 420q0 25 34.5 43.5t67.5 18.5q35 0 43 -24l89 -254l64 215q9 30 51 30t51 -30l64 -215l89 254q8 24 42 24q33 0 67.5 -19t34.5 -45q0 -11 -4 -19l-154 -385q-11 -27 -60 -27q-54 0 -64 27l-66 174l-66 -174q-10 -27 -65 -27q-48 0 -59 27l-154 385q-5 13 -5 21z M205 615q0 30 25 44l104 56q10 5 17 5t17 -5l104 -56q25 -14 25 -44q0 -18 -9 -32t-22 -14q-5 0 -11 3l-104 56l-104 -56q-6 -3 -11 -3q-13 0 -22 14t-9 32z" />
<glyph unicode="&#x176;" horiz-adv-x="590" d="M4 667q0 26 35.5 45t70.5 19q18 0 27 -6.5t18 -22.5l140 -257l139 257q15 29 45 29q35 0 70.5 -19t35.5 -45q0 -7 -2 -11l-206 -343q-4 -6 -4 -14v-251q0 -23 -23 -35.5t-55 -12.5t-55 12.5t-23 35.5v251q0 8 -4 14l-207 343q-2 4 -2 11zM149 854q0 30 25 44l104 56 q10 5 17 5t17 -5l104 -56q25 -14 25 -44q0 -18 -9 -32t-22 -14q-5 0 -11 3l-104 56l-104 -56q-6 -3 -11 -3q-13 0 -22 14t-9 32z" />
<glyph unicode="&#x177;" d="M1 -151q0 64 38 64q142 0 142 128l-175 348q-5 10 -5 20q0 28 36 51t69 23t43 -25l113 -271l83 271q10 25 40 25q31 0 69 -23.5t38 -53.5q0 -10 -4 -17l-142 -354q-5 -14 -18 -47l-18 -46q-5 -15 -18.5 -41.5t-25 -39.5t-31.5 -31t-42 -26t-53 -14.5t-68 -6.5 q-35 0 -53 13t-18 53zM116 615q0 30 25 44l104 56q10 5 17 5t17 -5l104 -56q25 -14 25 -44q0 -18 -9 -32t-22 -14q-5 0 -11 3l-104 56l-104 -56q-6 -3 -11 -3q-13 0 -22 14t-9 32z" />
<glyph unicode="&#x178;" horiz-adv-x="590" d="M4 667q0 26 35.5 45t70.5 19q18 0 27 -6.5t18 -22.5l140 -257l139 257q15 29 45 29q35 0 70.5 -19t35.5 -45q0 -7 -2 -11l-206 -343q-4 -6 -4 -14v-251q0 -23 -23 -35.5t-55 -12.5t-55 12.5t-23 35.5v251q0 8 -4 14l-207 343q-2 4 -2 11zM159 869q0 23 17 40.5t40 17.5 t39.5 -17.5t16.5 -40.5q0 -24 -16.5 -41.5t-39.5 -17.5t-40 18t-17 41zM319 869q0 23 17 40.5t40 17.5t39.5 -17.5t16.5 -40.5q0 -24 -16.5 -41.5t-39.5 -17.5t-40 18t-17 41z" />
<glyph unicode="&#x179;" horiz-adv-x="536" d="M9 41q0 26 17 55l282 499h-232q-22 0 -34.5 20t-12.5 48t12 48t35 20h386q45 0 45 -41q0 -24 -17 -55l-282 -499h272q21 0 34 -21t13 -47t-13 -47t-34 -21h-426q-45 0 -45 41zM191 856q0 25 20 35l140 65q7 3 14 3q19 0 33 -18.5t14 -39.5q0 -24 -20 -34l-140 -65 q-10 -4 -15 -4q-19 0 -32.5 18.5t-13.5 39.5z" />
<glyph unicode="&#x17a;" horiz-adv-x="448" d="M18 54q0 29 27 64l177 233h-153q-18 0 -31 18.5t-13 44.5t12 44t32 18h299q20 0 34 -13t14 -38q0 -34 -25 -67l-178 -233h177q18 0 31 -18.5t13 -44.5t-12 -44t-32 -18h-321q-26 0 -38.5 16t-12.5 38zM161 617q0 25 20 35l140 65q7 3 14 3q19 0 33 -18.5t14 -39.5 q0 -24 -20 -34l-140 -65q-10 -4 -15 -4q-19 0 -32.5 18.5t-13.5 39.5z" />
<glyph unicode="&#x17b;" horiz-adv-x="536" d="M9 41q0 26 17 55l282 499h-232q-22 0 -34.5 20t-12.5 48t12 48t35 20h386q45 0 45 -41q0 -24 -17 -55l-282 -499h272q21 0 34 -21t13 -47t-13 -47t-34 -21h-426q-45 0 -45 41zM226 869q0 23 17 40.5t40 17.5t39.5 -17.5t16.5 -40.5q0 -24 -16.5 -41.5t-39.5 -17.5t-40 18 t-17 41z" />
<glyph unicode="&#x17c;" horiz-adv-x="448" d="M18 54q0 29 27 64l177 233h-153q-18 0 -31 18.5t-13 44.5t12 44t32 18h299q20 0 34 -13t14 -38q0 -34 -25 -67l-178 -233h177q18 0 31 -18.5t13 -44.5t-12 -44t-32 -18h-321q-26 0 -38.5 16t-12.5 38zM171 630q0 23 17 40.5t40 17.5t39.5 -17.5t16.5 -40.5 q0 -24 -16.5 -41.5t-39.5 -17.5t-40 18t-17 41z" />
<glyph unicode="&#x17d;" horiz-adv-x="536" d="M9 41q0 26 17 55l282 499h-232q-22 0 -34.5 20t-12.5 48t12 48t35 20h386q45 0 45 -41q0 -24 -17 -55l-282 -499h272q21 0 34 -21t13 -47t-13 -47t-34 -21h-426q-45 0 -45 41zM128 925q0 18 9 32t22 14q5 0 11 -3l104 -56l104 56q6 3 11 3q13 0 22 -14t9 -32 q0 -30 -25 -44l-104 -56q-10 -5 -17 -5t-17 5l-104 56q-25 14 -25 44z" />
<glyph unicode="&#x17e;" horiz-adv-x="448" d="M18 54q0 29 27 64l177 233h-153q-18 0 -31 18.5t-13 44.5t12 44t32 18h299q20 0 34 -13t14 -38q0 -34 -25 -67l-178 -233h177q18 0 31 -18.5t13 -44.5t-12 -44t-32 -18h-321q-26 0 -38.5 16t-12.5 38zM83 686q0 18 9 32t22 14q5 0 11 -3l104 -56l104 56q6 3 11 3 q13 0 22 -14t9 -32q0 -30 -25 -44l-104 -56q-10 -5 -17 -5t-17 5l-104 56q-25 14 -25 44z" />
<glyph unicode="&#x192;" horiz-adv-x="435" d="M-38 -69q0 32 14.5 54t36.5 22h23q28 0 39 75l64 478q11 87 76.5 147.5t148.5 60.5h65q20 0 32.5 -18.5t12.5 -46.5q0 -30 -14.5 -50t-35.5 -20h-61q-58 0 -69 -73l-15 -103h116q18 0 28 -16.5t10 -38.5q0 -23 -10 -39t-28 -16h-132l-37 -265q-13 -96 -60.5 -157.5 t-131.5 -61.5h-26q-21 0 -33.5 20t-12.5 48z" />
<glyph unicode="&#x1fc;" horiz-adv-x="817" d="M51 53v442q0 122 64.5 179t171.5 57h469q23 0 35 -20t12 -47q0 -29 -12.5 -49t-34.5 -20h-226v-169h108q22 0 34.5 -18t12.5 -43q0 -23 -12 -41t-35 -18h-108v-170h226q22 0 34.5 -20t12.5 -49q0 -27 -12 -47t-35 -20h-314q-28 0 -48 12.5t-20 35.5v258h-177v-253 q0 -26 -15.5 -39.5t-62.5 -13.5q-68 0 -68 53zM197 426h177v169h-87q-90 0 -90 -100v-69zM388 852q0 25 20 35l140 65q8 3 14 3q19 0 33 -18.5t14 -39.5q0 -24 -20 -34l-140 -65q-10 -4 -15 -4q-19 0 -32.5 18.5t-13.5 39.5z" />
<glyph unicode="&#x1fd;" horiz-adv-x="756" d="M17 123q0 83 60.5 117t173.5 34h36v10q0 30 -18 52t-57 22q-48 0 -79 -16.5t-38 -16.5q-24 0 -38 23.5t-14 53.5q0 33 55.5 56.5t115.5 23.5q101 0 158 -72q64 72 145 72q89 0 152 -53.5t63 -136.5q0 -32 -8 -52t-24 -28t-29.5 -10.5t-35.5 -2.5h-193v-6q0 -37 28 -59.5 t74 -22.5q35 0 73.5 18.5t51.5 18.5q25 0 41 -23.5t16 -44.5q0 -31 -53.5 -60.5t-132.5 -29.5q-119 0 -189 94q-82 -94 -176 -94q-68 0 -113 34t-45 99zM173 145q0 -42 39 -42q25 0 50 28t25 64v4h-4q-33 0 -54.5 -3t-38.5 -15.5t-17 -35.5zM279 617q0 25 20 35l140 65 q7 3 14 3q19 0 33 -18.5t14 -39.5q0 -24 -20 -34l-140 -65q-10 -4 -15 -4q-19 0 -32.5 18.5t-13.5 39.5zM442 286h124q21 0 21 24q0 28 -21.5 44t-51.5 16q-29 0 -50.5 -16t-21.5 -44v-24z" />
<glyph unicode="&#x1fe;" horiz-adv-x="583" d="M46 230v265q0 122 67 179t178 57q64 0 114 -19l17 35q12 25 42 25q22 0 40.5 -15t18.5 -38q0 -11 -4 -19l-26 -52q44 -58 44 -153v-265q0 -122 -67 -179t-179 -57q-61 0 -109 16l-15 -31q-12 -25 -45 -25q-24 0 -40 16.5t-16 36.5q0 9 5 19l22 45q-47 58 -47 159z M202 295l140 288q-21 12 -51 12q-89 0 -89 -100v-200zM205 856q0 25 20 35l140 65q7 3 14 3q19 0 33 -18.5t14 -39.5q0 -24 -20 -34l-140 -65q-10 -4 -15 -4q-19 0 -32.5 18.5t-13.5 39.5zM245 139q19 -9 46 -9q90 0 90 100v187z" />
<glyph unicode="&#x1ff;" horiz-adv-x="509" d="M27 202v70q0 85 67 147.5t160 62.5q64 0 121 -33l36 48q9 13 22 13t23 -9.5t10 -22.5q0 -10 -8 -21l-35 -46q59 -61 59 -139v-70q0 -84 -68.5 -148t-159.5 -64q-66 0 -126 37l-39 -51q-6 -8 -17 -8q-12 0 -21.5 9t-9.5 21q0 9 7 18l36 48q-57 62 -57 138zM182 194 l108 142q-17 11 -36 11q-29 0 -50.5 -23t-21.5 -52v-78zM191 617q0 25 20 35l140 65q7 3 14 3q19 0 33 -18.5t14 -39.5q0 -24 -20 -34l-140 -65q-10 -4 -15 -4q-19 0 -32.5 18.5t-13.5 39.5zM214 138q18 -13 40 -13q30 0 51.5 23.5t21.5 53.5v70q0 2 -0.5 6t-0.5 6z" />
<glyph unicode="&#x218;" horiz-adv-x="533" d="M19 120q0 28 20.5 56t47.5 28q15 0 33.5 -11.5t34 -25.5t43.5 -25.5t59 -11.5q39 0 68 16.5t29 49.5t-32.5 58t-79 45.5t-93.5 46t-79.5 72.5t-32.5 112q0 104 75 155.5t181 51.5q26 0 54.5 -3t64 -11.5t58 -27.5t22.5 -46q0 -26 -16.5 -54t-45.5 -28q-12 0 -51 19 t-86 19q-50 0 -75 -17.5t-25 -42.5q0 -23 23.5 -42t58.5 -32.5t76.5 -35t76.5 -47t58.5 -71.5t23.5 -105q0 -105 -69 -163.5t-181 -58.5q-97 0 -169 40t-72 90zM165 -151q0 25 20 35l140 65q7 3 14 3q19 0 33 -18.5t14 -39.5q0 -24 -20 -34l-140 -65q-10 -4 -15 -4 q-19 0 -32.5 18.5t-13.5 39.5z" />
<glyph unicode="&#x219;" horiz-adv-x="429" d="M21 82q0 21 15 44.5t36 23.5q12 0 29.5 -11t44 -22.5t61.5 -11.5q62 0 62 33q0 18 -24 29.5t-58.5 19.5t-69 21t-58.5 43t-24 77q0 64 45 109t143 45q67 0 118.5 -20.5t51.5 -51.5q0 -20 -16 -46.5t-40 -26.5q-10 0 -46 15t-66 15q-28 0 -42.5 -9.5t-14.5 -22.5 q0 -15 24.5 -24t59 -17.5t69 -22t59 -46t24.5 -81.5q0 -72 -50.5 -113t-142.5 -41q-78 0 -134 27.5t-56 64.5zM107 -151q0 25 20 35l140 65q7 3 14 3q19 0 33 -18.5t14 -39.5q0 -24 -20 -34l-140 -65q-10 -4 -15 -4q-19 0 -32.5 18.5t-13.5 39.5z" />
<glyph unicode="&#x237;" horiz-adv-x="245" d="M-40 -154q0 30 16.5 48.5t41.5 18.5q17 0 22 14.5t5 44.5v457q0 21 21.5 34t54.5 13q34 0 56.5 -13t22.5 -34v-457q0 -85 -42 -137t-117 -52q-81 0 -81 63z" />
<glyph unicode="&#x259;" d="M24 180q0 32 8 52t24 28t29.5 10.5t35.5 2.5h193v6q0 37 -28 59.5t-74 22.5q-35 0 -73.5 -18.5t-51.5 -18.5q-25 0 -41 23.5t-16 44.5q0 31 53.5 60.5t132.5 29.5q112 0 182.5 -58.5t70.5 -153.5v-73q0 -85 -67.5 -146t-162.5 -61q-89 0 -152 53.5t-63 136.5zM169 162 q0 -28 21.5 -44t51.5 -16q29 0 50.5 16t21.5 44v24h-124q-21 0 -21 -24z" />
<glyph unicode="&#x2c6;" horiz-adv-x="292" d="M0 615q0 30 25 44l104 56q10 5 17 5t17 -5l104 -56q25 -14 25 -44q0 -18 -9 -32t-22 -14q-5 0 -11 3l-104 56l-104 -56q-6 -3 -11 -3q-13 0 -22 14t-9 32z" />
<glyph unicode="&#x2c7;" horiz-adv-x="292" d="M0 686q0 18 9 32t22 14q5 0 11 -3l104 -56l104 56q6 3 11 3q13 0 22 -14t9 -32q0 -30 -25 -44l-104 -56q-10 -5 -17 -5t-17 5l-104 56q-25 14 -25 44z" />
<glyph unicode="&#x2d8;" horiz-adv-x="279" d="M0 724h80q0 -31 18.5 -52t41.5 -21q22 0 40.5 21t18.5 52h80q0 -55 -42.5 -97t-96.5 -42t-97 42t-43 97z" />
<glyph unicode="&#x2d9;" horiz-adv-x="187" d="M40 630q0 23 17 40.5t40 17.5t39.5 -17.5t16.5 -40.5q0 -24 -16.5 -41.5t-39.5 -17.5t-40 18t-17 41z" />
<glyph unicode="&#x2da;" horiz-adv-x="200" d="M0 668q0 40 29 70.5t70 30.5q40 0 70.5 -30.5t30.5 -70.5q0 -41 -30.5 -72t-70.5 -31t-69.5 31t-29.5 72zM59 667q0 -16 12 -29t29 -13q16 0 27.5 13t11.5 29q0 15 -11.5 27t-27.5 12q-17 0 -29 -12t-12 -27z" />
<glyph unicode="&#x2db;" horiz-adv-x="156" d="M0 -121q0 41 27 82.5t72 66.5l53 -19q-33 -19 -56 -52.5t-23 -63.5q0 -48 58 -48q25 0 25 -34q0 -29 -31 -29q-63 0 -94 27t-31 70z" />
<glyph unicode="&#x2dc;" horiz-adv-x="355" d="M0 634q0 73 85 73q31 0 75 -13.5t71 -13.5q23 0 50 10.5t36 10.5q20 0 29 -17.5t9 -31.5q0 -73 -85 -73q-38 0 -81.5 13.5t-64.5 13.5q-23 0 -50 -10.5t-36 -10.5q-20 0 -29 17.5t-9 31.5z" />
<glyph unicode="&#x2dd;" horiz-adv-x="312" d="M0 600q0 9 7 17l79 95q8 10 22 10q16 0 30 -14t14 -29q0 -9 -6 -17l-79 -95q-8 -11 -21 -11q-17 0 -31.5 14.5t-14.5 29.5zM160 600q0 9 7 17l79 95q8 10 22 10q16 0 30 -14t14 -29q0 -9 -6 -17l-79 -95q-8 -11 -21 -11q-17 0 -31.5 14.5t-14.5 29.5z" />
<glyph unicode="&#x3c0;" horiz-adv-x="561" d="M45 47v381q0 23 20 35.5t48 12.5h335q28 0 48 -12.5t20 -35.5v-381q0 -23 -23 -35t-55 -12t-55 12t-23 35v293h-159v-293q0 -23 -23 -35t-55 -12t-55 12t-23 35z" />
<glyph unicode="&#x1e80;" horiz-adv-x="920" d="M3 669q0 24 32.5 43t68.5 19q42 0 50 -29l152 -513l79 338q4 19 26 30t49 11t49 -11t26 -30l79 -338l152 513q8 29 50 29q36 0 68.5 -19t32.5 -43q0 -7 -2 -13l-199 -610q-9 -25 -37.5 -38.5t-65.5 -13.5t-66 13.5t-35 38.5l-52 237l-52 -237q-6 -25 -35 -38.5t-66 -13.5 t-66 13.5t-37 38.5l-199 610q-2 6 -2 13zM330 901q0 21 14 39.5t33 18.5q7 0 14 -3l140 -65q20 -10 20 -35q0 -21 -13.5 -39.5t-32.5 -18.5q-5 0 -15 4l-140 65q-20 10 -20 34z" />
<glyph unicode="&#x1e81;" horiz-adv-x="702" d="M2 420q0 25 34.5 43.5t67.5 18.5q35 0 43 -24l89 -254l64 215q9 30 51 30t51 -30l64 -215l89 254q8 24 42 24q33 0 67.5 -19t34.5 -45q0 -11 -4 -19l-154 -385q-11 -27 -60 -27q-54 0 -64 27l-66 174l-66 -174q-10 -27 -65 -27q-48 0 -59 27l-154 385q-5 13 -5 21z M210 662q0 21 14 39.5t33 18.5q7 0 14 -3l140 -65q20 -10 20 -35q0 -21 -13.5 -39.5t-32.5 -18.5q-5 0 -15 4l-140 65q-20 10 -20 34z" />
<glyph unicode="&#x1e82;" horiz-adv-x="920" d="M3 669q0 24 32.5 43t68.5 19q42 0 50 -29l152 -513l79 338q4 19 26 30t49 11t49 -11t26 -30l79 -338l152 513q8 29 50 29q36 0 68.5 -19t32.5 -43q0 -7 -2 -13l-199 -610q-9 -25 -37.5 -38.5t-65.5 -13.5t-66 13.5t-35 38.5l-52 237l-52 -237q-6 -25 -35 -38.5t-66 -13.5 t-66 13.5t-37 38.5l-199 610q-2 6 -2 13zM370 856q0 25 20 35l140 65q8 3 14 3q19 0 33 -18.5t14 -39.5q0 -24 -20 -34l-140 -65q-10 -4 -15 -4q-19 0 -32.5 18.5t-13.5 39.5z" />
<glyph unicode="&#x1e83;" horiz-adv-x="702" d="M2 420q0 25 34.5 43.5t67.5 18.5q35 0 43 -24l89 -254l64 215q9 30 51 30t51 -30l64 -215l89 254q8 24 42 24q33 0 67.5 -19t34.5 -45q0 -11 -4 -19l-154 -385q-11 -27 -60 -27q-54 0 -64 27l-66 174l-66 -174q-10 -27 -65 -27q-48 0 -59 27l-154 385q-5 13 -5 21z M270 617q0 25 20 35l140 65q8 3 14 3q19 0 33 -18.5t14 -39.5q0 -24 -20 -34l-140 -65q-10 -4 -15 -4q-19 0 -32.5 18.5t-13.5 39.5z" />
<glyph unicode="&#x1e84;" horiz-adv-x="920" d="M3 669q0 24 32.5 43t68.5 19q42 0 50 -29l152 -513l79 338q4 19 26 30t49 11t49 -11t26 -30l79 -338l152 513q8 29 50 29q36 0 68.5 -19t32.5 -43q0 -7 -2 -13l-199 -610q-9 -25 -37.5 -38.5t-65.5 -13.5t-66 13.5t-35 38.5l-52 237l-52 -237q-6 -25 -35 -38.5t-66 -13.5 t-66 13.5t-37 38.5l-199 610q-2 6 -2 13zM324 869q0 23 17 40.5t40 17.5t39.5 -17.5t16.5 -40.5q0 -24 -16.5 -41.5t-39.5 -17.5t-40 18t-17 41zM484 869q0 23 17 40.5t40 17.5t39.5 -17.5t16.5 -40.5q0 -24 -16.5 -41.5t-39.5 -17.5t-40 18t-17 41z" />
<glyph unicode="&#x1e85;" horiz-adv-x="702" d="M2 420q0 25 34.5 43.5t67.5 18.5q35 0 43 -24l89 -254l64 215q9 30 51 30t51 -30l64 -215l89 254q8 24 42 24q33 0 67.5 -19t34.5 -45q0 -11 -4 -19l-154 -385q-11 -27 -60 -27q-54 0 -64 27l-66 174l-66 -174q-10 -27 -65 -27q-48 0 -59 27l-154 385q-5 13 -5 21z M215 630q0 23 17 40.5t40 17.5t39.5 -17.5t16.5 -40.5q0 -24 -16.5 -41.5t-39.5 -17.5t-40 18t-17 41zM375 630q0 23 17 40.5t40 17.5t39.5 -17.5t16.5 -40.5q0 -24 -16.5 -41.5t-39.5 -17.5t-40 18t-17 41z" />
<glyph unicode="&#x1ef2;" horiz-adv-x="590" d="M4 667q0 26 35.5 45t70.5 19q18 0 27 -6.5t18 -22.5l140 -257l139 257q15 29 45 29q35 0 70.5 -19t35.5 -45q0 -7 -2 -11l-206 -343q-4 -6 -4 -14v-251q0 -23 -23 -35.5t-55 -12.5t-55 12.5t-23 35.5v251q0 8 -4 14l-207 343q-2 4 -2 11zM164 901q0 21 14 39.5t33 18.5 q7 0 14 -3l140 -65q20 -10 20 -35q0 -21 -13.5 -39.5t-32.5 -18.5q-5 0 -15 4l-140 65q-20 10 -20 34z" />
<glyph unicode="&#x1ef3;" d="M1 -151q0 64 38 64q142 0 142 128l-175 348q-5 10 -5 20q0 28 36 51t69 23t43 -25l113 -271l83 271q10 25 40 25q31 0 69 -23.5t38 -53.5q0 -10 -4 -17l-142 -354q-5 -14 -18 -47l-18 -46q-5 -15 -18.5 -41.5t-25 -39.5t-31.5 -31t-42 -26t-53 -14.5t-68 -6.5 q-35 0 -53 13t-18 53zM107 662q0 21 14 39.5t33 18.5q6 0 14 -3l140 -65q20 -10 20 -35q0 -21 -13.5 -39.5t-32.5 -18.5q-5 0 -15 4l-140 65q-20 10 -20 34z" />
<glyph unicode="&#x2013;" horiz-adv-x="476" d="M31 240q0 27 13 45.5t34 18.5h320q19 0 33.5 -19t14.5 -45q0 -27 -14.5 -45t-33.5 -18h-320q-21 0 -34 17.5t-13 45.5z" />
<glyph unicode="&#x2014;" horiz-adv-x="757" d="M31 240q0 27 13 45.5t34 18.5h601q19 0 33.5 -19t14.5 -45q0 -27 -14.5 -45t-33.5 -18h-601q-21 0 -34 17.5t-13 45.5z" />
<glyph unicode="&#x2018;" horiz-adv-x="191" d="M16 563q0 16 62 160q8 18 30 18q18 0 34 -11t16 -28q0 -8 -4 -16l-25 -54q40 -23 40 -68q0 -32 -22.5 -54.5t-53.5 -22.5t-54 22.5t-23 53.5z" />
<glyph unicode="&#x2019;" horiz-adv-x="190" d="M23 664q0 32 22.5 54.5t53.5 22.5t54 -22.5t23 -53.5q0 -16 -62 -160q-8 -18 -30 -18q-18 0 -34 11t-16 28q0 8 4 16l25 54q-40 23 -40 68z" />
<glyph unicode="&#x201a;" horiz-adv-x="199" d="M23 71q0 32 22.5 54.5t53.5 22.5t54 -22.5t23 -53.5q0 -16 -62 -160q-8 -18 -30 -18q-18 0 -34 11t-16 28q0 8 4 16l25 54q-40 23 -40 68z" />
<glyph unicode="&#x201c;" horiz-adv-x="391" d="M16 563q0 16 62 160q8 18 30 18q18 0 34 -11t16 -28q0 -8 -4 -16l-25 -54q40 -23 40 -68q0 -32 -22.5 -54.5t-53.5 -22.5t-54 22.5t-23 53.5zM216 563q0 16 62 160q8 18 30 18q18 0 34 -11t16 -28q0 -8 -4 -16l-25 -54q40 -23 40 -68q0 -32 -22.5 -54.5t-53.5 -22.5 t-54 22.5t-23 53.5z" />
<glyph unicode="&#x201d;" horiz-adv-x="390" d="M23 664q0 32 22.5 54.5t53.5 22.5t54 -22.5t23 -53.5q0 -16 -62 -160q-8 -18 -30 -18q-18 0 -34 11t-16 28q0 8 4 16l25 54q-40 23 -40 68zM223 664q0 32 22.5 54.5t53.5 22.5t54 -22.5t23 -53.5q0 -16 -62 -160q-8 -18 -30 -18q-18 0 -34 11t-16 28q0 8 4 16l25 54 q-40 23 -40 68z" />
<glyph unicode="&#x201e;" horiz-adv-x="399" d="M23 71q0 32 22.5 54.5t53.5 22.5t54 -22.5t23 -53.5q0 -16 -62 -160q-8 -18 -30 -18q-18 0 -34 11t-16 28q0 8 4 16l25 54q-40 23 -40 68zM223 71q0 32 22.5 54.5t53.5 22.5t54 -22.5t23 -53.5q0 -16 -62 -160q-8 -18 -30 -18q-18 0 -34 11t-16 28q0 8 4 16l25 54 q-40 23 -40 68z" />
<glyph unicode="&#x2020;" horiz-adv-x="453" d="M19 454q0 25 13 42.5t34 17.5l82 -6v176q0 19 23 33t55 14q30 0 54 -14.5t24 -32.5v-176l82 6q18 0 33 -18t15 -42q0 -25 -14.5 -42t-33.5 -17l-82 6v-365q0 -22 -24 -39.5t-54 -17.5q-32 0 -55 17t-23 40v365l-82 -6q-21 0 -34 16.5t-13 42.5z" />
<glyph unicode="&#x2021;" horiz-adv-x="463" d="M24 241q0 25 13 42.5t34 17.5l82 -6v106l-82 -6q-21 0 -34 16.5t-13 42.5q0 25 13 42.5t34 17.5l82 -6v176q0 19 23 33t55 14q30 0 54 -14.5t24 -32.5v-176l82 6q18 0 33 -18t15 -42q0 -25 -14.5 -42t-33.5 -17l-82 6v-106l82 6q18 0 33 -18t15 -42q0 -25 -14.5 -42 t-33.5 -17l-82 6v-152q0 -22 -24 -39.5t-54 -17.5q-32 0 -55 17t-23 40v152l-82 -6q-21 0 -34 16.5t-13 42.5z" />
<glyph unicode="&#x2022;" horiz-adv-x="335" d="M26 300q0 54 42.5 94.5t99.5 40.5q56 0 98.5 -40.5t42.5 -94.5q0 -55 -42.5 -95.5t-98.5 -40.5q-57 0 -99.5 40.5t-42.5 95.5z" />
<glyph unicode="&#x2026;" horiz-adv-x="592" d="M23 71q0 32 22 54.5t55 22.5q31 0 53.5 -23t22.5 -54t-22.5 -54t-53.5 -23q-32 0 -54.5 23t-22.5 54zM220 71q0 32 22 54.5t55 22.5q31 0 53.5 -23t22.5 -54t-22.5 -54t-53.5 -23q-32 0 -54.5 23t-22.5 54zM416 71q0 32 22 54.5t55 22.5q31 0 53.5 -23t22.5 -54 t-22.5 -54t-53.5 -23q-32 0 -54.5 23t-22.5 54z" />
<glyph unicode="&#x2030;" horiz-adv-x="1156" d="M24 454v142q0 70 40.5 102.5t109.5 32.5q68 0 109 -32.5t41 -102.5v-142q0 -70 -41 -102.5t-109 -32.5q-69 0 -109.5 32.5t-40.5 102.5zM125 454q0 -48 49 -48q50 0 50 48v142q0 48 -50 48q-49 0 -49 -48v-142zM177 7q0 9 5 19l351 721q12 25 42 25q22 0 40.5 -15 t18.5 -38q0 -11 -4 -19l-352 -721q-12 -25 -45 -25q-24 0 -40 16.5t-16 36.5zM483 132v142q0 70 40.5 102.5t109.5 32.5q68 0 109 -32.5t41 -102.5v-142q0 -70 -41 -102.5t-109 -32.5q-69 0 -109.5 32.5t-40.5 102.5zM584 132q0 -48 49 -48q50 0 50 48v142q0 48 -50 48 q-49 0 -49 -48v-142zM832 132v142q0 70 40.5 102.5t109.5 32.5q68 0 109 -32.5t41 -102.5v-142q0 -70 -41 -102.5t-109 -32.5q-69 0 -109.5 32.5t-40.5 102.5zM933 132q0 -48 49 -48q50 0 50 48v142q0 48 -50 48q-49 0 -49 -48v-142z" />
<glyph unicode="&#x2039;" horiz-adv-x="287" d="M21 276q0 8 3 15t12 21l13 24l67 125q10 19 42 19q37 0 67.5 -26.5t30.5 -51.5q0 -8 -3 -14l-59 -111l59 -111q3 -6 3 -14q0 -25 -30.5 -51.5t-67.5 -26.5q-32 0 -42 19l-67 125q-5 10 -13.5 23t-11.5 20t-3 15z" />
<glyph unicode="&#x203a;" horiz-adv-x="287" d="M31 152q0 8 3 14l59 111l-59 111q-3 6 -3 14q0 25 30.5 51.5t67.5 26.5q33 0 42 -19l67 -125l11 -20l9 -15q3 -5 5.5 -12t2.5 -13q0 -8 -3 -15t-11.5 -20t-13.5 -23l-67 -125q-9 -19 -42 -19q-37 0 -67.5 26.5t-30.5 51.5z" />
<glyph unicode="&#x2044;" horiz-adv-x="198" d="M-130 7q0 9 5 19l351 721q12 25 42 25q22 0 40.5 -15t18.5 -38q0 -11 -4 -19l-352 -721q-12 -25 -45 -25q-24 0 -40 16.5t-16 36.5z" />
<glyph unicode="&#x2070;" horiz-adv-x="354" d="M27 454v142q0 70 40.5 102.5t109.5 32.5q68 0 109 -32.5t41 -102.5v-142q0 -70 -41 -102.5t-109 -32.5q-69 0 -109.5 32.5t-40.5 102.5zM128 454q0 -48 49 -48q50 0 50 48v142q0 48 -50 48q-49 0 -49 -48v-142z" />
<glyph unicode="&#x2074;" horiz-adv-x="328" d="M-1 440q0 9 5 18l137 248q14 25 42 25q15 0 32.5 -10.5t17.5 -26.5q0 -6 -3 -12l-102 -184h43v21q0 15 14.5 22.5t35.5 7.5q51 0 51 -30v-21h25q14 0 22 -13.5t8 -32.5q0 -17 -9.5 -31.5t-20.5 -14.5h-25v-54q0 -14 -15 -22t-36 -8q-20 0 -35 8t-15 22v54h-139 q-14 0 -23.5 9t-9.5 25z" />
<glyph unicode="&#x2075;" horiz-adv-x="328" d="M13 425q0 25 12.5 34.5t37.5 9.5q31 0 41 -9.5t10 -27.5q0 -26 48 -26q50 0 50 44v11q0 47 -49 47h-92q-38 0 -38 40q0 10 1 18l16 135q3 30 18 30h194q29 0 29 -43q0 -18 -7.5 -31t-21.5 -13h-129l-6 -59h36q68 0 109 -29.5t41 -94.5v-11q0 -67 -41 -99t-108 -32 q-70 0 -110.5 31.5t-40.5 74.5z" />
<glyph unicode="&#x2076;" horiz-adv-x="351" d="M28 447v149q0 70 42.5 102.5t113.5 32.5q72 0 108 -33.5t36 -73.5q0 -23 -11 -31.5t-36 -8.5q-52 0 -52 36q0 24 -48 24q-52 0 -52 -48v-41q22 21 73 21q126 0 126 -119v-4q0 -70 -40.5 -102t-108.5 -32q-67 0 -109 31t-42 97zM129 447q0 -48 50 -48q49 0 49 47v4 q0 50 -50 50q-49 0 -49 -45v-8z" />
<glyph unicode="&#x2077;" horiz-adv-x="319" d="M10 614v87q0 11 14 20.5t30 9.5h213q15 0 29 -9.5t14 -20.5v-76q0 -27 -20 -62l-136 -232q-7 -13 -28 -13q-25 0 -44.5 15t-19.5 36q0 9 4 16l144 218v41h-99v-30q0 -12 -15.5 -21t-35.5 -9t-35 8.5t-15 21.5z" />
<glyph unicode="&#x2078;" horiz-adv-x="341" d="M20 434v7q0 82 76 105q-61 19 -61 85q0 50 36.5 75t99.5 25q62 0 98.5 -25t36.5 -75q0 -66 -61 -85q75 -23 75 -105v-7q0 -59 -40.5 -87t-108.5 -28t-109.5 28t-41.5 87zM121 447q0 -49 49 -49q50 0 50 49v13q0 45 -49 45q-50 0 -50 -45v-13zM132 618q0 -33 39 -33 q38 0 38 33q0 34 -38 34q-39 0 -39 -34z" />
<glyph unicode="&#x2079;" horiz-adv-x="349" d="M22 426q0 23 11 31.5t36 8.5q52 0 52 -36q0 -24 48 -24q53 0 53 48v41q-22 -21 -73 -21q-127 0 -127 119v4q0 70 40.5 102t109.5 32q68 0 109 -32.5t41 -102.5v-142q0 -70 -42.5 -102.5t-113.5 -32.5t-107.5 33.5t-36.5 73.5zM123 599q0 -49 50 -49q49 0 49 45v8 q0 48 -50 48q-49 0 -49 -48v-4z" />
<glyph unicode="&#x2080;" horiz-adv-x="354" d="M27 132v142q0 70 40.5 102.5t109.5 32.5q68 0 109 -32.5t41 -102.5v-142q0 -70 -41 -102.5t-109 -32.5q-69 0 -109.5 32.5t-40.5 102.5zM128 132q0 -48 49 -48q50 0 50 48v142q0 48 -50 48q-49 0 -49 -48v-142z" />
<glyph unicode="&#x2081;" horiz-adv-x="201" d="M1 335q0 23 18 33l84 40q7 3 17 3q17 0 31 -8.5t14 -22.5v-350q0 -14 -15 -22t-35 -8q-21 0 -36 8t-15 22v273l-16 -4q-9 -3 -16 -3q-13 0 -22 12t-9 27z" />
<glyph unicode="&#x2082;" horiz-adv-x="326" d="M19 30v55q0 29 29 59t64.5 51t64.5 46.5t29 46.5q0 12 -10 21.5t-31 9.5q-41 0 -41 -36q0 -14 -14.5 -25t-38.5 -11q-45 0 -45 51t41 81t97 30q57 0 100 -31t43 -87q0 -40 -28.5 -74.5t-63 -54t-63 -39t-28.5 -32.5v-4h152q12 0 21 -13t9 -30t-9 -30.5t-21 -13.5h-213 q-15 0 -29.5 8.5t-14.5 21.5z" />
<glyph unicode="&#x2083;" horiz-adv-x="336" d="M15 106q0 21 10.5 28t37.5 7q30 0 40.5 -7t10.5 -25q0 -12 9 -17.5t17.5 -6.5t23.5 -1q29 0 40 9t11 32v11q0 23 -13.5 30t-40.5 7q-29 0 -29 38t29 39q11 1 15.5 1.5t12.5 4t11.5 12.5t3.5 23q0 33 -41 33q-16 0 -22.5 -1t-12 -5.5t-5.5 -14.5q0 -35 -47 -35 q-34 0 -43 7.5t-9 30.5q0 42 33.5 72.5t105.5 30.5q137 0 137 -102q0 -30 -12 -56t-34 -35q61 -20 61 -80v-11q0 -66 -42.5 -97t-112.5 -31q-72 0 -108.5 33.5t-36.5 75.5z" />
<glyph unicode="&#x2084;" horiz-adv-x="327" d="M-1 118q0 9 5 18l137 248q14 25 42 25q15 0 32.5 -10.5t17.5 -26.5q0 -6 -3 -12l-102 -184h43v21q0 15 14.5 22.5t35.5 7.5q51 0 51 -30v-21h25q14 0 22 -13.5t8 -32.5q0 -17 -9.5 -31.5t-20.5 -14.5h-25v-54q0 -14 -15 -22t-36 -8q-20 0 -35 8t-15 22v54h-139 q-14 0 -23.5 9t-9.5 25z" />
<glyph unicode="&#x2085;" horiz-adv-x="328" d="M13 103q0 25 12.5 34.5t37.5 9.5q31 0 41 -9.5t10 -27.5q0 -26 48 -26q50 0 50 44v11q0 47 -49 47h-92q-38 0 -38 40q0 10 1 18l16 135q3 30 18 30h194q29 0 29 -43q0 -18 -7.5 -31t-21.5 -13h-129l-6 -59h36q68 0 109 -29.5t41 -94.5v-11q0 -67 -41 -99t-108 -32 q-70 0 -110.5 31.5t-40.5 74.5z" />
<glyph unicode="&#x2086;" horiz-adv-x="350" d="M27 125v149q0 70 42.5 102.5t113.5 32.5q72 0 108 -33.5t36 -73.5q0 -23 -11 -31.5t-36 -8.5q-52 0 -52 36q0 24 -48 24q-52 0 -52 -48v-41q22 21 73 21q126 0 126 -119v-4q0 -70 -40.5 -102t-108.5 -32q-67 0 -109 31t-42 97zM128 125q0 -48 50 -48q49 0 49 47v4 q0 50 -50 50q-49 0 -49 -45v-8z" />
<glyph unicode="&#x2087;" horiz-adv-x="319" d="M10 292v87q0 11 14 20.5t30 9.5h213q15 0 29 -9.5t14 -20.5v-76q0 -27 -20 -62l-136 -232q-7 -13 -28 -13q-25 0 -44.5 15t-19.5 36q0 9 4 16l144 218v41h-99v-30q0 -12 -15.5 -21t-35.5 -9t-35 8.5t-15 21.5z" />
<glyph unicode="&#x2088;" horiz-adv-x="341" d="M20 112v7q0 82 76 105q-61 19 -61 85q0 50 36.5 75t99.5 25q62 0 98.5 -25t36.5 -75q0 -66 -61 -85q75 -23 75 -105v-7q0 -59 -40.5 -87t-108.5 -28t-109.5 28t-41.5 87zM121 125q0 -49 49 -49q50 0 50 49v13q0 45 -49 45q-50 0 -50 -45v-13zM132 296q0 -33 39 -33 q38 0 38 33q0 34 -38 34q-39 0 -39 -34z" />
<glyph unicode="&#x2089;" horiz-adv-x="350" d="M23 104q0 23 11 31.5t36 8.5q52 0 52 -36q0 -24 48 -24q53 0 53 48v41q-22 -21 -73 -21q-127 0 -127 119v4q0 70 40.5 102t109.5 32q68 0 109 -32.5t41 -102.5v-142q0 -70 -42.5 -102.5t-113.5 -32.5t-107.5 33.5t-36.5 73.5zM124 277q0 -49 50 -49q49 0 49 45v8 q0 48 -50 48q-49 0 -49 -48v-4z" />
<glyph unicode="&#x20ac;" horiz-adv-x="636" d="M23 268q0 24 13 39.5t34 15.5h40v60h-40q-21 0 -34 14.5t-13 37.5q0 24 13 39.5t34 15.5h40v5q0 122 66.5 179t174.5 57q109 0 179.5 -53t70.5 -146q0 -42 -17.5 -56t-61.5 -14q-42 0 -59.5 10t-17.5 33q0 90 -88 90q-91 0 -91 -100v-5h64q18 0 33 -16t15 -38 t-14.5 -37.5t-33.5 -15.5h-64v-60h64q18 0 33 -16t15 -38q0 -23 -14.5 -38t-33.5 -15h-64v-4q0 -8 3 -18.5t11 -26.5t28.5 -26.5t49.5 -10.5q28 0 46.5 9.5t26.5 26.5t11 31t3 33q1 24 18 33.5t59 9.5q45 0 62 -14t17 -57q0 -96 -70.5 -152t-179.5 -56q-114 0 -177.5 61 t-63.5 157v4h-40q-21 0 -34 14.5t-13 37.5z" />
<glyph unicode="&#x2122;" horiz-adv-x="693" d="M39 731q0 37 24 37h225q24 0 24 -37q0 -16 -6.5 -27t-17.5 -11h-72v-191q0 -12 -12 -19t-28 -7q-17 0 -29 7t-12 19v191h-72q-11 0 -17.5 11t-6.5 27zM329 502v225q0 21 11.5 31t28.5 10q24 0 36 -7t26 -35l55 -107l54 107q14 28 26 35t36 7q40 0 40 -41v-225 q0 -12 -12 -19t-28 -7t-28 7t-12 19v102l-51 -99q-8 -16 -26 -16q-19 0 -26 16l-49 103v-106q0 -12 -12.5 -19t-28.5 -7t-28 7t-12 19z" />
<glyph unicode="&#x2126;" horiz-adv-x="584" d="M35 68q0 29 14 48t33 19h97v12q-132 47 -132 223v125q0 122 67 179t178 57t178 -57t67 -179v-125q0 -90 -35.5 -146t-96.5 -77v-12h97q19 0 33 -19t14 -48t-13 -48.5t-34 -19.5h-182v275q61 13 61 95v125q0 100 -89 100t-89 -100v-125q0 -44 15.5 -69.5t45.5 -25.5v-275 h-182q-21 0 -34 19.5t-13 48.5z" />
<glyph unicode="&#x212e;" horiz-adv-x="563" d="M30 222v33q0 92 76 159.5t184 67.5q101 0 173 -53.5t72 -136.5q0 -28 -8 -46t-24 -25.5t-29.5 -9.5t-35.5 -2h-223v-6q0 -59 17 -85.5t79 -26.5q46 0 81 9t50 20l28 19q12 9 19 9q15 0 27.5 -24t12.5 -44q0 -31 -62 -60.5t-154 -29.5q-125 0 -204 64t-79 168zM215 276 h124q21 0 21 24q0 55 -17.5 74t-55.5 19t-55 -18.5t-17 -74.5v-24z" />
<glyph unicode="&#x2153;" horiz-adv-x="692" d="M21 657q0 23 18 33l84 40q7 3 17 3q17 0 31 -8.5t14 -22.5v-350q0 -14 -15 -22t-35 -8q-21 0 -36 8t-15 22v273l-16 -4q-9 -3 -16 -3q-13 0 -22 12t-9 27zM63 7q0 9 5 19l351 721q12 25 42 25q22 0 40.5 -15t18.5 -38q0 -11 -4 -19l-352 -721q-12 -25 -45 -25 q-24 0 -40 16.5t-16 36.5zM368 106q0 21 10 28t38 7q30 0 40.5 -7t10.5 -25q0 -17 13.5 -21t36.5 -4q29 0 40 9t11 32v11q0 23 -13.5 30t-40.5 7q-29 0 -29 38t29 39q11 1 15.5 1.5t12.5 4t11.5 12.5t3.5 23q0 33 -41 33q-16 0 -22.5 -1t-12 -5.5t-5.5 -14.5q0 -35 -47 -35 q-34 0 -43 7.5t-9 30.5q0 42 33.5 72.5t105.5 30.5q137 0 137 -102q0 -30 -12 -56t-34 -35q61 -20 61 -80v-11q0 -66 -42.5 -97t-112.5 -31q-72 0 -108.5 33.5t-36.5 75.5z" />
<glyph unicode="&#x2154;" horiz-adv-x="805" d="M25 352v55q0 29 29 59t64.5 51t64.5 46.5t29 46.5q0 12 -10 21.5t-31 9.5q-41 0 -41 -36q0 -14 -14.5 -25t-38.5 -11q-45 0 -45 51t41 81t97 30q57 0 100 -31t43 -87q0 -40 -28.5 -74.5t-63 -54t-63 -39t-28.5 -32.5v-4h152q12 0 21 -13t9 -30t-9 -30.5t-21 -13.5h-213 q-15 0 -29.5 8.5t-14.5 21.5zM187 7q0 9 5 19l351 721q12 25 42 25q22 0 40.5 -15t18.5 -38q0 -11 -4 -19l-352 -721q-12 -25 -45 -25q-24 0 -40 16.5t-16 36.5zM483 106q0 21 10.5 28t37.5 7q30 0 40.5 -7t10.5 -25q0 -12 9 -17.5t17.5 -6.5t23.5 -1q29 0 40 9t11 32v11 q0 23 -13.5 30t-40.5 7q-29 0 -29 38t29 39q11 1 15.5 1.5t12.5 4t11.5 12.5t3.5 23q0 33 -41 33q-16 0 -22.5 -1t-12 -5.5t-5.5 -14.5q0 -35 -47 -35q-34 0 -43 7.5t-9 30.5q0 42 33.5 72.5t105.5 30.5q137 0 137 -102q0 -30 -12 -56t-34 -35q61 -20 61 -80v-11 q0 -66 -42.5 -97t-112.5 -31q-72 0 -108.5 33.5t-36.5 75.5z" />
<glyph unicode="&#x215b;" horiz-adv-x="690" d="M21 657q0 23 18 33l84 40q7 3 17 3q17 0 31 -8.5t14 -22.5v-350q0 -14 -15 -22t-35 -8q-21 0 -36 8t-15 22v273l-16 -4q-9 -3 -16 -3q-13 0 -22 12t-9 27zM63 7q0 9 5 19l351 721q12 25 42 25q22 0 40.5 -15t18.5 -38q0 -11 -4 -19l-352 -721q-12 -25 -45 -25 q-24 0 -40 16.5t-16 36.5zM366 112v7q0 82 76 105q-61 19 -61 85q0 50 36.5 75t99.5 25q62 0 98.5 -25t36.5 -75q0 -66 -61 -85q75 -23 75 -105v-7q0 -59 -40.5 -87t-108.5 -28t-109.5 28t-41.5 87zM467 125q0 -49 49 -49q50 0 50 49v13q0 45 -49 45q-50 0 -50 -45v-13z M478 296q0 -33 39 -33q38 0 38 33q0 34 -38 34q-39 0 -39 -34z" />
<glyph unicode="&#x215c;" horiz-adv-x="811" d="M22 428q0 21 10 28t38 7q30 0 40.5 -7t10.5 -25q0 -17 13.5 -21t36.5 -4q29 0 40 9t11 32v11q0 23 -13.5 30t-40.5 7q-29 0 -29 38t29 39q11 1 15.5 1.5t12.5 4t11.5 12.5t3.5 23q0 33 -41 33q-16 0 -22.5 -1t-12 -5.5t-5.5 -14.5q0 -35 -47 -35q-34 0 -43 7.5t-9 30.5 q0 42 33.5 72.5t105.5 30.5q137 0 137 -102q0 -30 -12 -56t-34 -35q61 -20 61 -80v-11q0 -66 -42.5 -97t-112.5 -31q-72 0 -108.5 33.5t-36.5 75.5zM185 7q0 9 5 19l351 721q12 25 42 25q22 0 40.5 -15t18.5 -38q0 -11 -4 -19l-352 -721q-12 -25 -45 -25q-24 0 -40 16.5 t-16 36.5zM488 112v7q0 82 76 105q-61 19 -61 85q0 50 36.5 75t99.5 25q62 0 98.5 -25t36.5 -75q0 -66 -61 -85q75 -23 75 -105v-7q0 -59 -40.5 -87t-108.5 -28t-109.5 28t-41.5 87zM589 125q0 -49 49 -49q50 0 50 49v13q0 45 -49 45q-50 0 -50 -45v-13zM600 296 q0 -33 39 -33q38 0 38 33q0 34 -38 34q-39 0 -39 -34z" />
<glyph unicode="&#x215d;" horiz-adv-x="811" d="M21 425q0 25 12.5 34.5t37.5 9.5q31 0 41 -9.5t10 -27.5q0 -26 48 -26q50 0 50 44v11q0 47 -49 47h-92q-38 0 -38 40q0 10 1 18l16 135q3 30 18 30h194q29 0 29 -43q0 -18 -7.5 -31t-21.5 -13h-129l-6 -59h36q68 0 109 -29.5t41 -94.5v-11q0 -67 -41 -99t-108 -32 q-70 0 -110.5 31.5t-40.5 74.5zM184 7q0 9 5 19l351 721q12 25 42 25q22 0 40.5 -15t18.5 -38q0 -11 -4 -19l-352 -721q-12 -25 -45 -25q-24 0 -40 16.5t-16 36.5zM487 112v7q0 82 76 105q-61 19 -61 85q0 50 36.5 75t99.5 25q62 0 98.5 -25t36.5 -75q0 -66 -61 -85 q75 -23 75 -105v-7q0 -59 -40.5 -87t-108.5 -28t-109.5 28t-41.5 87zM588 125q0 -49 49 -49q50 0 50 49v13q0 45 -49 45q-50 0 -50 -45v-13zM599 296q0 -33 39 -33q38 0 38 33q0 34 -38 34q-39 0 -39 -34z" />
<glyph unicode="&#x215e;" horiz-adv-x="811" d="M21 614v87q0 11 13.5 20.5t30.5 9.5h213q15 0 29 -9.5t14 -20.5v-76q0 -27 -20 -62l-136 -232q-7 -13 -28 -13q-25 0 -44.5 15t-19.5 36q0 9 4 16l144 218v41h-99v-30q0 -12 -15.5 -21t-35.5 -9t-35 8.5t-15 21.5zM134 7q0 9 5 19l351 721q12 25 42 25q22 0 40.5 -15 t18.5 -38q0 -11 -4 -19l-352 -721q-12 -25 -45 -25q-24 0 -40 16.5t-16 36.5zM487 112v7q0 82 76 105q-61 19 -61 85q0 50 36.5 75t99.5 25q62 0 98.5 -25t36.5 -75q0 -66 -61 -85q75 -23 75 -105v-7q0 -59 -40.5 -87t-108.5 -28t-109.5 28t-41.5 87zM588 125q0 -49 49 -49 q50 0 50 49v13q0 45 -49 45q-50 0 -50 -45v-13zM599 296q0 -33 39 -33q38 0 38 33q0 34 -38 34q-39 0 -39 -34z" />
<glyph unicode="&#x2190;" horiz-adv-x="771" d="M70 240q0 15 19 34l191 191q12 12 29 12q26 0 49 -23t23 -50q0 -18 -11 -29l-71 -71h355q21 0 34 -18.5t13 -45.5q0 -28 -13 -45.5t-34 -17.5h-355l71 -71q11 -11 11 -29q0 -27 -23 -50t-49 -23q-17 0 -29 12l-191 191q-19 19 -19 33z" />
<glyph unicode="&#x2191;" horiz-adv-x="771" d="M149 317q0 17 12 29l191 191q18 17 34 19q14 0 33 -19l191 -191q12 -12 12 -29q0 -26 -23 -49t-50 -23q-18 0 -29 11l-71 71v-355q0 -21 -17.5 -34t-45.5 -13q-27 0 -45.5 13t-18.5 34v355l-71 -71q-11 -11 -29 -11q-27 0 -50 23t-23 49z" />
<glyph unicode="&#x2192;" horiz-adv-x="771" d="M70 240q0 27 13 45.5t34 18.5h355l-71 71q-11 11 -11 29q0 27 23 50t49 23q17 0 29 -12l191 -191q19 -21 19 -34q0 -14 -19 -33l-191 -191q-12 -12 -29 -12q-26 0 -49 23t-23 50q0 18 11 29l71 71h-355q-21 0 -34 17.5t-13 45.5z" />
<glyph unicode="&#x2193;" horiz-adv-x="771" d="M149 164q0 26 23 49t50 23q18 0 29 -11l71 -71v355q0 21 18.5 34t45.5 13q28 0 45.5 -13t17.5 -34v-355l71 71q11 11 29 11q27 0 50 -23t23 -49q0 -17 -12 -29l-191 -191q-19 -19 -33 -19q-16 1 -34 19l-191 191q-12 12 -12 29z" />
<glyph unicode="&#x2202;" horiz-adv-x="524" d="M28 202v70q0 86 52 148t125 62q43 0 76.5 -22t50.5 -54q-7 116 -37.5 163t-94.5 47q-28 0 -59 -11.5t-40 -11.5q-24 0 -40 31t-16 51q0 25 51.5 49t115.5 24q40 0 77 -10.5t74 -38.5t63.5 -71.5t43.5 -114t17 -160.5v-143q0 -85 -69 -152.5t-161 -67.5q-91 0 -160 64.5 t-69 147.5zM183 202q0 -30 22.5 -53.5t52.5 -23.5t52 23.5t22 53.5v70q0 33 -23.5 54t-52.5 21q-30 0 -51.5 -23t-21.5 -52v-70z" />
<glyph unicode="&#x2206;" horiz-adv-x="622" d="M20 53q0 17 6 35l182 591q18 58 103 58t103 -58l182 -591q6 -18 6 -35q0 -53 -66 -53h-450q-66 0 -66 53zM199 136h224l-112 416z" />
<glyph unicode="&#x220f;" horiz-adv-x="599" d="M54 47v636q0 23 20 35.5t48 12.5h355q28 0 48 -12.5t20 -35.5v-636q0 -23 -23 -35t-55 -12t-55 12t-23 35v548h-179v-548q0 -23 -23 -35t-55 -12t-55 12t-23 35z" />
<glyph unicode="&#x2211;" horiz-adv-x="540" d="M23 -169q0 31 18 65l196 356l-196 356q-18 34 -18 65q0 58 65 58h383q21 0 34 -21t13 -47t-13 -47t-34 -21h-257l132 -230q45 -79 45 -113t-45 -113l-132 -230h257q21 0 34 -21t13 -47t-13 -47t-34 -21h-383q-65 0 -65 58z" />
<glyph unicode="&#x2212;" horiz-adv-x="490" d="M38 284q0 27 13 45.5t34 18.5h320q19 0 33.5 -19t14.5 -45q0 -27 -14.5 -45t-33.5 -18h-320q-21 0 -34 17.5t-13 45.5z" />
<glyph unicode="&#x221a;" horiz-adv-x="712" d="M-4 380q0 27 13 45.5t34 18.5h120q32 0 47 -55l64 -249l157 593q4 15 16 25t27 10h200q19 0 33.5 -19t14.5 -45q0 -27 -14.5 -45t-33.5 -18h-108l-190 -624q-8 -25 -36.5 -38.5t-65.5 -13.5t-65 13.5t-37 38.5l-101 300h-28q-21 0 -34 17.5t-13 45.5z" />
<glyph unicode="&#x221e;" horiz-adv-x="917" d="M32 236q0 103 67 160t162 57q55 0 109 -32t88 -87q35 55 88.5 87t109.5 32q95 0 162 -57t67 -160t-67 -160t-163 -57q-55 0 -108.5 31.5t-88.5 86.5q-34 -55 -87.5 -86.5t-109.5 -31.5q-95 0 -162 57t-67 160zM168 236q0 -44 27 -67.5t67 -23.5q41 0 82 24t64 67 q-23 43 -64 67t-82 24q-40 0 -67 -23.5t-27 -67.5zM509 236q23 -43 64 -67t82 -24q40 0 67 23.5t27 67.5t-27 67.5t-67 23.5q-41 0 -82 -24t-64 -67z" />
<glyph unicode="&#x222b;" horiz-adv-x="364" d="M-5 -142q0 25 14 44t37 19q34 0 46 17.5t12 57.5v570q0 87 47.5 134.5t171.5 47.5q16 0 31.5 -16.5t15.5 -40.5q0 -22 -11.5 -41t-35.5 -19q-38 0 -50.5 -14t-12.5 -57v-563q0 -39 -8 -70.5t-28.5 -62t-63.5 -47.5t-106 -17q-25 0 -42 17.5t-17 40.5z" />
<glyph unicode="&#x2248;" horiz-adv-x="444" d="M45 164q0 77 85 77q31 0 75 -13.5t71 -13.5q23 0 50 10.5t36 10.5q20 0 29 -19t9 -34q0 -77 -85 -77q-38 0 -81.5 13.5t-64.5 13.5q-23 0 -50 -10.5t-36 -10.5q-20 0 -29 19t-9 34zM45 373q0 77 85 77q31 0 75 -13.5t71 -13.5q23 0 50 10.5t36 10.5q20 0 29 -19t9 -34 q0 -77 -85 -77q-38 0 -81.5 13.5t-64.5 13.5q-23 0 -50 -10.5t-36 -10.5q-20 0 -29 19t-9 34z" />
<glyph unicode="&#x2260;" horiz-adv-x="514" d="M30 135q0 27 13 45.5t34 18.5h108l46 76h-154q-21 0 -34 17.5t-13 45.5q0 27 13 45.5t34 18.5h231l65 107q7 12 23 12q15 0 28.5 -11.5t13.5 -25.5q0 -7 -5 -15l-42 -67h46q19 0 33.5 -19t14.5 -45q0 -27 -14.5 -45t-33.5 -18h-124l-47 -76h171q19 0 33.5 -19t14.5 -45 q0 -27 -14.5 -45t-33.5 -18h-249l-52 -84q-6 -10 -19 -10q-14 0 -27 10.5t-13 24.5q0 7 5 15l27 44h-32q-21 0 -34 17.5t-13 45.5z" />
<glyph unicode="&#x2264;" horiz-adv-x="442" d="M29 84q0 27 13 45.5t34 18.5h277q19 0 33.5 -19t14.5 -45q0 -27 -14.5 -45t-33.5 -18h-277q-21 0 -34 17.5t-13 45.5zM29 365q0 41 31 56l254 125q10 5 19 5q26 0 46.5 -24.5t20.5 -50.5q0 -28 -25 -39l-168 -72l168 -72q25 -11 25 -39q0 -26 -20.5 -50.5t-46.5 -24.5 q-9 0 -19 5l-254 125q-31 15 -31 56z" />
<glyph unicode="&#x2265;" horiz-adv-x="442" d="M41 84q0 26 14.5 45t33.5 19h277q21 0 34 -18.5t13 -45.5q0 -28 -13 -45.5t-34 -17.5h-277q-19 0 -33.5 18t-14.5 45zM42 254q0 28 25 39l168 72l-168 72q-25 11 -25 39q0 26 20.5 50.5t46.5 24.5q9 0 19 -5l254 -125q31 -15 31 -56t-31 -56l-254 -125q-10 -5 -19 -5 q-26 0 -46.5 24.5t-20.5 50.5z" />
<glyph unicode="&#x25ca;" horiz-adv-x="534" d="M20 366q0 34 45 113l133 232q17 30 69 30q51 0 69 -30l133 -232q45 -79 45 -113t-45 -113l-133 -232q-17 -30 -69 -30t-69 30l-133 232q-45 79 -45 113zM160 366l107 -195l107 195l-107 205z" />
<glyph unicode="&#x25fc;" horiz-adv-x="480" d="M0 480h480v-480h-480v480z" />
<glyph unicode="&#xe000;" horiz-adv-x="480" d="M0 480h480v-480h-480v480z" />
<glyph unicode="&#xf6c3;" horiz-adv-x="257" d="M14 -151q0 25 20 35l140 65q8 3 14 3q19 0 33 -18.5t14 -39.5q0 -24 -20 -34l-140 -65q-10 -4 -15 -4q-19 0 -32.5 18.5t-13.5 39.5z" />
<glyph horiz-adv-x="510" d="M18 124q0 83 61 116.5t173 33.5h36v10q0 74 -84 74q-37 0 -69 -16.5t-41 -16.5q-22 0 -36 24t-14 47q0 40 55 63t124 23q107 0 163.5 -57t56.5 -139v-98q0 -25 5.5 -38.5t11.5 -16.5t15 -4q19 -4 26.5 -17t7.5 -42q0 -80 -73 -80q-48 0 -83.5 22.5t-41.5 57.5 q-69 -80 -160 -80q-57 0 -95 34t-38 100zM174 144q0 -20 10.5 -30.5t25.5 -10.5q28 0 53 27.5t25 64.5v4h-4q-53 0 -81.5 -11t-28.5 -44z" />
<glyph horiz-adv-x="527" d="M41 202v499q0 21 21.5 34t54.5 13q34 0 56.5 -13t22.5 -34v-295q17 32 50.5 54t76.5 22q73 0 125 -62t52 -148v-70q0 -84 -69 -148t-161 -64t-160.5 64t-68.5 148zM196 202q0 -30 22 -53.5t52 -23.5t52.5 23.5t22.5 53.5v70q0 29 -21.5 52t-51.5 23q-29 0 -52.5 -21 t-23.5 -54v-70z" />
<glyph horiz-adv-x="153" d="M0 664q0 32 22.5 54.5t53.5 22.5t54 -22.5t23 -53.5q0 -16 -62 -160q-8 -18 -30 -18q-18 0 -34 11t-16 28q0 8 4 16l25 54q-40 23 -40 68z" />
<glyph horiz-adv-x="533" d="M28 -145q0 29 17 50t38 21q9 0 51.5 -15t80.5 -15q36 0 61 11.5t36.5 31t15.5 37t4 36.5v68q-15 -33 -51.5 -56.5t-78.5 -23.5q-69 0 -121.5 64t-52.5 148v60q0 87 52 148.5t127 61.5q44 0 80 -22t55 -54v23q0 21 20 34t51 13t52.5 -13t21.5 -34v-431q0 -102 -71 -168.5 t-212 -66.5q-33 0 -61 4t-55.5 13.5t-43.5 28.5t-16 46zM183 212q0 -30 22.5 -53.5t51.5 -23.5q30 0 52.5 24t22.5 40v73q0 34 -22 54.5t-51 20.5q-31 0 -53.5 -23t-22.5 -52v-60z" />
<glyph horiz-adv-x="811" d="M40 48v224q0 84 59.5 147t142.5 63q94 0 163 -61q69 61 165 61q82 0 141.5 -62.5t59.5 -147.5v-225q0 -19 -22 -33t-55 -14q-31 0 -54.5 14t-23.5 33v225q0 29 -19.5 52t-46.5 23t-47 -23t-20 -52v-225q0 -19 -22 -33t-55 -14q-31 0 -54.5 14t-23.5 33v225q0 29 -19.5 52 t-46.5 23t-47 -23t-20 -52v-224q0 -18 -23.5 -33t-53.5 -15q-32 0 -55 15t-23 33z" />
<glyph horiz-adv-x="529" d="M40 48v224q0 84 66.5 147t158.5 63q91 0 157.5 -63t66.5 -147v-225q0 -19 -22 -33t-55 -14q-31 0 -54.5 14t-23.5 33v225q0 29 -20.5 52t-48.5 23t-49 -23t-21 -52v-224q0 -18 -23.5 -33t-53.5 -15q-32 0 -55 15t-23 33z" />
<glyph horiz-adv-x="417" d="M12 68q0 29 14 48.5t34 19.5h78v421l-29 -18q-12 -8 -25 -8q-21 0 -35 19t-14 43q0 36 29 53l132 80q11 7 29 7q26 0 47.5 -14t21.5 -35v-548h75q18 0 33 -20t15 -48t-15 -48t-33 -20h-309q-20 0 -34 19.5t-14 48.5z" />
<glyph horiz-adv-x="527" d="M27 202v70q0 85 67.5 147.5t161.5 62.5q93 0 161.5 -62t68.5 -148v-441q0 -19 -22 -33.5t-54 -14.5t-55.5 15t-23.5 33v239q-15 -33 -51.5 -56.5t-78.5 -23.5q-69 0 -121.5 64t-52.5 148zM182 202q0 -30 22.5 -53.5t51.5 -23.5q30 0 52.5 24t22.5 40v83q0 29 -22.5 52 t-52.5 23t-52 -23t-22 -52v-70z" />
<glyph horiz-adv-x="384" d="M35 48v152q0 71 24.5 133.5t79 105.5t129.5 43h56q28 0 43.5 -19t15.5 -48q0 -28 -16.5 -48t-38.5 -20h-29q-43 0 -76 -41.5t-33 -107.5v-150q0 -18 -23.5 -33t-55.5 -15t-54 14.5t-22 33.5z" />
<glyph horiz-adv-x="540" d="M40 202v227q0 21 22.5 34t56.5 13q33 0 54.5 -13t21.5 -34v-227q0 -30 21.5 -53.5t50.5 -23.5q28 0 50.5 24t22.5 40v240q0 21 22.5 34t56.5 13q33 0 54.5 -13t21.5 -34v-381q0 -19 -22 -33.5t-54 -14.5q-28 0 -48.5 15t-20.5 33v22q-15 -32 -53 -56t-83 -24 q-69 0 -121.5 64t-52.5 148z" />
</font>
</defs>
</svg>
