<?xml version="1.0" standalone="no"?>
<!DOCTYPE svg PUBLIC "-//W3C//DTD SVG 1.1//EN" "http://www.w3.org/Graphics/SVG/1.1/DTD/svg11.dtd" >
<svg xmlns="http://www.w3.org/2000/svg">
<metadata></metadata>
<defs>
<font id="stint_ultra_expandedregular" horiz-adv-x="2001" >
<font-face units-per-em="2048" ascent="1638" descent="-410" />
<missing-glyph horiz-adv-x="770" />
<glyph unicode="fi" horiz-adv-x="1470" d="M862 113h225v727h-690v-727h303v-113h-653v113h225v727h-225v112h225v80q0 88 33.5 156t94 114t145 69.5t186.5 23.5q64 0 117 -6.5t97.5 -17.5t82.5 -25t72 -29l-49 -109q-34 18 -63.5 32t-66 24.5t-86 16t-122.5 5.5q-65 0 -122.5 -15.5t-100.5 -47t-68 -78.5t-25 -109 v-84h815v-839h226v-113h-576v113z" />
<glyph unicode="fl" horiz-adv-x="1493" d="M1165 311q0 -60 10 -97.5t32 -58t56.5 -27.5t82.5 -7h98v-121h-96q-80 0 -138 14.5t-96 50.5t-56 96.5t-18 153.5v938q-32 12 -70.5 18.5t-78 9.5t-75.5 4t-62 1q-65 0 -129 -15.5t-114.5 -47t-82 -78.5t-31.5 -109v-84h426v-112h-426v-727h303v-113h-653v113h225v727 h-225v112h225v80q0 88 40 156t108 114t159 69.5t193 23.5q48 0 85.5 -1.5t68 -4.5t58 -7t56.5 -8h125v-1063z" />
<glyph unicode=" "  horiz-adv-x="770" />
<glyph unicode="&#x09;" horiz-adv-x="770" />
<glyph unicode="&#xa0;" horiz-adv-x="770" />
<glyph unicode="!" horiz-adv-x="563" d="M322 328h-84l-35 829v166q0 29 17 52.5t59 23.5t59.5 -23.5t17.5 -52.5v-166zM164 106q0 25 9 46.5t24.5 37.5t37 25.5t46.5 9.5q24 0 45.5 -9.5t37.5 -25.5t25.5 -37.5t9.5 -46.5q0 -24 -9.5 -45.5t-25.5 -37t-37.5 -24.5t-45.5 -9q-25 0 -46.5 9t-37 24.5t-24.5 37 t-9 45.5z" />
<glyph unicode="&#x22;" horiz-adv-x="594" d="M92 969l-20 405h143l-20 -405h-103zM399 969l-20 405h143l-20 -405h-103z" />
<glyph unicode="#" horiz-adv-x="1436" d="M1069 891l-88 -406h238v-92h-258l-89 -393h-100l88 393h-414l-88 -393h-100l88 393h-244v92h263l90 406h-238v92h258l86 391h101l-87 -391h414l86 391h101l-86 -391h243v-92h-264zM555 891l-90 -406h416l88 406h-414z" />
<glyph unicode="$" horiz-adv-x="1591" d="M102 33v493h113v-141q0 -52 22.5 -92t61 -69.5t89.5 -50t108 -33.5t117 -20t116 -9v553q-76 14 -150 30t-140.5 37t-123 48t-98 63.5t-65 83.5t-23.5 108q0 65 25 115.5t68.5 87.5t101.5 62.5t125 41t138.5 22t141.5 7.5v113h107v-117q81 -5 150.5 -19t126.5 -33 t99 -41.5t68 -43.5v117h113v-433h-113v88q0 50 -29 95t-85 80.5t-139 59t-191 30.5v-512q79 -16 157 -34t149 -40.5t132.5 -51t106.5 -67t70.5 -87.5t25.5 -112q0 -71 -27 -124.5t-74 -93t-109.5 -65.5t-133.5 -42t-147.5 -23t-149.5 -8v-115h-107v117q-182 7 -313.5 46 t-200.5 96v-117h-113zM1350 360q0 66 -42.5 111.5t-113.5 77t-164 53.5t-194 41v-534q113 1 207.5 16t162.5 45.5t106 77.5t38 112zM252 1032q0 -57 38.5 -97.5t104 -70t152 -50.5t182.5 -40v494q-229 -3 -353 -61t-124 -175z" />
<glyph unicode="%" horiz-adv-x="2032" d="M494 0h-132l1094 1374h129zM1847 324q0 -81 -31.5 -145.5t-85.5 -110.5t-125 -70.5t-149 -24.5t-148.5 24.5t-124 70.5t-85 110.5t-31.5 145.5q0 82 31.5 147t85 110t124 69t148.5 24t149 -24t125 -69t85.5 -110t31.5 -147zM1729 324q0 53 -18 99.5t-53 81.5t-86 55 t-116 20t-115.5 -20t-85 -55t-52 -81.5t-17.5 -99.5t17.5 -99.5t52 -81t85 -55t115.5 -20.5t116 20.5t86 55t53 81t18 99.5zM883 1049q0 -81 -32 -145.5t-85.5 -110.5t-124.5 -70.5t-149 -24.5t-148.5 24.5t-124 70.5t-85.5 110.5t-32 145.5q0 82 32 147t85.5 110t124 69 t148.5 24t149 -24t124.5 -69t85.5 -110t32 -147zM764 1049q0 53 -18 99.5t-52.5 81.5t-85.5 55t-116 20q-66 0 -116.5 -20t-85 -55t-52 -81.5t-17.5 -99.5t17.5 -99.5t52 -81t85 -55t116.5 -20.5q65 0 116 20.5t85.5 55t52.5 81t18 99.5z" />
<glyph unicode="&#x26;" horiz-adv-x="2073" d="M1268 713h678v-113h-267q-20 -139 -103 -253t-208 -197q65 -33 123.5 -48.5t120.5 -15.5q67 0 115 16t79.5 46t48 72t21.5 93h115q-16 -157 -111.5 -244t-265.5 -87q-91 0 -178.5 25.5t-180.5 78.5q-109 -54 -231.5 -83.5t-249.5 -29.5q-120 0 -231.5 22t-197 67.5 t-136.5 117t-51 170.5q0 63 29.5 117.5t80 102t116.5 89.5t140 80q-72 100 -113.5 192t-41.5 165q0 76 37 133t100.5 95t149 56.5t182.5 18.5q84 0 156.5 -17.5t126.5 -49t85 -77t31 -100.5q0 -50 -22.5 -94t-61.5 -82.5t-92 -73.5t-113.5 -67.5t-126.5 -63t-131 -61.5 q58 -70 127.5 -140t144.5 -135.5t152 -123.5t152 -105q57 34 106 76t88 91t65 105.5t36 118.5h-293v113zM797 78q86 0 176.5 18t177.5 56q-78 51 -155.5 111t-150 125.5t-138.5 134t-121 136.5q-64 -32 -119.5 -66.5t-97 -72t-65 -80t-23.5 -90.5q0 -51 29.5 -100t92 -87.5 t160 -61.5t234.5 -23zM492 1096q0 -63 37 -141.5t100 -163.5q90 43 177.5 85t155.5 84.5t110 88.5t42 98q0 27 -13 53.5t-44.5 47t-83 33.5t-129.5 13q-76 0 -140.5 -11.5t-111.5 -35.5t-73.5 -61.5t-26.5 -89.5z" />
<glyph unicode="'" horiz-adv-x="287" d="M92 969l-20 405h143l-20 -405h-103z" />
<glyph unicode="(" horiz-adv-x="862" d="M293 684q0 -113 26 -219t73.5 -201t114.5 -176t150 -143l-82 -86q-93 70 -169 160.5t-130 196t-83 223.5t-29 245t29 245t83 223.5t130 195.5t169 161l82 -86q-83 -62 -150 -143t-114.5 -176t-73.5 -201t-26 -219z" />
<glyph unicode=")" horiz-adv-x="862" d="M569 684q0 113 -26 219t-73.5 201t-114.5 176t-150 143l82 86q94 -71 170 -161t129.5 -195.5t82.5 -223.5t29 -245t-29 -245t-82.5 -223.5t-129.5 -196t-170 -160.5l-82 86q83 62 150 143t114.5 176t73.5 201t26 219z" />
<glyph unicode="*" horiz-adv-x="1032" d="M854 719l-295 184l12 -325h-112l14 325l-293 -184l-57 94l309 164l-309 164l57 92l293 -182l-14 323h112l-14 -323l297 182l55 -92l-311 -164l311 -164z" />
<glyph unicode="+" horiz-adv-x="1300" d="M705 631v-428h-109v428h-424v108h424v428h109v-428h423v-108h-423z" />
<glyph unicode="," horiz-adv-x="481" d="M123 109q0 24 8.5 45t24.5 36.5t37 25t47 9.5t48 -9.5t38 -26.5t25 -41t9 -52q0 -45 -12 -87.5t-33 -81t-49.5 -72.5t-60.5 -62l-53 51q37 38 61 75.5t35 80.5q-32 0 -55.5 9.5t-39 25t-23 35t-7.5 39.5z" />
<glyph unicode="-" horiz-adv-x="1106" d="M164 424v123h778v-123h-778z" />
<glyph unicode="." horiz-adv-x="481" d="M123 106q0 25 9 46.5t24.5 37.5t37 25.5t46.5 9.5q24 0 45.5 -9.5t37.5 -25.5t25.5 -37.5t9.5 -46.5q0 -24 -9.5 -45.5t-25.5 -37t-37.5 -24.5t-45.5 -9q-25 0 -46.5 9t-37 24.5t-24.5 37t-9 45.5z" />
<glyph unicode="/" horiz-adv-x="1024" d="M233 -41h-120l678 1477h120z" />
<glyph unicode="0" horiz-adv-x="1706" d="M1581 686q0 -115 -28.5 -213t-78.5 -177t-119 -139.5t-149.5 -101t-170 -61.5t-181.5 -21t-181.5 21t-170.5 61.5t-150 101t-119.5 139.5t-79 177t-28.5 213t28.5 212.5t79 176.5t119.5 139.5t150 101.5t170.5 62t181.5 21t181.5 -21t170 -62t149.5 -101.5t119 -139.5 t78.5 -176.5t28.5 -212.5zM1456 686q0 102 -24 187t-66.5 152t-100.5 117t-125 82.5t-140 49t-146 16.5q-110 0 -218 -36.5t-194 -111.5t-139 -188.5t-53 -267.5t53 -267.5t139 -188.5t194 -111.5t218 -36.5q73 0 146 16.5t140 49.5t125 83t100.5 117.5t66.5 151.5t24 186z " />
<glyph unicode="1" horiz-adv-x="963" d="M143 113h308v1151l-349 -103v111l349 102h122v-1261h308v-113h-738v113z" />
<glyph unicode="2" horiz-adv-x="1536" d="M102 0v84q173 97 325.5 182.5t280 162.5t229 147t171.5 136.5t107.5 131t37.5 129.5q0 74 -29.5 133t-91.5 100t-158 62.5t-229 21.5q-122 0 -219.5 -21.5t-166 -66.5t-105.5 -114t-37 -164h-127q0 86 26.5 155t72.5 122t108 90.5t133 61.5t148 35t153 11q151 0 271 -29 t204 -84.5t129 -136.5t45 -186q0 -96 -68 -190.5t-196.5 -196.5t-313.5 -215t-419 -246h928v315h112v-432z" />
<glyph unicode="3" horiz-adv-x="1542" d="M829 862q134 -11 229.5 -37t161 -62.5t105 -79.5t60.5 -88t27.5 -88.5t6.5 -80.5q0 -108 -50.5 -192.5t-142 -142.5t-218 -88t-277.5 -30q-125 0 -241 25.5t-205 82.5t-142 147.5t-53 220.5h127q0 -95 37 -164.5t105.5 -114.5t166 -66.5t219.5 -21.5q140 0 243 27.5 t170.5 74.5t100.5 109t33 131q0 75 -28.5 136.5t-100 105.5t-193.5 68.5t-308 25.5v108l528 392h-889v-256h-113v370h1215v-86z" />
<glyph unicode="4" horiz-adv-x="1575" d="M717 113h321v239h-977v111l889 911h211v-907h352v-115h-352v-239h293v-113h-737v113zM1038 1300l-813 -833h813v833z" />
<glyph unicode="5" horiz-adv-x="1536" d="M291 811q35 19 85 34.5t109 26.5t124.5 17t133.5 6q181 0 309.5 -35t211 -97.5t121 -148.5t38.5 -188q0 -94 -37 -176.5t-116.5 -144t-203 -97t-296.5 -35.5q-128 -2 -248 23t-213.5 79.5t-150 141.5t-56.5 209h127q0 -87 40.5 -152t113 -108t172.5 -64.5t219 -21.5 q131 0 229 25.5t163 71.5t97.5 109.5t32.5 139.5q0 175 -134 268.5t-408 93.5q-168 0 -288.5 -26.5t-201.5 -91.5h-102l63 704h1086v-114h-979z" />
<glyph unicode="6" horiz-adv-x="1604" d="M262 655q20 20 64.5 57.5t118 74t177.5 63.5t244 27q134 0 249.5 -28t201 -84t134 -140.5t48.5 -198.5q0 -94 -43 -176.5t-125.5 -144t-203 -97t-275.5 -35.5q-156 0 -288 41.5t-227.5 125t-149.5 209.5t-54 296q0 167 44.5 305.5t134.5 238.5t225.5 155t316.5 55 q81 0 157.5 -11t144.5 -34t124.5 -58t97.5 -83t63.5 -110t22.5 -138h-127q0 80 -32.5 140.5t-94.5 101.5t-152 62t-204 21q-165 0 -278 -52t-183 -139.5t-100.5 -202.5t-30.5 -241zM836 768q-120 0 -213 -29t-161.5 -71t-113.5 -90t-69 -86q12 -73 50 -146.5t106.5 -132 t170 -95t240.5 -36.5q129 0 227.5 24.5t165.5 69.5t101 108.5t34 141.5q0 80 -31.5 143.5t-97.5 107.5t-167.5 67.5t-241.5 23.5z" />
<glyph unicode="7" horiz-adv-x="1348" d="M61 983v391h1328v-69q-110 -104 -209.5 -202.5t-184 -196.5t-153 -199t-116 -211t-73.5 -232.5t-26 -263.5h-131q0 162 39 306t100.5 269.5t139 231.5t154.5 192t146 151.5t115 109.5h-1016v-277h-113z" />
<glyph unicode="8" horiz-adv-x="1626" d="M1106 750q204 -31 307 -128.5t103 -246.5q0 -92 -46.5 -166t-136 -126.5t-221 -81t-301.5 -28.5t-300.5 28.5t-219.5 81t-134.5 126.5t-45.5 166q0 74 25.5 137t76 111.5t126.5 82t177 48.5q-86 21 -143.5 50.5t-92 66t-49 80t-14.5 93.5q0 85 42.5 151.5t120.5 111.5 t187.5 68.5t243.5 23.5q51 0 115.5 -5t131 -19.5t130 -39t113.5 -64t80 -95.5t30 -132q0 -50 -15.5 -94t-51 -81.5t-94 -67.5t-144.5 -51zM1288 1044q0 49 -26 94t-83 79.5t-147.5 54.5t-220.5 20q-131 0 -220.5 -20t-145.5 -54.5t-80.5 -79.5t-24.5 -94t28 -94t86 -79 t146.5 -54t210.5 -20q121 0 211 20t149 54t88 79t29 94zM811 696q-134 0 -240 -21t-180 -60.5t-113.5 -96.5t-39.5 -129t36.5 -129.5t108.5 -97t179.5 -61t248.5 -21.5t249 21.5t181 61t110.5 97t37.5 129.5t-40.5 129t-115.5 96.5t-182 60.5t-240 21z" />
<glyph unicode="9" horiz-adv-x="1604" d="M1341 717q-20 -20 -64.5 -57t-117.5 -73.5t-177.5 -63.5t-244.5 -27q-134 0 -249.5 27.5t-200.5 83.5t-134 140.5t-49 198.5q0 94 43 176.5t125.5 144t203.5 97t276 35.5q156 0 287.5 -41.5t227 -125t149.5 -209.5t54 -296q0 -167 -44.5 -305.5t-134.5 -238t-225 -155 t-316 -55.5q-122 0 -232.5 25t-194.5 78t-134 135t-50 197h127q0 -80 32.5 -141t94.5 -102t152 -62t205 -21q165 0 278 52t182.5 139.5t100 202.5t30.5 241zM768 604q120 0 213 29t161.5 71t113.5 90t69 87q-12 73 -50.5 146t-107 131.5t-169.5 95t-240 36.5 q-129 0 -228 -24.5t-165.5 -69.5t-101 -108.5t-34.5 -141.5q0 -80 31.5 -143.5t97.5 -107.5t167.5 -67.5t242.5 -23.5z" />
<glyph unicode=":" horiz-adv-x="522" d="M143 106q0 25 9 46.5t25 37.5t37.5 25.5t45.5 9.5q25 0 46.5 -9.5t37.5 -25.5t25.5 -37.5t9.5 -46.5q0 -24 -9.5 -45.5t-25.5 -37t-37.5 -24.5t-46.5 -9q-24 0 -45.5 9t-37.5 24.5t-25 37t-9 45.5zM143 696q0 25 9 46.5t25 37.5t37.5 25.5t45.5 9.5q25 0 46.5 -9.5 t37.5 -25.5t25.5 -37.5t9.5 -46.5q0 -24 -9.5 -45.5t-25.5 -37t-37.5 -24.5t-46.5 -9q-24 0 -45.5 9t-37.5 24.5t-25 37t-9 45.5z" />
<glyph unicode=";" horiz-adv-x="522" d="M143 696q0 25 9 46.5t25 37.5t37.5 25.5t45.5 9.5q25 0 46.5 -9.5t37.5 -25.5t25.5 -37.5t9.5 -46.5q0 -24 -9.5 -45.5t-25.5 -37t-37.5 -24.5t-46.5 -9q-24 0 -45.5 9t-37.5 24.5t-25 37t-9 45.5zM143 109q0 24 9 45t24.5 36.5t37 25t46.5 9.5q26 0 48.5 -9.5 t38.5 -26.5t25 -41t9 -52q0 -45 -12.5 -87.5t-33.5 -81t-49.5 -72.5t-60.5 -62l-53 51q37 38 61 75.5t35 80.5q-32 0 -55.5 9.5t-39 25t-23 35t-7.5 39.5z" />
<glyph unicode="&#x3c;" horiz-adv-x="1300" d="M156 637v94l974 440v-114l-829 -373l829 -371v-114z" />
<glyph unicode="=" horiz-adv-x="1300" d="M172 821v109h956v-109h-956zM172 438v111h956v-111h-956z" />
<glyph unicode="&#x3e;" horiz-adv-x="1300" d="M1145 637l-975 -438v114l829 371l-829 373v114l975 -440v-94z" />
<glyph unicode="?" horiz-adv-x="1202" d="M614 1290q-170 0 -257 -82t-87 -243h-127q0 213 121.5 323.5t353.5 110.5q87 0 167 -25t140.5 -75.5t97 -125.5t36.5 -174q0 -87 -23.5 -152.5t-62.5 -114.5t-90 -83.5t-106.5 -57t-111 -36t-104.5 -20.5v-207h-125v297q117 10 209 34.5t155 68t96.5 110t33.5 161.5 q0 82 -26.5 137.5t-70.5 89.5t-101 49t-118 15zM391 106q0 25 9 46.5t24.5 37.5t37 25.5t46.5 9.5q24 0 46 -9.5t38 -25.5t25.5 -37.5t9.5 -46.5q0 -24 -9.5 -45.5t-25.5 -37t-38 -24.5t-46 -9q-25 0 -46.5 9t-37 24.5t-24.5 37t-9 45.5z" />
<glyph unicode="@" horiz-adv-x="2081" d="M1262 436q-21 -19 -49.5 -39t-66.5 -36t-86 -26.5t-108 -10.5q-70 0 -131.5 19t-107.5 56.5t-72.5 92.5t-26.5 126q0 108 40 189t105.5 136t149.5 82.5t172 27.5q73 0 128.5 -16.5t109.5 -45.5l10 47h119l-76 -454q-2 -2 -3 -11t-2.5 -20t-2 -20.5t-0.5 -10.5 q0 -51 35.5 -74.5t95.5 -23.5q64 0 119 28.5t96 78t64.5 115.5t23.5 142q0 124 -50 220t-141.5 161.5t-220.5 99.5t-286 34q-176 0 -325 -50.5t-257.5 -138.5t-169.5 -207t-61 -256q0 -133 51.5 -238.5t148 -179t234.5 -112.5t311 -39q134 0 256.5 24.5t241.5 81.5l51 -100 q-134 -66 -270.5 -91.5t-286.5 -25.5q-193 0 -352.5 46.5t-274 134t-178 213.5t-63.5 286q0 106 34 204.5t95 183t147.5 154t190.5 119t224 76.5t249 27q186 0 338.5 -44.5t261.5 -126t169 -196.5t60 -255q0 -92 -31.5 -176.5t-90 -149.5t-141 -104t-183.5 -39q-32 0 -62 5 t-58 17.5t-52.5 34t-44.5 55.5zM979 418q34 0 69 6.5t69.5 21.5t66.5 38.5t61 58.5l55 334q-50 41 -102.5 61t-118.5 20q-65 0 -125 -20.5t-106.5 -61.5t-74.5 -104t-28 -147q0 -57 17.5 -96.5t48.5 -64t74 -35.5t94 -11z" />
<glyph unicode="A" horiz-adv-x="1913" d="M444 1374h586l660 -1261h264v-113h-699v113h297l-182 354h-827l-185 -354h299v-113h-698v113h264l600 1149h-379v112zM956 1253l-352 -673h705z" />
<glyph unicode="B" horiz-adv-x="1894" d="M82 1374h1061q59 0 118 -5t113.5 -18.5t101 -37.5t81 -63t54 -94t19.5 -130q0 -67 -16.5 -116t-50 -84t-85.5 -57.5t-122 -35.5q100 -7 171.5 -34t116.5 -72t66 -107.5t21 -140.5q0 -80 -21 -139t-58.5 -101.5t-90 -69t-116 -42t-135.5 -21.5t-149 -6h-1079v113h287v1149 h-287v112zM1599 381q0 78 -27 133t-83 90t-143.5 51.5t-208.5 16.5h-643v-559h659q125 0 210.5 14.5t138 47t75 83.5t22.5 123zM1513 1024q0 29 -4 58t-18 55.5t-40.5 49.5t-72.5 39.5t-113.5 26t-162.5 9.5h-608v-480h608q135 0 216 19.5t124.5 52.5t57 77t13.5 93z" />
<glyph unicode="C" horiz-adv-x="1860" d="M1599 860v80q0 86 -49 150.5t-130.5 108t-187.5 65.5t-220 22q-194 0 -334 -42.5t-230 -121t-133 -189.5t-43 -247q0 -137 46 -247.5t138 -188.5t229.5 -120t320.5 -42q103 0 197 18.5t171.5 54.5t135.5 89.5t89 124.5h138q-36 -88 -99.5 -161.5t-156.5 -127t-216 -83.5 t-278 -30q-181 0 -337 45t-270.5 134t-179.5 223t-65 311t65.5 311t181.5 223t274 134t343 45q121 0 212.5 -15t162 -38.5t124.5 -53t101 -57.5v139h113v-514h-113z" />
<glyph unicode="D" d="M82 1374h993q169 0 314 -33t251.5 -112.5t167 -211.5t60.5 -329q0 -132 -27.5 -234.5t-77.5 -178.5t-121.5 -129t-159 -85t-190 -46.5t-215.5 -14.5h-995v113h287v1149h-287v112zM1739 688q0 112 -22 198t-63 149.5t-100 106.5t-133 69.5t-161 37.5t-185 11h-581v-1145 h581q147 0 269 26.5t209.5 92t136.5 176t49 278.5z" />
<glyph unicode="E" horiz-adv-x="1755" d="M1485 963v294h-991v-473h763v-116h-763v-551h1005v315h113v-432h-1530v113h287v1149h-287v112h1515v-411h-112z" />
<glyph unicode="F" horiz-adv-x="1638" d="M1423 963v294h-929v-493h770v-117h-770v-534h286v-113h-698v113h287v1149h-287v112h1454v-411h-113z" />
<glyph unicode="G" horiz-adv-x="1993" d="M1571 0v61q-127 -51 -259 -69.5t-270 -18.5q-194 0 -360 43.5t-287.5 132t-190.5 222.5t-69 315t69 315t188.5 222.5t278.5 132t339 43.5q100 0 182 -11t150 -30t126 -43t111 -51v131h113v-514h-113v153q0 40 -24.5 74t-66 62t-96.5 50t-116.5 36.5t-126.5 22t-125 7.5 q-200 0 -343.5 -41.5t-236 -119t-136.5 -188.5t-44 -251q0 -131 48.5 -241.5t147 -190.5t246.5 -125t347 -45q72 0 143 7.5t137.5 21.5t126.5 33t111 42v383h-348v113h657v-113h-184v-571h-125z" />
<glyph unicode="H" horiz-adv-x="2218" d="M82 1374h698v-112h-286v-480h1230v480h-286v112h698v-112h-287v-1149h287v-113h-698v113h286v553h-1230v-553h286v-113h-698v113h287v1149h-287v112z" />
<glyph unicode="I" horiz-adv-x="862" d="M82 1374h698v-112h-286v-1149h286v-113h-698v113h287v1149h-287v112z" />
<glyph unicode="J" horiz-adv-x="1460" d="M721 1374h719v-112h-287v-822q0 -114 -39.5 -199.5t-110.5 -142.5t-170.5 -85.5t-220.5 -28.5q-120 0 -218 27.5t-167.5 83t-107 140.5t-37.5 199h125q5 -170 107 -253t300 -83q94 0 170.5 19.5t130.5 62t83.5 110t29.5 163.5v809h-307v112z" />
<glyph unicode="K" horiz-adv-x="1907" d="M82 1374h698v-112h-286v-535l817 535h-160v112h678v-112h-326l-729 -478l8 2l820 -673h284v-113h-698v113h235l-743 610l-186 -121v-489h286v-113h-698v113h287v1149h-287v112z" />
<glyph unicode="L" horiz-adv-x="1683" d="M82 1374h698v-112h-286v-1145h995v315h113v-432h-1520v113h287v1149h-287v112z" />
<glyph unicode="M" horiz-adv-x="2607" d="M82 1374h420l807 -1245l794 1245h422v-112h-287v-1149h287v-113h-698v113h287v1056l-754 -1169h-111l-755 1174v-1061h286v-113h-698v113h287v1149h-287v112z" />
<glyph unicode="N" horiz-adv-x="2171" d="M82 1374h424l1192 -1214v1102h-287v112h698v-112h-286v-1262h-137l-1192 1210v-1097h286v-113h-698v113h287v1149h-287v112z" />
<glyph unicode="O" horiz-adv-x="2015" d="M1880 686q0 -185 -67 -319.5t-184 -222t-276 -129.5t-343 -42q-185 0 -345 42t-278 129.5t-185 222t-67 319.5q0 123 31 223.5t87 180t135.5 137.5t177 96.5t209.5 57t235 18.5q184 0 343 -42t276 -129.5t184 -222t67 -319.5zM1743 686q0 292 -184 445t-549 153 q-366 0 -552 -154.5t-186 -443.5q0 -292 186 -445t552 -153q365 0 549 153t184 445z" />
<glyph unicode="P" horiz-adv-x="1815" d="M82 1374h1028q160 0 273.5 -27.5t185.5 -80.5t105.5 -132t33.5 -182t-33.5 -182t-105.5 -133t-185.5 -81.5t-273.5 -27.5h-616v-415h286v-113h-698v113h287v1149h-287v112zM1571 952q0 98 -31 158t-97 92.5t-168.5 43.5t-244.5 11h-536v-612h536q55 0 116.5 -0.5t122 6 t115 23t96.5 50.5t66.5 89t24.5 139z" />
<glyph unicode="Q" horiz-adv-x="2015" d="M1880 686q0 -174 -59 -302t-162 -216q90 -28 176.5 -51t167.5 -37l-49 -125q-97 25 -203.5 61t-208.5 74q-109 -60 -244.5 -88.5t-287.5 -28.5q-185 0 -345 42t-278 129.5t-185 222t-67 319.5q0 123 31 223.5t87 180t135.5 137.5t177 96.5t209.5 57t235 18.5 q184 0 343 -42t276 -129.5t184 -222t67 -319.5zM1751 686q0 146 -47.5 258t-140.5 188.5t-231.5 116t-321.5 39.5t-322.5 -40t-233.5 -116.5t-142 -189t-48 -256.5q0 -146 48 -258t142 -188.5t233.5 -116t322.5 -39.5q230 0 389 61q-61 25 -112 46.5t-89 38.5q-44 19 -80 36 l49 101q81 -41 172.5 -80t190.5 -74q109 77 165 195.5t56 277.5z" />
<glyph unicode="R" horiz-adv-x="1972" d="M1315 113h213l-359 479q-27 -2 -56 -3t-60 -1h-559v-475h286v-113h-698v113h287v1149h-287v112h971q157 0 269 -24.5t183 -74t104 -123.5t33 -173q0 -154 -81 -246.5t-261 -126.5l381 -493h291v-113h-657v113zM1505 979q0 88 -29.5 142.5t-98 84.5t-180.5 40.5t-277 10.5 h-426v-552h421q165 0 277.5 9.5t182 39t100 83t30.5 142.5z" />
<glyph unicode="S" horiz-adv-x="1665" d="M123 0v494h113v-142q0 -59 29.5 -101.5t78.5 -72t112.5 -47.5t132.5 -28t137.5 -13.5t127.5 -3.5q118 0 220 13t177.5 43t118.5 78.5t43 119.5q0 62 -35.5 106.5t-97 77t-143 55t-173.5 41t-189 36t-189 39t-173.5 50.5t-143 70t-97 97.5t-35.5 134.5q0 69 27.5 122.5 t75 92.5t111.5 65.5t135.5 42t148 22.5t149.5 7q103 0 192.5 -13t161.5 -33.5t124 -45.5t81 -50v117h113v-432h-113v88q0 55 -35.5 101.5t-104.5 81t-171 54t-235 19.5q-121 0 -218 -13.5t-165.5 -42t-105 -73t-36.5 -106.5q0 -57 36 -97.5t97 -70.5t143 -52t174 -41 t189 -37.5t189 -42t174 -53.5t143 -73t97 -100.5t36 -135.5q0 -77 -30.5 -134.5t-82 -99t-121 -69t-147 -43.5t-159.5 -22.5t-160 -6.5q-109 0 -203.5 10.5t-172.5 30t-138 45.5t-100 58v-117h-113z" />
<glyph unicode="T" horiz-adv-x="1657" d="M80 881v493h1497v-493h-113v379h-573v-1147h307v-113h-739v113h307v1147h-573v-379h-113z" />
<glyph unicode="U" d="M20 1374h699v-112h-287v-840q0 -69 36.5 -130.5t108.5 -107.5t178 -73t246 -27q139 0 245 27t178 73t108.5 107.5t36.5 130.5v840h-287v112h698v-112h-286v-830q0 -103 -43.5 -187.5t-130 -145t-216.5 -93.5t-303 -33t-303 33t-217 93.5t-130.5 145t-43.5 187.5v830h-287 v112z" />
<glyph unicode="V" horiz-adv-x="1839" d="M-41 1374h698v-112h-307l570 -1176l567 1176h-305v112h698v-112h-254l-616 -1262h-187l-612 1262h-252v112z" />
<glyph unicode="W" horiz-adv-x="2757" d="M-41 1374h698v-112h-315l463 -1162l489 1274h168l490 -1274l463 1162h-316v112h699v-112h-244l-508 -1262h-186l-482 1241l-481 -1241h-186l-508 1262h-244v112z" />
<glyph unicode="X" horiz-adv-x="1849" d="M1130 1374h678v-112h-274l-530 -557l563 -592h262v-113h-699v113h279l-485 508l-486 -508h281v-113h-699v113h261l565 592l-533 557h-272v112h678v-112h-248l453 -476l452 476h-246v112z" />
<glyph unicode="Y" horiz-adv-x="1808" d="M0 1374h698v-112h-262l469 -576l465 576h-260v112h698v-112h-288l-553 -680v-469h307v-113h-739v113h307v469l-553 680h-289v112z" />
<glyph unicode="Z" horiz-adv-x="1507" d="M154 963v411h1237v-67l-1115 -1190h1016v315h113v-432h-1303v102l1084 1155h-920v-294h-112z" />
<glyph unicode="[" horiz-adv-x="838" d="M258 -121v1610h477v-107h-352v-1396h352v-107h-477z" />
<glyph unicode="\" horiz-adv-x="1024" d="M113 1436h120l678 -1477h-120z" />
<glyph unicode="]" horiz-adv-x="838" d="M102 -121v107h353v1396h-353v107h478v-1610h-478z" />
<glyph unicode="^" horiz-adv-x="942" d="M748 784l-277 494l-276 -494h-134l342 590h136l342 -590h-133z" />
<glyph unicode="_" horiz-adv-x="1024" d="M0 -250v115h1024v-115h-1024z" />
<glyph unicode="`" horiz-adv-x="1081" d="M240 1395l430 -213l-43 -84l-441 186z" />
<glyph unicode="a" horiz-adv-x="1389" d="M1006 111q-46 -23 -102 -47.5t-121 -44.5t-138 -33t-153 -13q-90 0 -163 18t-124 53.5t-79 88t-28 121.5q0 107 69 175t190.5 108.5t287.5 59.5t361 28v47q0 53 -29 91t-78 62t-113.5 35.5t-136.5 11.5q-84 0 -146.5 -10.5t-105.5 -31t-68.5 -50t-37.5 -67.5l-127 30 q32 112 152.5 174t328.5 62q105 0 194 -18t153.5 -57t101 -101.5t36.5 -151.5v-538h238v-113h-362v111zM1006 520q-219 -8 -369 -28.5t-242.5 -53t-133 -77t-40.5 -101.5q0 -88 76.5 -134t224.5 -46q63 0 134.5 14t138.5 35.5t123 48.5t88 53v289z" />
<glyph unicode="b" horiz-adv-x="1518" d="M47 1374h350v-561q47 37 98.5 67.5t110 52.5t125 34t143.5 12q105 0 203 -30.5t174 -93.5t122 -159t46 -227q0 -126 -45.5 -219.5t-124.5 -155t-185 -91.5t-226 -30q-61 0 -120.5 9.5t-116 26t-108 39t-96.5 48.5v-96h-350v113h225v1149h-225v112zM397 221 q39 -28 85.5 -53.5t101.5 -45t118 -31t134 -11.5q103 0 187.5 26t145 75.5t94 122t33.5 165.5q0 97 -29 172t-85.5 126.5t-140.5 78t-195 26.5q-75 0 -140.5 -17.5t-121.5 -45.5t-103 -62t-84 -67v-459z" />
<glyph unicode="c" horiz-adv-x="1333" d="M1112 584v47q0 61 -38.5 106t-98 74t-131 43t-137.5 14q-112 0 -201 -27t-150.5 -77.5t-94 -123t-32.5 -163.5q0 -92 32 -164.5t92.5 -123.5t148 -78t198.5 -27q94 0 164.5 17.5t119.5 45t79 61.5t45 68h129q-56 -148 -194 -224.5t-349 -76.5q-128 0 -237.5 32.5t-189 96 t-124.5 157t-45 214.5q0 122 47 216t128.5 158t191 97t233.5 33q73 0 136 -10t115.5 -27.5t93 -39.5t69.5 -46v102h109v-374h-109z" />
<glyph unicode="d" horiz-adv-x="1497" d="M1470 0h-350v139q-47 -37 -98 -67.5t-109.5 -52.5t-125 -34t-144.5 -12q-104 0 -202.5 30.5t-174.5 93.5t-122 159t-46 227q0 126 45.5 219t124.5 154.5t185 92t227 30.5q61 0 120 -9.5t115 -26.5t108 -39.5t97 -47.5v406h-227v112h352v-1261h225v-113zM672 80 q74 0 139.5 17.5t122 45.5t103 62t83.5 67v457q-38 28 -85 53.5t-102.5 45.5t-118 32t-132.5 12q-103 0 -188 -26t-145.5 -75.5t-94 -122t-33.5 -165.5q0 -194 115 -298.5t336 -104.5z" />
<glyph unicode="e" horiz-adv-x="1329" d="M1106 524q-5 68 -31 129t-78 107.5t-131 74t-190 27.5q-104 0 -184 -27.5t-136 -74t-88 -107.5t-41 -129h879zM674 -25q-131 0 -237.5 34.5t-181.5 99t-116 156.5t-41 206q0 111 43 203.5t120 159t183 103t232 36.5q131 0 235 -37t176 -106.5t110 -168.5t38 -223v-22 h-1008q7 -76 39.5 -137t89.5 -104t136.5 -66t181.5 -23q98 0 170.5 16t123 43t82 61t48.5 70h125q-59 -152 -200.5 -226.5t-348.5 -74.5z" />
<glyph unicode="f" horiz-adv-x="836" d="M47 952h225v80q0 88 33.5 156t94 114t145 69.5t186.5 23.5q64 0 117 -6.5t97.5 -17.5t82.5 -25t72 -29l-49 -109q-34 18 -63.5 32t-66 24.5t-86 16t-122.5 5.5q-65 0 -122.5 -15.5t-100.5 -47t-68 -78.5t-25 -109v-84h426v-112h-426v-727h303v-113h-653v113h225v727h-225 v112z" />
<glyph unicode="g" horiz-adv-x="1497" d="M641 -414q-143 0 -263.5 28t-211.5 73l57 110q18 -11 50 -27.5t82 -33t120.5 -28t165.5 -11.5q102 0 177 15t128.5 41.5t87 62t53 76.5t26.5 86t7 90v71q-47 -37 -98 -67.5t-109.5 -52.5t-125 -34t-144.5 -12q-104 0 -202.5 30.5t-174.5 93.5t-122 159t-46 227 q0 126 45.5 219t124.5 154.5t185 92t227 30.5q61 0 120 -9.5t115 -26.5t108 -39.5t97 -47.5v96h350v-112h-225v-768q0 -108 -35 -197t-108.5 -153.5t-188 -100t-272.5 -35.5zM672 80q74 0 139.5 17.5t122 45.5t103 62t83.5 67v457q-38 28 -85 53.5t-102.5 45.5t-118 32 t-132.5 12q-103 0 -188 -26t-145.5 -75.5t-94 -122t-33.5 -165.5q0 -194 115 -298.5t336 -104.5z" />
<glyph unicode="h" horiz-adv-x="1548" d="M47 1374h350v-602q47 45 105 83.5t125 67.5t141 45.5t152 16.5q93 0 162.5 -23.5t115.5 -66.5t69 -104.5t23 -137.5v-540h226v-113h-576v113h225v503q0 76 -19.5 125.5t-55.5 78.5t-87.5 40.5t-115.5 11.5q-75 0 -147 -20t-135.5 -50t-117 -66.5t-90.5 -69.5v-553h226 v-113h-576v113h225v1149h-225v112z" />
<glyph unicode="i" horiz-adv-x="655" d="M47 952h350v-839h226v-113h-576v113h225v727h-225v112zM209 1219q0 23 8.5 43.5t23.5 35.5t35 24t43 9t43.5 -9t36 -24t24.5 -35.5t9 -43.5t-9 -43.5t-24.5 -35.5t-36 -23.5t-43.5 -8.5t-43 8.5t-35 23.5t-23.5 35.5t-8.5 43.5z" />
<glyph unicode="j" horiz-adv-x="657" d="M102 952h351v-1046q0 -161 -78 -240.5t-228 -79.5q-39 0 -74.5 7t-64.5 17.5t-50.5 22.5t-33.5 21l51 102q9 -8 25.5 -18.5t38.5 -19.5t49 -15t59 -6q45 0 79 10.5t56.5 35.5t34 64.5t11.5 98.5v934h-226v112zM244 1219q0 23 8.5 43.5t23.5 35.5t35 24t43 9t43.5 -9 t36 -24t24.5 -35.5t9 -43.5t-9 -43.5t-24.5 -35.5t-36 -23.5t-43.5 -8.5t-43 8.5t-35 23.5t-23.5 35.5t-8.5 43.5z" />
<glyph unicode="k" horiz-adv-x="1487" d="M47 1374h350v-807l463 281q60 36 109.5 59.5t91.5 37t78.5 19t70.5 5.5q57 0 92.5 -7.5t61.5 -15.5l-37 -110q-12 4 -24 7.5t-25.5 6.5t-29.5 4.5t-38 1.5q-29 0 -58 -2.5t-63 -12.5t-76.5 -29.5t-97.5 -53.5l-237 -144l539 -501h258v-113h-576v113h154l-471 442 l-185 -113v-329h226v-113h-576v113h225v1149h-225v112z" />
<glyph unicode="l" horiz-adv-x="637" d="M-20 1374h350v-1063q0 -60 10 -97.5t31.5 -58t56 -27.5t82.5 -7h98v-121h-96q-80 0 -138 14.5t-95.5 50.5t-55.5 96.5t-18 153.5v947h-225v112z" />
<glyph unicode="m" horiz-adv-x="2318" d="M1710 113h225v503q0 76 -19 125.5t-54 78.5t-84.5 40.5t-110.5 11.5q-65 0 -127 -20t-119 -51t-106 -67.5t-86 -69.5v-11v-540h225v-113h-575v113h225v503q0 76 -19 125.5t-54.5 78.5t-85 40.5t-109.5 11.5q-67 0 -130 -20t-119.5 -50t-104.5 -66.5t-85 -69.5v-553h226 v-113h-576v113h225v727h-225v112h350v-170q47 41 100 78t112 64.5t123.5 44t135.5 16.5q143 0 228 -56.5t116 -156.5q47 40 103 78.5t118.5 68.5t130 48t136.5 18q90 0 157.5 -23.5t112.5 -66.5t67.5 -104.5t22.5 -137.5v-540h226v-113h-576v113z" />
<glyph unicode="n" horiz-adv-x="1548" d="M47 952h350v-180q47 45 105 83.5t125 67.5t141 45.5t152 16.5q93 0 162.5 -23.5t115.5 -66.5t69 -104.5t23 -137.5v-540h226v-113h-576v113h225v503q0 76 -19.5 125.5t-55.5 78.5t-87.5 40.5t-115.5 11.5q-75 0 -147 -20t-135.5 -50t-117 -66.5t-90.5 -69.5v-553h226 v-113h-576v113h225v727h-225v112z" />
<glyph unicode="o" horiz-adv-x="1419" d="M1321 475q0 -131 -47 -225.5t-129 -156t-193.5 -91t-240.5 -29.5q-130 0 -242 29.5t-194.5 91t-129.5 156t-47 225.5q0 130 47.5 225.5t130.5 157t195 91.5t240 30q129 0 240.5 -29.5t193.5 -91t129 -157t47 -226.5zM1198 475q0 193 -122.5 295t-364.5 102 q-243 0 -366.5 -102t-123.5 -295t123.5 -294t366.5 -101q242 0 364.5 101.5t122.5 293.5z" />
<glyph unicode="p" horiz-adv-x="1497" d="M27 952h350v-139q47 39 98 70t109.5 52.5t125 32.5t144.5 11q105 0 203 -29.5t174 -91t122 -157t46 -226.5t-49 -225.5t-131 -156t-189 -91t-223 -29.5q-67 0 -127 9t-113.5 24.5t-101 36t-88.5 43.5v-367h225v-112h-575v112h225v1121h-225v112zM377 197 q74 -50 180.5 -83.5t247.5 -33.5q103 0 189.5 25.5t149 76t97.5 124t35 169.5q0 195 -114 296t-337 101q-74 0 -139.5 -16.5t-122 -43.5t-103 -60t-83.5 -66v-489z" />
<glyph unicode="q" horiz-adv-x="1497" d="M1470 840h-225v-1121h225v-112h-565v112h215v420q-47 -37 -98 -67.5t-109.5 -52.5t-125 -34t-144.5 -12q-104 0 -202.5 30.5t-174.5 93.5t-122 159t-46 227q0 126 45.5 219t124.5 154.5t185 92t227 30.5q61 0 120 -9.5t115 -26.5t108 -39.5t97 -47.5v96h350v-112zM672 80 q74 0 139.5 17.5t122 45.5t103 62t83.5 67v457q-38 28 -85 53.5t-102.5 45.5t-118 32t-132.5 12q-103 0 -188 -26t-145.5 -75.5t-94 -122t-33.5 -165.5q0 -194 115 -298.5t336 -104.5z" />
<glyph unicode="r" horiz-adv-x="1047" d="M47 952h350v-200q41 48 88 89.5t101.5 72t117 48t134.5 17.5q36 0 67 -5.5t55 -12.5t40 -14t22 -9l-45 -115q-25 13 -64.5 27t-99.5 14q-76 0 -139.5 -23.5t-115 -58.5t-91.5 -77.5t-70 -79.5v-512h246v-113h-596v113h225v727h-225v112z" />
<glyph unicode="s" horiz-adv-x="1202" d="M111 0v350h112v-61q0 -55 37.5 -94.5t96.5 -65t130.5 -37.5t139.5 -12q80 0 147 8.5t116 28.5t76 52.5t27 80.5q0 45 -24.5 76.5t-66 52.5t-97 35t-118 24.5t-128.5 20t-128.5 23t-118 32.5t-97 48.5t-66 71.5t-24.5 101q0 76 38 124.5t99 76.5t138.5 38.5t156.5 10.5 q115 0 211 -26t162 -68v61h112v-321h-112v74q0 32 -17 57.5t-46 45t-66 33t-77.5 22t-81 12.5t-75.5 4q-158 0 -238.5 -31t-80.5 -113q0 -39 24.5 -65.5t66 -45t97 -31t118 -23t128.5 -21t128.5 -26t118 -37.5t97 -54.5t66 -78.5t24.5 -109q0 -55 -21 -96t-56 -71.5 t-80.5 -50.5t-95.5 -31.5t-101 -16.5t-96 -5q-150 0 -260.5 32t-182.5 83v-88h-112z" />
<glyph unicode="t" horiz-adv-x="1161" d="M0 952h258v330h125v-330h670v-112h-670v-555q0 -59 21.5 -98t60.5 -62t93.5 -32t119.5 -9t119 8t98 20.5t80.5 29t66.5 34.5l62 -100q-37 -21 -83.5 -39.5t-100.5 -32t-115 -21.5t-125 -8q-96 0 -174 16t-133 52t-85 94.5t-30 143.5v559h-258v112z" />
<glyph unicode="u" horiz-adv-x="1542" d="M1501 0h-350v180q-47 -45 -105 -83.5t-124.5 -67.5t-140.5 -45.5t-152 -16.5q-94 0 -163.5 23.5t-115.5 66.5t-69 104.5t-23 137.5v541h-225v112h350v-616q0 -76 19.5 -125.5t55.5 -78.5t87.5 -40.5t116.5 -11.5q74 0 146 20t136 50.5t117 67t90 69.5v553h-225v112h350 v-839h225v-113z" />
<glyph unicode="v" horiz-adv-x="1358" d="M0 952h494v-112h-168l352 -719l354 719h-168v112h494v-112h-189l-428 -840h-129l-424 840h-188v112z" />
<glyph unicode="w" horiz-adv-x="2056" d="M41 952h494v-112h-189l281 -693l325 805h152l326 -805l278 693h-186v112h493v-112h-180l-340 -840h-129l-338 827l-336 -827h-131l-342 840h-178v112z" />
<glyph unicode="x" horiz-adv-x="1300" d="M766 113h184l-303 301l-303 -301h191v-113h-494v113h158l374 374l-352 353h-180v112h494v-112h-168l278 -281l281 281h-160v112h494v-112h-187l-354 -353l377 -374h164v-113h-494v113z" />
<glyph unicode="y" horiz-adv-x="1358" d="M1358 840h-189l-370 -727l-23 -43q-37 -73 -69.5 -137.5t-66.5 -118t-72 -96t-84.5 -72t-104.5 -45t-133 -15.5q-60 0 -125.5 17t-116.5 51l55 106q14 -9 31.5 -20t40.5 -20.5t51.5 -16t63.5 -6.5q71 0 123.5 20t94.5 57.5t76.5 92.5t69.5 125l-424 848h-186v112h494 v-112h-164l348 -717l354 717h-168v112h494v-112z" />
<glyph unicode="z" horiz-adv-x="1262" d="M139 952h979v-98l-817 -737h725v254h113v-371h-1026v102l813 734h-674v-226h-113v342z" />
<glyph unicode="{" horiz-adv-x="791" d="M291 354q0 75 -6 128t-26.5 87t-58 50t-100.5 16h-39v102h39q64 0 102 16.5t58 51t25.5 88t5.5 127.5v123q0 93 17 158.5t53 107.5t92.5 61t134.5 19h100v-107h-86q-46 0 -81 -4.5t-58 -24.5t-35 -61t-12 -114v-158q0 -56 -7 -110t-26.5 -99t-54.5 -78t-92 -47 q56 -15 91 -47.5t55 -77.5t27 -99t7 -110v-162q0 -73 12 -114t35 -61t58 -24.5t81 -4.5h86v-107h-100q-78 0 -134.5 19t-92.5 61t-53 107.5t-17 158.5v129z" />
<glyph unicode="|" horiz-adv-x="532" d="M205 -483v2048h123v-2048h-123z" />
<glyph unicode="}" horiz-adv-x="791" d="M500 225q0 -93 -17 -158.5t-53 -107.5t-92.5 -61t-134.5 -19h-101v107h86q46 0 81 4.5t58.5 24.5t35.5 61t12 114v162q0 56 7 110t27 99t55 77.5t91 47.5q-57 14 -92.5 47t-55 78t-26 99t-6.5 110v158q0 73 -12 114t-35.5 61t-58.5 24.5t-81 4.5h-86v107h101 q78 0 134.5 -19t92.5 -61t53 -107.5t17 -158.5v-123q0 -74 5.5 -127.5t25 -88t57 -51t102.5 -16.5h39v-102h-39q-63 0 -100.5 -16t-57.5 -50t-26 -87t-6 -128v-129z" />
<glyph unicode="~" horiz-adv-x="1300" d="M1145 678q-42 -42 -101.5 -71t-140.5 -29q-62 0 -126 17t-129.5 37t-131 37t-129.5 17q-35 0 -68 -10t-63 -26t-55.5 -36.5t-44.5 -40.5v119q21 22 48 40.5t58.5 32.5t65 22t67.5 8q61 0 126 -17.5t131 -38t131.5 -38t129.5 -17.5q35 0 68 10t63 26.5t55.5 37t45.5 41.5 v-121v0z" />
<glyph unicode="&#xa1;" horiz-adv-x="563" d="M242 713h84l34 -830v-166q0 -29 -17 -52t-58 -23q-42 0 -60 23t-18 52v166zM399 934q0 -25 -9 -46.5t-24.5 -37.5t-37 -25.5t-45.5 -9.5q-25 0 -46.5 9.5t-37.5 25.5t-25.5 37.5t-9.5 46.5q0 24 9.5 45.5t25.5 37.5t37.5 25t46.5 9q24 0 45.5 -9t37 -25t24.5 -37.5 t9 -45.5z" />
<glyph unicode="&#xa2;" horiz-adv-x="1384" d="M1137 795v47q0 57 -33.5 100t-86 73t-117.5 47t-128 21v-788q87 4 149 24t105 48t71 61t46 64l92 -52q-33 -52 -76.5 -95t-99.5 -75t-127.5 -51.5t-159.5 -23.5v-185h-106v183q-119 7 -218.5 42t-171.5 98t-112.5 152.5t-40.5 204.5q0 114 42 203.5t115 152t172 98.5 t214 44v176h106v-176q64 -3 119 -14.5t101 -28t82.5 -37t62.5 -41.5v102h104v-374h-104zM246 690q0 -84 28.5 -153.5t82.5 -120.5t132 -81.5t177 -37.5v784q-98 -8 -175.5 -38.5t-132 -81t-83.5 -119t-29 -152.5z" />
<glyph unicode="&#xa3;" horiz-adv-x="1550" d="M555 621q37 -56 63.5 -112.5t26.5 -119.5q0 -30 -6.5 -63t-23 -66t-45 -66t-72.5 -63q51 0 117 -8t139.5 -17.5t150 -17.5t146.5 -8q88 0 140 17t81 45t42.5 63t24.5 71h109q-7 -32 -16.5 -67.5t-25.5 -69t-42 -64t-66.5 -54t-98.5 -37t-138 -13.5q-78 0 -160.5 9 t-163 20t-155.5 20t-136 9q-51 0 -89.5 -3t-71.5 -8t-62.5 -13.5t-60.5 -18.5l-39 98q123 21 200.5 56.5t121 77.5t59.5 87t16 86q0 28 -9 55.5t-24.5 56t-35.5 58t-41 60.5h-308v100h236q-38 57 -64 120t-26 134q0 79 23.5 141.5t64 109.5t95.5 80t118.5 53.5t132 30 t137.5 9.5q135 0 235 -33t171 -78v92h112v-458h-112v157q0 40 -20 71t-53 54.5t-75.5 40t-87 26.5t-88 14.5t-78.5 4.5q-91 0 -173 -18t-143.5 -55.5t-97.5 -96t-36 -139.5q0 -35 9 -68.5t24 -66t35 -63.5t42 -62h494v-100h-422z" />
<glyph unicode="&#xa4;" horiz-adv-x="1147" d="M870 903q36 -49 54 -105.5t18 -115.5t-17 -115t-55 -104l156 -156l-76 -78l-157 158q-50 -35 -106.5 -54.5t-113.5 -19.5q-58 0 -114.5 18.5t-104.5 55.5l-157 -158l-76 78l158 158q-36 48 -55 104t-19 113q0 60 18 115t56 104l-158 160l76 76l157 -158q51 37 107.5 54.5 t116.5 17.5q57 0 112 -17.5t103 -52.5l157 156l76 -76zM385 494q38 -39 87 -57.5t101 -18.5q50 0 98.5 17.5t86.5 51t61 82.5t23 113q0 54 -21.5 103t-58.5 85.5t-85.5 58t-103.5 21.5q-57 0 -105.5 -22.5t-84 -59.5t-56 -85.5t-20.5 -100.5q0 -53 19 -101.5t59 -86.5z" />
<glyph unicode="&#xa5;" horiz-adv-x="1702" d="M31 1374h637v-112h-248l432 -576l430 576h-248v112h637v-112h-241l-408 -535h453v-109h-537l-27 -36v-101h564v-108h-564v-260h287v-113h-694v113h287v260h-564v108h564v101l-29 36h-535v109h453l-408 535h-241v112z" />
<glyph unicode="&#xa6;" horiz-adv-x="532" d="M205 672v758h123v-758h-123zM205 -352v758h123v-758h-123z" />
<glyph unicode="&#xa7;" horiz-adv-x="1024" d="M901 655q0 -47 -13.5 -85t-38 -68t-58.5 -53t-74 -41q54 -38 88.5 -86t34.5 -113q0 -60 -28.5 -104.5t-77 -73.5t-114 -43.5t-139.5 -14.5q-84 0 -156.5 15.5t-144.5 40.5v141q32 -17 65 -33.5t69 -30t76.5 -22t88.5 -8.5q120 0 179 35.5t59 91.5q0 42 -25.5 75 t-67.5 60.5t-95 52t-109 49t-109 51.5t-95 59.5t-67.5 72.5t-25.5 92q0 46 14 83t38.5 67t58 53.5t71.5 42.5q-52 37 -86.5 85.5t-34.5 114.5q0 59 27.5 103.5t74 74t109 44t133.5 14.5q72 0 138.5 -12t138.5 -35v-144q-57 37 -121.5 62.5t-153.5 25.5q-114 0 -168.5 -34 t-54.5 -93q0 -42 25.5 -75t67.5 -60.5t95 -52t109 -49t109 -51.5t95 -59.5t67.5 -72.5t25.5 -92zM780 627q0 35 -16.5 62.5t-45 51t-66 44t-80.5 40t-89 39.5t-90 43q-22 -9 -48 -22t-48.5 -32t-37.5 -46t-15 -64q0 -53 35 -90.5t90.5 -68.5t123.5 -60t134 -63 q24 10 50.5 25t49.5 36t38 47t15 58z" />
<glyph unicode="&#xa8;" horiz-adv-x="1081" d="M254 1204q0 37 24.5 63.5t61.5 26.5t63.5 -26.5t26.5 -63.5t-26.5 -62.5t-63.5 -25.5t-61.5 25.5t-24.5 62.5zM651 1204q0 18 6.5 34.5t18.5 29t28 19.5t35 7q37 0 62.5 -26.5t25.5 -63.5t-25.5 -62.5t-62.5 -25.5q-38 0 -63 25.5t-25 62.5z" />
<glyph unicode="&#xa9;" horiz-adv-x="1579" d="M1477 686q0 -95 -24.5 -182.5t-69.5 -164t-107.5 -139t-139.5 -107t-165 -69t-183 -24.5q-94 0 -182 24.5t-164 69t-138.5 107t-107.5 139t-69.5 164t-24.5 182.5t24.5 183t69.5 164.5t107.5 139.5t138.5 107.5t163.5 69t182.5 24.5t183 -24.5t165 -69t139.5 -107.5 t107.5 -139.5t69.5 -164.5t24.5 -183zM197 686q0 -123 46.5 -231t126.5 -188t187.5 -126.5t230.5 -46.5q124 0 232.5 46.5t189.5 126.5t127.5 188t46.5 231q0 124 -46.5 232.5t-127.5 189.5t-189.5 127.5t-232.5 46.5q-123 0 -230.5 -46.5t-187.5 -127.5t-126.5 -189.5 t-46.5 -232.5zM780 272q-72 0 -142.5 24.5t-126 75.5t-90 129.5t-34.5 186.5q0 103 34 180.5t89.5 129.5t126.5 78t145 26q75 0 134 -20t96 -48v53h98v-290h-98v53q0 34 -17.5 64t-47 52.5t-69.5 35t-85 12.5q-72 0 -126.5 -24t-91 -67t-55 -103t-18.5 -132t18.5 -132 t55 -103t91 -67t126.5 -24q54 0 93.5 14.5t67 37t45 49.5t27.5 51h100q-16 -54 -46 -98.5t-73 -76.5t-100 -49.5t-127 -17.5z" />
<glyph unicode="&#xaa;" horiz-adv-x="1055" d="M729 705v77q-35 -16 -75.5 -33t-87 -31t-100 -23t-114.5 -9q-69 0 -124.5 12.5t-95 37.5t-60.5 62t-21 85q0 75 50.5 122.5t140.5 74.5t214.5 37.5t272.5 12.5v48q0 37 -19.5 62t-54 40.5t-81.5 22t-101 6.5q-65 0 -110 -6.5t-75 -19t-48 -32.5t-27 -47l-111 23 q25 78 116.5 122t252.5 44q81 0 149 -12.5t117.5 -40t77 -71.5t27.5 -106v-370h162v-88h-275zM729 1051q-167 -5 -276 -16.5t-174 -31t-91 -48t-26 -68.5q0 -59 50.5 -88t164.5 -29q48 0 99.5 9.5t99.5 25t88.5 34.5t64.5 38v174zM82 496v92h915v-92h-915z" />
<glyph unicode="&#xab;" horiz-adv-x="903" d="M82 444v91l285 335l86 -73l-256 -308l256 -307l-86 -73zM451 444v91l284 335l86 -73l-256 -308l256 -307l-86 -73z" />
<glyph unicode="&#xac;" horiz-adv-x="1300" d="M1020 459v327h-848v109h956v-436h-108z" />
<glyph unicode="&#xad;" horiz-adv-x="1106" d="M164 424v123h778v-123h-778z" />
<glyph unicode="&#xae;" horiz-adv-x="1229" d="M1118 893q0 -105 -39.5 -196.5t-108 -160t-161 -108t-197.5 -39.5q-104 0 -196 39.5t-160 108t-107.5 160t-39.5 196.5t39.5 197.5t107.5 161t160 108t196 39.5q105 0 197.5 -39.5t161 -108t108 -161t39.5 -197.5zM188 893q0 -89 33 -166t90.5 -134.5t135 -90.5 t165.5 -33q89 0 167 33t135.5 90.5t90.5 134.5t33 166t-33 166.5t-90.5 135.5t-135.5 91t-167 33q-88 0 -165.5 -33t-135 -91t-90.5 -135.5t-33 -166.5zM688 670h55l-112 176h-25h-88v-176h82v-64h-256v64h84v454h-84v64h303q96 0 151.5 -41.5t55.5 -126.5q0 -65 -32.5 -107 t-106.5 -59l119 -184h75v-64h-221v64zM768 1018q0 57 -35 81.5t-98 24.5h-117v-215h117q63 0 98 26.5t35 82.5z" />
<glyph unicode="&#xaf;" horiz-adv-x="1081" d="M266 1130v113h549v-113h-549z" />
<glyph unicode="&#xb0;" horiz-adv-x="764" d="M133 1124q0 52 19.5 97.5t53 79.5t79 53.5t96.5 19.5t96.5 -19.5t79.5 -53.5t54 -79.5t20 -97.5q0 -51 -20 -96t-54 -78.5t-79.5 -53t-96.5 -19.5t-96.5 19.5t-79 53t-53 78.5t-19.5 96zM231 1124q0 -32 11.5 -59t32 -47t47.5 -31.5t59 -11.5q31 0 59 11.5t48 31.5t32 47 t12 59q0 31 -12 59t-32 48.5t-48 32.5t-59 12q-32 0 -59 -12t-47.5 -32.5t-32 -48.5t-11.5 -59z" />
<glyph unicode="&#xb1;" horiz-adv-x="1300" d="M705 715v-361h-109v361h-424v108h424v381h109v-381h423v-108h-423zM172 98v109h956v-109h-956z" />
<glyph unicode="&#xb2;" horiz-adv-x="1024" d="M82 575q162 86 293 159t223.5 139t142.5 127.5t50 125.5q0 39 -15 73.5t-50 60t-92.5 40.5t-141.5 15q-157 0 -230.5 -58t-73.5 -184h-100q0 88 34.5 150t90 100.5t126 56t142.5 17.5q96 0 172.5 -17t130.5 -51.5t82.5 -86.5t28.5 -122q0 -65 -41.5 -125.5t-120 -123.5 t-191 -131t-253.5 -146h547v188h86v-274h-840v67z" />
<glyph unicode="&#xb3;" horiz-adv-x="1049" d="M598 1057q118 -12 187.5 -45t105.5 -74t46.5 -84t10.5 -76q0 -68 -32.5 -121.5t-91 -90t-140.5 -55.5t-180 -19q-79 0 -153.5 16t-132.5 51.5t-93 92.5t-35 139h98q0 -113 85 -165.5t239 -52.5q91 0 155 17t104.5 45t59.5 64.5t19 76.5q0 45 -15 82t-57 63.5t-116 41.5 t-191 16v84l309 223h-538v-145h-90v233h786v-74z" />
<glyph unicode="&#xb4;" horiz-adv-x="1081" d="M895 1284l-440 -186l-41 84l428 213z" />
<glyph unicode="&#xb5;" horiz-adv-x="1444" d="M457 958l-123 -636q13 -53 35 -97t53.5 -75.5t73.5 -48.5t96 -17q75 0 137 24.5t113.5 64.5t94 89.5t77.5 99.5l114 596h125l-114 -596q-8 -42 -11.5 -75t-3.5 -62q0 -34 3.5 -62.5t9.5 -54.5t14 -52.5t16 -55.5h-125q-14 45 -26 97.5t-12 129.5q-39 -44 -82 -88.5 t-95.5 -80.5t-115 -58.5t-140.5 -22.5q-92 0 -162 54t-104 145l-112 -586h-125l264 1368h125z" />
<glyph unicode="&#xb6;" horiz-adv-x="1214" d="M406 92h176v582q-87 0 -169.5 20t-147 62t-103.5 108.5t-39 159.5t39 159.5t103.5 108.5t147 62t169.5 20h551v-92h-179v-1190h176v-92h-724v92zM672 92h192v1190h-192v-1190z" />
<glyph unicode="&#xb7;" horiz-adv-x="481" d="M123 672q0 24 9 46t24.5 38t37 25.5t46.5 9.5q24 0 45.5 -9.5t37.5 -25.5t25.5 -38t9.5 -46q0 -25 -9.5 -46.5t-25.5 -37t-37.5 -24.5t-45.5 -9q-25 0 -46.5 9t-37 24.5t-24.5 37t-9 46.5z" />
<glyph unicode="&#xb8;" horiz-adv-x="1081" d="M561 -98q44 0 82.5 -7t67 -23.5t45 -44t16.5 -69.5q0 -45 -18.5 -75.5t-51.5 -49t-79 -26.5t-101 -8q-81 0 -136.5 16t-92.5 33l43 86q35 -22 76.5 -33.5t101.5 -11.5q42 0 71 5t46.5 14t25 22t7.5 28q0 19 -10 32t-27 20.5t-38.5 10.5t-45.5 3q-26 0 -53 -1.5t-50 -4.5 l76 202h90z" />
<glyph unicode="&#xb9;" horiz-adv-x="631" d="M88 594h193v694l-220 -65v86l220 65h104v-780h195v-86h-492v86z" />
<glyph unicode="&#xba;" horiz-adv-x="1065" d="M111 496v92h843v-92h-843zM1004 1038q0 -91 -36 -157.5t-99.5 -109.5t-150 -64t-186.5 -21t-186 21t-149.5 64t-99.5 109.5t-36 157.5q0 92 36.5 159t100.5 110.5t150 64.5t184 21q100 0 186.5 -21t150 -64.5t99.5 -110.5t36 -159zM895 1038q0 133 -91 202t-272 69 q-179 0 -269.5 -70t-90.5 -201t90.5 -198.5t269.5 -67.5q181 0 272 67.5t91 198.5z" />
<glyph unicode="&#xbb;" horiz-adv-x="903" d="M537 109l-86 73l256 307l-256 308l86 73l284 -335v-91zM168 109l-86 73l256 307l-256 308l86 73l285 -335v-91z" />
<glyph unicode="&#xbc;" horiz-adv-x="1753" d="M1237 86h166v111h-512v79l485 453h129v-450h197v-82h-197v-111h144v-86h-412v86zM406 0h-130l1090 1374h127zM109 731h192v557l-219 -65v86l219 65h105v-643h194v-86h-491v86zM1403 643l-391 -364h391v364z" />
<glyph unicode="&#xbd;" horiz-adv-x="1874" d="M1036 0v72q138 68 250 124t190.5 105.5t121 97t42.5 99.5q0 33 -11.5 62t-39.5 50.5t-74 34t-116 12.5q-129 0 -192.5 -52t-63.5 -169h-101q0 84 31 141.5t80.5 93.5t112 52t125.5 16q84 0 149.5 -16.5t111 -47.5t69.5 -74t24 -97q0 -52 -32 -100.5t-95 -98.5 t-157 -103.5t-218 -115.5h443v158h86v-244h-736zM406 0h-130l1090 1374h127zM109 731h192v557l-219 -65v86l219 65h105v-643h194v-86h-491v86z" />
<glyph unicode="&#xbe;" horiz-adv-x="1880" d="M1364 86h166v111h-512v79l485 453h129v-450h197v-82h-197v-111h144v-86h-412v86zM518 1098q93 -9 152 -30t92.5 -51.5t46 -67.5t12.5 -77q0 -60 -27.5 -105t-76.5 -75t-115 -44.5t-143 -14.5q-82 0 -151 15t-119.5 48t-78.5 86t-28 129h98q0 -51 15 -88t49 -61t89 -35.5 t134 -11.5q67 0 115 12.5t79.5 33t46.5 48t15 57.5q0 34 -11.5 62.5t-46.5 49.5t-99.5 33t-170.5 13v80l260 184h-422v-137h-90v223h668v-74zM532 0h-129l1090 1374h127zM1530 643l-391 -364h391v364z" />
<glyph unicode="&#xbf;" horiz-adv-x="1202" d="M588 -250q170 0 257 82.5t87 243.5h127q0 -212 -122.5 -323t-352.5 -111q-87 0 -167 25t-140.5 75.5t-97 125t-36.5 173.5q0 86 23.5 152t62.5 115.5t90 83.5t106.5 56.5t111 36t104.5 21.5v207h125v-297q-117 -11 -208.5 -35t-155 -68t-97 -110.5t-33.5 -161.5 q0 -81 26.5 -137t70.5 -90t101 -49t118 -15zM811 934q0 -25 -9 -46.5t-25 -37.5t-37 -25.5t-46 -9.5q-24 0 -46 9.5t-38 25.5t-25.5 37.5t-9.5 46.5q0 24 9.5 45.5t25.5 37.5t38 25t46 9q25 0 46 -9t37 -25t25 -37.5t9 -45.5z" />
<glyph unicode="&#xc0;" horiz-adv-x="1913" d="M444 1374h586l660 -1261h264v-113h-699v113h297l-182 354h-827l-185 -354h299v-113h-698v113h264l600 1149h-379v112zM956 1253l-352 -673h705zM592 1798l430 -213l-43 -84l-441 186z" />
<glyph unicode="&#xc1;" horiz-adv-x="1913" d="M444 1374h586l660 -1261h264v-113h-699v113h297l-182 354h-827l-185 -354h299v-113h-698v113h264l600 1149h-379v112zM956 1253l-352 -673h705zM1247 1687l-440 -186l-41 84l428 213z" />
<glyph unicode="&#xc2;" horiz-adv-x="1913" d="M444 1374h586l660 -1261h264v-113h-699v113h297l-182 354h-827l-185 -354h299v-113h-698v113h264l600 1149h-379v112zM956 1253l-352 -673h705zM1241 1503l-348 160l-348 -160l-39 78l387 219l387 -219z" />
<glyph unicode="&#xc3;" horiz-adv-x="1913" d="M444 1374h586l660 -1261h264v-113h-699v113h297l-182 354h-827l-185 -354h299v-113h-698v113h264l600 1149h-379v112zM956 1253l-352 -673h705zM1247 1738q0 -17 -3 -40.5t-11 -49t-21.5 -50t-34.5 -44t-50 -31.5t-68 -12q-47 0 -92.5 19t-88 41.5t-81 41.5t-70.5 19 q-30 0 -47 -15t-25.5 -35.5t-11.5 -40.5t-4 -30h-97q0 25 8 64t29 75t58 62t96 26q39 0 82 -19t86.5 -41.5t84.5 -41.5t77 -19q30 0 47 15t26 35t11.5 40t3.5 31h96z" />
<glyph unicode="&#xc4;" horiz-adv-x="1913" d="M444 1374h586l660 -1261h264v-113h-699v113h297l-182 354h-827l-185 -354h299v-113h-698v113h264l600 1149h-379v112zM956 1253l-352 -673h705zM606 1607q0 37 24.5 63.5t61.5 26.5t63.5 -26.5t26.5 -63.5t-26.5 -62.5t-63.5 -25.5t-61.5 25.5t-24.5 62.5zM1003 1607 q0 18 6.5 34.5t18.5 29t28 19.5t35 7q37 0 62.5 -26.5t25.5 -63.5t-25.5 -62.5t-62.5 -25.5q-38 0 -63 25.5t-25 62.5z" />
<glyph unicode="&#xc5;" horiz-adv-x="1913" d="M444 1374h586l660 -1261h264v-113h-699v113h297l-182 354h-827l-185 -354h299v-113h-698v113h264l600 1149h-379v112zM956 1253l-352 -673h705zM631 1665q0 43 18.5 78t53 59.5t83 37.5t107.5 13q58 0 106.5 -13t83 -37.5t53.5 -59.5t19 -78q0 -44 -19 -79t-53.5 -59.5 t-83 -37.5t-106.5 -13q-59 0 -107.5 13t-83 37.5t-53 59.5t-18.5 79zM733 1665q0 -42 37.5 -69.5t122.5 -27.5q84 0 120.5 27.5t36.5 69.5q0 40 -36.5 68t-120.5 28q-85 0 -122.5 -28t-37.5 -68z" />
<glyph unicode="&#xc6;" horiz-adv-x="2501" d="M506 1374h1837v-411h-113v294h-950v-473h723v-116h-723v-551h965v315h112v-432h-1489v113h287v354h-610l-201 -354h272v-113h-657v113h248l651 1149h-352v112zM610 580h545v673h-162z" />
<glyph unicode="&#xc7;" horiz-adv-x="1860" d="M1599 860v80q0 86 -49 150.5t-130.5 108t-187.5 65.5t-220 22q-194 0 -334 -42.5t-230 -121t-133 -189.5t-43 -247q0 -137 46 -247.5t138 -188.5t229.5 -120t320.5 -42q103 0 197 18.5t171.5 54.5t135.5 89.5t89 124.5h138q-36 -86 -98.5 -158.5t-153 -126t-210 -84 t-269.5 -33.5l-27 -71q44 0 82.5 -7t67 -23.5t45 -44t16.5 -69.5q0 -45 -18.5 -75.5t-52 -49t-79.5 -26.5t-100 -8q-82 0 -137 16t-92 33l43 86q35 -22 76.5 -33.5t101.5 -11.5q84 0 116.5 19t32.5 50q0 19 -10 32t-26.5 20.5t-38 10.5t-45.5 3q-26 0 -53 -1.5t-50 -4.5 l60 157q-168 9 -311.5 57.5t-248.5 137.5t-164 218t-59 298q0 177 65.5 311t181.5 223t274 134t343 45q121 0 212.5 -15t162 -38.5t124.5 -53t101 -57.5v139h113v-514h-113z" />
<glyph unicode="&#xc8;" horiz-adv-x="1755" d="M1485 963v294h-991v-473h763v-116h-763v-551h1005v315h113v-432h-1530v113h287v1149h-287v112h1515v-411h-112zM629 1798l430 -213l-43 -84l-441 186z" />
<glyph unicode="&#xc9;" horiz-adv-x="1755" d="M1485 963v294h-991v-473h763v-116h-763v-551h1005v315h113v-432h-1530v113h287v1149h-287v112h1515v-411h-112zM1284 1687l-440 -186l-41 84l428 213z" />
<glyph unicode="&#xca;" horiz-adv-x="1755" d="M1485 963v294h-991v-473h763v-116h-763v-551h1005v315h113v-432h-1530v113h287v1149h-287v112h1515v-411h-112zM1278 1503l-348 160l-348 -160l-39 78l387 219l387 -219z" />
<glyph unicode="&#xcb;" horiz-adv-x="1755" d="M1485 963v294h-991v-473h763v-116h-763v-551h1005v315h113v-432h-1530v113h287v1149h-287v112h1515v-411h-112zM643 1607q0 37 24.5 63.5t61.5 26.5t63.5 -26.5t26.5 -63.5t-26.5 -62.5t-63.5 -25.5t-61.5 25.5t-24.5 62.5zM1040 1607q0 18 6.5 34.5t18.5 29t28 19.5 t35 7q37 0 62.5 -26.5t25.5 -63.5t-25.5 -62.5t-62.5 -25.5q-38 0 -63 25.5t-25 62.5z" />
<glyph unicode="&#xcc;" horiz-adv-x="862" d="M82 1374h698v-112h-286v-1149h286v-113h-698v113h287v1149h-287v112zM130 1798l430 -213l-43 -84l-441 186z" />
<glyph unicode="&#xcd;" horiz-adv-x="862" d="M82 1374h698v-112h-286v-1149h286v-113h-698v113h287v1149h-287v112zM785 1687l-440 -186l-41 84l428 213z" />
<glyph unicode="&#xce;" horiz-adv-x="862" d="M82 1374h698v-112h-286v-1149h286v-113h-698v113h287v1149h-287v112zM779 1503l-348 160l-348 -160l-39 78l387 219l387 -219z" />
<glyph unicode="&#xcf;" horiz-adv-x="862" d="M82 1374h698v-112h-286v-1149h286v-113h-698v113h287v1149h-287v112zM144 1607q0 37 24.5 63.5t61.5 26.5t63.5 -26.5t26.5 -63.5t-26.5 -62.5t-63.5 -25.5t-61.5 25.5t-24.5 62.5zM541 1607q0 18 6.5 34.5t18.5 29t28 19.5t35 7q37 0 62.5 -26.5t25.5 -63.5t-25.5 -62.5 t-62.5 -25.5q-38 0 -63 25.5t-25 62.5z" />
<glyph unicode="&#xd0;" d="M82 1374h993q169 0 314 -33t251.5 -112.5t167 -211.5t60.5 -329q0 -132 -27.5 -234.5t-77.5 -178.5t-121.5 -129t-159 -85t-190 -46.5t-215.5 -14.5h-995v113h287v530h-287v109h287v510h-287v112zM494 643v-528h581q147 0 269 26.5t209.5 92t136.5 176t49 278.5 q0 112 -22 198t-63 149.5t-100 106.5t-133 69.5t-161 37.5t-185 11h-581v-508h489v-109h-489z" />
<glyph unicode="&#xd1;" horiz-adv-x="2171" d="M82 1374h424l1192 -1214v1102h-287v112h698v-112h-286v-1262h-137l-1192 1210v-1097h286v-113h-698v113h287v1149h-287v112zM1393 1738q0 -17 -3 -40.5t-11 -49t-21.5 -50t-34.5 -44t-50 -31.5t-68 -12q-47 0 -92.5 19t-88 41.5t-81 41.5t-70.5 19q-30 0 -47 -15 t-25.5 -35.5t-11.5 -40.5t-4 -30h-97q0 25 8 64t29 75t58 62t96 26q39 0 82 -19t86.5 -41.5t84.5 -41.5t77 -19q30 0 47 15t26 35t11.5 40t3.5 31h96z" />
<glyph unicode="&#xd2;" horiz-adv-x="2015" d="M1880 686q0 -185 -67 -319.5t-184 -222t-276 -129.5t-343 -42q-185 0 -345 42t-278 129.5t-185 222t-67 319.5q0 123 31 223.5t87 180t135.5 137.5t177 96.5t209.5 57t235 18.5q184 0 343 -42t276 -129.5t184 -222t67 -319.5zM1743 686q0 292 -184 445t-549 153 q-366 0 -552 -154.5t-186 -443.5q0 -292 186 -445t552 -153q365 0 549 153t184 445zM709 1798l430 -213l-43 -84l-441 186z" />
<glyph unicode="&#xd3;" horiz-adv-x="2015" d="M1880 686q0 -185 -67 -319.5t-184 -222t-276 -129.5t-343 -42q-185 0 -345 42t-278 129.5t-185 222t-67 319.5q0 123 31 223.5t87 180t135.5 137.5t177 96.5t209.5 57t235 18.5q184 0 343 -42t276 -129.5t184 -222t67 -319.5zM1743 686q0 292 -184 445t-549 153 q-366 0 -552 -154.5t-186 -443.5q0 -292 186 -445t552 -153q365 0 549 153t184 445zM1364 1687l-440 -186l-41 84l428 213z" />
<glyph unicode="&#xd4;" horiz-adv-x="2015" d="M1880 686q0 -185 -67 -319.5t-184 -222t-276 -129.5t-343 -42q-185 0 -345 42t-278 129.5t-185 222t-67 319.5q0 123 31 223.5t87 180t135.5 137.5t177 96.5t209.5 57t235 18.5q184 0 343 -42t276 -129.5t184 -222t67 -319.5zM1743 686q0 292 -184 445t-549 153 q-366 0 -552 -154.5t-186 -443.5q0 -292 186 -445t552 -153q365 0 549 153t184 445zM1358 1503l-348 160l-348 -160l-39 78l387 219l387 -219z" />
<glyph unicode="&#xd5;" horiz-adv-x="2015" d="M1880 686q0 -185 -67 -319.5t-184 -222t-276 -129.5t-343 -42q-185 0 -345 42t-278 129.5t-185 222t-67 319.5q0 123 31 223.5t87 180t135.5 137.5t177 96.5t209.5 57t235 18.5q184 0 343 -42t276 -129.5t184 -222t67 -319.5zM1743 686q0 292 -184 445t-549 153 q-366 0 -552 -154.5t-186 -443.5q0 -292 186 -445t552 -153q365 0 549 153t184 445zM1364 1738q0 -17 -3 -40.5t-11 -49t-21.5 -50t-34.5 -44t-50 -31.5t-68 -12q-47 0 -92.5 19t-88 41.5t-81 41.5t-70.5 19q-30 0 -47 -15t-25.5 -35.5t-11.5 -40.5t-4 -30h-97q0 25 8 64 t29 75t58 62t96 26q39 0 82 -19t86.5 -41.5t84.5 -41.5t77 -19q30 0 47 15t26 35t11.5 40t3.5 31h96z" />
<glyph unicode="&#xd6;" horiz-adv-x="2015" d="M1880 686q0 -185 -67 -319.5t-184 -222t-276 -129.5t-343 -42q-185 0 -345 42t-278 129.5t-185 222t-67 319.5q0 123 31 223.5t87 180t135.5 137.5t177 96.5t209.5 57t235 18.5q184 0 343 -42t276 -129.5t184 -222t67 -319.5zM1743 686q0 292 -184 445t-549 153 q-366 0 -552 -154.5t-186 -443.5q0 -292 186 -445t552 -153q365 0 549 153t184 445zM723 1607q0 37 24.5 63.5t61.5 26.5t63.5 -26.5t26.5 -63.5t-26.5 -62.5t-63.5 -25.5t-61.5 25.5t-24.5 62.5zM1120 1607q0 18 6.5 34.5t18.5 29t28 19.5t35 7q37 0 62.5 -26.5t25.5 -63.5 t-25.5 -62.5t-62.5 -25.5q-38 0 -63 25.5t-25 62.5z" />
<glyph unicode="&#xd7;" horiz-adv-x="1300" d="M725 686l346 -346l-76 -78l-346 346l-344 -342l-76 76l344 344l-346 346l76 76l346 -346l344 344l76 -78z" />
<glyph unicode="&#xd8;" horiz-adv-x="2015" d="M1880 686q0 -185 -67 -319.5t-184 -222t-276 -129.5t-343 -42q-112 0 -213 15.5t-191 44.5l-153 -215h-129l182 254q-85 40 -153.5 98.5t-117 135t-74.5 171.5t-26 209q0 123 31 223.5t87 180t135.5 137.5t177 96.5t209.5 57t235 18.5q223 0 403 -62l156 217h127 l-185 -256q85 -41 153 -99t116 -134t74 -170.5t26 -208.5zM272 686q0 -189 76 -318t227 -200l768 1073q-71 22 -154 32.5t-179 10.5q-366 0 -552 -154.5t-186 -443.5zM1743 686q0 374 -299 516l-768 -1071q71 -22 154.5 -32.5t179.5 -10.5q365 0 549 153t184 445z" />
<glyph unicode="&#xd9;" d="M20 1374h699v-112h-287v-840q0 -69 36.5 -130.5t108.5 -107.5t178 -73t246 -27q139 0 245 27t178 73t108.5 107.5t36.5 130.5v840h-287v112h698v-112h-286v-830q0 -103 -43.5 -187.5t-130 -145t-216.5 -93.5t-303 -33t-303 33t-217 93.5t-130.5 145t-43.5 187.5v830h-287 v112zM699 1798l430 -213l-43 -84l-441 186z" />
<glyph unicode="&#xda;" d="M20 1374h699v-112h-287v-840q0 -69 36.5 -130.5t108.5 -107.5t178 -73t246 -27q139 0 245 27t178 73t108.5 107.5t36.5 130.5v840h-287v112h698v-112h-286v-830q0 -103 -43.5 -187.5t-130 -145t-216.5 -93.5t-303 -33t-303 33t-217 93.5t-130.5 145t-43.5 187.5v830h-287 v112zM1354 1687l-440 -186l-41 84l428 213z" />
<glyph unicode="&#xdb;" d="M20 1374h699v-112h-287v-840q0 -69 36.5 -130.5t108.5 -107.5t178 -73t246 -27q139 0 245 27t178 73t108.5 107.5t36.5 130.5v840h-287v112h698v-112h-286v-830q0 -103 -43.5 -187.5t-130 -145t-216.5 -93.5t-303 -33t-303 33t-217 93.5t-130.5 145t-43.5 187.5v830h-287 v112zM1348 1503l-348 160l-348 -160l-39 78l387 219l387 -219z" />
<glyph unicode="&#xdc;" d="M20 1374h699v-112h-287v-840q0 -69 36.5 -130.5t108.5 -107.5t178 -73t246 -27q139 0 245 27t178 73t108.5 107.5t36.5 130.5v840h-287v112h698v-112h-286v-830q0 -103 -43.5 -187.5t-130 -145t-216.5 -93.5t-303 -33t-303 33t-217 93.5t-130.5 145t-43.5 187.5v830h-287 v112zM713 1607q0 37 24.5 63.5t61.5 26.5t63.5 -26.5t26.5 -63.5t-26.5 -62.5t-63.5 -25.5t-61.5 25.5t-24.5 62.5zM1110 1607q0 18 6.5 34.5t18.5 29t28 19.5t35 7q37 0 62.5 -26.5t25.5 -63.5t-25.5 -62.5t-62.5 -25.5q-38 0 -63 25.5t-25 62.5z" />
<glyph unicode="&#xdd;" horiz-adv-x="1808" d="M0 1374h698v-112h-262l469 -576l465 576h-260v112h698v-112h-288l-553 -680v-469h307v-113h-739v113h307v469l-553 680h-289v112zM1260 1687l-440 -186l-41 84l428 213z" />
<glyph unicode="&#xde;" horiz-adv-x="1815" d="M82 1374h698v-112h-286v-132h616q160 0 273.5 -27.5t185.5 -80.5t105.5 -131.5t33.5 -181.5t-33.5 -182t-105.5 -133t-185.5 -81.5t-273.5 -27.5h-616v-172h286v-113h-698v113h287v1149h-287v112zM1571 709q0 98 -31 158t-97 92.5t-168.5 43.5t-244.5 11h-536v-613h536 q55 0 116.5 -0.5t122 6t115 23t96.5 51t66.5 89.5t24.5 139z" />
<glyph unicode="&#xdf;" horiz-adv-x="1554" d="M47 113h225v895q0 88 33 159.5t100.5 122t171 78t244.5 27.5q118 0 213 -20.5t161.5 -61t102 -100.5t35.5 -140q0 -51 -11 -95.5t-37 -80.5t-71 -62.5t-112 -39.5q171 -23 260.5 -122t89.5 -276q0 -105 -33.5 -184.5t-98.5 -132.5t-160.5 -80t-219.5 -27q-103 0 -200 23 t-187 61l41 107q28 -12 62.5 -26.5t76.5 -27t92 -21.5t109 -9q92 0 165 18t123.5 56t77.5 98.5t27 144.5q0 89 -22.5 152t-79 102.5t-152.5 57.5t-242 18h-192v107h186q124 0 200 17t117 47.5t54.5 72t13.5 90.5t-18.5 90.5t-64 71.5t-121.5 46.5t-191 16.5 q-111 0 -190.5 -18t-130 -53.5t-74 -88t-23.5 -120.5v-1006h-350v113z" />
<glyph unicode="&#xe0;" horiz-adv-x="1389" d="M1006 111q-46 -23 -102 -47.5t-121 -44.5t-138 -33t-153 -13q-90 0 -163 18t-124 53.5t-79 88t-28 121.5q0 107 69 175t190.5 108.5t287.5 59.5t361 28v47q0 53 -29 91t-78 62t-113.5 35.5t-136.5 11.5q-84 0 -146.5 -10.5t-105.5 -31t-68.5 -50t-37.5 -67.5l-127 30 q32 112 152.5 174t328.5 62q105 0 194 -18t153.5 -57t101 -101.5t36.5 -151.5v-538h238v-113h-362v111zM1006 520q-219 -8 -369 -28.5t-242.5 -53t-133 -77t-40.5 -101.5q0 -88 76.5 -134t224.5 -46q63 0 134.5 14t138.5 35.5t123 48.5t88 53v289zM353 1395l430 -213 l-43 -84l-441 186z" />
<glyph unicode="&#xe1;" horiz-adv-x="1389" d="M1006 111q-46 -23 -102 -47.5t-121 -44.5t-138 -33t-153 -13q-90 0 -163 18t-124 53.5t-79 88t-28 121.5q0 107 69 175t190.5 108.5t287.5 59.5t361 28v47q0 53 -29 91t-78 62t-113.5 35.5t-136.5 11.5q-84 0 -146.5 -10.5t-105.5 -31t-68.5 -50t-37.5 -67.5l-127 30 q32 112 152.5 174t328.5 62q105 0 194 -18t153.5 -57t101 -101.5t36.5 -151.5v-538h238v-113h-362v111zM1006 520q-219 -8 -369 -28.5t-242.5 -53t-133 -77t-40.5 -101.5q0 -88 76.5 -134t224.5 -46q63 0 134.5 14t138.5 35.5t123 48.5t88 53v289zM1008 1284l-440 -186 l-41 84l428 213z" />
<glyph unicode="&#xe2;" horiz-adv-x="1389" d="M1006 111q-46 -23 -102 -47.5t-121 -44.5t-138 -33t-153 -13q-90 0 -163 18t-124 53.5t-79 88t-28 121.5q0 107 69 175t190.5 108.5t287.5 59.5t361 28v47q0 53 -29 91t-78 62t-113.5 35.5t-136.5 11.5q-84 0 -146.5 -10.5t-105.5 -31t-68.5 -50t-37.5 -67.5l-127 30 q32 112 152.5 174t328.5 62q105 0 194 -18t153.5 -57t101 -101.5t36.5 -151.5v-538h238v-113h-362v111zM1006 520q-219 -8 -369 -28.5t-242.5 -53t-133 -77t-40.5 -101.5q0 -88 76.5 -134t224.5 -46q63 0 134.5 14t138.5 35.5t123 48.5t88 53v289zM1002 1100l-348 160 l-348 -160l-39 78l387 219l387 -219z" />
<glyph unicode="&#xe3;" horiz-adv-x="1389" d="M1006 111q-46 -23 -102 -47.5t-121 -44.5t-138 -33t-153 -13q-90 0 -163 18t-124 53.5t-79 88t-28 121.5q0 107 69 175t190.5 108.5t287.5 59.5t361 28v47q0 53 -29 91t-78 62t-113.5 35.5t-136.5 11.5q-84 0 -146.5 -10.5t-105.5 -31t-68.5 -50t-37.5 -67.5l-127 30 q32 112 152.5 174t328.5 62q105 0 194 -18t153.5 -57t101 -101.5t36.5 -151.5v-538h238v-113h-362v111zM1006 520q-219 -8 -369 -28.5t-242.5 -53t-133 -77t-40.5 -101.5q0 -88 76.5 -134t224.5 -46q63 0 134.5 14t138.5 35.5t123 48.5t88 53v289zM1008 1335q0 -17 -3 -40.5 t-11 -49t-21.5 -50t-34.5 -44t-50 -31.5t-68 -12q-47 0 -92.5 19t-88 41.5t-81 41.5t-70.5 19q-30 0 -47 -15t-25.5 -35.5t-11.5 -40.5t-4 -30h-97q0 25 8 64t29 75t58 62t96 26q39 0 82 -19t86.5 -41.5t84.5 -41.5t77 -19q30 0 47 15t26 35t11.5 40t3.5 31h96z" />
<glyph unicode="&#xe4;" horiz-adv-x="1389" d="M1006 111q-46 -23 -102 -47.5t-121 -44.5t-138 -33t-153 -13q-90 0 -163 18t-124 53.5t-79 88t-28 121.5q0 107 69 175t190.5 108.5t287.5 59.5t361 28v47q0 53 -29 91t-78 62t-113.5 35.5t-136.5 11.5q-84 0 -146.5 -10.5t-105.5 -31t-68.5 -50t-37.5 -67.5l-127 30 q32 112 152.5 174t328.5 62q105 0 194 -18t153.5 -57t101 -101.5t36.5 -151.5v-538h238v-113h-362v111zM1006 520q-219 -8 -369 -28.5t-242.5 -53t-133 -77t-40.5 -101.5q0 -88 76.5 -134t224.5 -46q63 0 134.5 14t138.5 35.5t123 48.5t88 53v289zM367 1204q0 37 24.5 63.5 t61.5 26.5t63.5 -26.5t26.5 -63.5t-26.5 -62.5t-63.5 -25.5t-61.5 25.5t-24.5 62.5zM764 1204q0 18 6.5 34.5t18.5 29t28 19.5t35 7q37 0 62.5 -26.5t25.5 -63.5t-25.5 -62.5t-62.5 -25.5q-38 0 -63 25.5t-25 62.5z" />
<glyph unicode="&#xe5;" horiz-adv-x="1389" d="M1006 111q-46 -23 -102 -47.5t-121 -44.5t-138 -33t-153 -13q-90 0 -163 18t-124 53.5t-79 88t-28 121.5q0 107 69 175t190.5 108.5t287.5 59.5t361 28v47q0 53 -29 91t-78 62t-113.5 35.5t-136.5 11.5q-84 0 -146.5 -10.5t-105.5 -31t-68.5 -50t-37.5 -67.5l-127 30 q32 112 152.5 174t328.5 62q105 0 194 -18t153.5 -57t101 -101.5t36.5 -151.5v-538h238v-113h-362v111zM1006 520q-219 -8 -369 -28.5t-242.5 -53t-133 -77t-40.5 -101.5q0 -88 76.5 -134t224.5 -46q63 0 134.5 14t138.5 35.5t123 48.5t88 53v289zM392 1262q0 43 18.5 78 t53 59.5t83 37.5t107.5 13q58 0 106.5 -13t83 -37.5t53.5 -59.5t19 -78q0 -44 -19 -79t-53.5 -59.5t-83 -37.5t-106.5 -13q-59 0 -107.5 13t-83 37.5t-53 59.5t-18.5 79zM494 1262q0 -42 37.5 -69.5t122.5 -27.5q84 0 120.5 27.5t36.5 69.5q0 40 -36.5 68t-120.5 28 q-85 0 -122.5 -28t-37.5 -68z" />
<glyph unicode="&#xe6;" horiz-adv-x="2232" d="M1577 -25q-159 0 -280 50t-195 141q-45 -33 -105 -67.5t-134.5 -62t-162.5 -45.5t-188 -18q-98 0 -174.5 18t-130 53.5t-81.5 88t-28 121.5q0 107 69 175t190.5 108.5t287.5 59.5t361 28v47q0 53 -29 91t-78 62t-113.5 35.5t-136.5 11.5q-84 0 -146.5 -10.5t-105.5 -31 t-68.5 -50t-37.5 -67.5l-127 30q32 112 152.5 174t328.5 62q84 0 158.5 -11.5t134 -36.5t102.5 -64.5t64 -94.5q77 94 198.5 147.5t276.5 53.5q131 0 235 -37t176 -106.5t110 -168.5t38 -223v-22h-1008q7 -76 40 -137t89.5 -104t136.5 -66t181 -23q98 0 170.5 16t123 43 t82 61t48.5 70h125q-59 -152 -200.5 -226.5t-348.5 -74.5zM522 80q88 0 168 16.5t148.5 42t122 55.5t88.5 56q-23 49 -35.5 104t-12.5 117q0 12 0.5 24.5t2.5 24.5q-218 -8 -368 -28.5t-242 -53t-132.5 -77t-40.5 -101.5q0 -88 76.5 -134t224.5 -46zM2009 524 q-5 68 -30.5 129t-76.5 107.5t-129.5 74t-189.5 27.5q-104 0 -184 -27.5t-137 -74t-90 -107.5t-42 -129h879z" />
<glyph unicode="&#xe7;" horiz-adv-x="1333" d="M1112 584v47q0 61 -38.5 106t-98 74t-131 43t-137.5 14q-112 0 -201 -27t-150.5 -77.5t-94 -123t-32.5 -163.5q0 -92 32 -164.5t92.5 -123.5t148 -78t198.5 -27q94 0 164.5 17.5t119.5 45t79 61.5t45 68h129q-54 -143 -185.5 -218.5t-330.5 -82.5l-27 -73q44 0 82.5 -7 t67 -23.5t45 -44t16.5 -69.5q0 -45 -18.5 -75.5t-51.5 -49t-79 -26.5t-101 -8q-81 0 -136.5 16t-92.5 33l43 86q35 -22 76.5 -33.5t101.5 -11.5q42 0 71 5t46.5 14t25 22t7.5 28q0 19 -10 32t-27 20.5t-38.5 10.5t-45.5 3q-26 0 -53 -1.5t-50 -4.5l60 159q-117 8 -215 44 t-169 98.5t-111 152t-40 203.5q0 122 47 216t128.5 158t191 97t233.5 33q73 0 136 -10t115.5 -27.5t93 -39.5t69.5 -46v102h109v-374h-109z" />
<glyph unicode="&#xe8;" horiz-adv-x="1329" d="M1106 524q-5 68 -31 129t-78 107.5t-131 74t-190 27.5q-104 0 -184 -27.5t-136 -74t-88 -107.5t-41 -129h879zM674 -25q-131 0 -237.5 34.5t-181.5 99t-116 156.5t-41 206q0 111 43 203.5t120 159t183 103t232 36.5q131 0 235 -37t176 -106.5t110 -168.5t38 -223v-22 h-1008q7 -76 39.5 -137t89.5 -104t136.5 -66t181.5 -23q98 0 170.5 16t123 43t82 61t48.5 70h125q-59 -152 -200.5 -226.5t-348.5 -74.5zM375 1395l430 -213l-43 -84l-441 186z" />
<glyph unicode="&#xe9;" horiz-adv-x="1329" d="M1106 524q-5 68 -31 129t-78 107.5t-131 74t-190 27.5q-104 0 -184 -27.5t-136 -74t-88 -107.5t-41 -129h879zM674 -25q-131 0 -237.5 34.5t-181.5 99t-116 156.5t-41 206q0 111 43 203.5t120 159t183 103t232 36.5q131 0 235 -37t176 -106.5t110 -168.5t38 -223v-22 h-1008q7 -76 39.5 -137t89.5 -104t136.5 -66t181.5 -23q98 0 170.5 16t123 43t82 61t48.5 70h125q-59 -152 -200.5 -226.5t-348.5 -74.5zM1030 1284l-440 -186l-41 84l428 213z" />
<glyph unicode="&#xea;" horiz-adv-x="1329" d="M1106 524q-5 68 -31 129t-78 107.5t-131 74t-190 27.5q-104 0 -184 -27.5t-136 -74t-88 -107.5t-41 -129h879zM674 -25q-131 0 -237.5 34.5t-181.5 99t-116 156.5t-41 206q0 111 43 203.5t120 159t183 103t232 36.5q131 0 235 -37t176 -106.5t110 -168.5t38 -223v-22 h-1008q7 -76 39.5 -137t89.5 -104t136.5 -66t181.5 -23q98 0 170.5 16t123 43t82 61t48.5 70h125q-59 -152 -200.5 -226.5t-348.5 -74.5zM1024 1100l-348 160l-348 -160l-39 78l387 219l387 -219z" />
<glyph unicode="&#xeb;" horiz-adv-x="1329" d="M1106 524q-5 68 -31 129t-78 107.5t-131 74t-190 27.5q-104 0 -184 -27.5t-136 -74t-88 -107.5t-41 -129h879zM674 -25q-131 0 -237.5 34.5t-181.5 99t-116 156.5t-41 206q0 111 43 203.5t120 159t183 103t232 36.5q131 0 235 -37t176 -106.5t110 -168.5t38 -223v-22 h-1008q7 -76 39.5 -137t89.5 -104t136.5 -66t181.5 -23q98 0 170.5 16t123 43t82 61t48.5 70h125q-59 -152 -200.5 -226.5t-348.5 -74.5zM389 1204q0 37 24.5 63.5t61.5 26.5t63.5 -26.5t26.5 -63.5t-26.5 -62.5t-63.5 -25.5t-61.5 25.5t-24.5 62.5zM786 1204q0 18 6.5 34.5 t18.5 29t28 19.5t35 7q37 0 62.5 -26.5t25.5 -63.5t-25.5 -62.5t-62.5 -25.5q-38 0 -63 25.5t-25 62.5z" />
<glyph unicode="&#xec;" horiz-adv-x="655" d="M47 952h350v-839h226v-113h-576v113h225v727h-225v112zM-27 1395l430 -213l-43 -84l-441 186z" />
<glyph unicode="&#xed;" horiz-adv-x="655" d="M47 952h350v-839h226v-113h-576v113h225v727h-225v112zM628 1284l-440 -186l-41 84l428 213z" />
<glyph unicode="&#xee;" horiz-adv-x="655" d="M47 952h350v-839h226v-113h-576v113h225v727h-225v112zM622 1100l-348 160l-348 -160l-39 78l387 219l387 -219z" />
<glyph unicode="&#xef;" horiz-adv-x="655" d="M47 952h350v-839h226v-113h-576v113h225v727h-225v112zM-13 1204q0 37 24.5 63.5t61.5 26.5t63.5 -26.5t26.5 -63.5t-26.5 -62.5t-63.5 -25.5t-61.5 25.5t-24.5 62.5zM384 1204q0 18 6.5 34.5t18.5 29t28 19.5t35 7q37 0 62.5 -26.5t25.5 -63.5t-25.5 -62.5t-62.5 -25.5 q-38 0 -63 25.5t-25 62.5z" />
<glyph unicode="&#xf0;" horiz-adv-x="1419" d="M971 1208q170 -130 260 -308t90 -404q0 -138 -47 -237t-129 -162.5t-193 -93.5t-239 -30q-131 0 -243 27t-195 85.5t-130 150.5t-47 223q0 130 51.5 223.5t139 153.5t202.5 88t242 28q65 0 118.5 -5.5t98.5 -14.5t83 -21.5t73 -27.5q-47 88 -114 157t-150 123l-338 -114 l-35 98l254 86q-46 23 -95 42t-100 36l41 96q82 -25 155.5 -57t139.5 -70l324 111l37 -97zM1198 496q0 68 -8.5 128t-24.5 115q-30 21 -70.5 40.5t-93 34t-117.5 23.5t-145 9q-137 0 -235 -24.5t-161 -73t-92.5 -121t-29.5 -168.5q0 -193 122.5 -286t371.5 -93 q241 0 362 103.5t121 312.5z" />
<glyph unicode="&#xf1;" horiz-adv-x="1548" d="M47 952h350v-180q47 45 105 83.5t125 67.5t141 45.5t152 16.5q93 0 162.5 -23.5t115.5 -66.5t69 -104.5t23 -137.5v-540h226v-113h-576v113h225v503q0 76 -19.5 125.5t-55.5 78.5t-87.5 40.5t-115.5 11.5q-75 0 -147 -20t-135.5 -50t-117 -66.5t-90.5 -69.5v-553h226 v-113h-576v113h225v727h-225v112zM1122 1335q0 -17 -3 -40.5t-11 -49t-21.5 -50t-34.5 -44t-50 -31.5t-68 -12q-47 0 -92.5 19t-88 41.5t-81 41.5t-70.5 19q-30 0 -47 -15t-25.5 -35.5t-11.5 -40.5t-4 -30h-97q0 25 8 64t29 75t58 62t96 26q39 0 82 -19t86.5 -41.5 t84.5 -41.5t77 -19q30 0 47 15t26 35t11.5 40t3.5 31h96z" />
<glyph unicode="&#xf2;" horiz-adv-x="1419" d="M1321 475q0 -131 -47 -225.5t-129 -156t-193.5 -91t-240.5 -29.5q-130 0 -242 29.5t-194.5 91t-129.5 156t-47 225.5q0 130 47.5 225.5t130.5 157t195 91.5t240 30q129 0 240.5 -29.5t193.5 -91t129 -157t47 -226.5zM1198 475q0 193 -122.5 295t-364.5 102 q-243 0 -366.5 -102t-123.5 -295t123.5 -294t366.5 -101q242 0 364.5 101.5t122.5 293.5zM410 1395l430 -213l-43 -84l-441 186z" />
<glyph unicode="&#xf3;" horiz-adv-x="1419" d="M1321 475q0 -131 -47 -225.5t-129 -156t-193.5 -91t-240.5 -29.5q-130 0 -242 29.5t-194.5 91t-129.5 156t-47 225.5q0 130 47.5 225.5t130.5 157t195 91.5t240 30q129 0 240.5 -29.5t193.5 -91t129 -157t47 -226.5zM1198 475q0 193 -122.5 295t-364.5 102 q-243 0 -366.5 -102t-123.5 -295t123.5 -294t366.5 -101q242 0 364.5 101.5t122.5 293.5zM1065 1284l-440 -186l-41 84l428 213z" />
<glyph unicode="&#xf4;" horiz-adv-x="1419" d="M1321 475q0 -131 -47 -225.5t-129 -156t-193.5 -91t-240.5 -29.5q-130 0 -242 29.5t-194.5 91t-129.5 156t-47 225.5q0 130 47.5 225.5t130.5 157t195 91.5t240 30q129 0 240.5 -29.5t193.5 -91t129 -157t47 -226.5zM1198 475q0 193 -122.5 295t-364.5 102 q-243 0 -366.5 -102t-123.5 -295t123.5 -294t366.5 -101q242 0 364.5 101.5t122.5 293.5zM1059 1100l-348 160l-348 -160l-39 78l387 219l387 -219z" />
<glyph unicode="&#xf5;" horiz-adv-x="1419" d="M1321 475q0 -131 -47 -225.5t-129 -156t-193.5 -91t-240.5 -29.5q-130 0 -242 29.5t-194.5 91t-129.5 156t-47 225.5q0 130 47.5 225.5t130.5 157t195 91.5t240 30q129 0 240.5 -29.5t193.5 -91t129 -157t47 -226.5zM1198 475q0 193 -122.5 295t-364.5 102 q-243 0 -366.5 -102t-123.5 -295t123.5 -294t366.5 -101q242 0 364.5 101.5t122.5 293.5zM1065 1335q0 -17 -3 -40.5t-11 -49t-21.5 -50t-34.5 -44t-50 -31.5t-68 -12q-47 0 -92.5 19t-88 41.5t-81 41.5t-70.5 19q-30 0 -47 -15t-25.5 -35.5t-11.5 -40.5t-4 -30h-97 q0 25 8 64t29 75t58 62t96 26q39 0 82 -19t86.5 -41.5t84.5 -41.5t77 -19q30 0 47 15t26 35t11.5 40t3.5 31h96z" />
<glyph unicode="&#xf6;" horiz-adv-x="1419" d="M1321 475q0 -131 -47 -225.5t-129 -156t-193.5 -91t-240.5 -29.5q-130 0 -242 29.5t-194.5 91t-129.5 156t-47 225.5q0 130 47.5 225.5t130.5 157t195 91.5t240 30q129 0 240.5 -29.5t193.5 -91t129 -157t47 -226.5zM1198 475q0 193 -122.5 295t-364.5 102 q-243 0 -366.5 -102t-123.5 -295t123.5 -294t366.5 -101q242 0 364.5 101.5t122.5 293.5zM424 1204q0 37 24.5 63.5t61.5 26.5t63.5 -26.5t26.5 -63.5t-26.5 -62.5t-63.5 -25.5t-61.5 25.5t-24.5 62.5zM821 1204q0 18 6.5 34.5t18.5 29t28 19.5t35 7q37 0 62.5 -26.5 t25.5 -63.5t-25.5 -62.5t-62.5 -25.5q-38 0 -63 25.5t-25 62.5z" />
<glyph unicode="&#xf7;" horiz-adv-x="1300" d="M176 631v108h957v-108h-957zM569 993q0 37 23 61.5t57 24.5q37 0 61.5 -24.5t24.5 -61.5q0 -34 -24.5 -57t-61.5 -23q-34 0 -57 23t-23 57zM569 371q0 37 23 61.5t57 24.5q37 0 61.5 -24.5t24.5 -61.5q0 -34 -24.5 -57t-61.5 -23q-34 0 -57 23t-23 57z" />
<glyph unicode="&#xf8;" horiz-adv-x="1419" d="M342 51q-56 29 -101 69.5t-77 93t-49 118t-17 143.5q0 130 47.5 225.5t130.5 157t195 91.5t240 30q74 0 142 -10t128 -29l141 195h119l-168 -234q114 -59 181 -164t67 -262q0 -131 -47 -225.5t-129 -156t-193.5 -91t-240.5 -29.5q-152 0 -275 39l-139 -194h-121z M1198 475q0 121 -47 205.5t-141 132.5l-508 -709q91 -24 209 -24q242 0 364.5 101.5t122.5 293.5zM221 475q0 -237 187 -334l507 707q-89 24 -204 24q-243 0 -366.5 -102t-123.5 -295z" />
<glyph unicode="&#xf9;" horiz-adv-x="1542" d="M1501 0h-350v180q-47 -45 -105 -83.5t-124.5 -67.5t-140.5 -45.5t-152 -16.5q-94 0 -163.5 23.5t-115.5 66.5t-69 104.5t-23 137.5v541h-225v112h350v-616q0 -76 19.5 -125.5t55.5 -78.5t87.5 -40.5t116.5 -11.5q74 0 146 20t136 50.5t117 67t90 69.5v553h-225v112h350 v-839h225v-113zM435 1395l430 -213l-43 -84l-441 186z" />
<glyph unicode="&#xfa;" horiz-adv-x="1542" d="M1501 0h-350v180q-47 -45 -105 -83.5t-124.5 -67.5t-140.5 -45.5t-152 -16.5q-94 0 -163.5 23.5t-115.5 66.5t-69 104.5t-23 137.5v541h-225v112h350v-616q0 -76 19.5 -125.5t55.5 -78.5t87.5 -40.5t116.5 -11.5q74 0 146 20t136 50.5t117 67t90 69.5v553h-225v112h350 v-839h225v-113zM1090 1284l-440 -186l-41 84l428 213z" />
<glyph unicode="&#xfb;" horiz-adv-x="1542" d="M1501 0h-350v180q-47 -45 -105 -83.5t-124.5 -67.5t-140.5 -45.5t-152 -16.5q-94 0 -163.5 23.5t-115.5 66.5t-69 104.5t-23 137.5v541h-225v112h350v-616q0 -76 19.5 -125.5t55.5 -78.5t87.5 -40.5t116.5 -11.5q74 0 146 20t136 50.5t117 67t90 69.5v553h-225v112h350 v-839h225v-113zM1084 1100l-348 160l-348 -160l-39 78l387 219l387 -219z" />
<glyph unicode="&#xfc;" horiz-adv-x="1542" d="M1501 0h-350v180q-47 -45 -105 -83.5t-124.5 -67.5t-140.5 -45.5t-152 -16.5q-94 0 -163.5 23.5t-115.5 66.5t-69 104.5t-23 137.5v541h-225v112h350v-616q0 -76 19.5 -125.5t55.5 -78.5t87.5 -40.5t116.5 -11.5q74 0 146 20t136 50.5t117 67t90 69.5v553h-225v112h350 v-839h225v-113zM449 1204q0 37 24.5 63.5t61.5 26.5t63.5 -26.5t26.5 -63.5t-26.5 -62.5t-63.5 -25.5t-61.5 25.5t-24.5 62.5zM846 1204q0 18 6.5 34.5t18.5 29t28 19.5t35 7q37 0 62.5 -26.5t25.5 -63.5t-25.5 -62.5t-62.5 -25.5q-38 0 -63 25.5t-25 62.5z" />
<glyph unicode="&#xfd;" horiz-adv-x="1358" d="M1358 840h-189l-370 -727l-23 -43q-37 -73 -69.5 -137.5t-66.5 -118t-72 -96t-84.5 -72t-104.5 -45t-133 -15.5q-60 0 -125.5 17t-116.5 51l55 106q14 -9 31.5 -20t40.5 -20.5t51.5 -16t63.5 -6.5q71 0 123.5 20t94.5 57.5t76.5 92.5t69.5 125l-424 848h-186v112h494 v-112h-164l348 -717l354 717h-168v112h494v-112zM1032 1284l-440 -186l-41 84l428 213z" />
<glyph unicode="&#xfe;" horiz-adv-x="1497" d="M27 1376h350v-563q47 39 98 70t109.5 52.5t125 32.5t144.5 11q105 0 203 -29.5t174 -91t122 -157t46 -226.5t-49 -225.5t-131 -156t-189 -91t-223 -29.5q-67 0 -127 9t-113.5 24.5t-101 36t-88.5 43.5v-367h225v-112h-575v112h225v1545h-225v112zM377 197 q74 -50 180.5 -83.5t247.5 -33.5q103 0 189.5 25.5t149 76t97.5 124t35 169.5q0 195 -114 296t-337 101q-74 0 -139.5 -16.5t-122 -43.5t-103 -60t-83.5 -66v-489z" />
<glyph unicode="&#xff;" horiz-adv-x="1358" d="M1358 840h-189l-370 -727l-23 -43q-37 -73 -69.5 -137.5t-66.5 -118t-72 -96t-84.5 -72t-104.5 -45t-133 -15.5q-60 0 -125.5 17t-116.5 51l55 106q14 -9 31.5 -20t40.5 -20.5t51.5 -16t63.5 -6.5q71 0 123.5 20t94.5 57.5t76.5 92.5t69.5 125l-424 848h-186v112h494 v-112h-164l348 -717l354 717h-168v112h494v-112zM391 1204q0 37 24.5 63.5t61.5 26.5t63.5 -26.5t26.5 -63.5t-26.5 -62.5t-63.5 -25.5t-61.5 25.5t-24.5 62.5zM788 1204q0 18 6.5 34.5t18.5 29t28 19.5t35 7q37 0 62.5 -26.5t25.5 -63.5t-25.5 -62.5t-62.5 -25.5 q-38 0 -63 25.5t-25 62.5z" />
<glyph unicode="&#x100;" horiz-adv-x="1913" d="M444 1374h586l660 -1261h264v-113h-699v113h297l-182 354h-827l-185 -354h299v-113h-698v113h264l600 1149h-379v112zM956 1253l-352 -673h705zM618 1533v113h549v-113h-549z" />
<glyph unicode="&#x101;" horiz-adv-x="1389" d="M1006 111q-46 -23 -102 -47.5t-121 -44.5t-138 -33t-153 -13q-90 0 -163 18t-124 53.5t-79 88t-28 121.5q0 107 69 175t190.5 108.5t287.5 59.5t361 28v47q0 53 -29 91t-78 62t-113.5 35.5t-136.5 11.5q-84 0 -146.5 -10.5t-105.5 -31t-68.5 -50t-37.5 -67.5l-127 30 q32 112 152.5 174t328.5 62q105 0 194 -18t153.5 -57t101 -101.5t36.5 -151.5v-538h238v-113h-362v111zM1006 520q-219 -8 -369 -28.5t-242.5 -53t-133 -77t-40.5 -101.5q0 -88 76.5 -134t224.5 -46q63 0 134.5 14t138.5 35.5t123 48.5t88 53v289zM379 1130v113h549v-113 h-549z" />
<glyph unicode="&#x102;" horiz-adv-x="1913" d="M444 1374h586l660 -1261h264v-113h-699v113h297l-182 354h-827l-185 -354h299v-113h-698v113h264l600 1149h-379v112zM956 1253l-352 -673h705zM1239 1753q-9 -37 -31 -79t-62.5 -77t-102 -58.5t-150.5 -23.5q-90 0 -152 23.5t-102 58.5t-61.5 77t-30.5 79h116 q6 -18 20.5 -41.5t41.5 -44.5t68 -35.5t100 -14.5q58 0 99 14.5t68.5 35.5t42.5 44.5t21 41.5h115z" />
<glyph unicode="&#x103;" horiz-adv-x="1389" d="M1006 111q-46 -23 -102 -47.5t-121 -44.5t-138 -33t-153 -13q-90 0 -163 18t-124 53.5t-79 88t-28 121.5q0 107 69 175t190.5 108.5t287.5 59.5t361 28v47q0 53 -29 91t-78 62t-113.5 35.5t-136.5 11.5q-84 0 -146.5 -10.5t-105.5 -31t-68.5 -50t-37.5 -67.5l-127 30 q32 112 152.5 174t328.5 62q105 0 194 -18t153.5 -57t101 -101.5t36.5 -151.5v-538h238v-113h-362v111zM1006 520q-219 -8 -369 -28.5t-242.5 -53t-133 -77t-40.5 -101.5q0 -88 76.5 -134t224.5 -46q63 0 134.5 14t138.5 35.5t123 48.5t88 53v289zM1000 1350q-9 -37 -31 -79 t-62.5 -77t-102 -58.5t-150.5 -23.5q-90 0 -152 23.5t-102 58.5t-61.5 77t-30.5 79h116q6 -18 20.5 -41.5t41.5 -44.5t68 -35.5t100 -14.5q58 0 99 14.5t68.5 35.5t42.5 44.5t21 41.5h115z" />
<glyph unicode="&#x104;" horiz-adv-x="1913" d="M444 1374h586l660 -1261h264v-113h-166q-29 -19 -57 -41t-50 -45.5t-35.5 -47.5t-13.5 -48q0 -42 34 -61t97 -19q42 0 84 10.5t70 24.5l37 -90q-17 -9 -40 -16t-50 -12t-56 -8t-57 -3q-111 0 -172 35.5t-61 115.5q0 59 38.5 109t116.5 96h-418v113h297l-182 354h-827 l-185 -354h299v-113h-698v113h264l600 1149h-379v112zM956 1253l-352 -673h705z" />
<glyph unicode="&#x105;" horiz-adv-x="1389" d="M1006 111q-46 -23 -102 -47.5t-121 -44.5t-138 -33t-153 -13q-90 0 -163 18t-124 53.5t-79 88t-28 121.5q0 107 69 175t190.5 108.5t287.5 59.5t361 28v47q0 53 -29 91t-78 62t-113.5 35.5t-136.5 11.5q-84 0 -146.5 -10.5t-105.5 -31t-68.5 -50t-37.5 -67.5l-127 30 q32 112 152.5 174t328.5 62q105 0 194 -18t153.5 -57t101 -101.5t36.5 -151.5v-538h238v-113q-78 -5 -135 -25.5t-94 -47.5t-54.5 -56t-17.5 -53q0 -42 34 -61t97 -19q42 0 84 10.5t70 24.5l37 -90q-35 -17 -90.5 -28t-112.5 -11q-112 0 -173 35.5t-61 115.5q0 59 41.5 112 t130.5 93h-118v111zM1006 520q-219 -8 -369 -28.5t-242.5 -53t-133 -77t-40.5 -101.5q0 -88 76.5 -134t224.5 -46q63 0 134.5 14t138.5 35.5t123 48.5t88 53v289z" />
<glyph unicode="&#x106;" horiz-adv-x="1860" d="M1599 860v80q0 86 -49 150.5t-130.5 108t-187.5 65.5t-220 22q-194 0 -334 -42.5t-230 -121t-133 -189.5t-43 -247q0 -137 46 -247.5t138 -188.5t229.5 -120t320.5 -42q103 0 197 18.5t171.5 54.5t135.5 89.5t89 124.5h138q-36 -88 -99.5 -161.5t-156.5 -127t-216 -83.5 t-278 -30q-181 0 -337 45t-270.5 134t-179.5 223t-65 311t65.5 311t181.5 223t274 134t343 45q121 0 212.5 -15t162 -38.5t124.5 -53t101 -57.5v139h113v-514h-113zM1354 1687l-440 -186l-41 84l428 213z" />
<glyph unicode="&#x107;" horiz-adv-x="1333" d="M1112 584v47q0 61 -38.5 106t-98 74t-131 43t-137.5 14q-112 0 -201 -27t-150.5 -77.5t-94 -123t-32.5 -163.5q0 -92 32 -164.5t92.5 -123.5t148 -78t198.5 -27q94 0 164.5 17.5t119.5 45t79 61.5t45 68h129q-56 -148 -194 -224.5t-349 -76.5q-128 0 -237.5 32.5t-189 96 t-124.5 157t-45 214.5q0 122 47 216t128.5 158t191 97t233.5 33q73 0 136 -10t115.5 -27.5t93 -39.5t69.5 -46v102h109v-374h-109zM1053 1284l-440 -186l-41 84l428 213z" />
<glyph unicode="&#x108;" horiz-adv-x="1860" d="M1599 860v80q0 86 -49 150.5t-130.5 108t-187.5 65.5t-220 22q-194 0 -334 -42.5t-230 -121t-133 -189.5t-43 -247q0 -137 46 -247.5t138 -188.5t229.5 -120t320.5 -42q103 0 197 18.5t171.5 54.5t135.5 89.5t89 124.5h138q-36 -88 -99.5 -161.5t-156.5 -127t-216 -83.5 t-278 -30q-181 0 -337 45t-270.5 134t-179.5 223t-65 311t65.5 311t181.5 223t274 134t343 45q121 0 212.5 -15t162 -38.5t124.5 -53t101 -57.5v139h113v-514h-113zM1348 1503l-348 160l-348 -160l-39 78l387 219l387 -219z" />
<glyph unicode="&#x109;" horiz-adv-x="1333" d="M1112 584v47q0 61 -38.5 106t-98 74t-131 43t-137.5 14q-112 0 -201 -27t-150.5 -77.5t-94 -123t-32.5 -163.5q0 -92 32 -164.5t92.5 -123.5t148 -78t198.5 -27q94 0 164.5 17.5t119.5 45t79 61.5t45 68h129q-56 -148 -194 -224.5t-349 -76.5q-128 0 -237.5 32.5t-189 96 t-124.5 157t-45 214.5q0 122 47 216t128.5 158t191 97t233.5 33q73 0 136 -10t115.5 -27.5t93 -39.5t69.5 -46v102h109v-374h-109zM1047 1100l-348 160l-348 -160l-39 78l387 219l387 -219z" />
<glyph unicode="&#x10a;" horiz-adv-x="1860" d="M1599 860v80q0 86 -49 150.5t-130.5 108t-187.5 65.5t-220 22q-194 0 -334 -42.5t-230 -121t-133 -189.5t-43 -247q0 -137 46 -247.5t138 -188.5t229.5 -120t320.5 -42q103 0 197 18.5t171.5 54.5t135.5 89.5t89 124.5h138q-36 -88 -99.5 -161.5t-156.5 -127t-216 -83.5 t-278 -30q-181 0 -337 45t-270.5 134t-179.5 223t-65 311t65.5 311t181.5 223t274 134t343 45q121 0 212.5 -15t162 -38.5t124.5 -53t101 -57.5v139h113v-514h-113zM908 1611q0 20 7 38t19.5 31t29 20.5t36.5 7.5q40 0 68 -28t28 -69q0 -19 -7.5 -36t-20.5 -29.5 t-30.5 -19.5t-37.5 -7t-36.5 7t-29 19.5t-19.5 29.5t-7 36z" />
<glyph unicode="&#x10b;" horiz-adv-x="1333" d="M1112 584v47q0 61 -38.5 106t-98 74t-131 43t-137.5 14q-112 0 -201 -27t-150.5 -77.5t-94 -123t-32.5 -163.5q0 -92 32 -164.5t92.5 -123.5t148 -78t198.5 -27q94 0 164.5 17.5t119.5 45t79 61.5t45 68h129q-56 -148 -194 -224.5t-349 -76.5q-128 0 -237.5 32.5t-189 96 t-124.5 157t-45 214.5q0 122 47 216t128.5 158t191 97t233.5 33q73 0 136 -10t115.5 -27.5t93 -39.5t69.5 -46v102h109v-374h-109zM607 1208q0 20 7 38t19.5 31t29 20.5t36.5 7.5q40 0 68 -28t28 -69q0 -19 -7.5 -36t-20.5 -29.5t-30.5 -19.5t-37.5 -7t-36.5 7t-29 19.5 t-19.5 29.5t-7 36z" />
<glyph unicode="&#x10c;" horiz-adv-x="1860" d="M1599 860v80q0 86 -49 150.5t-130.5 108t-187.5 65.5t-220 22q-194 0 -334 -42.5t-230 -121t-133 -189.5t-43 -247q0 -137 46 -247.5t138 -188.5t229.5 -120t320.5 -42q103 0 197 18.5t171.5 54.5t135.5 89.5t89 124.5h138q-36 -88 -99.5 -161.5t-156.5 -127t-216 -83.5 t-278 -30q-181 0 -337 45t-270.5 134t-179.5 223t-65 311t65.5 311t181.5 223t274 134t343 45q121 0 212.5 -15t162 -38.5t124.5 -53t101 -57.5v139h113v-514h-113zM1387 1720l-387 -219l-387 219l39 78l348 -160l348 160z" />
<glyph unicode="&#x10d;" horiz-adv-x="1333" d="M1112 584v47q0 61 -38.5 106t-98 74t-131 43t-137.5 14q-112 0 -201 -27t-150.5 -77.5t-94 -123t-32.5 -163.5q0 -92 32 -164.5t92.5 -123.5t148 -78t198.5 -27q94 0 164.5 17.5t119.5 45t79 61.5t45 68h129q-56 -148 -194 -224.5t-349 -76.5q-128 0 -237.5 32.5t-189 96 t-124.5 157t-45 214.5q0 122 47 216t128.5 158t191 97t233.5 33q73 0 136 -10t115.5 -27.5t93 -39.5t69.5 -46v102h109v-374h-109zM1086 1317l-387 -219l-387 219l39 78l348 -160l348 160z" />
<glyph unicode="&#x10e;" d="M82 1374h993q169 0 314 -33t251.5 -112.5t167 -211.5t60.5 -329q0 -132 -27.5 -234.5t-77.5 -178.5t-121.5 -129t-159 -85t-190 -46.5t-215.5 -14.5h-995v113h287v1149h-287v112zM1739 688q0 112 -22 198t-63 149.5t-100 106.5t-133 69.5t-161 37.5t-185 11h-581v-1145 h581q147 0 269 26.5t209.5 92t136.5 176t49 278.5zM1309 1720l-387 -219l-387 219l39 78l348 -160l348 160z" />
<glyph unicode="&#x10f;" horiz-adv-x="1661" d="M1470 0h-350v139q-47 -37 -98 -67.5t-109.5 -52.5t-125 -34t-144.5 -12q-104 0 -202.5 30.5t-174.5 93.5t-122 159t-46 227q0 126 45.5 219t124.5 154.5t185 92t227 30.5q61 0 120 -9.5t115 -26.5t108 -39.5t97 -47.5v406h-227v112h352v-1261h225v-113zM672 80 q74 0 139.5 17.5t122 45.5t103 62t83.5 67v457q-38 28 -85 53.5t-102.5 45.5t-118 32t-132.5 12q-103 0 -188 -26t-145.5 -75.5t-94 -122t-33.5 -165.5q0 -194 115 -298.5t336 -104.5zM1495 1101h-100l39 273h143z" />
<glyph unicode="&#x110;" d="M82 1374h993q169 0 314 -33t251.5 -112.5t167 -211.5t60.5 -329q0 -132 -27.5 -234.5t-77.5 -178.5t-121.5 -129t-159 -85t-190 -46.5t-215.5 -14.5h-995v113h287v530h-287v109h287v510h-287v112zM494 643v-528h581q147 0 269 26.5t209.5 92t136.5 176t49 278.5 q0 112 -22 198t-63 149.5t-100 106.5t-133 69.5t-161 37.5t-185 11h-581v-508h489v-109h-489z" />
<glyph unicode="&#x111;" horiz-adv-x="1497" d="M1245 1047v-934h225v-113h-350v139q-47 -37 -98 -67.5t-109.5 -52.5t-125 -34t-144.5 -12q-104 0 -202.5 30.5t-174.5 93.5t-122 159t-46 227q0 126 45.5 219t124.5 154.5t185 92t227 30.5q61 0 120 -9.5t115 -26.5t108 -39.5t97 -47.5v191h-354v108h354v107h-227v112 h352v-219h217v-108h-217zM672 80q74 0 139.5 17.5t122 45.5t103 62t83.5 67v457q-38 28 -85 53.5t-102.5 45.5t-118 32t-132.5 12q-103 0 -188 -26t-145.5 -75.5t-94 -122t-33.5 -165.5q0 -194 115 -298.5t336 -104.5z" />
<glyph unicode="&#x112;" horiz-adv-x="1755" d="M1485 963v294h-991v-473h763v-116h-763v-551h1005v315h113v-432h-1530v113h287v1149h-287v112h1515v-411h-112zM655 1533v113h549v-113h-549z" />
<glyph unicode="&#x113;" horiz-adv-x="1329" d="M1106 524q-5 68 -31 129t-78 107.5t-131 74t-190 27.5q-104 0 -184 -27.5t-136 -74t-88 -107.5t-41 -129h879zM674 -25q-131 0 -237.5 34.5t-181.5 99t-116 156.5t-41 206q0 111 43 203.5t120 159t183 103t232 36.5q131 0 235 -37t176 -106.5t110 -168.5t38 -223v-22 h-1008q7 -76 39.5 -137t89.5 -104t136.5 -66t181.5 -23q98 0 170.5 16t123 43t82 61t48.5 70h125q-59 -152 -200.5 -226.5t-348.5 -74.5zM401 1130v113h549v-113h-549z" />
<glyph unicode="&#x114;" horiz-adv-x="1755" d="M1485 963v294h-991v-473h763v-116h-763v-551h1005v315h113v-432h-1530v113h287v1149h-287v112h1515v-411h-112zM1276 1753q-9 -37 -31 -79t-62.5 -77t-102 -58.5t-150.5 -23.5q-90 0 -152 23.5t-102 58.5t-61.5 77t-30.5 79h116q6 -18 20.5 -41.5t41.5 -44.5t68 -35.5 t100 -14.5q58 0 99 14.5t68.5 35.5t42.5 44.5t21 41.5h115z" />
<glyph unicode="&#x115;" horiz-adv-x="1329" d="M1106 524q-5 68 -31 129t-78 107.5t-131 74t-190 27.5q-104 0 -184 -27.5t-136 -74t-88 -107.5t-41 -129h879zM674 -25q-131 0 -237.5 34.5t-181.5 99t-116 156.5t-41 206q0 111 43 203.5t120 159t183 103t232 36.5q131 0 235 -37t176 -106.5t110 -168.5t38 -223v-22 h-1008q7 -76 39.5 -137t89.5 -104t136.5 -66t181.5 -23q98 0 170.5 16t123 43t82 61t48.5 70h125q-59 -152 -200.5 -226.5t-348.5 -74.5zM1022 1350q-9 -37 -31 -79t-62.5 -77t-102 -58.5t-150.5 -23.5q-90 0 -152 23.5t-102 58.5t-61.5 77t-30.5 79h116q6 -18 20.5 -41.5 t41.5 -44.5t68 -35.5t100 -14.5q58 0 99 14.5t68.5 35.5t42.5 44.5t21 41.5h115z" />
<glyph unicode="&#x116;" horiz-adv-x="1755" d="M1485 963v294h-991v-473h763v-116h-763v-551h1005v315h113v-432h-1530v113h287v1149h-287v112h1515v-411h-112zM838 1611q0 20 7 38t19.5 31t29 20.5t36.5 7.5q40 0 68 -28t28 -69q0 -19 -7.5 -36t-20.5 -29.5t-30.5 -19.5t-37.5 -7t-36.5 7t-29 19.5t-19.5 29.5t-7 36z " />
<glyph unicode="&#x117;" horiz-adv-x="1329" d="M1106 524q-5 68 -31 129t-78 107.5t-131 74t-190 27.5q-104 0 -184 -27.5t-136 -74t-88 -107.5t-41 -129h879zM674 -25q-131 0 -237.5 34.5t-181.5 99t-116 156.5t-41 206q0 111 43 203.5t120 159t183 103t232 36.5q131 0 235 -37t176 -106.5t110 -168.5t38 -223v-22 h-1008q7 -76 39.5 -137t89.5 -104t136.5 -66t181.5 -23q98 0 170.5 16t123 43t82 61t48.5 70h125q-59 -152 -200.5 -226.5t-348.5 -74.5zM584 1208q0 20 7 38t19.5 31t29 20.5t36.5 7.5q40 0 68 -28t28 -69q0 -19 -7.5 -36t-20.5 -29.5t-30.5 -19.5t-37.5 -7t-36.5 7 t-29 19.5t-19.5 29.5t-7 36z" />
<glyph unicode="&#x118;" horiz-adv-x="1755" d="M1485 963v294h-991v-473h763v-116h-763v-551h1005v315h113v-432q-83 -12 -140.5 -33t-93 -46t-51.5 -52t-16 -51q0 -42 34 -61t97 -19q42 0 84 10.5t69 24.5l37 -90q-17 -9 -40 -16t-49.5 -12t-55.5 -8t-57 -3q-112 0 -173 35.5t-61 115.5q0 69 46.5 116.5t129.5 88.5 h-1290v113h287v1149h-287v112h1515v-411h-112z" />
<glyph unicode="&#x119;" horiz-adv-x="1329" d="M674 -25q-131 0 -237.5 34.5t-181.5 99t-116 156.5t-41 206q0 111 43 203.5t120 159t183 103t232 36.5q131 0 235 -37t176 -106.5t110 -168.5t38 -223v-22h-1008q7 -76 39.5 -137t89.5 -104t136.5 -66t181.5 -23q98 0 170.5 16t123 43t82 61t48.5 70h125 q-35 -93 -98.5 -152t-149.5 -99q-27 -12 -62.5 -36t-67 -53t-53.5 -60t-22 -58q0 -42 34 -61t97 -19q42 0 84 10.5t70 24.5l37 -90q-17 -9 -40 -16t-50 -12t-56 -8t-57 -3q-112 0 -173 35.5t-61 115.5q0 104 127 187q-26 -4 -53 -5.5t-55 -1.5zM1106 524q-5 68 -31 129 t-78 107.5t-131 74t-190 27.5q-104 0 -184 -27.5t-136 -74t-88 -107.5t-41 -129h879z" />
<glyph unicode="&#x11a;" horiz-adv-x="1755" d="M1485 963v294h-991v-473h763v-116h-763v-551h1005v315h113v-432h-1530v113h287v1149h-287v112h1515v-411h-112zM1317 1720l-387 -219l-387 219l39 78l348 -160l348 160z" />
<glyph unicode="&#x11b;" horiz-adv-x="1329" d="M1106 524q-5 68 -31 129t-78 107.5t-131 74t-190 27.5q-104 0 -184 -27.5t-136 -74t-88 -107.5t-41 -129h879zM674 -25q-131 0 -237.5 34.5t-181.5 99t-116 156.5t-41 206q0 111 43 203.5t120 159t183 103t232 36.5q131 0 235 -37t176 -106.5t110 -168.5t38 -223v-22 h-1008q7 -76 39.5 -137t89.5 -104t136.5 -66t181.5 -23q98 0 170.5 16t123 43t82 61t48.5 70h125q-59 -152 -200.5 -226.5t-348.5 -74.5zM1063 1317l-387 -219l-387 219l39 78l348 -160l348 160z" />
<glyph unicode="&#x11c;" horiz-adv-x="1993" d="M1571 0v61q-127 -51 -259 -69.5t-270 -18.5q-194 0 -360 43.5t-287.5 132t-190.5 222.5t-69 315t69 315t188.5 222.5t278.5 132t339 43.5q100 0 182 -11t150 -30t126 -43t111 -51v131h113v-514h-113v153q0 40 -24.5 74t-66 62t-96.5 50t-116.5 36.5t-126.5 22t-125 7.5 q-200 0 -343.5 -41.5t-236 -119t-136.5 -188.5t-44 -251q0 -131 48.5 -241.5t147 -190.5t246.5 -125t347 -45q72 0 143 7.5t137.5 21.5t126.5 33t111 42v383h-348v113h657v-113h-184v-571h-125zM1362 1503l-348 160l-348 -160l-39 78l387 219l387 -219z" />
<glyph unicode="&#x11d;" horiz-adv-x="1497" d="M641 -414q-143 0 -263.5 28t-211.5 73l57 110q18 -11 50 -27.5t82 -33t120.5 -28t165.5 -11.5q102 0 177 15t128.5 41.5t87 62t53 76.5t26.5 86t7 90v71q-47 -37 -98 -67.5t-109.5 -52.5t-125 -34t-144.5 -12q-104 0 -202.5 30.5t-174.5 93.5t-122 159t-46 227 q0 126 45.5 219t124.5 154.5t185 92t227 30.5q61 0 120 -9.5t115 -26.5t108 -39.5t97 -47.5v96h350v-112h-225v-768q0 -108 -35 -197t-108.5 -153.5t-188 -100t-272.5 -35.5zM672 80q74 0 139.5 17.5t122 45.5t103 62t83.5 67v457q-38 28 -85 53.5t-102.5 45.5t-118 32 t-132.5 12q-103 0 -188 -26t-145.5 -75.5t-94 -122t-33.5 -165.5q0 -194 115 -298.5t336 -104.5zM1028 1100l-348 160l-348 -160l-39 78l387 219l387 -219z" />
<glyph unicode="&#x11e;" horiz-adv-x="1993" d="M1571 0v61q-127 -51 -259 -69.5t-270 -18.5q-194 0 -360 43.5t-287.5 132t-190.5 222.5t-69 315t69 315t188.5 222.5t278.5 132t339 43.5q100 0 182 -11t150 -30t126 -43t111 -51v131h113v-514h-113v153q0 40 -24.5 74t-66 62t-96.5 50t-116.5 36.5t-126.5 22t-125 7.5 q-200 0 -343.5 -41.5t-236 -119t-136.5 -188.5t-44 -251q0 -131 48.5 -241.5t147 -190.5t246.5 -125t347 -45q72 0 143 7.5t137.5 21.5t126.5 33t111 42v383h-348v113h657v-113h-184v-571h-125zM1360 1753q-9 -37 -31 -79t-62.5 -77t-102 -58.5t-150.5 -23.5 q-90 0 -152 23.5t-102 58.5t-61.5 77t-30.5 79h116q6 -18 20.5 -41.5t41.5 -44.5t68 -35.5t100 -14.5q58 0 99 14.5t68.5 35.5t42.5 44.5t21 41.5h115z" />
<glyph unicode="&#x11f;" horiz-adv-x="1497" d="M641 -414q-143 0 -263.5 28t-211.5 73l57 110q18 -11 50 -27.5t82 -33t120.5 -28t165.5 -11.5q102 0 177 15t128.5 41.5t87 62t53 76.5t26.5 86t7 90v71q-47 -37 -98 -67.5t-109.5 -52.5t-125 -34t-144.5 -12q-104 0 -202.5 30.5t-174.5 93.5t-122 159t-46 227 q0 126 45.5 219t124.5 154.5t185 92t227 30.5q61 0 120 -9.5t115 -26.5t108 -39.5t97 -47.5v96h350v-112h-225v-768q0 -108 -35 -197t-108.5 -153.5t-188 -100t-272.5 -35.5zM672 80q74 0 139.5 17.5t122 45.5t103 62t83.5 67v457q-38 28 -85 53.5t-102.5 45.5t-118 32 t-132.5 12q-103 0 -188 -26t-145.5 -75.5t-94 -122t-33.5 -165.5q0 -194 115 -298.5t336 -104.5zM1026 1350q-9 -37 -31 -79t-62.5 -77t-102 -58.5t-150.5 -23.5q-90 0 -152 23.5t-102 58.5t-61.5 77t-30.5 79h116q6 -18 20.5 -41.5t41.5 -44.5t68 -35.5t100 -14.5 q58 0 99 14.5t68.5 35.5t42.5 44.5t21 41.5h115z" />
<glyph unicode="&#x120;" horiz-adv-x="1993" d="M1571 0v61q-127 -51 -259 -69.5t-270 -18.5q-194 0 -360 43.5t-287.5 132t-190.5 222.5t-69 315t69 315t188.5 222.5t278.5 132t339 43.5q100 0 182 -11t150 -30t126 -43t111 -51v131h113v-514h-113v153q0 40 -24.5 74t-66 62t-96.5 50t-116.5 36.5t-126.5 22t-125 7.5 q-200 0 -343.5 -41.5t-236 -119t-136.5 -188.5t-44 -251q0 -131 48.5 -241.5t147 -190.5t246.5 -125t347 -45q72 0 143 7.5t137.5 21.5t126.5 33t111 42v383h-348v113h657v-113h-184v-571h-125zM922 1611q0 20 7 38t19.5 31t29 20.5t36.5 7.5q40 0 68 -28t28 -69 q0 -19 -7.5 -36t-20.5 -29.5t-30.5 -19.5t-37.5 -7t-36.5 7t-29 19.5t-19.5 29.5t-7 36z" />
<glyph unicode="&#x121;" horiz-adv-x="1497" d="M641 -414q-143 0 -263.5 28t-211.5 73l57 110q18 -11 50 -27.5t82 -33t120.5 -28t165.5 -11.5q102 0 177 15t128.5 41.5t87 62t53 76.5t26.5 86t7 90v71q-47 -37 -98 -67.5t-109.5 -52.5t-125 -34t-144.5 -12q-104 0 -202.5 30.5t-174.5 93.5t-122 159t-46 227 q0 126 45.5 219t124.5 154.5t185 92t227 30.5q61 0 120 -9.5t115 -26.5t108 -39.5t97 -47.5v96h350v-112h-225v-768q0 -108 -35 -197t-108.5 -153.5t-188 -100t-272.5 -35.5zM672 80q74 0 139.5 17.5t122 45.5t103 62t83.5 67v457q-38 28 -85 53.5t-102.5 45.5t-118 32 t-132.5 12q-103 0 -188 -26t-145.5 -75.5t-94 -122t-33.5 -165.5q0 -194 115 -298.5t336 -104.5zM588 1208q0 20 7 38t19.5 31t29 20.5t36.5 7.5q40 0 68 -28t28 -69q0 -19 -7.5 -36t-20.5 -29.5t-30.5 -19.5t-37.5 -7t-36.5 7t-29 19.5t-19.5 29.5t-7 36z" />
<glyph unicode="&#x122;" horiz-adv-x="1993" d="M1571 0v61q-127 -51 -259 -69.5t-270 -18.5q-194 0 -360 43.5t-287.5 132t-190.5 222.5t-69 315t69 315t188.5 222.5t278.5 132t339 43.5q100 0 182 -11t150 -30t126 -43t111 -51v131h113v-514h-113v153q0 40 -24.5 74t-66 62t-96.5 50t-116.5 36.5t-126.5 22t-125 7.5 q-200 0 -343.5 -41.5t-236 -119t-136.5 -188.5t-44 -251q0 -131 48.5 -241.5t147 -190.5t246.5 -125t347 -45q72 0 143 7.5t137.5 21.5t126.5 33t111 42v383h-348v113h657v-113h-184v-571h-125zM1026 -435h-101l39 273h144z" />
<glyph unicode="&#x123;" horiz-adv-x="1497" d="M641 -414q-143 0 -263.5 28t-211.5 73l57 110q18 -11 50 -27.5t82 -33t120.5 -28t165.5 -11.5q149 0 242.5 31.5t146 82t71.5 114t19 128.5v86q-47 -37 -98 -67.5t-109.5 -52.5t-125 -34t-144.5 -12q-104 0 -202.5 30.5t-174.5 93.5t-122 159t-46 227q0 126 45.5 219 t124.5 154.5t185 92t227 30.5q61 0 120 -9.5t115 -26.5t108 -39.5t97 -47.5v96h350v-112h-225v-789q0 -101 -35 -186t-108.5 -147t-188 -97t-272.5 -35zM672 80q74 0 139.5 17.5t122 45.5t103 62t83.5 67v457q-38 28 -85 53.5t-102.5 45.5t-118 32t-132.5 12 q-103 0 -188 -26t-145.5 -75.5t-94 -122t-33.5 -165.5q0 -194 115 -298.5t336 -104.5zM786 1184q0 -38 -25.5 -62t-64.5 -24q-45 0 -71.5 28.5t-26.5 73.5q0 68 26.5 115t75.5 90l52 -33q-14 -14 -23.5 -24t-16 -21t-11.5 -24.5t-11 -34.5q27 0 45.5 -7t29.5 -19t16 -27 t5 -31z" />
<glyph unicode="&#x124;" horiz-adv-x="2218" d="M82 1374h698v-112h-286v-480h1230v480h-286v112h698v-112h-287v-1149h287v-113h-698v113h286v553h-1230v-553h286v-113h-698v113h287v1149h-287v112zM1458 1503l-348 160l-348 -160l-39 78l387 219l387 -219z" />
<glyph unicode="&#x125;" horiz-adv-x="1548" d="M47 1374h350v-602q47 45 105 83.5t125 67.5t141 45.5t152 16.5q93 0 162.5 -23.5t115.5 -66.5t69 -104.5t23 -137.5v-540h226v-113h-576v113h225v503q0 76 -19.5 125.5t-55.5 78.5t-87.5 40.5t-115.5 11.5q-75 0 -147 -20t-135.5 -50t-117 -66.5t-90.5 -69.5v-553h226 v-113h-576v113h225v1149h-225v112zM648 1503l-348 160l-348 -160l-39 78l387 219l387 -219z" />
<glyph unicode="&#x126;" horiz-adv-x="2218" d="M82 1374h698v-112h-286v-187h1230v187h-286v112h698v-112h-287v-187h226v-104h-226v-858h287v-113h-698v113h286v553h-1230v-553h286v-113h-698v113h287v858h-226v104h226v187h-287v112zM1724 782v189h-1230v-189h1230z" />
<glyph unicode="&#x127;" horiz-adv-x="1548" d="M397 1047v-275q47 45 105 83.5t125 67.5t141 45.5t152 16.5q93 0 162.5 -23.5t115.5 -66.5t69 -104.5t23 -137.5v-540h226v-113h-576v113h225v503q0 76 -19.5 125.5t-55.5 78.5t-87.5 40.5t-115.5 11.5q-75 0 -147 -20t-135.5 -50t-117 -66.5t-90.5 -69.5v-553h226v-113 h-576v113h225v934h-211v108h211v107h-225v112h350v-219h361v-108h-361z" />
<glyph unicode="&#x128;" horiz-adv-x="862" d="M82 1374h698v-112h-286v-1149h286v-113h-698v113h287v1149h-287v112zM785 1738q0 -17 -3 -40.5t-11 -49t-21.5 -50t-34.5 -44t-50 -31.5t-68 -12q-47 0 -92.5 19t-88 41.5t-81 41.5t-70.5 19q-30 0 -47 -15t-25.5 -35.5t-11.5 -40.5t-4 -30h-97q0 25 8 64t29 75t58 62 t96 26q39 0 82 -19t86.5 -41.5t84.5 -41.5t77 -19q30 0 47 15t26 35t11.5 40t3.5 31h96z" />
<glyph unicode="&#x129;" horiz-adv-x="655" d="M47 952h350v-839h226v-113h-576v113h225v727h-225v112zM628 1335q0 -17 -3 -40.5t-11 -49t-21.5 -50t-34.5 -44t-50 -31.5t-68 -12q-47 0 -92.5 19t-88 41.5t-81 41.5t-70.5 19q-30 0 -47 -15t-25.5 -35.5t-11.5 -40.5t-4 -30h-97q0 25 8 64t29 75t58 62t96 26 q39 0 82 -19t86.5 -41.5t84.5 -41.5t77 -19q30 0 47 15t26 35t11.5 40t3.5 31h96z" />
<glyph unicode="&#x12a;" horiz-adv-x="862" d="M82 1374h698v-112h-286v-1149h286v-113h-698v113h287v1149h-287v112zM156 1533v113h549v-113h-549z" />
<glyph unicode="&#x12b;" horiz-adv-x="655" d="M47 952h350v-839h226v-113h-576v113h225v727h-225v112zM-1 1130v113h549v-113h-549z" />
<glyph unicode="&#x12c;" horiz-adv-x="862" d="M82 1374h698v-112h-286v-1149h286v-113h-698v113h287v1149h-287v112zM777 1753q-9 -37 -31 -79t-62.5 -77t-102 -58.5t-150.5 -23.5q-90 0 -152 23.5t-102 58.5t-61.5 77t-30.5 79h116q6 -18 20.5 -41.5t41.5 -44.5t68 -35.5t100 -14.5q58 0 99 14.5t68.5 35.5t42.5 44.5 t21 41.5h115z" />
<glyph unicode="&#x12d;" horiz-adv-x="655" d="M47 952h350v-839h226v-113h-576v113h225v727h-225v112zM620 1350q-9 -37 -31 -79t-62.5 -77t-102 -58.5t-150.5 -23.5q-90 0 -152 23.5t-102 58.5t-61.5 77t-30.5 79h116q6 -18 20.5 -41.5t41.5 -44.5t68 -35.5t100 -14.5q58 0 99 14.5t68.5 35.5t42.5 44.5t21 41.5h115z " />
<glyph unicode="&#x12e;" horiz-adv-x="862" d="M82 1374h698v-112h-286v-1149h286v-113h-309q-29 -19 -57 -41t-50 -45.5t-35.5 -47.5t-13.5 -48q0 -42 34 -61t97 -19q42 0 84 10.5t70 24.5l37 -90q-17 -9 -40 -16t-50 -12t-56 -8t-57 -3q-111 0 -172 35.5t-61 115.5q0 59 38.5 109t116.5 96h-274v113h287v1149h-287 v112z" />
<glyph unicode="&#x12f;" horiz-adv-x="655" d="M47 952h350v-839h226v-113h-242q-29 -19 -57 -41t-50 -45.5t-35.5 -47.5t-13.5 -48q0 -42 34 -61t97 -19q42 0 84 10.5t70 24.5l37 -90q-17 -9 -40 -16t-50 -12t-56 -8t-57 -3q-111 0 -172 35.5t-61 115.5q0 59 38.5 109t116.5 96h-219v113h225v727h-225v112zM209 1219 q0 23 8.5 43.5t23.5 35.5t35 24t43 9t43.5 -9t36 -24t24.5 -35.5t9 -43.5t-9 -43.5t-24.5 -35.5t-36 -23.5t-43.5 -8.5t-43 8.5t-35 23.5t-23.5 35.5t-8.5 43.5z" />
<glyph unicode="&#x130;" horiz-adv-x="862" d="M82 1374h698v-112h-286v-1149h286v-113h-698v113h287v1149h-287v112zM339 1611q0 20 7 38t19.5 31t29 20.5t36.5 7.5q40 0 68 -28t28 -69q0 -19 -7.5 -36t-20.5 -29.5t-30.5 -19.5t-37.5 -7t-36.5 7t-29 19.5t-19.5 29.5t-7 36z" />
<glyph unicode="&#x131;" horiz-adv-x="655" d="M47 952h350v-839h226v-113h-576v113h225v727h-225v112z" />
<glyph unicode="&#x132;" horiz-adv-x="2322" d="M82 1374h698v-112h-286v-1149h286v-113h-698v113h287v1149h-287v112zM1583 1374h719v-112h-287v-822q0 -114 -39.5 -199.5t-110.5 -142.5t-170.5 -85.5t-220.5 -28.5q-120 0 -218 27.5t-167.5 83t-107 140.5t-37.5 199h125q5 -170 107 -253t300 -83q94 0 170.5 19.5 t130.5 62t83.5 110t29.5 163.5v809h-307v112z" />
<glyph unicode="&#x133;" horiz-adv-x="1313" d="M47 952h350v-839h226v-113h-576v113h225v727h-225v112zM209 1219q0 23 8.5 43.5t23.5 35.5t35 24t43 9t43.5 -9t36 -24t24.5 -35.5t9 -43.5t-9 -43.5t-24.5 -35.5t-36 -23.5t-43.5 -8.5t-43 8.5t-35 23.5t-23.5 35.5t-8.5 43.5zM757 952h351v-1046q0 -161 -78 -240.5 t-228 -79.5q-39 0 -74.5 7t-64.5 17.5t-50.5 22.5t-33.5 21l51 102q9 -8 25.5 -18.5t38.5 -19.5t49 -15t59 -6q45 0 79 10.5t56.5 35.5t34 64.5t11.5 98.5v934h-226v112zM899 1219q0 23 8.5 43.5t23.5 35.5t35 24t43 9t43.5 -9t36 -24t24.5 -35.5t9 -43.5t-9 -43.5 t-24.5 -35.5t-36 -23.5t-43.5 -8.5t-43 8.5t-35 23.5t-23.5 35.5t-8.5 43.5z" />
<glyph unicode="&#x134;" horiz-adv-x="1460" d="M721 1374h719v-112h-287v-822q0 -114 -39.5 -199.5t-110.5 -142.5t-170.5 -85.5t-220.5 -28.5q-120 0 -218 27.5t-167.5 83t-107 140.5t-37.5 199h125q5 -170 107 -253t300 -83q94 0 170.5 19.5t130.5 62t83.5 110t29.5 163.5v809h-307v112zM1440 1503l-348 160 l-348 -160l-39 78l387 219l387 -219z" />
<glyph unicode="&#x135;" horiz-adv-x="657" d="M102 952h351v-1046q0 -161 -78 -240.5t-228 -79.5q-39 0 -74.5 7t-64.5 17.5t-50.5 22.5t-33.5 21l51 102q9 -8 25.5 -18.5t38.5 -19.5t49 -15t59 -6q45 0 79 10.5t56.5 35.5t34 64.5t11.5 98.5v934h-226v112zM677 1100l-348 160l-348 -160l-39 78l387 219l387 -219z" />
<glyph unicode="&#x136;" horiz-adv-x="1907" d="M82 1374h698v-112h-286v-535l817 535h-160v112h678v-112h-326l-729 -478l8 2l820 -673h284v-113h-698v113h235l-743 610l-186 -121v-489h286v-113h-698v113h287v1149h-287v112zM963 -416h-101l39 273h144z" />
<glyph unicode="&#x137;" horiz-adv-x="1487" d="M47 1374h350v-807l463 281q60 36 109.5 59.5t91.5 37t78.5 19t70.5 5.5q57 0 92.5 -7.5t61.5 -15.5l-37 -110q-12 4 -24 7.5t-25.5 6.5t-29.5 4.5t-38 1.5q-29 0 -58 -2.5t-63 -12.5t-76.5 -29.5t-97.5 -53.5l-237 -144l539 -501h258v-113h-576v113h154l-471 442 l-185 -113v-329h226v-113h-576v113h225v1149h-225v112zM752 -416h-101l39 273h144z" />
<glyph unicode="&#x138;" horiz-adv-x="1487" d="M47 952h350v-385l463 281q60 36 109.5 59.5t91.5 37t78.5 19t70.5 5.5q57 0 92.5 -7.5t61.5 -15.5l-37 -110q-12 4 -24 7.5t-25.5 6.5t-29.5 4.5t-38 1.5q-29 0 -58 -2.5t-63 -12.5t-76.5 -29.5t-97.5 -53.5l-237 -144l539 -501h258v-113h-576v113h154l-471 442 l-185 -113v-329h226v-113h-576v113h225v727h-225v112z" />
<glyph unicode="&#x139;" horiz-adv-x="1683" d="M82 1374h698v-112h-286v-1145h995v315h113v-432h-1520v113h287v1149h-287v112zM785 1687l-440 -186l-41 84l428 213z" />
<glyph unicode="&#x13a;" horiz-adv-x="637" d="M-20 1374h350v-1063q0 -60 10 -97.5t31.5 -58t56 -27.5t82.5 -7h98v-121h-96q-80 0 -138 14.5t-95.5 50.5t-55.5 96.5t-18 153.5v947h-225v112zM560 1687l-440 -186l-41 84l428 213z" />
<glyph unicode="&#x13b;" horiz-adv-x="1683" d="M82 1374h698v-112h-286v-1145h995v315h113v-432h-1520v113h287v1149h-287v112zM891 -416h-101l39 273h144z" />
<glyph unicode="&#x13c;" horiz-adv-x="637" d="M-20 1374h350v-1063q0 -60 10 -97.5t31.5 -58t56 -27.5t82.5 -7h98v-121h-96q-80 0 -138 14.5t-95.5 50.5t-55.5 96.5t-18 153.5v947h-225v112zM349 -416h-101l39 273h144z" />
<glyph unicode="&#x13d;" horiz-adv-x="1683" d="M82 1374h698v-112h-286v-1145h995v315h113v-432h-1520v113h287v1149h-287v112zM1237 1101h-100l39 273h143z" />
<glyph unicode="&#x13e;" horiz-adv-x="745" d="M-20 1374h350v-1063q0 -60 10 -97.5t31.5 -58t56 -27.5t82.5 -7h98v-121h-96q-80 0 -138 14.5t-95.5 50.5t-55.5 96.5t-18 153.5v947h-225v112zM579 1101h-100l39 273h143z" />
<glyph unicode="&#x13f;" horiz-adv-x="1683" d="M82 1374h698v-112h-286v-1145h995v315h113v-432h-1520v113h287v1149h-287v112zM1112 672q0 24 9 46t24.5 38t37 25.5t46.5 9.5q24 0 45.5 -9.5t37.5 -25.5t25.5 -38t9.5 -46q0 -25 -9.5 -46.5t-25.5 -37t-37.5 -24.5t-45.5 -9q-25 0 -46.5 9t-37 24.5t-24.5 37t-9 46.5z " />
<glyph unicode="&#x140;" horiz-adv-x="934" d="M-20 1374h350v-1063q0 -60 10 -97.5t31.5 -58t56 -27.5t82.5 -7h98v-121h-96q-80 0 -138 14.5t-95.5 50.5t-55.5 96.5t-18 153.5v947h-225v112zM617 672q0 24 9 46t24.5 38t37 25.5t46.5 9.5q24 0 45.5 -9.5t37.5 -25.5t25.5 -38t9.5 -46q0 -25 -9.5 -46.5t-25.5 -37 t-37.5 -24.5t-45.5 -9q-25 0 -46.5 9t-37 24.5t-24.5 37t-9 46.5z" />
<glyph unicode="&#x141;" horiz-adv-x="1683" d="M494 575v-458h995v315h113v-432h-1520v113h287v409l-248 -104l-43 102l291 123v619h-287v112h698v-112h-286v-566l340 146l43 -103z" />
<glyph unicode="&#x142;" horiz-adv-x="637" d="M330 672v-361q0 -60 10 -97.5t31.5 -58t56 -27.5t82.5 -7h98v-121h-96q-80 0 -138 14.5t-95.5 50.5t-55.5 96.5t-18 153.5v303l-182 -77l-43 102l225 96v523h-225v112h350v-581l207 88l43 -103z" />
<glyph unicode="&#x143;" horiz-adv-x="2171" d="M82 1374h424l1192 -1214v1102h-287v112h698v-112h-286v-1262h-137l-1192 1210v-1097h286v-113h-698v113h287v1149h-287v112zM1393 1687l-440 -186l-41 84l428 213z" />
<glyph unicode="&#x144;" horiz-adv-x="1548" d="M47 952h350v-180q47 45 105 83.5t125 67.5t141 45.5t152 16.5q93 0 162.5 -23.5t115.5 -66.5t69 -104.5t23 -137.5v-540h226v-113h-576v113h225v503q0 76 -19.5 125.5t-55.5 78.5t-87.5 40.5t-115.5 11.5q-75 0 -147 -20t-135.5 -50t-117 -66.5t-90.5 -69.5v-553h226 v-113h-576v113h225v727h-225v112zM1122 1284l-440 -186l-41 84l428 213z" />
<glyph unicode="&#x145;" horiz-adv-x="2171" d="M82 1374h424l1192 -1214v1102h-287v112h698v-112h-286v-1262h-137l-1192 1210v-1097h286v-113h-698v113h287v1149h-287v112zM1135 -416h-101l39 273h144z" />
<glyph unicode="&#x146;" horiz-adv-x="1548" d="M47 952h350v-180q47 45 105 83.5t125 67.5t141 45.5t152 16.5q93 0 162.5 -23.5t115.5 -66.5t69 -104.5t23 -137.5v-540h226v-113h-576v113h225v503q0 76 -19.5 125.5t-55.5 78.5t-87.5 40.5t-115.5 11.5q-75 0 -147 -20t-135.5 -50t-117 -66.5t-90.5 -69.5v-553h226 v-113h-576v113h225v727h-225v112zM783 -416h-101l39 273h144z" />
<glyph unicode="&#x147;" horiz-adv-x="2171" d="M82 1374h424l1192 -1214v1102h-287v112h698v-112h-286v-1262h-137l-1192 1210v-1097h286v-113h-698v113h287v1149h-287v112zM1426 1720l-387 -219l-387 219l39 78l348 -160l348 160z" />
<glyph unicode="&#x148;" horiz-adv-x="1548" d="M47 952h350v-180q47 45 105 83.5t125 67.5t141 45.5t152 16.5q93 0 162.5 -23.5t115.5 -66.5t69 -104.5t23 -137.5v-540h226v-113h-576v113h225v503q0 76 -19.5 125.5t-55.5 78.5t-87.5 40.5t-115.5 11.5q-75 0 -147 -20t-135.5 -50t-117 -66.5t-90.5 -69.5v-553h226 v-113h-576v113h225v727h-225v112zM1155 1317l-387 -219l-387 219l39 78l348 -160l348 160z" />
<glyph unicode="&#x149;" horiz-adv-x="1589" d="M88 952h350v-180q47 45 105 83.5t125 67.5t141 45.5t152 16.5q93 0 162.5 -23.5t115.5 -66.5t69 -104.5t23 -137.5v-540h226v-113h-576v113h225v503q0 76 -19.5 125.5t-55.5 78.5t-87.5 40.5t-115.5 11.5q-75 0 -147 -20t-135.5 -50t-117 -66.5t-90.5 -69.5v-553h226 v-113h-576v113h225v727h-225v112zM81 1102h-101l39 273h144z" />
<glyph unicode="&#x14a;" horiz-adv-x="2171" d="M1073 -215q18 -13 46.5 -26.5t62 -24.5t70.5 -18t73 -7q164 0 256.5 69t112.5 216l-1200 1216v-1097h286v-113h-698v113h287v1149h-287v112h424l1192 -1214v1102h-287v112h698v-112h-286v-1190q0 -114 -33 -203t-96.5 -150t-156.5 -93t-214 -32q-187 0 -315 82z" />
<glyph unicode="&#x14b;" horiz-adv-x="1454" d="M813 -223q9 -9 25.5 -19.5t38.5 -19.5t49 -15t59 -6q45 0 79 11t56.5 35.5t33.5 64.5t11 98v690q0 76 -19.5 125.5t-55.5 78.5t-87.5 40.5t-115.5 11.5q-75 0 -147 -20t-135.5 -50t-117 -66.5t-90.5 -69.5v-553h226v-113h-576v113h225v727h-225v112h350v-180 q47 45 105 83.5t125 67.5t141 45.5t152 16.5q93 0 162.5 -23.5t115.5 -66.5t69 -104.5t23 -137.5v-727q0 -161 -77.5 -240t-227.5 -79q-39 0 -74.5 7t-64.5 17.5t-50.5 22t-33.5 20.5l51 103v0z" />
<glyph unicode="&#x14c;" horiz-adv-x="2015" d="M1880 686q0 -185 -67 -319.5t-184 -222t-276 -129.5t-343 -42q-185 0 -345 42t-278 129.5t-185 222t-67 319.5q0 123 31 223.5t87 180t135.5 137.5t177 96.5t209.5 57t235 18.5q184 0 343 -42t276 -129.5t184 -222t67 -319.5zM1743 686q0 292 -184 445t-549 153 q-366 0 -552 -154.5t-186 -443.5q0 -292 186 -445t552 -153q365 0 549 153t184 445zM735 1533v113h549v-113h-549z" />
<glyph unicode="&#x14d;" horiz-adv-x="1419" d="M1321 475q0 -131 -47 -225.5t-129 -156t-193.5 -91t-240.5 -29.5q-130 0 -242 29.5t-194.5 91t-129.5 156t-47 225.5q0 130 47.5 225.5t130.5 157t195 91.5t240 30q129 0 240.5 -29.5t193.5 -91t129 -157t47 -226.5zM1198 475q0 193 -122.5 295t-364.5 102 q-243 0 -366.5 -102t-123.5 -295t123.5 -294t366.5 -101q242 0 364.5 101.5t122.5 293.5zM436 1130v113h549v-113h-549z" />
<glyph unicode="&#x14e;" horiz-adv-x="2015" d="M1880 686q0 -185 -67 -319.5t-184 -222t-276 -129.5t-343 -42q-185 0 -345 42t-278 129.5t-185 222t-67 319.5q0 123 31 223.5t87 180t135.5 137.5t177 96.5t209.5 57t235 18.5q184 0 343 -42t276 -129.5t184 -222t67 -319.5zM1743 686q0 292 -184 445t-549 153 q-366 0 -552 -154.5t-186 -443.5q0 -292 186 -445t552 -153q365 0 549 153t184 445zM1356 1753q-9 -37 -31 -79t-62.5 -77t-102 -58.5t-150.5 -23.5q-90 0 -152 23.5t-102 58.5t-61.5 77t-30.5 79h116q6 -18 20.5 -41.5t41.5 -44.5t68 -35.5t100 -14.5q58 0 99 14.5 t68.5 35.5t42.5 44.5t21 41.5h115z" />
<glyph unicode="&#x14f;" horiz-adv-x="1419" d="M1321 475q0 -131 -47 -225.5t-129 -156t-193.5 -91t-240.5 -29.5q-130 0 -242 29.5t-194.5 91t-129.5 156t-47 225.5q0 130 47.5 225.5t130.5 157t195 91.5t240 30q129 0 240.5 -29.5t193.5 -91t129 -157t47 -226.5zM1198 475q0 193 -122.5 295t-364.5 102 q-243 0 -366.5 -102t-123.5 -295t123.5 -294t366.5 -101q242 0 364.5 101.5t122.5 293.5zM1057 1350q-9 -37 -31 -79t-62.5 -77t-102 -58.5t-150.5 -23.5q-90 0 -152 23.5t-102 58.5t-61.5 77t-30.5 79h116q6 -18 20.5 -41.5t41.5 -44.5t68 -35.5t100 -14.5q58 0 99 14.5 t68.5 35.5t42.5 44.5t21 41.5h115z" />
<glyph unicode="&#x150;" horiz-adv-x="2015" d="M1880 686q0 -185 -67 -319.5t-184 -222t-276 -129.5t-343 -42q-185 0 -345 42t-278 129.5t-185 222t-67 319.5q0 123 31 223.5t87 180t135.5 137.5t177 96.5t209.5 57t235 18.5q184 0 343 -42t276 -129.5t184 -222t67 -319.5zM1743 686q0 292 -184 445t-549 153 q-366 0 -552 -154.5t-186 -443.5q0 -292 186 -445t552 -153q365 0 549 153t184 445zM1108 1687l-358 -186l-45 78l346 213zM1503 1687l-358 -186l-45 78l346 213z" />
<glyph unicode="&#x151;" horiz-adv-x="1419" d="M1321 475q0 -131 -47 -225.5t-129 -156t-193.5 -91t-240.5 -29.5q-130 0 -242 29.5t-194.5 91t-129.5 156t-47 225.5q0 130 47.5 225.5t130.5 157t195 91.5t240 30q129 0 240.5 -29.5t193.5 -91t129 -157t47 -226.5zM1198 475q0 193 -122.5 295t-364.5 102 q-243 0 -366.5 -102t-123.5 -295t123.5 -294t366.5 -101q242 0 364.5 101.5t122.5 293.5zM809 1284l-358 -186l-45 78l346 213zM1204 1284l-358 -186l-45 78l346 213z" />
<glyph unicode="&#x152;" horiz-adv-x="2730" d="M2460 963v294h-951v-473h723v-116h-723v-551h965v315h113v-432h-1557q-123 0 -237.5 18t-214 55t-181 93t-140 132t-90.5 173t-32 215t32.5 214.5t91 173t140.5 133t181.5 93.5t213.5 55.5t236 18.5h1542v-411h-112zM272 686q0 -138 50 -244.5t146.5 -179t237.5 -110 t324 -37.5h354v1142h-354q-183 0 -324 -38t-237.5 -110.5t-146.5 -179t-50 -243.5z" />
<glyph unicode="&#x153;" horiz-adv-x="2429" d="M1774 -25q-91 0 -170 16.5t-144.5 48.5t-116 78t-83.5 105q-37 -65 -93 -112t-126.5 -77.5t-154 -45.5t-175.5 -15q-130 0 -242 29.5t-194.5 91t-129.5 156t-47 225.5q0 130 47.5 225.5t130.5 157t195 91.5t240 30q94 0 178.5 -15.5t156 -47.5t127 -81t91.5 -116 q35 58 87 105t117.5 80t143 51t164.5 18q131 0 235 -37t176 -106.5t110 -168.5t38 -223v-22h-1008q7 -76 39.5 -137t89.5 -104t136.5 -66t181.5 -23q98 0 170 16t123 43t82.5 61t48.5 70h124q-29 -76 -79.5 -132.5t-120.5 -94t-157.5 -56t-190.5 -18.5zM711 80 q242 0 363.5 99.5t123.5 291.5v23q-6 184 -128.5 281t-358.5 97q-243 0 -366.5 -102t-123.5 -295t123.5 -294t366.5 -101zM2206 524q-5 68 -31.5 129t-78 107.5t-130.5 74t-190 27.5q-104 0 -184 -27.5t-136 -74t-88 -107.5t-41 -129h879z" />
<glyph unicode="&#x154;" horiz-adv-x="1972" d="M1315 113h213l-359 479q-27 -2 -56 -3t-60 -1h-559v-475h286v-113h-698v113h287v1149h-287v112h971q157 0 269 -24.5t183 -74t104 -123.5t33 -173q0 -154 -81 -246.5t-261 -126.5l381 -493h291v-113h-657v113zM1505 979q0 88 -29.5 142.5t-98 84.5t-180.5 40.5t-277 10.5 h-426v-552h421q165 0 277.5 9.5t182 39t100 83t30.5 142.5zM1241 1687l-440 -186l-41 84l428 213z" />
<glyph unicode="&#x155;" horiz-adv-x="1047" d="M47 952h350v-200q41 48 88 89.5t101.5 72t117 48t134.5 17.5q36 0 67 -5.5t55 -12.5t40 -14t22 -9l-45 -115q-25 13 -64.5 27t-99.5 14q-76 0 -139.5 -23.5t-115 -58.5t-91.5 -77.5t-70 -79.5v-512h246v-113h-596v113h225v727h-225v112zM915 1284l-440 -186l-41 84 l428 213z" />
<glyph unicode="&#x156;" horiz-adv-x="1972" d="M1315 113h213l-359 479q-27 -2 -56 -3t-60 -1h-559v-475h286v-113h-698v113h287v1149h-287v112h971q157 0 269 -24.5t183 -74t104 -123.5t33 -173q0 -154 -81 -246.5t-261 -126.5l381 -493h291v-113h-657v113zM1505 979q0 88 -29.5 142.5t-98 84.5t-180.5 40.5t-277 10.5 h-426v-552h421q165 0 277.5 9.5t182 39t100 83t30.5 142.5zM1016 -416h-101l39 273h144z" />
<glyph unicode="&#x157;" horiz-adv-x="1047" d="M47 952h350v-200q41 48 88 89.5t101.5 72t117 48t134.5 17.5q36 0 67 -5.5t55 -12.5t40 -14t22 -9l-45 -115q-25 13 -64.5 27t-99.5 14q-76 0 -139.5 -23.5t-115 -58.5t-91.5 -77.5t-70 -79.5v-512h246v-113h-596v113h225v727h-225v112zM333 -416h-101l39 273h144z" />
<glyph unicode="&#x158;" horiz-adv-x="1972" d="M1315 113h213l-359 479q-27 -2 -56 -3t-60 -1h-559v-475h286v-113h-698v113h287v1149h-287v112h971q157 0 269 -24.5t183 -74t104 -123.5t33 -173q0 -154 -81 -246.5t-261 -126.5l381 -493h291v-113h-657v113zM1505 979q0 88 -29.5 142.5t-98 84.5t-180.5 40.5t-277 10.5 h-426v-552h421q165 0 277.5 9.5t182 39t100 83t30.5 142.5zM1274 1720l-387 -219l-387 219l39 78l348 -160l348 160z" />
<glyph unicode="&#x159;" horiz-adv-x="1047" d="M47 952h350v-200q41 48 88 89.5t101.5 72t117 48t134.5 17.5q36 0 67 -5.5t55 -12.5t40 -14t22 -9l-45 -115q-25 13 -64.5 27t-99.5 14q-76 0 -139.5 -23.5t-115 -58.5t-91.5 -77.5t-70 -79.5v-512h246v-113h-596v113h225v727h-225v112zM948 1317l-387 -219l-387 219 l39 78l348 -160l348 160z" />
<glyph unicode="&#x15a;" horiz-adv-x="1665" d="M123 0v494h113v-142q0 -59 29.5 -101.5t78.5 -72t112.5 -47.5t132.5 -28t137.5 -13.5t127.5 -3.5q118 0 220 13t177.5 43t118.5 78.5t43 119.5q0 62 -35.5 106.5t-97 77t-143 55t-173.5 41t-189 36t-189 39t-173.5 50.5t-143 70t-97 97.5t-35.5 134.5q0 69 27.5 122.5 t75 92.5t111.5 65.5t135.5 42t148 22.5t149.5 7q103 0 192.5 -13t161.5 -33.5t124 -45.5t81 -50v117h113v-432h-113v88q0 55 -35.5 101.5t-104.5 81t-171 54t-235 19.5q-121 0 -218 -13.5t-165.5 -42t-105 -73t-36.5 -106.5q0 -57 36 -97.5t97 -70.5t143 -52t174 -41 t189 -37.5t189 -42t174 -53.5t143 -73t97 -100.5t36 -135.5q0 -77 -30.5 -134.5t-82 -99t-121 -69t-147 -43.5t-159.5 -22.5t-160 -6.5q-109 0 -203.5 10.5t-172.5 30t-138 45.5t-100 58v-117h-113zM1139 1687l-440 -186l-41 84l428 213z" />
<glyph unicode="&#x15b;" horiz-adv-x="1190" d="M106 0v350h112v-61q0 -55 37.5 -94.5t96.5 -65t130.5 -37.5t139.5 -12q80 0 147 8.5t116 28.5t76 52.5t27 80.5q0 45 -24.5 76.5t-66 52.5t-97 35t-118 24.5t-128.5 20t-128.5 23t-118 32.5t-97 48.5t-66 71.5t-24.5 101q0 76 38 124.5t99 76.5t138.5 38.5t156.5 10.5 q115 0 211 -26t162 -68v61h112v-321h-112v74q0 32 -17 57.5t-46 45t-66 33t-77.5 22t-81 12.5t-75.5 4q-158 0 -238.5 -31t-80.5 -113q0 -39 24.5 -65.5t66 -45t97 -31t118 -23t128.5 -21t128.5 -26t118 -37.5t97 -54.5t66 -78.5t24.5 -109q0 -55 -21 -96t-56 -71.5 t-80.5 -50.5t-95.5 -31.5t-101 -16.5t-96 -5q-150 0 -260.5 32t-182.5 83v-88h-112zM922 1284l-440 -186l-41 84l428 213z" />
<glyph unicode="&#x15c;" horiz-adv-x="1665" d="M123 0v494h113v-142q0 -59 29.5 -101.5t78.5 -72t112.5 -47.5t132.5 -28t137.5 -13.5t127.5 -3.5q118 0 220 13t177.5 43t118.5 78.5t43 119.5q0 62 -35.5 106.5t-97 77t-143 55t-173.5 41t-189 36t-189 39t-173.5 50.5t-143 70t-97 97.5t-35.5 134.5q0 69 27.5 122.5 t75 92.5t111.5 65.5t135.5 42t148 22.5t149.5 7q103 0 192.5 -13t161.5 -33.5t124 -45.5t81 -50v117h113v-432h-113v88q0 55 -35.5 101.5t-104.5 81t-171 54t-235 19.5q-121 0 -218 -13.5t-165.5 -42t-105 -73t-36.5 -106.5q0 -57 36 -97.5t97 -70.5t143 -52t174 -41 t189 -37.5t189 -42t174 -53.5t143 -73t97 -100.5t36 -135.5q0 -77 -30.5 -134.5t-82 -99t-121 -69t-147 -43.5t-159.5 -22.5t-160 -6.5q-109 0 -203.5 10.5t-172.5 30t-138 45.5t-100 58v-117h-113zM1133 1503l-348 160l-348 -160l-39 78l387 219l387 -219z" />
<glyph unicode="&#x15d;" horiz-adv-x="1190" d="M106 0v350h112v-61q0 -55 37.5 -94.5t96.5 -65t130.5 -37.5t139.5 -12q80 0 147 8.5t116 28.5t76 52.5t27 80.5q0 45 -24.5 76.5t-66 52.5t-97 35t-118 24.5t-128.5 20t-128.5 23t-118 32.5t-97 48.5t-66 71.5t-24.5 101q0 76 38 124.5t99 76.5t138.5 38.5t156.5 10.5 q115 0 211 -26t162 -68v61h112v-321h-112v74q0 32 -17 57.5t-46 45t-66 33t-77.5 22t-81 12.5t-75.5 4q-158 0 -238.5 -31t-80.5 -113q0 -39 24.5 -65.5t66 -45t97 -31t118 -23t128.5 -21t128.5 -26t118 -37.5t97 -54.5t66 -78.5t24.5 -109q0 -55 -21 -96t-56 -71.5 t-80.5 -50.5t-95.5 -31.5t-101 -16.5t-96 -5q-150 0 -260.5 32t-182.5 83v-88h-112zM916 1100l-348 160l-348 -160l-39 78l387 219l387 -219z" />
<glyph unicode="&#x15e;" horiz-adv-x="1665" d="M123 0v494h113v-142q0 -59 29.5 -101.5t78.5 -72t112.5 -47.5t132.5 -28t137.5 -13.5t127.5 -3.5q118 0 220 13t177.5 43t118.5 78.5t43 119.5q0 62 -35.5 106.5t-97 77t-143 55t-173.5 41t-189 36t-189 39t-173.5 50.5t-143 70t-97 97.5t-35.5 134.5q0 69 27.5 122.5 t75 92.5t111.5 65.5t135.5 42t148 22.5t149.5 7q103 0 192.5 -13t161.5 -33.5t124 -45.5t81 -50v117h113v-432h-113v88q0 55 -35.5 101.5t-104.5 81t-171 54t-235 19.5q-121 0 -218 -13.5t-165.5 -42t-105 -73t-36.5 -106.5q0 -57 36 -97.5t97 -70.5t143 -52t174 -41 t189 -37.5t189 -42t174 -53.5t143 -73t97 -100.5t36 -135.5q0 -74 -28 -130t-76 -97t-113 -68.5t-138.5 -44.5t-152.5 -25t-155 -10l-27 -71q44 0 82.5 -7t67 -23.5t45 -44t16.5 -69.5q0 -45 -18.5 -75.5t-51.5 -49t-79 -26.5t-101 -8q-81 0 -136.5 16t-92.5 33l43 86 q35 -22 76.5 -33.5t101.5 -11.5q42 0 71 5t46.5 14t25 22t7.5 28q0 19 -10 32t-27 20.5t-38.5 10.5t-45.5 3q-26 0 -53 -1.5t-50 -4.5l58 155q-200 5 -343 44.5t-218 99.5v-117h-113z" />
<glyph unicode="&#x15f;" horiz-adv-x="1190" d="M104 0v350h113v-61q0 -55 37.5 -94.5t96.5 -65t130.5 -37.5t139.5 -12q80 0 147 8.5t116 28.5t76 52.5t27 80.5q0 45 -24.5 76.5t-66 52.5t-97 35t-118 24.5t-128.5 20t-128.5 23t-118 32.5t-97 48.5t-66 71.5t-24.5 101q0 76 38 124.5t99 76.5t138.5 38.5t156.5 10.5 q114 0 210.5 -26t162.5 -68v61h112v-321h-112v74q0 32 -17 57.5t-46 45t-66.5 33t-77.5 22t-80.5 12.5t-75.5 4q-158 0 -238.5 -31t-80.5 -113q0 -39 24.5 -65.5t66 -45t97 -31t118 -23t128.5 -21t128.5 -26t118 -37.5t97 -54.5t66 -78.5t24.5 -109q0 -55 -21 -96t-56 -71.5 t-81 -50.5t-96 -31.5t-101 -16.5t-96 -5h-10l-26 -71q43 0 81.5 -7t67.5 -23.5t45.5 -44t16.5 -69.5q0 -45 -18.5 -75.5t-52 -49t-79.5 -26.5t-100 -8q-82 0 -137.5 16t-92.5 33l43 86q35 -22 76.5 -33.5t101.5 -11.5q42 0 71 5t46.5 14t25 22t7.5 28q0 19 -10 32 t-26.5 20.5t-38.5 10.5t-46 3q-26 0 -52.5 -1.5t-49.5 -4.5l59 159q-112 11 -198 39.5t-146 71.5v-88h-113z" />
<glyph unicode="&#x160;" horiz-adv-x="1665" d="M123 0v494h113v-142q0 -59 29.5 -101.5t78.5 -72t112.5 -47.5t132.5 -28t137.5 -13.5t127.5 -3.5q118 0 220 13t177.5 43t118.5 78.5t43 119.5q0 62 -35.5 106.5t-97 77t-143 55t-173.5 41t-189 36t-189 39t-173.5 50.5t-143 70t-97 97.5t-35.5 134.5q0 69 27.5 122.5 t75 92.5t111.5 65.5t135.5 42t148 22.5t149.5 7q103 0 192.5 -13t161.5 -33.5t124 -45.5t81 -50v117h113v-432h-113v88q0 55 -35.5 101.5t-104.5 81t-171 54t-235 19.5q-121 0 -218 -13.5t-165.5 -42t-105 -73t-36.5 -106.5q0 -57 36 -97.5t97 -70.5t143 -52t174 -41 t189 -37.5t189 -42t174 -53.5t143 -73t97 -100.5t36 -135.5q0 -77 -30.5 -134.5t-82 -99t-121 -69t-147 -43.5t-159.5 -22.5t-160 -6.5q-109 0 -203.5 10.5t-172.5 30t-138 45.5t-100 58v-117h-113zM1172 1720l-387 -219l-387 219l39 78l348 -160l348 160z" />
<glyph unicode="&#x161;" horiz-adv-x="1190" d="M106 0v350h112v-61q0 -55 37.5 -94.5t96.5 -65t130.5 -37.5t139.5 -12q80 0 147 8.5t116 28.5t76 52.5t27 80.5q0 45 -24.5 76.5t-66 52.5t-97 35t-118 24.5t-128.5 20t-128.5 23t-118 32.5t-97 48.5t-66 71.5t-24.5 101q0 76 38 124.5t99 76.5t138.5 38.5t156.5 10.5 q115 0 211 -26t162 -68v61h112v-321h-112v74q0 32 -17 57.5t-46 45t-66 33t-77.5 22t-81 12.5t-75.5 4q-158 0 -238.5 -31t-80.5 -113q0 -39 24.5 -65.5t66 -45t97 -31t118 -23t128.5 -21t128.5 -26t118 -37.5t97 -54.5t66 -78.5t24.5 -109q0 -55 -21 -96t-56 -71.5 t-80.5 -50.5t-95.5 -31.5t-101 -16.5t-96 -5q-150 0 -260.5 32t-182.5 83v-88h-112zM955 1317l-387 -219l-387 219l39 78l348 -160l348 160z" />
<glyph unicode="&#x162;" horiz-adv-x="1657" d="M80 881v493h1497v-493h-113v379h-573v-1147h307v-113h-739v113h307v1147h-573v-379h-113zM838 -416h-101l39 273h144z" />
<glyph unicode="&#x163;" horiz-adv-x="1161" d="M0 952h258v330h125v-330h670v-112h-670v-555q0 -59 21.5 -98t60.5 -62t93.5 -32t119.5 -9t119 8t98 20.5t80.5 29t66.5 34.5l62 -100q-37 -21 -83.5 -39.5t-100.5 -32t-115 -21.5t-125 -8q-96 0 -174 16t-133 52t-85 94.5t-30 143.5v559h-258v112zM649 -416h-101l39 273 h144z" />
<glyph unicode="&#x164;" horiz-adv-x="1657" d="M80 881v493h1497v-493h-113v379h-573v-1147h307v-113h-739v113h307v1147h-573v-379h-113zM1215 1720l-387 -219l-387 219l39 78l348 -160l348 160z" />
<glyph unicode="&#x165;" horiz-adv-x="1161" d="M0 952h258v330h125v-330h670v-112h-670v-555q0 -59 21.5 -98t60.5 -62t93.5 -32t119.5 -9t119 8t98 20.5t80.5 29t66.5 34.5l62 -100q-37 -21 -83.5 -39.5t-100.5 -32t-115 -21.5t-125 -8q-96 0 -174 16t-133 52t-85 94.5t-30 143.5v559h-258v112zM911 1081h-100l39 273 h143z" />
<glyph unicode="&#x166;" horiz-adv-x="1657" d="M766 791v469h-573v-379h-113v493h1497v-493h-113v379h-573v-469h463v-105h-463v-573h307v-113h-739v113h307v573h-465v105h465z" />
<glyph unicode="&#x167;" horiz-adv-x="1161" d="M0 952h258v330h125v-330h670v-112h-670v-178h477v-105h-477v-272q0 -59 21.5 -98t60.5 -62t93.5 -32t119.5 -9t119 8t98 20.5t80.5 29t66.5 34.5l62 -100q-37 -21 -83.5 -39.5t-100.5 -32t-115 -21.5t-125 -8q-96 0 -174 16t-133 52t-85 94.5t-30 143.5v276h-225v105h225 v178h-258v112z" />
<glyph unicode="&#x168;" d="M20 1374h699v-112h-287v-840q0 -69 36.5 -130.5t108.5 -107.5t178 -73t246 -27q139 0 245 27t178 73t108.5 107.5t36.5 130.5v840h-287v112h698v-112h-286v-830q0 -103 -43.5 -187.5t-130 -145t-216.5 -93.5t-303 -33t-303 33t-217 93.5t-130.5 145t-43.5 187.5v830h-287 v112zM1354 1738q0 -17 -3 -40.5t-11 -49t-21.5 -50t-34.5 -44t-50 -31.5t-68 -12q-47 0 -92.5 19t-88 41.5t-81 41.5t-70.5 19q-30 0 -47 -15t-25.5 -35.5t-11.5 -40.5t-4 -30h-97q0 25 8 64t29 75t58 62t96 26q39 0 82 -19t86.5 -41.5t84.5 -41.5t77 -19q30 0 47 15t26 35 t11.5 40t3.5 31h96z" />
<glyph unicode="&#x169;" horiz-adv-x="1542" d="M1501 0h-350v180q-47 -45 -105 -83.5t-124.5 -67.5t-140.5 -45.5t-152 -16.5q-94 0 -163.5 23.5t-115.5 66.5t-69 104.5t-23 137.5v541h-225v112h350v-616q0 -76 19.5 -125.5t55.5 -78.5t87.5 -40.5t116.5 -11.5q74 0 146 20t136 50.5t117 67t90 69.5v553h-225v112h350 v-839h225v-113zM1090 1335q0 -17 -3 -40.5t-11 -49t-21.5 -50t-34.5 -44t-50 -31.5t-68 -12q-47 0 -92.5 19t-88 41.5t-81 41.5t-70.5 19q-30 0 -47 -15t-25.5 -35.5t-11.5 -40.5t-4 -30h-97q0 25 8 64t29 75t58 62t96 26q39 0 82 -19t86.5 -41.5t84.5 -41.5t77 -19 q30 0 47 15t26 35t11.5 40t3.5 31h96z" />
<glyph unicode="&#x16a;" d="M20 1374h699v-112h-287v-840q0 -69 36.5 -130.5t108.5 -107.5t178 -73t246 -27q139 0 245 27t178 73t108.5 107.5t36.5 130.5v840h-287v112h698v-112h-286v-830q0 -103 -43.5 -187.5t-130 -145t-216.5 -93.5t-303 -33t-303 33t-217 93.5t-130.5 145t-43.5 187.5v830h-287 v112zM725 1533v113h549v-113h-549z" />
<glyph unicode="&#x16b;" horiz-adv-x="1542" d="M1501 0h-350v180q-47 -45 -105 -83.5t-124.5 -67.5t-140.5 -45.5t-152 -16.5q-94 0 -163.5 23.5t-115.5 66.5t-69 104.5t-23 137.5v541h-225v112h350v-616q0 -76 19.5 -125.5t55.5 -78.5t87.5 -40.5t116.5 -11.5q74 0 146 20t136 50.5t117 67t90 69.5v553h-225v112h350 v-839h225v-113zM461 1130v113h549v-113h-549z" />
<glyph unicode="&#x16c;" d="M20 1374h699v-112h-287v-840q0 -69 36.5 -130.5t108.5 -107.5t178 -73t246 -27q139 0 245 27t178 73t108.5 107.5t36.5 130.5v840h-287v112h698v-112h-286v-830q0 -103 -43.5 -187.5t-130 -145t-216.5 -93.5t-303 -33t-303 33t-217 93.5t-130.5 145t-43.5 187.5v830h-287 v112zM1346 1753q-9 -37 -31 -79t-62.5 -77t-102 -58.5t-150.5 -23.5q-90 0 -152 23.5t-102 58.5t-61.5 77t-30.5 79h116q6 -18 20.5 -41.5t41.5 -44.5t68 -35.5t100 -14.5q58 0 99 14.5t68.5 35.5t42.5 44.5t21 41.5h115z" />
<glyph unicode="&#x16d;" horiz-adv-x="1542" d="M1501 0h-350v180q-47 -45 -105 -83.5t-124.5 -67.5t-140.5 -45.5t-152 -16.5q-94 0 -163.5 23.5t-115.5 66.5t-69 104.5t-23 137.5v541h-225v112h350v-616q0 -76 19.5 -125.5t55.5 -78.5t87.5 -40.5t116.5 -11.5q74 0 146 20t136 50.5t117 67t90 69.5v553h-225v112h350 v-839h225v-113zM1082 1350q-9 -37 -31 -79t-62.5 -77t-102 -58.5t-150.5 -23.5q-90 0 -152 23.5t-102 58.5t-61.5 77t-30.5 79h116q6 -18 20.5 -41.5t41.5 -44.5t68 -35.5t100 -14.5q58 0 99 14.5t68.5 35.5t42.5 44.5t21 41.5h115z" />
<glyph unicode="&#x16e;" d="M20 1374h699v-112h-287v-840q0 -69 36.5 -130.5t108.5 -107.5t178 -73t246 -27q139 0 245 27t178 73t108.5 107.5t36.5 130.5v840h-287v112h698v-112h-286v-830q0 -103 -43.5 -187.5t-130 -145t-216.5 -93.5t-303 -33t-303 33t-217 93.5t-130.5 145t-43.5 187.5v830h-287 v112zM738 1665q0 43 18.5 78t53 59.5t83 37.5t107.5 13q58 0 106.5 -13t83 -37.5t53.5 -59.5t19 -78q0 -44 -19 -79t-53.5 -59.5t-83 -37.5t-106.5 -13q-59 0 -107.5 13t-83 37.5t-53 59.5t-18.5 79zM840 1665q0 -42 37.5 -69.5t122.5 -27.5q84 0 120.5 27.5t36.5 69.5 q0 40 -36.5 68t-120.5 28q-85 0 -122.5 -28t-37.5 -68z" />
<glyph unicode="&#x16f;" horiz-adv-x="1542" d="M1501 0h-350v180q-47 -45 -105 -83.5t-124.5 -67.5t-140.5 -45.5t-152 -16.5q-94 0 -163.5 23.5t-115.5 66.5t-69 104.5t-23 137.5v541h-225v112h350v-616q0 -76 19.5 -125.5t55.5 -78.5t87.5 -40.5t116.5 -11.5q74 0 146 20t136 50.5t117 67t90 69.5v553h-225v112h350 v-839h225v-113zM474 1262q0 43 18.5 78t53 59.5t83 37.5t107.5 13q58 0 106.5 -13t83 -37.5t53.5 -59.5t19 -78q0 -44 -19 -79t-53.5 -59.5t-83 -37.5t-106.5 -13q-59 0 -107.5 13t-83 37.5t-53 59.5t-18.5 79zM576 1262q0 -42 37.5 -69.5t122.5 -27.5q84 0 120.5 27.5 t36.5 69.5q0 40 -36.5 68t-120.5 28q-85 0 -122.5 -28t-37.5 -68z" />
<glyph unicode="&#x170;" d="M20 1374h699v-112h-287v-840q0 -69 36.5 -130.5t108.5 -107.5t178 -73t246 -27q139 0 245 27t178 73t108.5 107.5t36.5 130.5v840h-287v112h698v-112h-286v-830q0 -103 -43.5 -187.5t-130 -145t-216.5 -93.5t-303 -33t-303 33t-217 93.5t-130.5 145t-43.5 187.5v830h-287 v112zM1098 1687l-358 -186l-45 78l346 213zM1493 1687l-358 -186l-45 78l346 213z" />
<glyph unicode="&#x171;" horiz-adv-x="1542" d="M1501 0h-350v180q-47 -45 -105 -83.5t-124.5 -67.5t-140.5 -45.5t-152 -16.5q-94 0 -163.5 23.5t-115.5 66.5t-69 104.5t-23 137.5v541h-225v112h350v-616q0 -76 19.5 -125.5t55.5 -78.5t87.5 -40.5t116.5 -11.5q74 0 146 20t136 50.5t117 67t90 69.5v553h-225v112h350 v-839h225v-113zM834 1284l-358 -186l-45 78l346 213zM1229 1284l-358 -186l-45 78l346 213z" />
<glyph unicode="&#x172;" d="M20 1374h699v-112h-287v-840q0 -69 36.5 -130.5t108.5 -107.5t178 -73t246 -27q139 0 245 27t178 73t108.5 107.5t36.5 130.5v840h-287v112h698v-112h-286v-830q0 -101 -41 -183.5t-123.5 -142.5t-205.5 -94.5t-288 -38.5q-24 -18 -45 -37t-36.5 -38.5t-25 -39.5 t-9.5 -40q0 -42 34 -61t97 -19q42 0 83.5 10.5t69.5 24.5l37 -90q-17 -9 -40 -16t-50 -12t-56 -8t-57 -3q-111 0 -172 35.5t-61 115.5q0 100 117 180q-154 8 -269 44t-192 95.5t-115.5 140t-38.5 177.5v830h-287v112z" />
<glyph unicode="&#x173;" horiz-adv-x="1542" d="M1501 0q-76 -12 -129.5 -33.5t-87 -46.5t-48.5 -51.5t-15 -50.5q0 -42 34 -61t97 -19q42 0 83.5 10.5t69.5 24.5l37 -90q-17 -9 -40 -16t-50 -12t-56 -8t-57 -3q-111 0 -172 35.5t-61 115.5q0 63 45.5 115.5t142.5 89.5h-143v180q-47 -45 -105 -83.5t-124.5 -67.5 t-140.5 -45.5t-152 -16.5q-94 0 -163.5 23.5t-115.5 66.5t-69 104.5t-23 137.5v541h-225v112h350v-616q0 -76 19.5 -125.5t55.5 -78.5t87.5 -40.5t116.5 -11.5q74 0 146 20t136 50.5t117 67t90 69.5v553h-225v112h350v-839h225v-113z" />
<glyph unicode="&#x174;" horiz-adv-x="2757" d="M-41 1374h698v-112h-315l463 -1162l489 1274h168l490 -1274l463 1162h-316v112h699v-112h-244l-508 -1262h-186l-482 1241l-481 -1241h-186l-508 1262h-244v112zM1725 1503l-348 160l-348 -160l-39 78l387 219l387 -219z" />
<glyph unicode="&#x175;" horiz-adv-x="2056" d="M41 952h494v-112h-189l281 -693l325 805h152l326 -805l278 693h-186v112h493v-112h-180l-340 -840h-129l-338 827l-336 -827h-131l-342 840h-178v112zM1376 1100l-348 160l-348 -160l-39 78l387 219l387 -219z" />
<glyph unicode="&#x176;" horiz-adv-x="1808" d="M0 1374h698v-112h-262l469 -576l465 576h-260v112h698v-112h-288l-553 -680v-469h307v-113h-739v113h307v469l-553 680h-289v112zM1254 1503l-348 160l-348 -160l-39 78l387 219l387 -219z" />
<glyph unicode="&#x177;" horiz-adv-x="1358" d="M1358 840h-189l-370 -727l-23 -43q-37 -73 -69.5 -137.5t-66.5 -118t-72 -96t-84.5 -72t-104.5 -45t-133 -15.5q-60 0 -125.5 17t-116.5 51l55 106q14 -9 31.5 -20t40.5 -20.5t51.5 -16t63.5 -6.5q71 0 123.5 20t94.5 57.5t76.5 92.5t69.5 125l-424 848h-186v112h494 v-112h-164l348 -717l354 717h-168v112h494v-112zM1026 1100l-348 160l-348 -160l-39 78l387 219l387 -219z" />
<glyph unicode="&#x178;" horiz-adv-x="1808" d="M0 1374h698v-112h-262l469 -576l465 576h-260v112h698v-112h-288l-553 -680v-469h307v-113h-739v113h307v469l-553 680h-289v112zM619 1607q0 37 24.5 63.5t61.5 26.5t63.5 -26.5t26.5 -63.5t-26.5 -62.5t-63.5 -25.5t-61.5 25.5t-24.5 62.5zM1016 1607q0 18 6.5 34.5 t18.5 29t28 19.5t35 7q37 0 62.5 -26.5t25.5 -63.5t-25.5 -62.5t-62.5 -25.5q-38 0 -63 25.5t-25 62.5z" />
<glyph unicode="&#x179;" horiz-adv-x="1507" d="M154 963v411h1237v-67l-1115 -1190h1016v315h113v-432h-1303v102l1084 1155h-920v-294h-112zM1102 1687l-440 -186l-41 84l428 213z" />
<glyph unicode="&#x17a;" horiz-adv-x="1262" d="M139 952h979v-98l-817 -737h725v254h113v-371h-1026v102l813 734h-674v-226h-113v342zM987 1284l-440 -186l-41 84l428 213z" />
<glyph unicode="&#x17b;" horiz-adv-x="1507" d="M154 963v411h1237v-67l-1115 -1190h1016v315h113v-432h-1303v102l1084 1155h-920v-294h-112zM656 1611q0 20 7 38t19.5 31t29 20.5t36.5 7.5q40 0 68 -28t28 -69q0 -19 -7.5 -36t-20.5 -29.5t-30.5 -19.5t-37.5 -7t-36.5 7t-29 19.5t-19.5 29.5t-7 36z" />
<glyph unicode="&#x17c;" horiz-adv-x="1262" d="M139 952h979v-98l-817 -737h725v254h113v-371h-1026v102l813 734h-674v-226h-113v342zM541 1208q0 20 7 38t19.5 31t29 20.5t36.5 7.5q40 0 68 -28t28 -69q0 -19 -7.5 -36t-20.5 -29.5t-30.5 -19.5t-37.5 -7t-36.5 7t-29 19.5t-19.5 29.5t-7 36z" />
<glyph unicode="&#x17d;" horiz-adv-x="1507" d="M154 963v411h1237v-67l-1115 -1190h1016v315h113v-432h-1303v102l1084 1155h-920v-294h-112zM1135 1720l-387 -219l-387 219l39 78l348 -160l348 160z" />
<glyph unicode="&#x17e;" horiz-adv-x="1262" d="M139 952h979v-98l-817 -737h725v254h113v-371h-1026v102l813 734h-674v-226h-113v342zM1020 1317l-387 -219l-387 219l39 78l348 -160l348 160z" />
<glyph unicode="&#x192;" horiz-adv-x="1712" d="M348 39q86 0 146 21.5t103 63.5t72 104t54 143l139 460h-307v107h338l31 111q50 173 156 261.5t276 88.5q49 0 93 -8.5t81 -21.5t66.5 -28t50.5 -28l-68 -99q-18 12 -40 25.5t-49.5 25t-60.5 18.5t-71 7q-66 0 -117.5 -20t-90 -56t-64 -84.5t-39.5 -105.5l-23 -86h322 v-107h-353l-139 -458q-29 -96 -65 -177t-93 -140.5t-140.5 -92.5t-205.5 -33q-49 0 -93 8.5t-81 21.5t-66.5 28t-50.5 28l68 99q18 -12 40 -25.5t49.5 -25t60.5 -18.5t71 -7z" />
<glyph unicode="&#x1fc;" horiz-adv-x="2501" d="M506 1374h1837v-411h-113v294h-950v-473h723v-116h-723v-551h965v315h112v-432h-1489v113h287v354h-610l-201 -354h272v-113h-657v113h248l651 1149h-352v112zM610 580h545v673h-162zM1831 1687l-440 -186l-41 84l428 213z" />
<glyph unicode="&#x1fd;" horiz-adv-x="2232" d="M1577 -25q-159 0 -280 50t-195 141q-45 -33 -105 -67.5t-134.5 -62t-162.5 -45.5t-188 -18q-98 0 -174.5 18t-130 53.5t-81.5 88t-28 121.5q0 107 69 175t190.5 108.5t287.5 59.5t361 28v47q0 53 -29 91t-78 62t-113.5 35.5t-136.5 11.5q-84 0 -146.5 -10.5t-105.5 -31 t-68.5 -50t-37.5 -67.5l-127 30q32 112 152.5 174t328.5 62q84 0 158.5 -11.5t134 -36.5t102.5 -64.5t64 -94.5q77 94 198.5 147.5t276.5 53.5q131 0 235 -37t176 -106.5t110 -168.5t38 -223v-22h-1008q7 -76 40 -137t89.5 -104t136.5 -66t181 -23q98 0 170.5 16t123 43 t82 61t48.5 70h125q-59 -152 -200.5 -226.5t-348.5 -74.5zM522 80q88 0 168 16.5t148.5 42t122 55.5t88.5 56q-23 49 -35.5 104t-12.5 117q0 12 0.5 24.5t2.5 24.5q-218 -8 -368 -28.5t-242 -53t-132.5 -77t-40.5 -101.5q0 -88 76.5 -134t224.5 -46zM2009 524 q-5 68 -30.5 129t-76.5 107.5t-129.5 74t-189.5 27.5q-104 0 -184 -27.5t-137 -74t-90 -107.5t-42 -129h879zM1501 1284l-440 -186l-41 84l428 213z" />
<glyph unicode="&#x1fe;" horiz-adv-x="2015" d="M1880 686q0 -185 -67 -319.5t-184 -222t-276 -129.5t-343 -42q-112 0 -213 15.5t-191 44.5l-153 -215h-129l182 254q-85 40 -153.5 98.5t-117 135t-74.5 171.5t-26 209q0 123 31 223.5t87 180t135.5 137.5t177 96.5t209.5 57t235 18.5q223 0 403 -62l156 217h127 l-185 -256q85 -41 153 -99t116 -134t74 -170.5t26 -208.5zM272 686q0 -189 76 -318t227 -200l768 1073q-71 22 -154 32.5t-179 10.5q-366 0 -552 -154.5t-186 -443.5zM1743 686q0 374 -299 516l-768 -1071q71 -22 154.5 -32.5t179.5 -10.5q365 0 549 153t184 445zM1364 1687 l-440 -186l-41 84l428 213z" />
<glyph unicode="&#x1ff;" horiz-adv-x="1419" d="M342 51q-56 29 -101 69.5t-77 93t-49 118t-17 143.5q0 130 47.5 225.5t130.5 157t195 91.5t240 30q74 0 142 -10t128 -29l141 195h119l-168 -234q114 -59 181 -164t67 -262q0 -131 -47 -225.5t-129 -156t-193.5 -91t-240.5 -29.5q-152 0 -275 39l-139 -194h-121z M1198 475q0 121 -47 205.5t-141 132.5l-508 -709q91 -24 209 -24q242 0 364.5 101.5t122.5 293.5zM221 475q0 -237 187 -334l507 707q-89 24 -204 24q-243 0 -366.5 -102t-123.5 -295zM1065 1284l-440 -186l-41 84l428 213z" />
<glyph unicode="&#x237;" horiz-adv-x="657" d="M102 952h351v-1046q0 -161 -78 -240.5t-228 -79.5q-39 0 -74.5 7t-64.5 17.5t-50.5 22.5t-33.5 21l51 102q9 -8 25.5 -18.5t38.5 -19.5t49 -15t59 -6q45 0 79 10.5t56.5 35.5t34 64.5t11.5 98.5v934h-226v112z" />
<glyph unicode="&#x2c6;" horiz-adv-x="1081" d="M889 1100l-348 160l-348 -160l-39 78l387 219l387 -219z" />
<glyph unicode="&#x2c7;" horiz-adv-x="1081" d="M928 1317l-387 -219l-387 219l39 78l348 -160l348 160z" />
<glyph unicode="&#x2d8;" horiz-adv-x="1081" d="M887 1350q-9 -37 -31 -79t-62.5 -77t-102 -58.5t-150.5 -23.5q-90 0 -152 23.5t-102 58.5t-61.5 77t-30.5 79h116q6 -18 20.5 -41.5t41.5 -44.5t68 -35.5t100 -14.5q58 0 99 14.5t68.5 35.5t42.5 44.5t21 41.5h115z" />
<glyph unicode="&#x2d9;" horiz-adv-x="1081" d="M449 1208q0 20 7 38t19.5 31t29 20.5t36.5 7.5q40 0 68 -28t28 -69q0 -19 -7.5 -36t-20.5 -29.5t-30.5 -19.5t-37.5 -7t-36.5 7t-29 19.5t-19.5 29.5t-7 36z" />
<glyph unicode="&#x2da;" horiz-adv-x="1081" d="M279 1262q0 43 18.5 78t53 59.5t83 37.5t107.5 13q58 0 106.5 -13t83 -37.5t53.5 -59.5t19 -78q0 -44 -19 -79t-53.5 -59.5t-83 -37.5t-106.5 -13q-59 0 -107.5 13t-83 37.5t-53 59.5t-18.5 79zM381 1262q0 -42 37.5 -69.5t122.5 -27.5q84 0 120.5 27.5t36.5 69.5 q0 40 -36.5 68t-120.5 28q-85 0 -122.5 -28t-37.5 -68z" />
<glyph unicode="&#x2db;" horiz-adv-x="1081" d="M616 20q-32 -20 -65.5 -44t-60.5 -50.5t-44.5 -53.5t-17.5 -54q0 -42 34 -61t97 -19q42 0 84 10.5t70 24.5l37 -90q-17 -9 -40 -16t-50 -12t-56 -8t-57 -3q-112 0 -173 35.5t-61 115.5q0 65 48 119.5t147 105.5h108z" />
<glyph unicode="&#x2dc;" horiz-adv-x="1081" d="M893 1335q0 -17 -3 -40.5t-11 -49t-21.5 -50t-34.5 -44t-50 -31.5t-68 -12q-47 0 -92.5 19t-88 41.5t-81 41.5t-70.5 19q-30 0 -47 -15t-25.5 -35.5t-11.5 -40.5t-4 -30h-97q0 25 8 64t29 75t58 62t96 26q39 0 82 -19t86.5 -41.5t84.5 -41.5t77 -19q30 0 47 15t26 35 t11.5 40t3.5 31h96z" />
<glyph unicode="&#x2dd;" horiz-adv-x="1081" d="M639 1284l-358 -186l-45 78l346 213zM1034 1284l-358 -186l-45 78l346 213z" />
<glyph unicode="&#x315;" horiz-adv-x="182" d="M100 1081h-100l39 273h143z" />
<glyph unicode="&#x326;" horiz-adv-x="1081" d="M547 -416h-101l39 273h144z" />
<glyph unicode="&#x3bc;" horiz-adv-x="1444" d="M457 958l-123 -636q13 -53 35 -97t53.5 -75.5t73.5 -48.5t96 -17q75 0 137 24.5t113.5 64.5t94 89.5t77.5 99.5l114 596h125l-114 -596q-8 -42 -11.5 -75t-3.5 -62q0 -34 3.5 -62.5t9.5 -54.5t14 -52.5t16 -55.5h-125q-14 45 -26 97.5t-12 129.5q-39 -44 -82 -88.5 t-95.5 -80.5t-115 -58.5t-140.5 -22.5q-92 0 -162 54t-104 145l-112 -586h-125l264 1368h125z" />
<glyph unicode="&#x1e80;" horiz-adv-x="2757" d="M-41 1374h698v-112h-315l463 -1162l489 1274h168l490 -1274l463 1162h-316v112h699v-112h-244l-508 -1262h-186l-482 1241l-481 -1241h-186l-508 1262h-244v112zM1076 1798l430 -213l-43 -84l-441 186z" />
<glyph unicode="&#x1e81;" horiz-adv-x="2056" d="M41 952h494v-112h-189l281 -693l325 805h152l326 -805l278 693h-186v112h493v-112h-180l-340 -840h-129l-338 827l-336 -827h-131l-342 840h-178v112zM727 1395l430 -213l-43 -84l-441 186z" />
<glyph unicode="&#x1e82;" horiz-adv-x="2757" d="M-41 1374h698v-112h-315l463 -1162l489 1274h168l490 -1274l463 1162h-316v112h699v-112h-244l-508 -1262h-186l-482 1241l-481 -1241h-186l-508 1262h-244v112zM1731 1687l-440 -186l-41 84l428 213z" />
<glyph unicode="&#x1e83;" horiz-adv-x="2056" d="M41 952h494v-112h-189l281 -693l325 805h152l326 -805l278 693h-186v112h493v-112h-180l-340 -840h-129l-338 827l-336 -827h-131l-342 840h-178v112zM1382 1284l-440 -186l-41 84l428 213z" />
<glyph unicode="&#x1e84;" horiz-adv-x="2757" d="M-41 1374h698v-112h-315l463 -1162l489 1274h168l490 -1274l463 1162h-316v112h699v-112h-244l-508 -1262h-186l-482 1241l-481 -1241h-186l-508 1262h-244v112zM1090 1607q0 37 24.5 63.5t61.5 26.5t63.5 -26.5t26.5 -63.5t-26.5 -62.5t-63.5 -25.5t-61.5 25.5 t-24.5 62.5zM1487 1607q0 18 6.5 34.5t18.5 29t28 19.5t35 7q37 0 62.5 -26.5t25.5 -63.5t-25.5 -62.5t-62.5 -25.5q-38 0 -63 25.5t-25 62.5z" />
<glyph unicode="&#x1e85;" horiz-adv-x="2056" d="M41 952h494v-112h-189l281 -693l325 805h152l326 -805l278 693h-186v112h493v-112h-180l-340 -840h-129l-338 827l-336 -827h-131l-342 840h-178v112zM741 1204q0 37 24.5 63.5t61.5 26.5t63.5 -26.5t26.5 -63.5t-26.5 -62.5t-63.5 -25.5t-61.5 25.5t-24.5 62.5z M1138 1204q0 18 6.5 34.5t18.5 29t28 19.5t35 7q37 0 62.5 -26.5t25.5 -63.5t-25.5 -62.5t-62.5 -25.5q-38 0 -63 25.5t-25 62.5z" />
<glyph unicode="&#x1ef2;" horiz-adv-x="1808" d="M0 1374h698v-112h-262l469 -576l465 576h-260v112h698v-112h-288l-553 -680v-469h307v-113h-739v113h307v469l-553 680h-289v112zM605 1798l430 -213l-43 -84l-441 186z" />
<glyph unicode="&#x1ef3;" horiz-adv-x="1358" d="M1358 840h-189l-370 -727l-23 -43q-37 -73 -69.5 -137.5t-66.5 -118t-72 -96t-84.5 -72t-104.5 -45t-133 -15.5q-60 0 -125.5 17t-116.5 51l55 106q14 -9 31.5 -20t40.5 -20.5t51.5 -16t63.5 -6.5q71 0 123.5 20t94.5 57.5t76.5 92.5t69.5 125l-424 848h-186v112h494 v-112h-164l348 -717l354 717h-168v112h494v-112zM377 1395l430 -213l-43 -84l-441 186z" />
<glyph unicode="&#x2013;" horiz-adv-x="860" d="M41 430v111h778v-111h-778z" />
<glyph unicode="&#x2014;" horiz-adv-x="2048" d="M0 430v111h2048v-111h-2048z" />
<glyph unicode="&#x2018;" horiz-adv-x="418" d="M315 1108q0 -21 -8 -40t-22 -33.5t-33 -22.5t-41 -8q-48 0 -78.5 32t-30.5 84q0 41 11 79t30 72.5t44.5 65t54.5 56.5l47 -47q-32 -32 -54.5 -67t-31.5 -73q29 0 50.5 -8.5t35 -22t20 -31.5t6.5 -36z" />
<glyph unicode="&#x2019;" horiz-adv-x="418" d="M102 1270q0 21 8 40t22 33.5t33 22.5t42 8q48 0 78 -32t30 -85q0 -41 -11 -79t-29.5 -72.5t-44 -65t-54.5 -55.5l-47 47q32 32 54.5 66.5t31.5 72.5q-29 0 -50.5 8.5t-35.5 22.5t-20.5 32t-6.5 36z" />
<glyph unicode="&#x201a;" horiz-adv-x="418" d="M102 98q0 22 8 41t22 33t33 22.5t42 8.5q48 0 78 -32t30 -85q0 -41 -11 -79t-29.5 -72.5t-44 -65t-54.5 -55.5l-47 47q32 32 54.5 66.5t31.5 72.5q-29 0 -50.5 8.5t-35.5 22t-20.5 31.5t-6.5 36z" />
<glyph unicode="&#x201c;" horiz-adv-x="725" d="M315 1108q0 -21 -8 -40t-22 -33.5t-33 -22.5t-41 -8q-48 0 -78.5 32t-30.5 84q0 41 11 79t30 72.5t44.5 65t54.5 56.5l47 -47q-32 -32 -54.5 -67t-31.5 -73q29 0 50.5 -8.5t35 -22t20 -31.5t6.5 -36zM623 1108q0 -21 -8 -40t-22 -33.5t-33.5 -22.5t-41.5 -8q-48 0 -78 32 t-30 84q0 41 10.5 79t29.5 72.5t44.5 65t54.5 56.5l47 -47q-32 -32 -54.5 -67t-31.5 -73q29 0 50.5 -8.5t35.5 -22t20.5 -31.5t6.5 -36z" />
<glyph unicode="&#x201d;" horiz-adv-x="725" d="M102 1270q0 21 8 40t22 33.5t33 22.5t42 8q48 0 78 -32t30 -85q0 -41 -11 -79t-29.5 -72.5t-44 -65t-54.5 -55.5l-47 47q32 32 54.5 66.5t31.5 72.5q-29 0 -50.5 8.5t-35.5 22.5t-20.5 32t-6.5 36zM410 1270q0 21 8 40t22 33.5t33 22.5t41 8q48 0 78.5 -32t30.5 -85 q0 -41 -11 -79t-30 -72.5t-44.5 -65t-54.5 -55.5l-47 47q32 32 54.5 66.5t31.5 72.5q-29 0 -50.5 8.5t-35 22.5t-20 32t-6.5 36z" />
<glyph unicode="&#x201e;" horiz-adv-x="725" d="M102 98q0 22 8 41t22 33t33 22.5t42 8.5q48 0 78 -32t30 -85q0 -41 -11 -79t-29.5 -72.5t-44 -65t-54.5 -55.5l-47 47q32 32 54.5 66.5t31.5 72.5q-29 0 -50.5 8.5t-35.5 22t-20.5 31.5t-6.5 36zM410 98q0 44 29.5 74.5t74.5 30.5q48 0 78.5 -32t30.5 -85q0 -41 -11 -79 t-30 -72.5t-44.5 -65t-54.5 -55.5l-47 47q32 32 54.5 66.5t31.5 72.5q-29 0 -50.5 8.5t-35 22t-20 31.5t-6.5 36z" />
<glyph unicode="&#x2020;" horiz-adv-x="1024" d="M184 1006h267v368h122v-368h267v-115h-267v-914h-122v914h-267v115z" />
<glyph unicode="&#x2021;" horiz-adv-x="1024" d="M184 1006h267v368h122v-368h267v-115h-267v-316h267v-114h-267v-484h-122v484h-267v114h267v316h-267v115z" />
<glyph unicode="&#x2022;" horiz-adv-x="721" d="M164 707q0 40 15.5 76t42 62.5t62 42t76.5 15.5t77 -15.5t62.5 -42t42 -62.5t15.5 -76q0 -41 -15.5 -77t-42 -62.5t-62.5 -42t-77 -15.5t-76.5 15.5t-62 42t-42 62.5t-15.5 77z" />
<glyph unicode="&#x2026;" horiz-adv-x="1444" d="M123 106q0 25 9 46.5t24.5 37.5t37 25.5t46.5 9.5q24 0 45.5 -9.5t37.5 -25.5t25.5 -37.5t9.5 -46.5q0 -24 -9.5 -45.5t-25.5 -37t-37.5 -24.5t-45.5 -9q-25 0 -46.5 9t-37 24.5t-24.5 37t-9 45.5zM604 106q0 25 9 46.5t24.5 37.5t37 25.5t46.5 9.5q24 0 46 -9.5 t38 -25.5t25.5 -37.5t9.5 -46.5q0 -24 -9.5 -45.5t-25.5 -37t-38 -24.5t-46 -9q-25 0 -46.5 9t-37 24.5t-24.5 37t-9 45.5zM1085 106q0 25 9 46.5t25 37.5t37.5 25.5t45.5 9.5q25 0 46.5 -9.5t37.5 -25.5t25.5 -37.5t9.5 -46.5q0 -24 -9.5 -45.5t-25.5 -37t-37.5 -24.5 t-46.5 -9q-24 0 -45.5 9t-37.5 24.5t-25 37t-9 45.5z" />
<glyph unicode="&#x2030;" horiz-adv-x="2871" d="M494 0h-132l1094 1374h129zM1847 324q0 -81 -31.5 -145.5t-85.5 -110.5t-125 -70.5t-149 -24.5t-148.5 24.5t-124 70.5t-85 110.5t-31.5 145.5q0 82 31.5 147t85 110t124 69t148.5 24t149 -24t125 -69t85.5 -110t31.5 -147zM1729 324q0 53 -18 99.5t-53 81.5t-86 55 t-116 20t-115.5 -20t-85 -55t-52 -81.5t-17.5 -99.5t17.5 -99.5t52 -81t85 -55t115.5 -20.5t116 20.5t86 55t53 81t18 99.5zM883 1049q0 -81 -32 -145.5t-85.5 -110.5t-124.5 -70.5t-149 -24.5t-148.5 24.5t-124 70.5t-85.5 110.5t-32 145.5q0 82 32 147t85.5 110t124 69 t148.5 24t149 -24t124.5 -69t85.5 -110t32 -147zM764 1049q0 53 -18 99.5t-52.5 81.5t-85.5 55t-116 20q-66 0 -116.5 -20t-85 -55t-52 -81.5t-17.5 -99.5t17.5 -99.5t52 -81t85 -55t116.5 -20.5q65 0 116 20.5t85.5 55t52.5 81t18 99.5zM2769 324q0 -81 -31.5 -145.5 t-85.5 -110.5t-125 -70.5t-149 -24.5t-148.5 24.5t-124 70.5t-85 110.5t-31.5 145.5q0 82 31.5 147t85 110t124 69t148.5 24t149 -24t125 -69t85.5 -110t31.5 -147zM2650 324q0 53 -18 99.5t-52.5 81.5t-85.5 55t-116 20t-115.5 -20t-85 -55t-52.5 -81.5t-18 -99.5t18 -99.5 t52.5 -81t85 -55t115.5 -20.5t116 20.5t85.5 55t52.5 81t18 99.5z" />
<glyph unicode="&#x2039;" horiz-adv-x="528" d="M82 444v91l285 335l86 -73l-256 -308l256 -307l-86 -73z" />
<glyph unicode="&#x203a;" horiz-adv-x="528" d="M168 109l-86 73l256 307l-256 308l86 73l285 -335v-91z" />
<glyph unicode="&#x2044;" horiz-adv-x="406" d="M-276 0h-130l1090 1374h127z" />
<glyph unicode="&#x20ac;" horiz-adv-x="1683" d="M367 764q-2 -20 -2 -39v-39v-34.5t2 -33.5h737l-31 -100h-692q21 -101 68 -181.5t119 -137t169.5 -87t218.5 -30.5q82 0 158 19t139 56.5t109.5 92t71.5 125.5h125q-30 -88 -82 -161.5t-127.5 -127t-176.5 -83.5t-229 -30q-131 0 -246.5 34t-206 102.5t-152 170.5 t-85.5 238h-217l31 100h174q-2 16 -2 33.5v34.5v39t2 39h-205l31 100h186q25 133 87 233.5t152 167.5t203.5 100.5t243.5 33.5q98 0 172.5 -15t132 -38.5t101 -53t81.5 -57.5v139h109v-489h-109v55q0 86 -38.5 151.5t-103 109.5t-148.5 66.5t-174 22.5q-128 0 -227 -30 t-171 -85.5t-117.5 -134.5t-66.5 -176h821l-31 -100h-804z" />
<glyph unicode="&#x2122;" horiz-adv-x="1800" d="M61 1161v213h592v-213h-73v146h-181v-463h121v-68h-325v68h120v463h-180v-146h-74zM684 1374h219l309 -536l308 536h219v-69h-115v-461h115v-68h-314v68h115v428l-283 -496h-92l-282 498v-430h114v-68h-313v68h115v463h-115v67z" />
<glyph unicode="&#x2202;" horiz-adv-x="1618" d="M848 1290q-57 0 -112.5 -9.5t-105.5 -24t-94.5 -32t-78.5 -32.5l18 137q48 15 93 27.5t91 22t94.5 15t102.5 5.5q163 0 283.5 -43t199.5 -121.5t117.5 -188.5t38.5 -243q0 -204 -60 -359.5t-167 -260t-253.5 -157.5t-320.5 -53q-137 0 -243 32t-179 88.5t-111 133 t-38 166.5q0 118 55 208t146.5 151.5t211 93t248.5 31.5q109 0 199 -22t161 -54t124.5 -68.5t89.5 -66.5q6 35 8 70.5t2 70.5q0 100 -26.5 188.5t-87 153.5t-160 103t-246.5 38zM809 768q-140 0 -245 -28t-175.5 -78t-105.5 -118t-35 -149q0 -68 30.5 -125.5t90 -99t146 -65 t198.5 -23.5q139 0 245.5 39.5t182.5 104t124 146t72 165.5q-35 32 -86 72t-117 75.5t-147.5 59.5t-177.5 24z" />
<glyph unicode="&#x2212;" horiz-adv-x="1300" d="M172 631v108h956v-108h-956z" />
<glyph unicode="&#x2215;" horiz-adv-x="406" d="M-276 0h-130l1090 1374h127z" />
<glyph unicode="&#x2248;" horiz-adv-x="1300" d="M1145 532q-42 -43 -101 -71.5t-141 -28.5q-62 0 -126 17t-129.5 37.5t-131 37.5t-129.5 17q-35 0 -68 -10t-63 -26.5t-55.5 -36.5t-44.5 -40v119q21 21 48.5 40t58 32.5t64 21.5t68.5 8q61 0 126 -17t131 -38t131.5 -38t129.5 -17q35 0 68.5 10t63.5 26.5t55.5 36.5 t44.5 41v-121zM1145 881q-42 -42 -101 -71.5t-141 -29.5q-62 0 -126 17t-129.5 37.5t-131 37.5t-129.5 17q-35 0 -68 -10t-63 -26.5t-55.5 -36.5t-44.5 -40v119q21 21 48.5 40t58 32.5t64 21.5t68.5 8q61 0 126 -17t131 -38t131.5 -38t129.5 -17q35 0 68.5 10t63.5 26.5 t55.5 36.5t44.5 41v-120z" />
<glyph unicode="&#x2260;" horiz-adv-x="1300" d="M784 930h344v-109h-380l-91 -272h471v-111h-507l-101 -307h-121l101 307h-328v111h365l90 272h-455v109h492l102 307h121z" />
<glyph unicode="&#x2264;" horiz-adv-x="1300" d="M172 98v109h956v-109h-956zM156 678v94l974 399v-114l-829 -332l829 -330v-114z" />
<glyph unicode="&#x2265;" horiz-adv-x="1300" d="M172 98v109h956v-109h-956zM170 281v114l829 330l-829 332v114l975 -399v-94z" />
<glyph unicode="&#x25fc;" horiz-adv-x="950" d="M0 950h950v-950h-950v950z" />
</font>
</defs>
</svg>
