<?xml version="1.0" standalone="no"?>
<!DOCTYPE svg PUBLIC "-//W3C//DTD SVG 1.1//EN" "http://www.w3.org/Graphics/SVG/1.1/DTD/svg11.dtd" >
<svg xmlns="http://www.w3.org/2000/svg">
<metadata></metadata>
<defs>
<font id="aliceregular" horiz-adv-x="653" >
<font-face units-per-em="1000" ascent="800" descent="-200" />
<missing-glyph horiz-adv-x="223" />
<glyph unicode="fi" horiz-adv-x="615" d="M509 470q9 2 9 -7v-360v-25.5t4.5 -22t15.5 -15t32 -5.5q9 0 15.5 -1.5t7.5 -16.5q0 -8 -4 -14t-12 -6q-29 2 -53.5 2.5t-51.5 0.5t-51 -0.5t-53 -2.5q-8 0 -12 6t-4 14q2 15 8 16.5t16 1.5q21 0 31.5 5.5t15 15t4.5 22v25.5v228v25.5t-4.5 22t-15 15t-31.5 5.5h-165 v-296v-25.5t4.5 -22t15 -15t31.5 -5.5q10 0 16 -1.5t7 -16.5q0 -8 -3.5 -14t-11.5 -6q-29 2 -54 2.5t-51 0.5q-27 0 -51 -0.5t-53 -2.5q-8 0 -12 6t-4 14q1 15 7 16.5t16 1.5q21 0 31.5 5.5t15 15t4.5 22v25.5v296h-77q-8 0 -12.5 6t-4.5 14q1 16 7.5 17.5t16.5 1.5h70 q1 71 21.5 124.5t55.5 89.5t82.5 54t103.5 18q23 0 45 -6.5t39.5 -19t28.5 -30.5t11 -42q0 -29 -17.5 -53.5t-50.5 -24.5q-23 0 -35 11t-12 16q0 2 5.5 6t12 11.5t12 19t5.5 26.5q0 28 -18.5 41.5t-51.5 13.5q-30 0 -57 -15t-47 -46t-31 -79.5t-10 -114.5q97 -1 170.5 7 t127.5 25v0z" />
<glyph unicode="fj" horiz-adv-x="595" d="M518 99q0 -57 -9 -106.5t-30 -89.5t-56.5 -67.5t-88.5 -40.5q-9 -2 -13 1.5t-7 12.5q-2 8 -1.5 14.5t8.5 9.5q37 15 58 40.5t31.5 62.5t13.5 85.5t3 109.5v200v25.5t-4.5 22t-15 15t-31.5 5.5h-165v-296v-25.5t4.5 -22t15 -15t31.5 -5.5q10 0 16 -1.5t7 -16.5 q0 -8 -3.5 -14t-11.5 -6q-29 2 -54 2.5t-51 0.5q-27 0 -51 -0.5t-53 -2.5q-8 0 -12 6t-4 14q1 15 7 16.5t16 1.5q21 0 31.5 5.5t15 15t4.5 22v25.5v296h-77q-8 0 -12.5 6t-4.5 14q1 16 7.5 17.5t16.5 1.5h70q1 71 21.5 124.5t55.5 89.5t82.5 54t103.5 18q23 0 45 -6.5 t39.5 -19t28.5 -30.5t11 -42q0 -29 -17.5 -53.5t-50.5 -24.5q-23 0 -35 11t-12 16q0 2 5.5 6t12 11.5t12 19t5.5 26.5q0 28 -18.5 41.5t-51.5 13.5q-30 0 -57 -15t-47 -46t-31 -79.5t-10 -114.5q84 -2 158 5.5t140 26.5q9 2 9 -7v-364z" />
<glyph unicode="&#xd;" horiz-adv-x="0" />
<glyph unicode=" "  horiz-adv-x="223" />
<glyph unicode="&#x09;" horiz-adv-x="223" />
<glyph unicode="&#xa0;" horiz-adv-x="223" />
<glyph unicode="!" horiz-adv-x="262" d="M130 -12q-27 0 -45 17.5t-18 46.5q0 26 18 44.5t46 18.5t46 -18.5t18 -44.5q0 -29 -18 -46.5t-47 -17.5zM155 221q0 -8 -7.5 -11t-16.5 -3q-8 0 -16 3.5t-8 10.5q0 31 -4.5 74t-10.5 90.5t-10.5 95.5t-4.5 89q0 51 11.5 84t42.5 33t42.5 -33t11.5 -84q0 -41 -4.5 -89 t-10.5 -95.5t-10.5 -90.5t-4.5 -74z" />
<glyph unicode="&#x22;" horiz-adv-x="339" d="M111 408q0 -6 -5.5 -8.5t-12.5 -2.5q-6 0 -12 3t-6 8q-1 20 -6 46.5t-10 54.5t-9.5 56t-4.5 52q0 31 10.5 51t37.5 20t37 -19.5t10 -50.5q0 -24 -4 -52t-9.5 -56.5t-10 -55t-5.5 -46.5zM264 408q0 -6 -5.5 -8.5t-12.5 -2.5q-6 0 -12 3t-6 8q-1 20 -6 46.5t-10 54.5 t-9.5 56t-4.5 52q0 31 10.5 51t37.5 20t37 -19.5t10 -50.5q0 -24 -4 -52t-9.5 -56.5t-10 -55t-5.5 -46.5z" />
<glyph unicode="#" horiz-adv-x="616" d="M249 398l-35 -165h155l34 165h-154zM449 612q5 19 25 19q11 0 19.5 -5t9.5 -14l-34 -159h86q9 -1 14 -10t5 -20q0 -9 -5 -17t-14 -8h-97l-35 -165h92q9 -1 14 -10t5 -20q0 -9 -5 -17t-14 -8h-102l-34 -160q-2 -8 -9 -13t-15 -5q-12 0 -20.5 5t-9.5 13l34 160h-156 l-33 -159q-2 -9 -9 -14t-16 -5q-11 0 -20 5t-10 14l33 159h-87q-9 0 -14 8t-5 17q0 11 5 20t14 10h99l35 165h-94q-9 0 -14 8t-5 17q0 11 5 20t14 10h105l34 160q2 8 9 13t15 5q12 0 20.5 -5t9.5 -13l-34 -160h153z" />
<glyph unicode="$" horiz-adv-x="500" d="M261 -66q0 -23 -20 -23q-19 0 -19 23v53h-13q-13 0 -35 2.5t-44.5 11.5t-42 25.5t-26.5 44.5q-3 15 -0.5 31.5t10 29.5t20.5 21.5t30 8.5q21 0 31.5 -10t10.5 -15q0 -2 -4.5 -5.5t-10 -9.5t-10 -15t-4.5 -21q1 -17 8.5 -28.5t19.5 -19t27.5 -12t32.5 -5.5v236 q-29 12 -57.5 25.5t-51 31t-36.5 41.5t-15 58q-1 32 10.5 57.5t33.5 44.5t51.5 31t64.5 17v54q0 23 19 23q20 0 20 -23v-51h4q12 0 34 -2.5t44.5 -11.5t41.5 -25.5t26 -44.5q4 -15 1.5 -31.5t-10.5 -29.5t-21 -21.5t-30 -8.5q-20 0 -31.5 10t-11.5 15q0 1 5 5t10.5 10 t10.5 15t5 21q0 16 -7.5 27.5t-18.5 19t-25 11.5t-27 5v-200q31 -12 64 -28.5t60 -38t45 -49.5t19 -63q1 -84 -47 -122t-141 -42v-53zM370 113q0 25 -8.5 44t-23.5 34t-35 26.5t-42 21.5v-218q44 5 76 28t33 64zM136 446q0 -25 7 -41.5t19 -28t27.5 -18.5t32.5 -13v184 q-45 -7 -65.5 -30.5t-20.5 -52.5z" />
<glyph unicode="%" horiz-adv-x="776" d="M575 318q36 0 65 -13.5t49.5 -36t32 -52t11.5 -62.5q0 -42 -14.5 -74.5t-37.5 -54.5t-51 -33.5t-55 -11.5q-36 0 -64.5 13.5t-49 36.5t-31.5 53t-11 63q0 42 14.5 74t37 54t50 33t54.5 11zM575 23q23 0 39 10.5t25.5 28.5t14 42t4.5 50q0 24 -4.5 46.5t-14 39.5t-25.5 27 t-39 10q-24 0 -39.5 -10.5t-25 -28.5t-13 -41.5t-3.5 -49.5q0 -24 4 -46.5t13.5 -40t25 -27.5t38.5 -10zM200 649q36 0 65 -13.5t49.5 -36t31.5 -52t11 -61.5q0 -42 -14.5 -74.5t-37.5 -54.5t-50.5 -33.5t-54.5 -11.5q-36 0 -65 13.5t-49 36.5t-31 53t-11 63q0 42 14.5 73.5 t37 53.5t50 33t54.5 11zM200 354q23 0 39 10.5t25.5 28.5t14 42t4.5 51q0 24 -4.5 46.5t-14 39t-25.5 26.5t-39 10q-24 0 -40 -10.5t-25.5 -28t-13 -41t-3.5 -49.5q0 -25 4 -47.5t13.5 -40t25.5 -27.5t39 -10zM163 6q-9 -10 -17.5 -12t-17.5 1q-11 5 -17 15.5t2 20.5 l483 586q9 11 19 12t18 -1q12 -5 17.5 -15.5t-2.5 -21.5z" />
<glyph unicode="&#x26;" horiz-adv-x="875" d="M649 285q0 27 -8 53t-23 46t-37.5 32.5t-51.5 12.5q-12 0 -27 -4t-28 -12t-21.5 -20.5t-7.5 -29.5q1 -14 9 -25t25 -14q13 -2 23.5 2t18 8.5t12 9t6.5 4.5q5 -1 13.5 -15t5.5 -35q-4 -27 -23.5 -41.5t-46.5 -14.5q-38 0 -61 30.5t-23 78.5q0 52 20 84.5t51.5 52t72 29 t81.5 14.5t79 9.5t66 13.5q22 8 37 22.5t14 34.5q-1 12 -9 21t-28 12q-13 1 -23.5 -2.5t-18 -8t-12.5 -9t-6 -4.5q-5 1 -13.5 15t-5.5 35q3 20 14.5 32.5t27 18.5t33 5.5t33.5 -7.5q27 -13 37 -39.5t9 -52.5q-1 -41 -21.5 -73.5t-55.5 -55t-81 -34t-97 -11.5 q42 -35 64 -76.5t22 -92.5q0 -72 -26.5 -128.5t-73 -96t-109 -60t-134.5 -19.5q-59 1 -115 16.5t-99.5 48t-69.5 82.5t-26 119q0 35 10.5 67.5t31 59t51.5 44.5t72 25v3q-33 25 -48 54t-15 63q0 66 47.5 106t132.5 40q27 0 53 -6t45.5 -19t31.5 -32.5t12 -46.5 q0 -30 -17.5 -54t-50.5 -24q-22 0 -34 11t-12 16q0 1 5 5t11.5 11t11.5 16.5t5 22.5q0 30 -21 47t-51 17q-51 0 -76 -30.5t-25 -70.5q0 -73 61 -106h33q12 0 19.5 -2t8.5 -22q0 -9 -4.5 -16.5t-14.5 -7.5h-35q-35 -3 -59.5 -17.5t-41 -36t-24 -48t-7.5 -53.5 q0 -49 17.5 -88.5t48.5 -67t74.5 -42t94.5 -14.5q55 0 103.5 17.5t85 48.5t57.5 74.5t21 94.5z" />
<glyph unicode="'" horiz-adv-x="186" d="M111 408q0 -6 -5.5 -8.5t-12.5 -2.5q-6 0 -12 3t-6 8q-1 20 -6 46.5t-10 54.5t-9.5 56t-4.5 52q0 31 10.5 51t37.5 20t37 -19.5t10 -50.5q0 -24 -4 -52t-9.5 -56.5t-10 -55t-5.5 -46.5z" />
<glyph unicode="(" horiz-adv-x="293" d="M257 -165q-109 75 -165 191t-56 256q0 138 56.5 253.5t165.5 192.5q10 6 16 2.5t9 -10.5q6 -15 -7 -27q-34 -33 -62.5 -78t-49 -98t-32 -113t-11.5 -123t11.5 -123t31.5 -113t48.5 -97.5t62.5 -77.5q13 -12 7 -27q-3 -7 -9 -10.5t-16 2.5z" />
<glyph unicode=")" horiz-adv-x="293" d="M36 -165q-10 -6 -16 -2.5t-9 10.5q-6 15 7 27q34 33 62.5 77.5t48.5 97.5t31.5 113t11.5 123t-11.5 123t-32 113t-49 98t-62.5 78q-13 12 -7 27q3 7 9 10.5t16 -2.5q109 -77 165.5 -192.5t56.5 -253.5q0 -140 -56 -256t-165 -191z" />
<glyph unicode="*" horiz-adv-x="526" d="M220 703q6 -11 9 -24.5t5.5 -31t7.5 -39t16 -47.5l9 1q12 25 16.5 46t6.5 38.5t4.5 31.5t8.5 25q13 20 32 24t35 -5q17 -8 23.5 -26t-6.5 -38q-6 -12 -17.5 -21t-26 -19.5t-31 -25t-33.5 -37.5l3 -8q30 4 51.5 10.5t38.5 13.5t30.5 12t26.5 5q26 0 40 -14t13 -32 q0 -18 -14 -32t-39 -14q-13 0 -26.5 4.5t-30.5 11t-38.5 13t-50.5 9.5l-6 -6q18 -22 35.5 -36.5t32 -25t26 -19.5t17.5 -19q12 -22 7.5 -39.5t-20.5 -27.5q-18 -10 -38 -5t-32 24q-7 11 -9.5 24.5t-5.5 31t-8 38.5t-16 47l-9 -1q-12 -26 -16.5 -46.5t-7 -38t-4.5 -31 t-8 -24.5q-11 -21 -30.5 -24.5t-34.5 5.5q-17 8 -24.5 26t6.5 38q6 11 17 20t25.5 19.5t31 25t33.5 37.5l-3 8q-29 -3 -51 -10t-39 -13.5t-30.5 -11.5t-26.5 -5q-24 -1 -38 13.5t-13 32.5q-1 18 13 32t38 14q13 0 27 -5t31 -11.5t38 -13t51 -9.5l6 6q-19 22 -36.5 37 t-32 25.5t-25.5 19t-18 19.5q-11 22 -6 39.5t21 27.5q17 10 36.5 5t32.5 -24z" />
<glyph unicode="+" horiz-adv-x="566" d="M252 479q0 11 10 18t22 7q11 0 21 -7t10 -18v-188h193q10 0 16 -8.5t6 -18.5t-6 -18.5t-16 -8.5h-193v-212q0 -11 -10 -18t-22 -7q-11 0 -21 7t-10 18v212h-194q-10 0 -16 8.5t-6 18.5t6 18.5t16 8.5h194v188z" />
<glyph unicode="," horiz-adv-x="237" d="M45 97q0 19 14.5 34.5t35.5 15.5q22 0 40.5 -10.5t32 -28t21 -38.5t7.5 -42q0 -31 -13.5 -55.5t-34.5 -42.5t-47.5 -30.5t-52.5 -19.5q-8 -3 -13.5 0.5t-8 9.5t-1 12t9.5 9q42 16 63.5 37.5t21.5 51.5q0 18 -11.5 29t-26 20.5t-26 20t-11.5 27.5z" />
<glyph unicode="-" horiz-adv-x="385" d="M83 199q-11 0 -17 11t-6 21q0 11 6 21.5t17 10.5h219q11 0 17 -10.5t6 -21.5q0 -10 -6 -21t-17 -11h-219z" />
<glyph unicode="." horiz-adv-x="222" d="M110 -12q-27 0 -45 17t-18 46q0 26 18 44t46 18q27 0 45.5 -18t18.5 -44q0 -29 -18.5 -46t-46.5 -17z" />
<glyph unicode="/" horiz-adv-x="394" d="M88 -177q-4 -11 -13.5 -15.5t-18.5 -2.5q-11 2 -17.5 10t-4.5 19l270 851q4 11 13.5 16t19.5 3q11 -2 18 -11t5 -19z" />
<glyph unicode="0" horiz-adv-x="585" d="M531 256q0 -53 -15.5 -102.5t-45.5 -88t-74.5 -62t-102.5 -23.5q-61 0 -106 23t-74 61.5t-43.5 88.5t-14.5 103q0 54 14.5 103.5t43.5 87.5t74 60.5t106 22.5q58 0 102.5 -23t74.5 -61t45.5 -87.5t15.5 -102.5zM435 256q0 117 -37 177t-104 60q-69 0 -106 -60t-37 -177 t37 -178t106 -61q67 0 104 61t37 178z" />
<glyph unicode="1" horiz-adv-x="428" d="M74 441q-11 0 -14.5 7.5t-3.5 16.5q1 18 8 20t18 2q25 0 53 6t52 14t42.5 15.5t24.5 10.5q8 3 17 0.5t9 -21.5v-379q0 -33 6 -51.5t19.5 -27.5t36 -11t54.5 -2q11 0 18 -1t8 -19q0 -9 -3.5 -16.5t-14.5 -7.5q-18 1 -41.5 1.5t-47.5 1t-45 0.5h-34h-34t-44.5 -0.5l-47 -1 t-41.5 -1.5q-11 0 -14.5 7.5t-3.5 16.5q1 18 8 19t18 1q32 0 54.5 2t36 11t19.5 27.5t6 51.5v208q1 43 -3.5 64t-18 28.5t-37 7t-60.5 0.5z" />
<glyph unicode="2" horiz-adv-x="491" d="M60 408q0 32 17 55t43 38t58 22t62 7q33 0 66 -8t59 -26t42.5 -46.5t16.5 -69.5q0 -58 -31.5 -102t-76.5 -79.5t-95 -65t-86 -57.5v-5h268q20 0 34 -4.5t14 -30.5q0 -17 -8 -26.5t-27 -9.5h-335q-20 0 -27.5 9.5t-7.5 26.5q2 23 13 36t33 27q37 25 78.5 54t76.5 64.5 t58 78.5t23 97q0 48 -25.5 74.5t-71.5 26.5q-38 0 -64 -19t-26 -54q0 -13 5 -22.5t11.5 -16.5t11.5 -11t5 -5q0 -5 -12 -16t-34 -11q-32 0 -50 20t-18 49z" />
<glyph unicode="3" horiz-adv-x="487" d="M194 247q-8 0 -11.5 6t-3.5 14t3.5 15t11.5 8h37q40 4 63 35.5t23 74.5q0 40 -20 67.5t-69 27.5q-34 0 -59 -16.5t-25 -51.5q0 -13 5 -22.5t11.5 -15.5t11.5 -9.5t5 -4.5q0 -5 -12 -16t-34 -11q-33 0 -50.5 20.5t-17.5 50.5q0 29 15 50t39 34.5t53.5 20t59.5 6.5 q32 0 64 -6.5t57.5 -21.5t41 -40t15.5 -62q0 -39 -27.5 -76t-86.5 -53v-4q22 -2 46 -9t44.5 -21.5t34 -38.5t13.5 -60q0 -44 -17.5 -74t-46 -48.5t-66 -27t-77.5 -8.5q-30 0 -60.5 6t-56 19t-41.5 34.5t-16 52.5q0 26 16.5 48.5t51.5 22.5q22 0 34 -11t12 -16q0 -2 -5 -5 t-11.5 -9t-11.5 -15.5t-5 -23.5q0 -32 26.5 -49t68.5 -17q22 0 41.5 7t34.5 21t23.5 36.5t8.5 54.5q0 47 -25 77.5t-79 33.5h-37z" />
<glyph unicode="4" horiz-adv-x="496" d="M373 7q0 -9 -13.5 -14t-29.5 -5t-29 5t-15 14v153h-239q-17 0 -24.5 10.5t-7.5 24.5q0 13 7 22l281 307q6 6 14.5 8t16.5 2q14 0 26 -8t13 -27v-290h60q11 0 18.5 -2.5t8.5 -21.5q0 -10 -4 -17.5t-15 -7.5h-68v-153zM286 209v237l-213 -237h213z" />
<glyph unicode="5" horiz-adv-x="485" d="M129 258q-5 -4 -15.5 -10t-19.5 -6q-7 0 -10 4.5t-4.5 11t-1 13.5t0.5 11l31 238h255h18.5t15 -3t10.5 -10t5 -21q0 -14 -8 -25.5t-28 -11.5h-222l-21 -139q21 12 48.5 20t59.5 8q30 0 63 -10t60.5 -31t46 -54.5t18.5 -79.5q0 -45 -20 -79t-51.5 -57.5t-70.5 -35 t-76 -11.5q-14 0 -37.5 3t-48.5 12.5t-46 27t-28 47.5q-4 17 -1.5 34.5t11 32t23 23.5t33.5 9q22 0 34 -11t12 -16q0 -2 -5 -5.5t-11.5 -10.5t-11.5 -16.5t-5 -22.5q0 -17 7.5 -30t19.5 -22t26.5 -14t29.5 -5q29 0 51.5 12.5t37.5 33t23 45.5t8 51t-6 50t-19 42.5 t-34.5 30.5t-51.5 13q-25 1 -48.5 -9.5t-46.5 -26.5z" />
<glyph unicode="6" horiz-adv-x="509" d="M377 494q-97 -30 -149 -83t-69 -122q35 23 67 31.5t66 8.5q36 0 68 -12.5t55.5 -34.5t37 -52.5t13.5 -66.5q0 -42 -17.5 -75.5t-46 -57.5t-65.5 -37t-76 -13q-47 0 -85.5 15t-65.5 43.5t-42 69t-15 92.5q0 61 22.5 116t63 99t97 74.5t124.5 42.5q16 2 25.5 -0.5 t9.5 -16.5q0 -5 -3.5 -11.5t-14.5 -9.5zM370 154q0 60 -31 95t-81 35q-26 0 -53 -12.5t-50 -33.5q-2 -6 -4 -17t-2 -22q0 -26 5.5 -58.5t18 -61t34 -48t54.5 -19.5q47 0 78 39t31 103z" />
<glyph unicode="7" horiz-adv-x="426" d="M128 23q0 19 11 51t28.5 71t40 82t45 84t43 77.5t34.5 62.5h-175q-18 0 -30.5 -2t-21.5 -9t-14.5 -21t-8.5 -38q-2 -8 -6 -11.5t-17 -3.5q-17 0 -17 17l4 117q0 14 9 18t20 4h305q19 0 24.5 -7t3.5 -18t-8.5 -23.5t-12.5 -22.5q-30 -51 -56.5 -112.5t-49.5 -122 t-42 -114.5t-35 -90q-8 -18 -19 -25t-22 -7q-12 0 -22.5 10.5t-10.5 32.5z" />
<glyph unicode="8" horiz-adv-x="513" d="M161 404q0 -20 11.5 -36.5t31 -30.5t45.5 -26t54 -24q27 20 41.5 48.5t14.5 58.5q0 20 -6 38.5t-18.5 32.5t-31 22.5t-43.5 8.5q-47 0 -73 -26.5t-26 -65.5zM458 131q0 -30 -15 -57.5t-42.5 -48.5t-66 -33t-85.5 -12q-45 0 -81 11t-61.5 30.5t-39 46t-13.5 58.5 q0 46 30.5 78t86.5 56q-48 29 -70.5 59t-22.5 68q0 30 15.5 56.5t41.5 45.5t59.5 30t70.5 11q38 0 69.5 -10.5t54.5 -29t35.5 -43.5t12.5 -54q0 -73 -100 -124q66 -28 93.5 -59t27.5 -79zM368 113q0 23 -11.5 40.5t-32 32t-50 28.5t-65.5 30q-30 -20 -47.5 -49.5 t-17.5 -64.5q0 -52 31 -84.5t83 -32.5q51 0 80.5 28.5t29.5 71.5z" />
<glyph unicode="9" horiz-adv-x="508" d="M131 16q97 30 149 83t69 122q-35 -23 -67 -31.5t-66 -8.5q-36 0 -68 12.5t-55.5 34.5t-37 52.5t-13.5 66.5q0 42 17.5 75.5t46 57.5t65.5 37t76 13q47 0 85.5 -15t65.5 -43.5t42 -69t15 -92.5q0 -62 -22.5 -116.5t-63 -98.5t-97 -74.5t-124.5 -42.5q-16 -2 -25.5 0.5 t-9.5 16.5q0 5 3.5 11.5t14.5 9.5zM138 356q0 -60 31 -95t81 -35q26 0 53 12.5t50 33.5q2 6 4 17t2 22q0 26 -5.5 58.5t-18 61t-34 48t-54.5 19.5q-47 0 -78 -39t-31 -103z" />
<glyph unicode=":" horiz-adv-x="248" d="M124 429q28 0 45.5 -17.5t17.5 -45.5t-17.5 -45t-46.5 -17q-28 0 -45.5 17t-17.5 45t17.5 45.5t46.5 17.5zM123 -12q-27 0 -45 17.5t-18 46.5q0 26 18 43.5t46 17.5q29 0 46.5 -17.5t17.5 -43.5q0 -29 -18 -46.5t-47 -17.5z" />
<glyph unicode=";" horiz-adv-x="261" d="M128 426q28 0 45.5 -17.5t17.5 -45.5q0 -27 -17.5 -44.5t-46.5 -17.5q-26 0 -44.5 17.5t-18.5 44.5q0 28 19 45.5t45 17.5zM58 97q0 19 14.5 34.5t35.5 15.5q22 0 40.5 -10.5t32 -28t21 -38.5t7.5 -42q0 -31 -13.5 -55.5t-34.5 -42.5t-47.5 -30.5t-52.5 -19.5 q-8 -3 -13.5 0.5t-8 9.5t-1 12t9.5 9q42 16 63.5 37.5t21.5 51.5q0 18 -11.5 29t-26 20.5t-26 20t-11.5 27.5z" />
<glyph unicode="&#x3c;" horiz-adv-x="529" d="M49 232q-13 9 -13 25q0 7 3 14t10 11l392 206q8 2 12 2q13 0 18 -9.5t5 -19.5q0 -19 -18 -28l-334 -174v-3l334 -174q18 -11 18 -28q0 -10 -5 -20t-18 -10q-6 0 -12 3z" />
<glyph unicode="=" horiz-adv-x="630" d="M91 147q-11 0 -17 8.5t-6 18.5q0 11 6 19t17 8h448q11 0 17 -8t6 -19q0 -10 -6 -18.5t-17 -8.5h-448zM91 315q-11 0 -17 8.5t-6 18.5q0 11 6 19t17 8h448q11 0 17 -8t6 -19q0 -10 -6 -18.5t-17 -8.5h-448z" />
<glyph unicode="&#x3e;" horiz-adv-x="529" d="M88 27q-6 -3 -12 -3q-13 0 -18 10t-5 20q0 17 18 28l334 174v3l-334 174q-18 9 -18 28q0 10 5 19.5t18 9.5q4 0 12 -2l392 -206q7 -4 10 -11t3 -14q0 -16 -13 -25z" />
<glyph unicode="?" horiz-adv-x="435" d="M211 -12q-27 0 -45 17.5t-18 46.5q0 26 18 44.5t46 18.5t46 -18.5t18 -44.5q0 -29 -18 -46.5t-47 -17.5zM207 687q35 1 68 -6t58.5 -23.5t40.5 -43.5t15 -66q0 -28 -10.5 -50.5t-28 -42t-39 -35.5t-42.5 -30q-19 -13 -36.5 -26t-31.5 -27t-22.5 -30.5t-8.5 -35.5 t12.5 -31t26.5 -12q17 0 32 8.5t29 22.5q9 9 18 12t17 2q16 -2 25.5 -14t-3.5 -26q-22 -22 -49 -34t-52 -12q-23 0 -44 8.5t-37.5 24.5t-26.5 38.5t-10 51.5q0 23 9 41.5t24 34t33.5 28.5t38.5 25q19 12 37 24t32 26t22.5 30.5t8.5 37.5q0 39 -25.5 67t-75.5 27 q-15 0 -30.5 -4.5t-27.5 -13.5t-20 -22.5t-8 -30.5q0 -13 5 -22.5t11.5 -16.5t11.5 -11t5 -5q0 -5 -12 -16t-34 -11q-19 0 -33.5 9t-23 23.5t-11 32t1.5 34.5q7 30 28 47.5t46 27t48.5 12.5t37.5 3z" />
<glyph unicode="@" horiz-adv-x="878" d="M706 -30q7 4 12 1t7.5 -8.5t1.5 -12.5t-7 -11q-51 -36 -116.5 -58t-144.5 -22q-74 0 -147 22t-131 66.5t-94 112t-36 159.5q0 78 32 151.5t91 130.5t142 91.5t185 34.5q84 0 146.5 -24.5t104 -66t62.5 -95.5t21 -113q0 -55 -17.5 -103.5t-49 -85t-75 -57.5t-95.5 -21 q-42 0 -72 19t-34 57q-25 -34 -55.5 -54t-62.5 -20q-22 0 -42.5 7t-37 22t-26.5 39.5t-10 60.5q0 33 16.5 76t47.5 81t74 64t96 26q28 0 49.5 -12t29.5 -39l16 36q4 8 12 11t17 3q7 0 15.5 -2.5t15 -7.5t10 -12.5t1.5 -16.5l-84 -217q-6 -14 -8 -29t1.5 -27.5t13.5 -20.5 t28 -8q38 0 70.5 17.5t56.5 48.5t37.5 74.5t13.5 95.5t-18.5 97t-55 79t-91 53.5t-127.5 19.5q-64 0 -128 -23.5t-115 -69t-83 -111.5t-32 -151q0 -82 25 -143t68.5 -101.5t103 -60.5t128.5 -20q77 0 135 19.5t109 48.5zM554 339q-11 67 -65 67q-25 0 -50.5 -24t-46.5 -59.5 t-34 -76t-13 -73.5q0 -42 19.5 -54.5t45 -5.5t51 28t36.5 47z" />
<glyph unicode="A" d="M196 243h210l-101 257h-3zM236 637q31 0 54.5 -4.5t42 -15.5t33.5 -32t29 -54l168 -414q5 -13 11 -26.5t14 -24.5t19 -18.5t27 -7.5q11 0 17.5 -2t7.5 -19q0 -8 -4.5 -15t-13.5 -7q-32 2 -56 2.5t-54 0.5q-60 0 -124 -3q-10 0 -14 7t-4 15q1 17 7.5 19t17.5 2 q24 0 37 4.5t16.5 13.5t1 23.5t-10.5 35.5l-34 83h-247q-24 -61 -32 -83q-8 -26 -11 -41t3 -23t22.5 -10.5t45.5 -2.5q11 0 17.5 -2t7.5 -19q0 -8 -4.5 -15t-13.5 -7q-32 2 -55.5 2.5t-53.5 0.5h-26t-21.5 -0.5t-22 -1t-27.5 -1.5q-10 0 -14 7t-4 15q1 17 7.5 19t17.5 2 q20 0 32.5 6.5t21 17.5t14.5 25l12 28l175 414q7 18 5 29t-9.5 18t-19 10.5t-23.5 5.5q-15 3 -20 5.5t-5 17.5q0 17 11.5 18.5t28.5 1.5z" />
<glyph unicode="B" horiz-adv-x="621" d="M303 39q33 0 63 8t52 25.5t35 46.5t13 73q-2 24 -13 46t-33.5 39.5t-58.5 28t-89 10.5h-41v-199q0 -25 3.5 -40.5t11.5 -23.5t22 -11t35 -3zM231 594v-238h42q20 0 45.5 2t47.5 13t37 35t15 69q0 53 -25.5 86t-91.5 33h-70zM179 0q-30 0 -58.5 -0.5t-60.5 -2.5 q-10 0 -14 7t-4 15q1 17 7.5 19t17.5 2q24 0 37 6.5t19 17.5t7.5 25t1.5 28v397q0 14 -1.5 28t-7.5 25t-19 17.5t-37 6.5q-11 0 -17.5 2t-7.5 19q0 8 4 15t14 7q32 -2 60 -2.5t58 -0.5h141q58 0 91 -8.5t59 -24.5q26 -17 41 -46.5t15 -64.5q0 -34 -12.5 -59.5t-32.5 -43.5 t-44 -29t-46 -16v-3q40 0 73.5 -11.5t57.5 -31.5t38 -46t15 -55q1 -57 -25 -94t-66.5 -59t-89.5 -31t-94 -9z" />
<glyph unicode="C" horiz-adv-x="639" d="M596 510q0 -21 -6.5 -40.5t-19.5 -34.5t-32.5 -24t-43.5 -9q-15 0 -25.5 4.5t-17 10.5t-9 12t-2.5 9q0 2 8 6.5t17 13t17 22t8 33.5q0 45 -30 71.5t-85 26.5q-45 0 -83.5 -19.5t-66.5 -57t-43.5 -92t-15.5 -125.5q0 -60 16.5 -112.5t46.5 -91.5t72 -61.5t93 -22.5 q54 0 92 22t70 73q9 17 32 3q9 -6 14 -14.5t-2 -17.5q-29 -36 -54.5 -58.5t-53 -35t-60 -17t-74.5 -4.5q-63 0 -119 22.5t-98.5 65.5t-67 104.5t-24.5 138.5q0 76 23 139t65.5 107.5t103 69t135.5 24.5q36 0 75 -7t71.5 -23.5t53 -43.5t20.5 -67z" />
<glyph unicode="D" horiz-adv-x="728" d="M335 631q72 0 134.5 -21.5t109 -62.5t73.5 -100.5t27 -134.5q0 -80 -31.5 -139t-82.5 -97.5t-116 -57t-132 -18.5h-138q-30 0 -58 -0.5t-61 -2.5q-9 0 -13 7t-4 15q1 17 7.5 19t17.5 2q24 0 37 6.5t19 17.5t7.5 25t1.5 28v397q0 14 -1.5 28t-7.5 25t-19 17.5t-37 6.5 q-11 0 -17.5 2t-7.5 19q0 8 4 15t13 7q33 -2 61 -2.5t58 -0.5h156zM558 312q0 61 -16.5 113t-48 90t-78 59t-105.5 21q-8 0 -78 -1v-489q0 -41 24.5 -54.5t75.5 -13.5q61 0 104 20t70 56t39.5 86.5t12.5 112.5z" />
<glyph unicode="E" horiz-adv-x="594" d="M493 631q11 0 18.5 -5t7.5 -19l3 -140q0 -10 -9.5 -15t-17.5 -5q-11 0 -20 4.5t-11 13.5q-5 34 -11.5 57.5t-17 38.5t-27 22t-42.5 8h-134v-254h181q8 -1 11.5 -8t3.5 -15t-3.5 -14t-11.5 -6h-181v-189q1 -10 2 -21.5t7.5 -21.5t20.5 -16.5t40 -5.5h92q26 1 42.5 6.5 t27.5 19t19 35.5t18 55q4 10 13.5 13t20.5 1q8 -2 16.5 -7.5t7.5 -15.5l-20 -126q-3 -14 -9.5 -17.5t-19.5 -3.5h-330q-30 0 -58.5 -0.5t-61.5 -2.5q-9 0 -13 7t-4 15q1 17 7.5 19t17.5 2q24 0 37 6.5t19 17.5t7.5 25t1.5 28v397q0 14 -1.5 28t-7.5 25t-19 17.5t-37 6.5 q-11 0 -17.5 2t-7.5 19q0 8 4 15t13 7q33 -2 61 -2.5t58 -0.5h314z" />
<glyph unicode="F" horiz-adv-x="525" d="M133 514q0 14 -1.5 28t-7.5 25t-19 17.5t-37 6.5q-11 0 -17.5 2t-7.5 19q0 8 4 15t13 7q32 -2 60.5 -2.5t58.5 -0.5h289q11 0 18.5 -5t7.5 -19l3 -140q0 -10 -9.5 -15t-17.5 -5q-11 0 -20.5 4.5t-11.5 13.5q-5 34 -11 57.5t-16.5 38.5t-27 22t-42.5 8h-109v-260h179 q8 -1 12 -8t4 -15t-4 -14t-12 -6h-179v-171q0 -14 1.5 -28t7.5 -25t19 -17.5t37 -6.5q10 0 17 -2t8 -19q0 -8 -4 -15t-14 -7q-65 3 -124 3q-30 0 -59 -0.5t-61 -2.5q-9 0 -13 7t-4 15q1 17 7.5 19t17.5 2q24 0 37 6.5t19 17.5t7.5 25t1.5 28v397z" />
<glyph unicode="G" horiz-adv-x="692" d="M590 29q-29 -14 -55 -23.5t-52.5 -15t-56.5 -8t-67 -2.5q-63 0 -119.5 20t-99 61t-67 103t-24.5 147q0 76 25.5 139t72 107.5t110.5 69t141 24.5q35 0 72.5 -8t68.5 -25t51 -43.5t20 -64.5q0 -21 -6.5 -40.5t-18.5 -34.5t-30 -24t-40 -9q-19 0 -39.5 9.5t-21.5 26.5 q0 2 8 7t17 14t17 23t8 35q0 43 -33 68.5t-85 25.5q-46 0 -86 -19.5t-70 -57t-47 -92t-17 -125.5q0 -68 16.5 -121t46.5 -90.5t72 -57t93 -19.5q33 0 57 4t51 12v102q0 21 -0.5 35.5t-6 23.5t-17.5 13.5t-34 4.5q-11 0 -19 2t-9 19q0 8 5 15t16 7q16 -1 28.5 -1.5l25 -1 t26 -0.5h30.5h30t25 0.5t24.5 1t28.5 1.5q10 0 14.5 -7t4.5 -15q-1 -17 -9 -19t-19 -2q-21 0 -32.5 -5t-16.5 -14.5t-6 -24t-1 -33.5v-118z" />
<glyph unicode="H" horiz-adv-x="777" d="M232 294v-177q0 -14 1.5 -28t7.5 -25t19 -17.5t37 -6.5q11 0 17.5 -2t7.5 -19q0 -8 -4 -15t-14 -7q-65 3 -124 3q-30 0 -58.5 -0.5t-60.5 -2.5q-10 0 -14 7t-4 15q1 17 7.5 19t17.5 2q24 0 37 6.5t19 17.5t7.5 25t1.5 28v397q0 14 -1.5 28t-7.5 25t-19 17.5t-37 6.5 q-11 0 -17.5 2t-7.5 19q0 8 4 15t14 7q32 -2 60 -2.5t58 -0.5q60 0 125 3q10 0 14 -7t4 -15q-1 -17 -7.5 -19t-17.5 -2q-24 0 -37 -6.5t-19 -17.5t-7.5 -25t-1.5 -28v-177h314v177q0 14 -1.5 28t-7.5 25t-19 17.5t-37 6.5q-11 0 -18 2t-8 19q0 8 4.5 15t13.5 7q64 -3 125 -3 q30 0 58.5 0.5t60.5 2.5q9 0 13.5 -7t4.5 -15q-1 -17 -8 -19t-17 -2q-24 0 -37 -6.5t-19.5 -17.5t-8 -25t-1.5 -28v-397q0 -14 1.5 -28t8 -25t19.5 -17.5t37 -6.5q10 0 17 -2t8 -19q0 -8 -4.5 -15t-13.5 -7q-32 2 -61 2.5t-59 0.5q-60 0 -124 -3q-9 0 -13.5 7t-4.5 15 q1 17 8 19t18 2q24 0 37 6.5t19 17.5t7.5 25t1.5 28v177h-314z" />
<glyph unicode="I" horiz-adv-x="364" d="M231 117q0 -14 1.5 -28t7.5 -25t19 -17.5t37 -6.5q11 0 17.5 -2t8.5 -19q0 -8 -4.5 -15t-13.5 -7q-65 3 -124 3q-30 0 -59 -0.5t-61 -2.5q-10 0 -14 7t-4 15q1 17 8 19t17 2q24 0 37 6.5t19 17.5t7.5 25t2.5 28v397q-1 14 -2.5 28t-7.5 25t-19 17.5t-37 6.5q-10 0 -17 2 t-8 19q0 8 4 15t14 7q32 -2 60.5 -2.5t58.5 -0.5q60 0 125 3q9 0 13.5 -7t4.5 -15q-2 -17 -8.5 -19t-17.5 -2q-24 0 -37 -6.5t-19 -17.5t-7.5 -25t-1.5 -28v-397z" />
<glyph unicode="J" horiz-adv-x="345" d="M25 -192q-17 -3 -23 17q-5 19 10 25q39 16 61 42.5t33.5 65t14.5 89t3 115.5v352q0 14 -1.5 28t-7.5 25t-19 17.5t-37 6.5q-11 0 -18 2t-8 19q0 8 4.5 15t13.5 7q32 -2 60.5 -2.5t58.5 -0.5q60 0 125 3q9 0 13.5 -7t4.5 -15q-1 -17 -8 -19t-18 -2q-24 0 -37 -6.5 t-19 -17.5t-7.5 -25t-1.5 -28v-386q0 -60 -9.5 -112t-32.5 -94t-61 -71.5t-94 -42.5z" />
<glyph unicode="K" horiz-adv-x="700" d="M458 542q20 22 18.5 34t-27.5 14q-13 1 -14 21q0 9 5 16t13 7q26 -2 55 -2.5t55 -0.5q20 0 45.5 1t45.5 2q10 0 14.5 -7t4.5 -16q-2 -15 -7 -18t-13 -3q-38 2 -73.5 -12t-76.5 -55q-17 -18 -44.5 -46.5t-53.5 -55.5q-31 -32 -64 -67q59 -72 119.5 -131.5t103.5 -105.5 q17 -17 30 -30.5t25.5 -23t25.5 -15.5t30 -8q8 -1 16 -2.5t9 -18.5q0 -8 -4 -15t-14 -7q-16 1 -25.5 1.5t-18 1t-17.5 0.5h-24h-64q-55 61 -112.5 125.5t-123.5 141.5q-18 21 -33.5 29.5t-31.5 10.5v-190q0 -14 1.5 -28t7.5 -25t19 -17.5t37 -6.5q11 0 17.5 -2t7.5 -19 q0 -8 -4 -15t-14 -7q-65 3 -124 3q-30 0 -58.5 -0.5t-60.5 -2.5q-10 0 -14 7t-4 15q1 17 7.5 19t17.5 2q24 0 37 6.5t19 17.5t7.5 25t1.5 28v397q0 14 -1.5 28t-7.5 25t-19 17.5t-37 6.5q-11 0 -17.5 2t-7.5 19q0 9 4 15.5t14 6.5q32 -2 60 -2.5t58 -0.5q60 0 125 3 q10 0 14 -6t4 -16q-1 -15 -6.5 -18t-18.5 -3q-24 0 -37 -6.5t-19 -17.5t-7.5 -25t-1.5 -28v-181q17 4 39.5 20t45.5 36q38 35 74 75.5t67 77.5z" />
<glyph unicode="L" horiz-adv-x="571" d="M232 102q1 -10 2 -21t7.5 -20.5t20.5 -15.5t40 -5h90q26 1 42.5 6.5t27.5 19t19 35.5t18 55q4 10 13.5 13t20.5 1q8 -2 16.5 -7.5t7.5 -15.5l-20 -126q-3 -14 -9.5 -17.5t-19.5 -3.5h-328q-30 0 -58.5 -0.5t-61.5 -2.5q-9 0 -13 7t-4 15q1 15 7.5 18t17.5 3q24 0 37 6.5 t19 17.5t7.5 25t1.5 28v397q0 14 -1.5 28t-7.5 25t-19 17.5t-37 6.5q-11 0 -17.5 2.5t-7.5 18.5q0 10 4 16t13 6q33 -2 61 -2.5t58 -0.5q60 0 125 3q10 0 14 -7t4 -15q-1 -17 -8 -19t-17 -2q-24 0 -37 -6.5t-19 -17.5t-7.5 -25t-1.5 -28v-412z" />
<glyph unicode="M" horiz-adv-x="889" d="M448 5q-2 -5 -8 -7.5t-12 -2.5t-12 2.5t-9 7.5l-225 509h-3l2 -397q0 -14 1 -28t7 -25t18.5 -17.5t36.5 -6.5q11 0 17.5 -2t8.5 -19q0 -8 -4.5 -15t-13.5 -7q-16 1 -26.5 1.5t-20 1t-19.5 0.5h-25h-26.5t-22 -0.5t-22.5 -1t-28 -1.5q-10 0 -14 7t-4 15q1 17 7.5 19 t17.5 2q24 0 36.5 6.5t18.5 17.5t7 25t1 28l2 397q0 24 -4 38t-12.5 22t-21 12.5t-29.5 7.5q-14 3 -19.5 5t-5.5 18q0 17 11.5 18.5t28.5 1.5q37 0 67 -4.5t54.5 -15.5t43.5 -32t33 -54l172 -386h3l197 486h57q30 0 58.5 0.5t60.5 2.5q10 0 14 -7t4 -15q-1 -17 -8 -19 t-17 -2q-24 0 -37 -6.5t-19 -17.5t-7.5 -25t-1.5 -28v-397q0 -14 1.5 -28t7.5 -25t19 -17.5t37 -6.5q10 0 17 -2t8 -19q0 -8 -4 -15t-14 -7q-32 2 -61 2.5t-59 0.5q-59 0 -123 -3q-10 0 -14 7t-4 15q1 17 7.5 19t17.5 2q24 0 37 6.5t19 17.5t7.5 25t1.5 28v397h-3z" />
<glyph unicode="N" horiz-adv-x="737" d="M182 514h-3l2 -397q0 -14 1 -28t7 -25t18.5 -17.5t36.5 -6.5q11 0 18 -2t8 -19q0 -8 -4.5 -15t-13.5 -7q-16 1 -27.5 1.5t-22 1t-21.5 0.5h-26h-25.5t-20 -0.5t-20.5 -1t-27 -1.5q-10 0 -14 7t-4 15q1 17 7.5 19t17.5 2q24 0 36.5 6.5t18.5 17.5t7 25t1 28l2 397 q0 23 -4 37.5t-12 22.5t-20.5 12.5t-30.5 7.5q-15 3 -20 5.5t-5 17.5q0 17 11.5 18.5t28.5 1.5q42 0 71 -5t52 -17t43 -32.5t43 -51.5l274 -360h3l-2 343q0 14 -1 28t-7 25t-18.5 17.5t-36.5 6.5q-11 0 -17.5 2t-8.5 19q0 8 4.5 15t13.5 7q16 -1 27.5 -1.5t21.5 -1t21 -0.5 h26h25.5t20.5 0.5t21 1t27 1.5q10 0 14 -7t4 -15q-1 -17 -7.5 -19t-17.5 -2q-24 0 -36.5 -6.5t-18.5 -17.5t-7 -25t-1 -28l-2 -504q-1 -8 -9.5 -10.5t-15.5 -2.5q-19 0 -29 13z" />
<glyph unicode="O" horiz-adv-x="735" d="M366 651q75 0 134.5 -27t101 -72.5t64 -104.5t22.5 -122q0 -83 -29.5 -147t-76 -108t-104 -67t-112.5 -23q-74 0 -133 27t-100 72.5t-63.5 104.5t-22.5 123q0 83 29 147t75 108t103 66.5t112 22.5zM365 24q53 0 91.5 24.5t63.5 66t37 96t12 114.5q0 56 -12.5 107.5 t-38 90.5t-64 62t-89.5 23q-53 0 -91 -24t-62.5 -65t-36 -95t-11.5 -114q0 -57 12 -108.5t37 -91t63 -63t89 -23.5z" />
<glyph unicode="P" horiz-adv-x="604" d="M330 631q16 0 40.5 -1.5t52 -7.5t55.5 -18t51 -32t37 -49.5t14 -71.5q0 -47 -21.5 -85t-57 -65t-80 -41.5t-90.5 -14.5q-23 0 -48.5 3t-51.5 13v-144q0 -14 1.5 -28t7.5 -25t19 -17.5t37 -6.5q11 0 18 -2t8 -19q0 -8 -4.5 -15t-13.5 -7q-65 3 -125 3q-30 0 -58.5 -0.5 t-60.5 -2.5q-9 0 -13.5 7t-4.5 15q1 17 8 19t18 2q24 0 37 6.5t19 17.5t7.5 25t1.5 28v397q0 14 -1.5 28t-7.5 25t-19 17.5t-37 6.5q-11 0 -18 2t-8 19q0 8 4.5 15t13.5 7q32 -2 61 -2.5t59 -0.5h150zM231 301q10 -5 29 -8t42 -3t52 7t54.5 25t43 48.5t17.5 77.5 q0 51 -20.5 80t-49 44t-58 18.5t-47.5 3.5t-30.5 -2.5t-19.5 -10.5t-10 -23.5t-3 -40.5v-216z" />
<glyph unicode="Q" horiz-adv-x="735" d="M734 -150q19 2 27 12t8 23q0 23 -17.5 44t-48.5 22q-3 14 11 30t46 16q8 0 20 -4.5t23.5 -14t19.5 -25t8 -36.5q0 -23 -12.5 -44t-32 -37t-43.5 -25.5t-48 -10.5q-51 0 -87.5 16.5t-68 40.5t-64 51.5t-75.5 49.5q-18 9 -35.5 15t-40.5 11q-44 10 -84.5 24.5t-68.5 36.5 q-60 46 -92 115t-32 147q0 83 29 147t75 108t103 66.5t112 22.5q75 0 135 -27t101.5 -72.5t64 -104.5t22.5 -122q0 -57 -15.5 -107t-42.5 -90.5t-65 -70.5t-83 -48q-5 -2 -14.5 -4.5t-26.5 -3.5v-2q27 -3 49 -14q37 -18 69.5 -41.5t62 -44.5t57 -35t54.5 -14zM365 21 q53 0 92 25t64 67t37 97t12 115q0 56 -12.5 107.5t-38 90.5t-64 62t-90.5 23q-53 0 -91 -24t-62 -65t-35.5 -95t-11.5 -114q0 -57 12 -109t37 -92t62.5 -64t88.5 -24z" />
<glyph unicode="R" horiz-adv-x="671" d="M302 594q-21 0 -35 -3.5t-21.5 -13t-10.5 -25.5t-3 -41v-192h88q51 0 80.5 14.5t44.5 35.5t19.5 45.5t4.5 44.5q0 24 -8 48.5t-27 43.5t-51 31t-81 12zM418 301q38 -60 77 -120.5t90 -113.5q14 -11 27.5 -18t32.5 -9q8 -1 16 -2.5t9 -18.5q0 -8 -4 -15t-14 -7 q-16 1 -26.5 1.5t-19.5 1t-19 0.5h-25q-42 8 -70 28.5t-55 58.5q-28 38 -52 76.5t-47 76.5q-7 10 -13 18t-14 12.5t-20 7t-30 2.5h-29v-163q0 -14 1.5 -28t7.5 -25t19 -17.5t37 -6.5q10 0 17 -2t8 -19q0 -8 -4 -15t-14 -7q-65 3 -125 3q-30 0 -58 -0.5t-60 -2.5q-10 0 -14 7 t-4 15q1 17 7.5 19t17.5 2q24 0 37 6.5t19 17.5t7.5 25t1.5 28v396q0 14 -1.5 28t-7.5 25t-19 18t-37 7q-11 0 -17.5 2t-7.5 19q0 8 4 15t14 7q32 -2 60.5 -2.5t58.5 -0.5h172q61 -1 104 -15.5t70.5 -37t40.5 -51.5t13 -59q0 -27 -11 -52.5t-32 -47.5t-51 -39.5t-68 -27.5z " />
<glyph unicode="S" horiz-adv-x="545" d="M265 20q32 0 57.5 10t43 26t26.5 36.5t9 41.5q0 41 -25 68t-62 47t-80.5 38t-81.5 41.5t-63.5 57.5t-26.5 86q-1 47 15 81t45.5 55.5t69.5 32t86 10.5q33 0 67 -7t61 -22t44 -39t17 -58q0 -36 -24.5 -59.5t-63.5 -23.5q-26 2 -36.5 13.5t-10.5 17.5q0 2 7.5 4.5t16.5 8.5 t16.5 16.5t7.5 28.5q0 38 -29 58.5t-72 20.5q-33 0 -56.5 -8.5t-38.5 -22t-22 -31.5t-7 -37q0 -37 20 -60t60 -45q45 -24 91.5 -44t85 -46t63 -63t24.5 -96q0 -38 -18.5 -70.5t-50 -56t-74.5 -37t-91 -13.5q-105 0 -160.5 36t-55.5 108q0 36 24.5 59.5t63.5 23.5 q26 -2 36.5 -13.5t10.5 -17.5q0 -2 -5.5 -4.5t-12.5 -8.5t-12.5 -16.5t-5.5 -28.5q0 -45 27.5 -71.5t89.5 -26.5z" />
<glyph unicode="T" horiz-adv-x="600" d="M545 631q11 0 18.5 -5t7.5 -19l4 -141q0 -10 -8.5 -15t-16.5 -5q-11 0 -21.5 4.5t-12.5 13.5q-5 34 -11.5 58t-17 40t-27 23.5t-42.5 8.5h-68v-477q0 -14 1.5 -28t7.5 -25t19 -17.5t37 -6.5q10 0 17 -2t8 -19q0 -8 -4 -15t-14 -7q-32 2 -60.5 2.5t-57.5 0.5 q-61 0 -125 -3q-10 0 -14 7t-4 15q1 17 7.5 19t17.5 2q24 0 37 6.5t19 17.5t7.5 25t1.5 28v477h-69q-26 -1 -42.5 -8.5t-27 -23.5t-16.5 -40t-11 -58q-2 -9 -13 -13.5t-22 -4.5q-8 0 -16 5t-8 15l3 141q0 14 8 19t19 5h489z" />
<glyph unicode="U" horiz-adv-x="720" d="M600 178q0 -53 -23 -90.5t-58.5 -61.5t-78 -35t-81.5 -11q-60 0 -105.5 16.5t-75.5 43.5t-45.5 61.5t-15.5 71.5v341q0 14 -1.5 28t-7.5 25t-19 17.5t-37 6.5q-11 0 -17.5 2t-7.5 19q0 8 4 15t14 7q32 -2 60 -2.5t58 -0.5q60 0 125 3q10 0 14 -7t4 -15q-1 -15 -6 -18 t-14 -3q-26 0 -39.5 -6.5t-20.5 -17t-8.5 -24.5t-1.5 -29v-312q0 -26 5 -54.5t21.5 -52.5t48 -40t84.5 -16q51 0 83.5 13t51.5 34.5t26.5 48t7.5 53.5v263q0 49 -2.5 77t-10.5 42t-23.5 17.5t-40.5 3.5q-10 0 -17 2t-8 19q0 8 4 15t14 7q32 -2 57 -2.5t55 -0.5t55 0.5 t57 2.5q10 0 14 -7t4 -15q-1 -15 -6 -18t-14 -3q-27 0 -43.5 -3t-25 -16t-11 -40t-2.5 -75v-279z" />
<glyph unicode="V" horiz-adv-x="648" d="M498 542q11 32 1 40.5t-45 8.5q-11 0 -17.5 2t-7.5 19q0 8 4 15t13 7q32 -2 55.5 -2.5t53.5 -0.5h25.5t20.5 0.5t21 1t27 1.5q10 0 14 -7t4 -15q-1 -17 -7.5 -19t-17.5 -2q-38 0 -60 -14t-38 -54l-8.5 -22.5t-22 -59.5t-31 -85t-35.5 -98l-96 -268h-47q-54 147 -95 261 q-18 49 -35 95.5t-30.5 83t-21.5 58.5l-8 22q-8 20 -15.5 34.5t-16.5 24t-20.5 15.5t-27.5 9q-14 3 -19.5 5t-5.5 18q0 17 11.5 18.5t28.5 1.5q67 -1 103.5 -24.5t59.5 -80.5l145 -390h3z" />
<glyph unicode="W" horiz-adv-x="934" d="M33 593q-14 3 -19.5 5t-5.5 18q0 17 11.5 18.5t28.5 1.5q67 -1 103.5 -24.5t59.5 -80.5l114 -366h4l122 466h52l163 -466h3l113 377q8 32 -0.5 40.5t-43.5 8.5q-11 0 -17.5 2t-7.5 19q0 8 4 15t13 7q32 -2 55.5 -2.5t53.5 -0.5h25.5t20.5 0.5t21 1t27 1.5q10 0 14 -7 t4 -15q-1 -17 -7.5 -19t-17.5 -2q-38 0 -62.5 -14.5t-35.5 -53.5l-164 -533h-47l-162 477l-129 -477h-47l-166 520q-8 20 -15.5 34.5t-16.5 24t-20.5 15.5t-27.5 9z" />
<glyph unicode="X" d="M543 109q17 -25 37.5 -47t53.5 -22q11 0 17.5 -2t7.5 -19q0 -8 -4 -15t-13 -7q-32 2 -61 2.5t-59 0.5q-58 0 -122 -3q-10 0 -14 7t-4 15q1 17 8 19t17 2q30 0 38 15t-6 34l-128 183l-128 -183q-11 -16 -12 -25.5t5.5 -15t20 -7t30.5 -1.5q11 0 17.5 -2t7.5 -19 q0 -8 -4 -15t-13 -7q-32 2 -55.5 2.5t-53.5 0.5h-26.5t-23 -0.5t-23.5 -1t-28 -1.5q-10 0 -14 7t-4 15q1 17 7.5 19t17.5 2q19 0 32.5 3.5t25 11t22.5 20.5t25 33l145 206l-128 201q-25 38 -48 54.5t-55 23.5q-14 3 -19.5 5t-5.5 18q0 17 11.5 18.5t28.5 1.5q35 0 62.5 -5.5 t50 -18t41.5 -32.5t39 -48l82 -134l99 144q11 16 12 26t-6 15t-20 6.5t-30 1.5q-11 0 -17.5 2t-7.5 19q0 8 4 15t13 7q32 -2 55.5 -2.5t53.5 -0.5h26.5t23 0.5t23.5 1t28 1.5q10 0 14 -7t4 -15q-1 -17 -7.5 -19t-17.5 -2q-19 0 -33 -3.5t-25.5 -11t-22.5 -21t-24 -32.5 l-117 -166l174 -248v0z" />
<glyph unicode="Y" horiz-adv-x="621" d="M236 532q29 -54 52.5 -104.5t52.5 -104.5h3l111 219q9 17 9.5 26.5t-5.5 14.5t-18.5 6.5t-29.5 1.5q-11 0 -17.5 2t-7.5 19q0 8 4 15t13 7q32 -2 55.5 -2.5t53.5 -0.5h26.5t23 0.5t23.5 1t28 1.5q10 0 14 -7t4 -15q-1 -17 -7.5 -19t-17.5 -2q-38 0 -62 -16.5t-43 -51.5 l-113 -213q-7 -15 -12 -25t-8.5 -20t-5 -22t-1.5 -29v-97q0 -14 1.5 -28t7.5 -25t19 -17.5t37 -6.5q11 0 17.5 -2t7.5 -19q0 -8 -4 -15t-13 -7q-32 2 -61 2.5t-59 0.5q-60 0 -124 -3q-10 0 -14 7t-4 15q1 17 8 19t17 2q24 0 37 6.5t19 17.5t7.5 25t1.5 28v125q0 6 -7.5 25 t-19.5 45t-27 56t-29.5 58.5t-27 52t-19.5 36.5q-21 38 -46 54.5t-57 23.5q-14 3 -19.5 5t-5.5 18q0 17 11.5 18.5t28.5 1.5q35 0 63 -5t51 -17t42 -32t36 -50z" />
<glyph unicode="Z" horiz-adv-x="621" d="M358 515q13 28 17 43.5t-1.5 22.5t-19 8.5t-35.5 1.5h-109q-26 -1 -42 -6.5t-27 -19t-19.5 -35.5t-18.5 -55q-3 -10 -12.5 -13t-20.5 -1q-8 2 -15 7.5t-6 15.5l20 126q3 14 9.5 17.5t19.5 3.5h343q58 0 123 3q10 0 14 -7t4 -15q-1 -17 -7.5 -18.5t-17.5 -2.5 q-18 -1 -32 -8.5t-24.5 -18t-18 -23.5t-14.5 -26l-219 -415q-4 -9 -7 -19.5t0 -19.5t14.5 -15t37.5 -6h118q26 1 42.5 6.5t27.5 19t19.5 35.5t18.5 55q3 10 12.5 13t20.5 1q8 -2 15 -7.5t6 -15.5l-20 -126q-3 -14 -9.5 -17.5t-19.5 -3.5h-353q-30 0 -59 -0.5t-61 -2.5 q-9 0 -13.5 7t-4.5 15q2 17 8.5 19t17.5 2q12 0 21 2t17.5 8t16.5 18t19 32z" />
<glyph unicode="[" horiz-adv-x="310" d="M132 685q-10 0 -10 -12v-836q0 -12 10 -12h121q23 0 23 -21q0 -22 -23 -22h-144q-18 0 -30 2t-19 9.5t-10 21t-3 34.5v812q0 21 3 34.5t10 21t19 9.5t30 2h144q23 0 23 -22q0 -21 -23 -21h-121z" />
<glyph unicode="\" horiz-adv-x="394" d="M34 674q-2 10 5 19t18 11q10 2 19.5 -3t13.5 -16l270 -851q2 -11 -4.5 -19t-17.5 -10q-9 -2 -18.5 2.5t-13.5 15.5z" />
<glyph unicode="]" horiz-adv-x="310" d="M57 685q-23 0 -23 21q0 22 23 22h144q18 0 30 -2t19 -9.5t10 -21t3 -34.5v-812q0 -21 -3 -34.5t-10 -21t-19 -9.5t-30 -2h-144q-23 0 -23 22q0 21 23 21h121q10 0 10 12v836q0 12 -10 12h-121z" />
<glyph unicode="^" horiz-adv-x="505" d="M227 714q9 14 26 14q18 0 27 -14l186 -300q8 -15 -1.5 -24t-23.5 -10q-9 -1 -17.5 2.5t-13.5 11.5l-157 256l-157 -256q-5 -10 -13.5 -12.5t-17.5 -1.5q-14 1 -24 10.5t-1 23.5z" />
<glyph unicode="_" horiz-adv-x="668" d="M105 -123q-11 0 -17 8.5t-6 18.5q0 11 6 19t17 8h458q11 0 17 -8t6 -19q0 -10 -6 -18.5t-17 -8.5h-458z" />
<glyph unicode="`" horiz-adv-x="282" d="M50 637q-9 10 -9 23q0 15 13 28.5t31 13.5q23 0 36 -23l75 -137q4 -8 4 -14q0 -11 -7 -16.5t-17 -5.5q-13 0 -24 12z" />
<glyph unicode="a" horiz-adv-x="501" d="M223 436q-29 0 -53 -18t-24 -52q0 -12 5 -21.5t11 -15.5t11 -10t5 -5q0 -5 -11.5 -15t-31.5 -10q-32 0 -48.5 23t-16.5 51t14 47.5t36.5 31.5t51 17.5t57.5 5.5q34 0 67 -5.5t59 -21.5t42.5 -44.5t16.5 -74.5v-233q0 -8 2.5 -18t8.5 -19t16 -15.5t25 -6.5q7 0 11 -2.5 t4 -13.5q0 -7 -6 -11.5t-15 -7t-18.5 -3.5t-15.5 -1q-37 0 -66 21.5t-34 59.5q-11 -20 -31 -35t-43.5 -25.5t-48 -15.5t-45.5 -5q-26 0 -48.5 9.5t-39 25.5t-26.5 37.5t-10 46.5q0 36 17.5 61t44.5 41t60.5 25t66 13.5t60 6t43.5 3.5v79q0 47 -23 73.5t-80 26.5zM326 227 q-48 -6 -84 -14t-59.5 -20t-35.5 -30t-12 -43q0 -32 18 -55t47 -23q25 0 48 10t40.5 27t27.5 41t10 51v56z" />
<glyph unicode="b" horiz-adv-x="561" d="M78 590v25.5t-4.5 22t-15 15t-31.5 5.5q-9 0 -16.5 2.5t-7.5 17.5q0 6 4 11t12 7q34 5 56 10.5t36 10t22.5 7.5t16.5 4t13.5 -3t5.5 -16v-302h3q30 30 66.5 44t71.5 14q44 0 82.5 -17t67 -48t44.5 -74.5t16 -95.5q0 -51 -19 -95.5t-50.5 -77t-73 -51t-86.5 -18.5 q-89 0 -154 49h-5q-4 -8 -7 -16.5t-7 -16.5t-9 -13t-12 -5q-9 0 -14 6t-5 14v584zM418 226q0 35 -8 69t-25.5 60.5t-44.5 43t-65 16.5q-34 0 -60 -12t-46 -34v-264q2 -11 10 -25t22.5 -27t34.5 -22t46 -9q30 0 55 14t43 40.5t28 64.5t10 85z" />
<glyph unicode="c" horiz-adv-x="475" d="M411 113q7 10 21 2q7 -4 10 -11t-2 -14q-33 -48 -81.5 -75t-99.5 -27t-91.5 17t-68.5 48.5t-43 75.5t-15 98q2 52 20.5 95t50 74.5t74 49t90.5 19.5q13 0 36.5 -2t47 -10t43.5 -24.5t28 -46.5q4 -17 1.5 -34.5t-11 -32t-23 -23.5t-33.5 -9q-22 0 -34 11t-12 16q0 1 5 5 t11.5 11t11.5 16.5t5 22.5q0 32 -23 47t-52 16q-44 0 -70.5 -18.5t-40.5 -47.5t-18.5 -64t-4.5 -68q0 -41 9.5 -76.5t27.5 -61t44 -40t58 -14.5q44 0 74 18.5t55 56.5z" />
<glyph unicode="d" horiz-adv-x="580" d="M391 352q-4 12 -12.5 26t-22 25t-32 18.5t-42.5 7.5q-29 0 -54 -14t-44 -40.5t-29.5 -65t-10.5 -87.5q0 -36 8.5 -69t26 -58.5t44 -41t62.5 -15.5q38 0 63 15.5t43 34.5v264zM482 92q0 -29 18.5 -44t59.5 -15q11 0 14 -5.5t3 -10.5q0 -14 -17 -17l-159 -11q-8 0 -8.5 6 t-0.5 14v40h-3q-26 -26 -63 -43.5t-75 -17.5q-42 0 -80 17.5t-67 49t-46 75.5t-17 97q0 46 17 89t48 76t73 53t93 20q32 0 62.5 -7.5t53.5 -20.5h3v153v25.5t-4.5 22t-15 15t-31.5 5.5q-9 0 -16.5 2.5t-7.5 17.5q0 6 4 11t12 7q34 5 56 10.5t36 10t22.5 7.5t16.5 4t13.5 -3 t5.5 -16v-617z" />
<glyph unicode="e" horiz-adv-x="502" d="M306 278q24 0 38 9.5t16 32.5q0 21 -6 41t-18 35.5t-30 24.5t-42 9q-51 0 -84 -40t-37 -112h163zM461 93q-31 -49 -78 -77t-108 -28q-58 0 -102 19t-73 52t-44 77t-15 93q0 43 15.5 85.5t44.5 76t70 54t93 20.5q46 0 80.5 -12.5t58 -35t37 -53.5t16.5 -67 q0 -35 -19.5 -46t-50.5 -11h-243q0 -44 9 -81t28 -64t49 -42t72 -15t72 18t58 63q8 10 22 1q8 -5 10 -13t-2 -14z" />
<glyph unicode="f" horiz-adv-x="343" d="M116 490q0 50 12 92.5t35 73.5t58 49t80 19q23 0 45.5 -6.5t40.5 -19.5t29.5 -31t11.5 -41q0 -28 -17 -51.5t-49 -23.5q-21 0 -32.5 10.5t-11.5 15.5q0 2 5.5 6t11.5 11.5t11.5 18t5.5 25.5q0 22 -16.5 37.5t-41.5 15.5q-33 0 -50.5 -20.5t-25.5 -49.5t-9 -60.5t-1 -52.5 v-55h98q10 0 17 -1.5t8 -17.5q0 -8 -4.5 -14t-12.5 -6h-106v-311v-25.5t4.5 -22t15 -15t51.5 -5.5q10 0 16 -1.5t7 -16.5q0 -8 -3.5 -14t-11.5 -6q-49 2 -74 2.5t-51 0.5q-27 0 -51 -0.5t-53 -2.5q-8 0 -12 6t-4 14q1 15 7 16.5t16 1.5q21 0 31.5 5.5t15 15t4.5 22v25.5v311 h-67q-8 0 -12.5 6t-4.5 14q1 16 7.5 17.5t16.5 1.5h60v37z" />
<glyph unicode="g" horiz-adv-x="523" d="M401 414v-2q17 -17 29 -45t12 -53q0 -36 -16 -65t-42.5 -49t-60 -30.5t-67.5 -10.5h-44q-52 0 -75.5 -10t-23.5 -33q0 -18 12.5 -27.5t45.5 -11.5l137 -4q106 0 152 -32.5t46 -91.5q0 -40 -19 -71t-54.5 -52.5t-84.5 -32.5t-109 -11q-48 0 -87.5 6t-67 20t-42.5 37 t-15 57q0 33 21 58.5t56 25.5q12 0 21.5 -3.5t16.5 -8.5t11 -10t4 -8q0 -2 -4.5 -6t-10.5 -11t-10.5 -17.5t-4.5 -25.5q0 -47 34.5 -62t107.5 -15q68 0 108 25.5t40 79.5q0 24 -13.5 38.5t-35.5 22t-51 10t-60 3t-62 1.5t-57 6q-35 6 -58.5 23t-23.5 58q0 37 26 64.5 t80 27.5q-32 12 -52.5 27.5t-32.5 33t-17 36.5t-5 38q0 32 14 60t39.5 48.5t61 32.5t78.5 12q28 0 58.5 -4.5t52.5 -15.5l137 26q11 1 15 -7t4 -17q0 -14 -4 -26t-11 -12zM247 435q-45 0 -74 -31t-29 -88q0 -62 29.5 -95t74.5 -33q46 0 75 32.5t29 93.5q0 57 -29.5 89 t-75.5 32z" />
<glyph unicode="h" horiz-adv-x="589" d="M189 388h2q15 14 30 27.5t33.5 24.5t42 18t55.5 7q69 0 108.5 -41t39.5 -108v-213v-25.5t4.5 -22t15 -15t31.5 -5.5q10 0 16 -1.5t7 -16.5q0 -8 -3.5 -14t-11.5 -6q-29 2 -54 2.5t-51 0.5q-27 0 -51 -0.5t-53 -2.5q-8 0 -12 6t-4 14q1 15 7 16.5t16 1.5q21 0 31.5 5.5 t15 15t4.5 22v25.5v212q0 25 -8.5 43t-22 29.5t-30.5 17t-34 5.5q-26 0 -47 -7.5t-37 -18.5t-26 -22.5t-14 -20.5v-238v-25.5t4.5 -22t15 -15t31.5 -5.5q10 0 16 -1.5t7 -16.5q0 -8 -3.5 -14t-11.5 -6q-29 2 -54 2.5t-51 0.5q-27 0 -51 -0.5t-53 -2.5q-8 0 -12 6t-4 14 q1 15 7.5 16.5t15.5 1.5q21 0 31.5 5.5t15 15t5 22t0.5 25.5v488v25.5t-4.5 22t-15 15t-31.5 5.5q-9 0 -16.5 2.5t-7.5 17.5q0 6 4 11t12 7q34 5 56 10.5t36 10t22.5 7.5t16.5 4t13.5 -3t5.5 -16v-322z" />
<glyph unicode="i" horiz-adv-x="297" d="M144 591q-11 0 -22.5 3t-21 10.5t-16 19t-6.5 28.5q0 8 4.5 18.5t14 19.5t23.5 15t33 6q9 0 19 -3.5t18.5 -11t14 -19t5.5 -28.5q0 -21 -17 -39.5t-49 -18.5zM200 103v-25.5t4.5 -22t15.5 -15t32 -5.5q9 0 15.5 -1.5t7.5 -16.5q0 -8 -4 -14t-12 -6q-29 2 -53.5 2.5 t-51.5 0.5t-51 -0.5t-53 -2.5q-8 0 -12 6t-4 14q2 15 8 16.5t16 1.5q21 0 31.5 5.5t15 15t4.5 22v25.5v229v25.5t-4.5 22t-15 15t-31.5 5.5q-9 0 -16.5 2.5t-7.5 17.5q0 6 4 11t12 7q34 5 56 10.5t36 10t22.5 7.5t16.5 4t13.5 -3t5.5 -16v-348z" />
<glyph unicode="j" horiz-adv-x="266" d="M98 332v25.5t-4.5 22t-15 15t-31.5 5.5q-9 0 -16.5 2.5t-7.5 17.5q0 6 4 11t12 7q34 5 56 10.5t36 10t22.5 7.5t16.5 4t13.5 -3t5.5 -16v-352q0 -57 -9 -106.5t-30.5 -89.5t-57 -67.5t-88.5 -40.5q-8 -2 -12 1.5t-8 12.5q-2 8 -1 14.5t9 9.5q36 15 57.5 40.5t32 62.5 t13.5 85.5t3 109.5v201zM117 591q-11 0 -22.5 3t-21 10.5t-16 19t-6.5 28.5q0 8 4.5 18.5t14 19.5t23.5 15t33 6q9 0 19 -3.5t18.5 -11t14 -19t5.5 -28.5q0 -21 -17 -39.5t-49 -18.5z" />
<glyph unicode="k" horiz-adv-x="567" d="M189 252q22 5 40.5 14.5t31.5 22.5l84 86q6 7 13.5 15t8.5 15t-8.5 10.5t-37.5 2.5q-11 2 -12 18q0 8 4 14t12 6q23 -2 55 -2.5t55 -0.5q17 0 33.5 1t33.5 2q8 0 12 -6t4 -14q-1 -13 -5.5 -15.5t-11.5 -2.5q-39 0 -63 -14t-54 -45l-84 -86q12 -16 32 -39.5t42 -48.5 t42.5 -47.5t32.5 -36.5q29 -31 48.5 -47.5t48.5 -18.5q8 -1 15 -2.5t7 -15.5q0 -8 -3.5 -14t-12.5 -6q-14 1 -22.5 1.5t-20.5 1t-32.5 0.5h-57.5q-35 38 -80.5 90.5t-90.5 105.5q-11 11 -26 20.5t-33 7.5v-121v-25.5t4.5 -22t15 -15t31.5 -5.5q10 0 16 -1.5t8 -16.5 q0 -8 -4 -14t-12 -6q-29 2 -54 2.5t-51 0.5q-27 0 -51 -0.5t-53 -2.5q-8 0 -12 6t-4 14q1 15 7.5 16.5t15.5 1.5q21 0 31.5 5.5t15 15t5 22t0.5 25.5v487v25.5t-4.5 22t-15 15t-31.5 5.5q-9 0 -16.5 2.5t-7.5 17.5q0 6 4 11t12 7q34 5 56 10.5t36 10t22.5 7.5t16.5 4 t13.5 -3t5.5 -16v-457z" />
<glyph unicode="l" horiz-adv-x="286" d="M98 591v25.5t-4.5 22t-15 15t-31.5 5.5q-9 0 -16.5 2.5t-7.5 17.5q0 6 4 11t12 7q34 5 56 10.5t36 10t22.5 7.5t16.5 4t13.5 -3t5.5 -16v-607v-25.5t4.5 -22t15.5 -15t32 -5.5q9 0 15.5 -1.5t7.5 -16.5q0 -8 -4 -14t-12 -6q-29 2 -53.5 2.5t-51.5 0.5t-51 -0.5t-53 -2.5 q-8 0 -12 6t-4 14q1 15 7.5 16.5t15.5 1.5q21 0 31.5 5.5t15 15t5 22t0.5 25.5v488z" />
<glyph unicode="m" horiz-adv-x="896" d="M199 388h3q15 14 29 27.5t31 24.5t39.5 18t54.5 7q49 0 83.5 -20.5t51.5 -56.5h2q15 14 31 27.5t35.5 24.5t43.5 18t56 7q69 0 108.5 -41t39.5 -108v-213v-25.5t4.5 -22t15.5 -15t32 -5.5q9 0 15.5 -1.5t7.5 -16.5q0 -8 -4 -14t-12 -6q-29 2 -53.5 2.5t-51.5 0.5 t-51 -0.5t-53 -2.5q-8 0 -12 6t-4 14q1 15 7.5 16.5t15.5 1.5q21 0 31.5 5.5t15 15t5 22t0.5 25.5v212q0 25 -8.5 43t-22 29.5t-31 17t-34.5 5.5q-26 0 -46 -7.5t-34 -18.5t-23 -22.5t-13 -20.5v-238q0 -13 -0.5 -25.5t3.5 -22t14 -15t31 -5.5q10 0 16 -1.5t7 -16.5 q0 -8 -4 -14t-12 -6q-29 2 -52 2.5t-50 0.5q-26 0 -48.5 -0.5t-51.5 -2.5q-8 0 -12 6t-4 14q1 15 7 16.5t16 1.5q21 0 31 5.5t14 15t3.5 22t-0.5 25.5v212q0 25 -8.5 43t-22 29.5t-30.5 17t-34 5.5q-26 0 -46 -7.5t-34.5 -18.5t-23.5 -22.5t-13 -20.5v-238v-25.5t4.5 -22 t15.5 -15t32 -5.5q9 0 15.5 -1.5t7.5 -16.5q0 -8 -4 -14t-12 -6q-29 2 -53.5 2.5t-51.5 0.5t-51 -0.5t-53 -2.5q-8 0 -12 6t-4 14q1 15 7.5 16.5t15.5 1.5q21 0 31.5 5.5t15 15t5 22t0.5 25.5v229v25.5t-4.5 22t-15 15t-31.5 5.5q-9 0 -16.5 2.5t-7.5 17.5q0 6 4 11t12 7 q34 5 56 10.5t36 10t22 7.5t16 4t13.5 -3t5.5 -16v-63z" />
<glyph unicode="n" horiz-adv-x="599" d="M198 388h3q15 14 30 27.5t33.5 24.5t42 18t55.5 7q69 0 108.5 -41t39.5 -108v-213v-25.5t4.5 -22t15.5 -15t32 -5.5q9 0 15.5 -1.5t7.5 -16.5q0 -8 -4 -14t-12 -6q-29 2 -53.5 2.5t-51.5 0.5t-51 -0.5t-53 -2.5q-8 0 -12 6t-4 14q1 15 7.5 16.5t15.5 1.5q21 0 31.5 5.5 t15 15t5 22t0.5 25.5v212q0 25 -8.5 43t-22 29.5t-31 17t-34.5 5.5q-26 0 -47 -7.5t-36.5 -18.5t-26 -22.5t-14.5 -20.5v-238v-25.5t4.5 -22t15.5 -15t32 -5.5q9 0 15.5 -1.5t7.5 -16.5q0 -8 -4 -14t-12 -6q-29 2 -53.5 2.5t-51.5 0.5t-51 -0.5t-53 -2.5q-8 0 -12 6t-4 14 q2 15 8 16.5t16 1.5q21 0 31.5 5.5t15 15t4.5 22v25.5v229v25.5t-4.5 22t-15 15t-31.5 5.5q-9 0 -16.5 2.5t-7.5 17.5q0 6 4 11t12 7q34 5 56 10.5t36 10t22 7.5t16 4t13.5 -3t5.5 -16v-63z" />
<glyph unicode="o" horiz-adv-x="548" d="M274 465q52 0 95 -19.5t74 -51.5t47.5 -74t16.5 -87q0 -59 -22 -105t-55.5 -77t-75 -47t-80.5 -16q-53 0 -95.5 19.5t-73.5 51.5t-47.5 74t-16.5 87q0 59 21.5 105t55 77t75 47t81.5 16zM274 25q36 0 61 17t40.5 45.5t22.5 66t7 79.5q0 39 -7.5 74.5t-23 62.5t-40.5 42.5 t-60 15.5q-37 0 -62 -16.5t-40.5 -45t-22 -65.5t-6.5 -79q0 -39 7 -74.5t22.5 -63t40.5 -43.5t61 -16z" />
<glyph unicode="p" horiz-adv-x="584" d="M305 22q39 0 65 19.5t41.5 49.5t22 65.5t6.5 67.5q0 35 -8 69t-25.5 61t-44.5 44t-65 17t-63 -15.5t-45 -36.5v-268q5 -13 15 -26t25 -23.5t34 -17t42 -6.5zM191 403q28 26 67 44t75 18q45 0 83.5 -17.5t66.5 -49t43.5 -75t15.5 -96.5q0 -54 -19.5 -98.5t-51.5 -75.5 t-73 -48t-85 -17q-45 0 -72.5 9.5t-47.5 21.5h-4v-121q0 -13 0.5 -25.5t5.5 -22t15.5 -15t30.5 -5.5q9 0 15.5 -1.5t7.5 -16.5q0 -8 -4 -14t-12 -6q-29 2 -53.5 2.5t-51.5 0.5t-51 -0.5t-53 -2.5q-8 0 -12 6t-4 14q1 15 7.5 16.5t15.5 1.5q20 0 30.5 5.5t15.5 15t5.5 22 t0.5 25.5v434v25.5t-4.5 22t-15 15t-31.5 5.5q-9 0 -16.5 2.5t-7.5 17.5q0 6 4 11t12 7q34 5 56 10.5t36 10t22 7.5t16 4t13.5 -3t5.5 -16v-48h3z" />
<glyph unicode="q" horiz-adv-x="559" d="M390 355q-4 12 -12.5 25t-22 24.5t-33 18.5t-45.5 7q-29 0 -53.5 -14.5t-42.5 -41.5t-28.5 -65.5t-10.5 -86.5q0 -36 8 -69t25 -59t45 -41.5t67 -15.5q36 0 60.5 14t42.5 33v271zM482 -102q0 -13 0.5 -25.5t5 -22t15 -15t30.5 -5.5q10 0 16 -1.5t7 -16.5q0 -8 -4 -14 t-12 -6q-29 2 -53.5 2.5t-51.5 0.5q-26 0 -50.5 -0.5t-53.5 -2.5q-8 0 -11.5 6t-3.5 14q1 15 7 16.5t16 1.5q19 0 29.5 5.5t15.5 15t5.5 22t0.5 25.5v147h-3q-18 -20 -52.5 -38.5t-80.5 -18.5q-44 0 -82.5 17t-67.5 49t-46 77t-17 101q0 49 19 92t51 74t74 49t87 18 q29 0 51.5 -5t40 -12t30 -15t22.5 -13h5q4 7 8 17t9 18.5t11 14.5t14 6q9 0 14 -6t5 -14v-558z" />
<glyph unicode="r" horiz-adv-x="425" d="M108 332v25.5t-4.5 22t-15 15t-31.5 5.5q-9 0 -16.5 2.5t-7.5 17.5q0 6 4 11t12 7q34 5 56 10.5t36 10t22 7.5t16 4t13.5 -3t5.5 -16v-62h3q34 33 70 54.5t66 21.5q18 0 31.5 -7t22.5 -18.5t13.5 -26t4.5 -29.5q0 -13 -4 -25.5t-12 -23t-20 -17t-28 -6.5t-25.5 6.5 t-10.5 9.5q0 2 9.5 12t9.5 25q0 18 -9.5 29t-25.5 11q-17 0 -43.5 -17t-50.5 -41v-244v-25.5t4.5 -22t15.5 -15t32 -5.5q9 0 15.5 -1.5t7.5 -16.5q0 -8 -4 -14t-12 -6q-29 2 -53.5 2.5t-51.5 0.5t-51 -0.5t-53 -2.5q-8 0 -12 6t-4 14q2 15 8 16.5t16 1.5q21 0 31.5 5.5 t15 15t4.5 22v25.5v229z" />
<glyph unicode="s" horiz-adv-x="443" d="M218 -12q-39 0 -72 7t-57 20.5t-37.5 33.5t-13.5 46q0 29 17.5 47t45.5 18q18 0 29.5 -9.5t11.5 -13.5q0 -2 -3.5 -5t-8 -8.5t-8 -14t-3.5 -19.5q0 -29 26.5 -47t80.5 -18q47 0 73.5 20t26.5 58q0 30 -20 46t-50 27t-65 20t-65 25t-50 42t-20 70q0 33 16 58t42 41.5 t58 24.5t65 8q27 0 53.5 -6t47 -18t33 -29.5t12.5 -41.5q0 -26 -16 -45.5t-44 -19.5q-18 0 -29.5 9.5t-11.5 13.5q0 1 4.5 4.5t10 9t10 14t4.5 19.5q-1 14 -8.5 25t-19.5 18t-27 10.5t-31 3.5q-18 0 -35 -4.5t-30.5 -12.5t-21.5 -20.5t-8 -28.5q0 -22 7 -36t22 -24.5 t38.5 -19t56.5 -18.5q33 -11 60 -21.5t46.5 -25t30.5 -36t11 -52.5q0 -32 -14 -58.5t-38.5 -45.5t-58 -30t-73.5 -11z" />
<glyph unicode="t" horiz-adv-x="379" d="M188 414v-304q0 -15 3 -28.5t9.5 -24.5t17.5 -17.5t28 -6.5q11 0 24.5 1.5t30.5 9.5q4 2 8 3.5t8 1.5q8 0 12 -6.5t7 -13.5q3 -9 -5 -14q-31 -20 -57 -26t-58 -6q-23 0 -44 8.5t-38 25.5t-27 43.5t-10 61.5v294l-58 -2q-7 0 -10.5 5.5t-3.5 12.5q0 8 3.5 14.5t10.5 8.5 q28 5 45 16t28 25.5t18 33t14 38.5q3 8 8.5 10.5t13.5 2.5q6 0 13.5 -3t7.5 -11l-7 -114l117 7q9 1 12 -5t3 -14q0 -11 -3.5 -20.5t-8.5 -9.5z" />
<glyph unicode="u" horiz-adv-x="596" d="M494 95q0 -59 79 -59q11 0 14 -6t3 -13q0 -14 -17 -17l-161 -11q-8 0 -8.5 6t-0.5 14v56h-2q-15 -14 -30 -27.5t-33.5 -24.5t-42.5 -18t-55 -7q-69 0 -108.5 41t-39.5 108v185v25.5t-4.5 22t-15 15t-31.5 5.5q-9 0 -16.5 2.5t-7.5 17.5q0 6 4 11t12 7q34 5 56 10.5t36 10 t22.5 7.5t16.5 4t13.5 -3t5.5 -16v-303q0 -25 8.5 -43t22 -29.5t31 -17t34.5 -5.5q26 0 47 7.5t37 18.5t26 22.5t14 20.5v210v25.5t-4.5 22t-15 15t-31.5 5.5q-9 0 -16.5 2.5t-7.5 17.5q0 6 4 11t12 7q34 5 56 10.5t36 10t22.5 7.5t16.5 4t13.5 -3t5.5 -16v-346z" />
<glyph unicode="v" horiz-adv-x="551" d="M252 -10q-19 41 -37.5 89t-37 95.5t-36.5 91.5t-34 79q-8 18 -15.5 31t-16 21.5t-19 13t-25.5 6.5q-13 2 -17.5 3.5t-5.5 15.5q-1 17 9.5 18.5t25.5 2.5q61 3 96 -18t58 -71q10 -24 23 -56t26.5 -67t27.5 -69.5t28 -62.5h3l99 262q10 29 1 36t-39 7q-9 0 -15 1.5t-7 16.5 q0 6 3 13t11 7q29 -2 50 -2.5t47 -0.5h22t18 0.5t18.5 1t24.5 1.5q8 0 11.5 -7t3.5 -13q-1 -15 -7.5 -16.5t-14.5 -1.5q-33 0 -52.5 -12t-33.5 -47l-74 -184q-14 -35 -27.5 -68t-24.5 -59t-18 -42l-7 -16h-42z" />
<glyph unicode="w" horiz-adv-x="798" d="M290 109h3q7 21 15.5 50.5t18 62.5t19 68t18 66t15.5 56.5t11 40.5h48l137 -344h3q10 31 20 68.5t19 73.5t17 68.5t14 55.5q6 27 -2 35t-36 8q-9 0 -15 1.5t-7 16.5q0 6 3 13t11 7q29 -2 50.5 -2.5t47.5 -0.5h22.5t18 0.5t18.5 1t25 1.5q8 0 11.5 -7t3.5 -13 q-1 -15 -7.5 -16.5t-14.5 -1.5q-36 0 -56.5 -12t-29.5 -47l-111 -369h-59l-127 327l-99 -327h-59l-128 355q-8 18 -15.5 31t-16 21.5t-19 13t-25.5 6.5q-13 2 -17.5 3.5t-5.5 15.5q-1 17 9.5 18.5t25.5 2.5q61 3 96 -18t58 -71z" />
<glyph unicode="x" horiz-adv-x="541" d="M434 94q16 -23 35 -41t45 -18q9 0 15.5 -1.5t7.5 -16.5q0 -8 -4 -14t-12 -6q-29 2 -49 2.5t-47 0.5t-52 -0.5t-54 -2.5q-8 0 -12 6t-4 14q1 15 7.5 16.5t15.5 1.5q20 0 21 11.5t-14 31.5l-78 104l-86 -104q-21 -27 -15.5 -35t40.5 -8q9 0 15 -1.5t7 -16.5q0 -6 -3 -13 t-11 -7q-14 1 -24 1.5t-19 1t-18.5 0.5h-22.5h-22.5t-19 -0.5t-19.5 -1t-25 -1.5q-8 0 -11.5 7t-3.5 13q1 15 7.5 16.5t14.5 1.5q16 0 27 3.5t20 11t18.5 18.5t21.5 26q19 21 45.5 54t55.5 68l-114 161q-13 17 -27 26t-36 14q-13 2 -17.5 3.5t-5.5 15.5q-1 17 9.5 18.5 t25.5 2.5q102 5 148 -56q11 -14 29 -44.5t47 -68.5l67 87q9 13 14 21.5t3 13t-12 6.5t-30 2q-9 0 -15 1.5t-7 16.5q0 6 3 13t11 7q14 -1 24 -1.5t19 -1t18.5 -0.5h22.5h22.5t19 0.5t19.5 1t25 1.5q8 0 11.5 -7t3.5 -13q-1 -15 -7.5 -16t-14.5 -2q-15 -1 -25.5 -4t-19.5 -9.5 t-19 -17.5t-23 -28q-13 -15 -34.5 -43t-49.5 -62q33 -43 65.5 -85.5t56.5 -74.5z" />
<glyph unicode="y" horiz-adv-x="552" d="M296 -10q-13 -32 -31.5 -68t-43 -67.5t-55.5 -52t-69 -20.5q-22 0 -42 7.5t-35 20.5t-24 30t-9 36q1 27 12 41t23 20.5t21.5 7t7.5 0.5q19 0 29 -7.5t10 -12.5q0 -2 -7.5 -9.5t-8.5 -26.5q-1 -18 11 -35t37 -17q21 0 39 12.5t33.5 31t28 41.5t22.5 44q7 22 -1 46 q-18 40 -35.5 85t-34 89.5t-33 85.5t-31.5 73q-8 18 -15.5 31t-16 21.5t-19 13t-25.5 6.5q-13 2 -17.5 3.5t-5.5 15.5q-1 17 9.5 18.5t25.5 2.5q61 3 96 -18t58 -71q10 -24 22.5 -56t26 -67t27.5 -69.5t28 -62.5h3l98 262q10 29 1 36t-39 7q-9 0 -15 1.5t-7 16.5q0 6 3 13 t11 7q29 -2 50 -2.5t47 -0.5h22t18 0.5t18.5 1t24.5 1.5q8 0 11.5 -7t3.5 -13q-1 -15 -7.5 -16.5t-14.5 -1.5q-33 0 -52.5 -12t-33.5 -47l-74 -182q-14 -35 -27.5 -68t-24 -59t-17.5 -42.5t-7 -17.5z" />
<glyph unicode="z" horiz-adv-x="502" d="M310 32q24 0 40.5 4t28 16.5t18.5 35t12 60.5q1 8 10 12t20 4q8 0 15 -4.5t7 -13.5l-17 -123q-2 -15 -8 -19t-15 -4h-289h-22t-17 -0.5t-17.5 -1t-23.5 -1.5q-8 0 -12 6t-4 14q1 15 7 16.5t16 1.5q14 0 23.5 1.5t16.5 6.5t13.5 14.5t14.5 25.5l138 287q9 18 11 28.5 t-1.5 15.5t-12.5 6t-23 1h-42q-24 0 -40.5 -4t-28 -16.5t-18.5 -35.5t-12 -60q-1 -8 -10 -12t-20 -4q-8 0 -15 4.5t-7 13.5l17 123q2 15 8 19t15 4h274h22t17.5 0.5t17.5 1t24 1.5q8 0 12 -6t4 -14q-1 -15 -7.5 -16.5t-15.5 -1.5q-14 0 -23.5 -1.5t-17 -6.5t-14 -14.5 t-14.5 -25.5l-137 -287q-9 -18 -11 -28.5t1.5 -15.5t12.5 -6t23 -1h56z" />
<glyph unicode="{" horiz-adv-x="286" d="M249 -218q-24 1 -49.5 6t-46.5 19.5t-34.5 40.5t-13.5 68q0 27 1 57.5t2.5 61t3 60t1.5 54.5q0 13 -2 27t-10 26t-25 21t-48 12q-5 1 -8 7.5t-3 11.5t3 11.5t8 7.5q31 3 48 12t25 21t10 26t2 27q0 25 -1.5 54.5t-3 60t-2.5 60t-1 54.5q0 43 13 69.5t33.5 41.5t45.5 21 t49 7q8 0 13.5 -1t6.5 -15q0 -6 -3.5 -11t-11.5 -7q-26 -5 -41.5 -14t-23.5 -21.5t-10.5 -28t-2.5 -31.5q0 -25 2 -53.5t5 -58t5 -58t2 -53.5q0 -42 -19.5 -75.5t-67.5 -43.5v-4q47 -10 67 -43t20 -76q0 -26 -2 -54.5t-5 -57.5t-5 -56.5t-2 -51.5q0 -17 2.5 -32.5t10 -28.5 t22 -22t38.5 -14q8 -2 13.5 -3.5t6.5 -12.5q1 -7 -3 -12.5t-14 -5.5z" />
<glyph unicode="|" horiz-adv-x="212" d="M134 -195q0 -11 -9 -17t-19 -6q-11 0 -19.5 6t-8.5 17v900q0 11 8.5 17t19.5 6q10 0 19 -6t9 -17v-900z" />
<glyph unicode="}" horiz-adv-x="286" d="M37 -218q-10 0 -14 5.5t-3 12.5q1 11 6.5 12.5t13.5 3.5q24 5 38.5 14t22 22t10 28.5t2.5 32.5q0 24 -2 51.5t-5 56.5t-5 57.5t-2 54.5q0 43 20 76t67 43v4q-48 10 -67.5 43.5t-19.5 75.5q0 25 2 53.5t5 58t5 58t2 53.5q0 16 -2.5 31.5t-10.5 28t-23.5 21.5t-41.5 14 q-8 2 -11.5 7t-3.5 11q1 14 6.5 15t13.5 1q24 -1 49 -7t45.5 -21t33.5 -41.5t13 -69.5q0 -25 -1.5 -54.5t-3 -60t-2.5 -60t-1 -54.5q0 -13 1.5 -27t10 -26t25.5 -21t48 -12q5 -1 8 -7.5t3 -11.5t-3 -11.5t-8 -7.5q-31 -3 -48 -12t-25.5 -21t-10 -26t-1.5 -27q0 -25 1 -54.5 t2.5 -60l3 -61t1.5 -57.5q0 -42 -13.5 -68t-34.5 -40.5t-46.5 -19.5t-49.5 -6z" />
<glyph unicode="~" horiz-adv-x="556" d="M86 182q-5 -12 -12 -15t-16 0q-8 3 -12.5 8.5t-1.5 15.5q9 23 22.5 48t32.5 46t43 34.5t53 13.5q30 0 58 -10t54.5 -22.5t50.5 -22.5t45 -10q20 0 37.5 14.5t32.5 50.5q5 11 12 13t15 0t12.5 -7t1.5 -16q-7 -22 -20.5 -47t-32.5 -45.5t-43.5 -33.5t-53.5 -12 q-38 1 -65 11.5t-49 22.5t-41.5 21.5t-43.5 9.5q-32 0 -48 -20.5t-31 -47.5z" />
<glyph unicode="&#xa1;" horiz-adv-x="242" d="M122 465q27 0 45 -17.5t18 -46.5q0 -26 -18 -44.5t-46 -18.5t-46 18.5t-18 44.5q0 29 18 46.5t47 17.5zM97 232q0 8 7.5 11t16.5 3q8 0 16 -3.5t8 -10.5q0 -31 4.5 -74t10.5 -90.5t10.5 -95.5t4.5 -89q0 -51 -11.5 -84t-42.5 -33t-42.5 33t-11.5 84q0 41 4.5 89 t10.5 95.5t10.5 90.5t4.5 74z" />
<glyph unicode="&#xa2;" horiz-adv-x="490" d="M272 -52q0 -25 -22 -25q-12 0 -16.5 6.5t-4.5 18.5v42q-88 11 -136.5 74t-48.5 163q1 45 15.5 83t39 68t58 50.5t72.5 29.5v27q0 11 4.5 18t16.5 7q22 0 22 -25v-21h15q19 0 44.5 -3.5t48.5 -14.5t39.5 -31.5t16.5 -54.5q0 -29 -17.5 -53t-50.5 -24q-22 0 -34 11t-12 16 q0 1 5 5t11.5 11t11.5 16.5t5 22.5q0 32 -23 47t-52 16h-8v-390h13q45 0 74.5 18.5t54.5 56.5q4 5 10 5q7 0 14.5 -6t7.5 -14q0 -4 -3 -8q-32 -45 -77.5 -72t-93.5 -29v-41zM146 230q0 -63 21.5 -110.5t61.5 -68.5v368q-27 -10 -43 -30.5t-25 -46.5t-12 -55.5t-3 -56.5z" />
<glyph unicode="&#xa3;" horiz-adv-x="545" d="M64 0q-10 0 -15 7.5t-5 19.5q0 11 5 20t15 13q27 9 44.5 27.5t27.5 43t13.5 53t3.5 57.5h-53q-9 0 -14 5.5t-5 12.5t5 13.5t13 7.5h54q0 7 -1 19.5t-2.5 26t-2.5 27t-1 23.5q0 40 14 75t38.5 60.5t59 40t76.5 14.5q15 0 37.5 -3t44 -11.5t39.5 -25t25 -43.5 q4 -17 1.5 -34.5t-11 -32t-23 -23.5t-33.5 -9q-22 0 -34 11t-12 16q0 1 5 5t11.5 11t11.5 16.5t5 22.5q0 31 -20.5 46.5t-48.5 16.5q-13 0 -29.5 -4t-31.5 -15.5t-25.5 -33t-10.5 -56.5q0 -11 0.5 -30t1.5 -39.5t1.5 -39.5t0.5 -31h143q8 -1 13 -7.5t5 -13.5t-5 -12.5 t-14 -5.5h-142q0 -52 -24.5 -95.5t-72.5 -74.5h303q20 0 34 -4.5t14 -30.5q0 -17 -8 -26.5t-27 -9.5h-394z" />
<glyph unicode="&#xa4;" horiz-adv-x="608" d="M105 27q-8 -7 -16.5 -5t-15.5 10q-6 7 -6.5 16t5.5 15l65 64q-5 6 -12.5 18t-14.5 29t-12.5 38.5t-5.5 47.5q0 28 9.5 63.5t35.5 68.5q-17 15 -33 31.5t-33 33.5q-6 6 -5 15t7 16q7 8 15.5 10t16.5 -5l68 -69q7 6 18.5 14t27.5 15.5t37 13t47 5.5q28 0 49.5 -5.5t38 -13 t27.5 -16t17 -13.5l68 69q8 7 16.5 5t15.5 -10q6 -7 7 -16t-5 -15l-66 -65q26 -35 35.5 -69.5t9.5 -62.5q0 -29 -10 -64.5t-36 -68.5l66 -64q6 -6 5.5 -15t-6.5 -16q-7 -8 -15.5 -10t-16.5 5l-68 68q-18 -14 -37 -23.5t-37 -15t-33 -7.5t-25 -2q-26 0 -47 5.5t-37.5 13 t-28 16t-17.5 13.5zM139 260q0 -36 12.5 -67t35 -54.5t52 -37t64.5 -13.5q34 0 64.5 13.5t53.5 37t36 54.5t13 67q0 35 -13 66t-36 54t-53.5 36.5t-64.5 13.5q-35 0 -64.5 -13t-52 -36t-35 -54t-12.5 -67z" />
<glyph unicode="&#xa5;" horiz-adv-x="633" d="M359 103v-1q0 -12 1.5 -24t7 -21.5t16.5 -15.5t32 -6q9 0 15 -1.5t7 -17.5q0 -7 -3.5 -13t-11.5 -6q-29 2 -54 2.5t-52 0.5q-51 0 -108 -3q-9 0 -12.5 6t-3.5 13q1 16 7.5 17.5t14.5 1.5q21 0 32.5 6t17 15.5t6.5 21.5t1 24v1h-97q-9 0 -14 5.5t-5 12.5t5 13.5t13 7.5h98 v61h-97q-9 0 -14 5.5t-5 12.5t5 13.5t13 7.5h87q-10 21 -25.5 51.5t-32 61t-31.5 57t-23 40.5q-18 33 -39.5 47.5t-50.5 20.5q-13 2 -17.5 4t-4.5 16q0 15 10.5 16.5t24.5 1.5q61 0 100 -19t69 -73q26 -47 50.5 -91.5t49.5 -91.5h3l98 192q15 30 3 36.5t-42 6.5 q-9 0 -15 1.5t-7 17.5q0 7 3.5 13t11.5 6q29 -2 49.5 -2.5t46.5 -0.5h23t19.5 0.5t20.5 1t25 1.5q9 0 12.5 -6t3.5 -13q-1 -16 -7 -17.5t-15 -1.5q-34 0 -54.5 -14t-37.5 -45l-99 -187q-5 -10 -9 -17t-6 -13h89q8 -1 13 -7.5t5 -13.5t-5 -12.5t-14 -5.5h-97v-16v-45h98 q8 -1 13 -7.5t5 -13.5t-5 -12.5t-14 -5.5h-97z" />
<glyph unicode="&#xa6;" horiz-adv-x="212" d="M134 129v-324q0 -11 -9 -17t-19 -6q-11 0 -19.5 6t-8.5 17v324q0 11 8.5 17t19.5 6q10 0 19 -6t9 -17zM134 368q0 -11 -8.5 -17t-19.5 -6q-10 0 -19 6t-9 17v337q0 11 8.5 17t19.5 6q10 0 19 -6t9 -17v-337z" />
<glyph unicode="&#xa7;" horiz-adv-x="469" d="M193 538q5 -22 23.5 -51t43 -63.5t51.5 -74t50 -82.5t38 -88.5t15 -91.5q0 -51 -15.5 -95t-45 -76t-71.5 -50.5t-95 -18.5q-18 0 -38.5 5.5t-37.5 17t-28.5 30t-11.5 45.5q0 30 17.5 55.5t52.5 25.5q20 0 31 -8.5t13 -13.5q0 -2 -4.5 -6.5t-10 -11.5t-10 -16.5 t-4.5 -21.5q0 -15 6 -27t16 -19.5t22 -11.5t23 -4q28 0 42 17.5t14 40.5q0 25 -16.5 54t-41.5 65.5t-54.5 79t-54.5 88t-41.5 94t-16.5 97.5q0 62 20 105.5t52 70.5t73.5 39.5t83.5 12.5q18 0 38 -5.5t37.5 -17.5t29 -30.5t11.5 -44.5q0 -30 -17.5 -55.5t-52.5 -25.5 q-20 0 -31 8.5t-13 13.5q0 1 4.5 5.5t10 11.5t10 16.5t4.5 21.5q0 16 -6.5 27.5t-16 19.5t-21.5 12t-23 4q-27 0 -41.5 -16.5t-14.5 -39.5q0 -4 0.5 -8t1.5 -9zM139 564q-17 -28 -23.5 -60.5t-6.5 -61.5q0 -60 26.5 -123t62.5 -124.5t72.5 -121t56.5 -113.5q16 30 22.5 62 t6.5 60q0 62 -28 121t-65 118t-72.5 119t-51.5 124z" />
<glyph unicode="&#xa8;" horiz-adv-x="387" d="M114 667q26 0 43 -17t17 -43q0 -24 -17.5 -42t-43.5 -18t-44 18t-18 42q0 26 18.5 43t44.5 17zM287 667q26 0 43 -17t17 -43q0 -24 -17.5 -42t-43.5 -18t-44 18t-18 42q0 26 18.5 43t44.5 17z" />
<glyph unicode="&#xa9;" horiz-adv-x="828" d="M582 208q-26 -54 -66 -75.5t-100 -21.5q-38 0 -71.5 14t-59 39.5t-40.5 62.5t-15 84q0 46 14.5 83.5t40.5 64.5t62 41.5t79 14.5q10 0 31.5 -2.5t44 -11.5t40 -26t20.5 -46q0 -27 -16 -48t-45 -21q-23 0 -32 10.5t-9 15.5q0 3 5 7t11 9.5t11 13.5t5 20q0 23 -19 35 t-48 13q-54 -2 -86 -45t-32 -125q0 -35 9.5 -65t26.5 -52.5t41 -35.5t54 -13q42 0 67.5 22t39.5 51q8 14 17 14q8 0 15 -5.5t7 -12.5q0 -3 -2 -9zM751 174q-29 -66 -79.5 -116t-117 -79t-140.5 -29t-141 29t-117 79t-79.5 116.5t-29.5 142.5t29.5 142.5t79.5 116.5t117 79 t141 29t140.5 -29t117 -79t80 -116.5t29.5 -142.5t-30 -143zM541 17q59 26 103 70.5t69 103.5t25 126t-25 126t-69 103t-103 70t-127 26t-127 -26t-103 -70t-69 -103t-25 -126t25 -126t69 -103.5t103 -70t127 -25.5t127 25z" />
<glyph unicode="&#xaa;" horiz-adv-x="396" d="M248 464q-67 -9 -99 -23.5t-32 -50.5q0 -23 11.5 -38t31.5 -15q37 0 62.5 25t25.5 63v39zM246 488v53q0 30 -15.5 48t-53.5 18q-19 0 -35 -11.5t-16 -33.5q0 -13 7.5 -22t14.5 -14q0 -2 -8.5 -11.5t-23.5 -9.5q-24 0 -37 17t-13 38q0 20 10.5 34t27 22.5t37 12.5t40.5 4 q24 0 47 -3.5t42 -15t30.5 -32t11.5 -53.5v-162q0 -5 2 -12t5.5 -13t10 -10t16.5 -4q7 0 10.5 -2t3.5 -12q0 -6 -4.5 -9.5t-11 -6t-13.5 -3t-12 -0.5q-25 0 -45 13.5t-26 36.5q-9 -13 -22.5 -22.5t-30 -15.5t-33 -9t-31.5 -3q-38 0 -63.5 25t-25.5 61q0 34 21 54.5 t50.5 31.5t61.5 14.5t55 5.5z" />
<glyph unicode="&#xab;" horiz-adv-x="474" d="M402 394q7 3 14.5 -3t5.5 -17q-2 -8 -15 -31.5t-41 -60.5l-41 -48q42 -60 68.5 -93.5t28.5 -46.5q1 -15 -12.5 -17.5t-22.5 6.5q-31 32 -62 63.5t-72 65.5q-13 12 -13 23t13 22q19 18 44 41.5t47 44.5t38.5 35.5t19.5 15.5zM202 394q7 3 14.5 -3t5.5 -17q-2 -8 -15 -31.5 t-41 -60.5l-41 -48q42 -60 68.5 -93.5t28.5 -46.5q1 -15 -12.5 -17.5t-22.5 6.5q-31 32 -62 63.5t-72 65.5q-13 12 -13 23t13 22q19 18 44 41.5t47 44.5t38.5 35.5t19.5 15.5z" />
<glyph unicode="&#xac;" horiz-adv-x="632" d="M500 291q37 1 49.5 -12t12.5 -56v-122q0 -11 -9.5 -17t-19.5 -6q-11 0 -20.5 6t-9.5 17v124q0 12 -10 12h-403q-10 0 -16 7.5t-6 17.5t6 19.5t16 9.5h410v0z" />
<glyph unicode="&#xad;" horiz-adv-x="456" d="M85 209q-11 0 -17 8.5t-6 18.5q0 11 6 19t17 8h286q11 0 17 -8t6 -19q0 -10 -6 -18.5t-17 -8.5h-286z" />
<glyph unicode="&#xae;" horiz-adv-x="828" d="M472 286q10 -16 23 -37.5t28 -41.5t32.5 -35t37.5 -18q6 -1 12 -2.5t6 -14.5q0 -11 -10 -14.5t-21 -3.5q-35 0 -60 12.5t-44 33t-34.5 47t-33.5 54.5q-7 10 -15 15.5t-28 5.5h-13v-91q0 -19 5.5 -29.5t31.5 -12.5q6 0 11.5 -2t5.5 -15q0 -6 -3.5 -11.5t-11.5 -5.5 q-17 1 -28.5 1.5t-16.5 0.5h-29q-19 0 -36 -1t-33 -1q-11 0 -13 6.5t-2 13.5q0 12 8.5 13t18.5 2t18.5 8t8.5 32v7v231q-2 23 -10.5 29.5t-18.5 7t-17.5 2.5t-7.5 16q0 8 3 12t12 4q19 -1 35.5 -1h34.5h101q37 -1 63.5 -10t43 -23t24 -32t7.5 -36q0 -32 -25 -60t-70 -41z M390 472q-23 -1 -30.5 -9t-7.5 -35v-109h49q28 0 44.5 8t25.5 20t11.5 25.5t2.5 24.5q0 14 -4.5 27.5t-15.5 24.5t-29 17.5t-46 5.5zM47 316q0 76 29.5 142.5t79.5 116.5t117 79t141 29t140.5 -29t117 -79t80 -116.5t29.5 -142.5t-29.5 -142.5t-80 -116.5t-117 -79 t-140.5 -29t-141 29t-117 79t-79.5 116.5t-29.5 142.5zM90 316q0 -67 25 -126t69 -103.5t103 -70t127 -25.5t127 25.5t103 70t69 103.5t25 126t-25 126t-69 103t-103 70t-127 26t-127 -26t-103 -70t-69 -103t-25 -126z" />
<glyph unicode="&#xaf;" horiz-adv-x="604" d="M73 730q-11 0 -17 8.5t-6 18.5q0 11 6 19t17 8h458q11 0 17 -8t6 -19q0 -10 -6 -18.5t-17 -8.5h-458z" />
<glyph unicode="&#xb0;" horiz-adv-x="405" d="M203 633q37 0 67.5 -12.5t52.5 -33t34 -47t12 -55.5q0 -38 -15.5 -67t-40 -49t-54 -30.5t-56.5 -10.5q-38 0 -68.5 12.5t-52 33t-33.5 47t-12 55.5q0 38 15 67t39 49t53.5 30.5t58.5 10.5zM203 359q25 0 41.5 10t26.5 27.5t14.5 40t4.5 48.5q0 24 -4.5 45.5t-15 37 t-27 25t-40.5 9.5q-25 0 -42 -9.5t-27 -26.5t-14.5 -39.5t-4.5 -48.5q0 -24 4.5 -45.5t15 -38t27 -26t41.5 -9.5z" />
<glyph unicode="&#xb1;" horiz-adv-x="586" d="M262 479q0 11 10 18t22 7q11 0 21 -7t10 -18v-188h193q10 0 16 -8.5t6 -18.5t-6 -18.5t-16 -8.5h-193v-132q0 -11 -10 -18t-22 -7q-11 0 -21 7t-10 18v132h-194q-10 0 -16 8.5t-6 18.5t6 18.5t16 8.5h194v188zM69 0q-11 0 -17 8.5t-6 18.5q0 11 6 19t17 8h448q11 0 17 -8 t6 -19q0 -10 -6 -18.5t-17 -8.5h-448z" />
<glyph unicode="&#xb2;" horiz-adv-x="379" d="M58 545q0 23 12 40t30.5 27.5t40.5 15.5t43 5q24 0 47 -6t41.5 -18.5t30 -33t11.5 -49.5q0 -39 -20 -68t-49 -52.5t-62 -44t-60 -41.5h173q17 0 27 -4.5t10 -24.5q0 -12 -7 -20t-22 -8h-228q-15 0 -21.5 8t-6.5 20q0 17 9.5 27t23.5 19q25 16 53 36t52 44t39.5 53.5 t15.5 64.5q0 31 -16.5 48t-46.5 17q-24 0 -40 -12t-16 -33q0 -9 3.5 -15t7.5 -10t7.5 -7t3.5 -6q0 -5 -10 -13.5t-25 -8.5q-26 0 -38.5 14t-12.5 36z" />
<glyph unicode="&#xb3;" horiz-adv-x="359" d="M148 431q-8 0 -11 5.5t-3 12.5t3 13t11 6h26q25 3 39.5 23.5t14.5 48.5q0 26 -12.5 43t-43.5 17q-23 0 -39 -9.5t-16 -31.5q0 -8 3.5 -13.5t8 -10t8.5 -7.5t4 -6q0 -5 -10.5 -13t-26.5 -8q-25 0 -38 15t-13 37q0 21 10.5 36t28 25t39 14.5t42.5 4.5q22 0 44.5 -4.5 t40.5 -15.5t29 -29t11 -44q0 -25 -16 -49.5t-49 -39.5q15 -3 29.5 -9t26.5 -17t19 -27t7 -39q0 -31 -12 -52t-32.5 -34.5t-47 -19.5t-54.5 -6q-21 0 -43 4.5t-39.5 14t-29 25t-11.5 38.5q0 20 12 36t38 16q18 0 27 -10t9 -15q-2 -5 -12.5 -14t-10.5 -20q0 -20 17.5 -30.5 t44.5 -10.5q29 0 49 17.5t20 59.5q0 31 -15.5 51t-50.5 22h-26z" />
<glyph unicode="&#xb4;" horiz-adv-x="221" d="M85 518q-11 -12 -24 -12q-10 0 -17 5.5t-7 16.5q0 7 4 14l75 137q11 23 36 23q18 0 30.5 -13.5t12.5 -28.5q0 -14 -8 -23z" />
<glyph unicode="&#xb5;" horiz-adv-x="593" d="M148 -69q0 -32 4 -51t11.5 -29.5t18 -14t24.5 -3.5q18 0 32.5 9t19.5 20q4 10 3 19.5t-4 16.5t-5.5 11.5t-2.5 6.5q2 4 15 9.5t30 -1.5q15 -6 23.5 -17.5t11 -26t-0.5 -29.5t-11 -27q-11 -16 -29 -25.5t-38.5 -13t-40.5 -2.5t-36 6q-27 9 -43.5 24.5t-25 36t-11.5 44.5 t-3 50v487q0 14 15.5 20t31.5 6q12 0 28 -6t16 -20v-293q0 -25 8.5 -43t22 -29.5t31 -17t34.5 -5.5q26 0 47 7.5t37 18.5t26 22.5t14 20.5v319q0 14 15.5 20t31.5 6q12 0 28 -6t16 -20v-340q0 -25 11 -44t40 -19q8 0 11.5 -2.5t3.5 -13.5q0 -7 -6 -11.5t-15 -7t-18.5 -3.5 t-15.5 -1q-35 0 -64 20.5t-37 55.5h-3q-15 -16 -29.5 -29.5t-31.5 -24t-40 -16.5t-54 -6q-32 0 -57.5 12.5t-36.5 42.5h-2v-113z" />
<glyph unicode="&#xb6;" horiz-adv-x="542" d="M213 -153q-34 1 -66 17t-46 54q-5 17 -3.5 35t9 34t21 26.5t32.5 12.5q23 2 36 -7.5t15 -14.5q0 -2 -5 -6.5t-10.5 -12t-10 -18t-3.5 -23.5q1 -16 9 -27.5t19 -19t24 -10t25 -0.5q23 3 35.5 28.5t18.5 59t7 69.5t1 60v116q-45 -2 -92 7.5t-85 34t-62.5 66.5t-24.5 105 q0 36 12 71.5t42.5 63.5t82 45.5t130.5 17.5h159q11 0 20 -2t10 -22q0 -8 -5.5 -16t-15.5 -8h-110v-499q0 -36 -7 -78t-26 -78t-52 -59.5t-84 -21.5z" />
<glyph unicode="&#xb7;" horiz-adv-x="236" d="M117 210q-27 0 -45 17t-18 46q0 26 18 44t46 18q27 0 45.5 -18t18.5 -44q0 -29 -18.5 -46t-46.5 -17z" />
<glyph unicode="&#xb8;" horiz-adv-x="265" d="M90 0h49v-41q17 0 34.5 -3.5t31.5 -12t22.5 -21.5t8.5 -33q0 -26 -13.5 -44.5t-37.5 -30t-58 -17t-75 -5.5q-10 0 -15 7.5t-5 16.5q0 14 6 18t14 4q21 0 40.5 0.5t35.5 4t25.5 10.5t9.5 21q0 16 -15.5 22t-41.5 8q-5 1 -10.5 4t-5.5 19v73z" />
<glyph unicode="&#xb9;" horiz-adv-x="335" d="M68 565q-11 0 -13.5 6t-2.5 14q0 15 5.5 17.5t15.5 2.5q22 0 42.5 4.5t37 10.5t27.5 10.5t15 4.5q7 0 12 -4.5t5 -12.5v-262q0 -21 4 -33t13 -18t23.5 -7t35.5 -1q11 0 15.5 -2.5t4.5 -13.5q0 -8 -3 -14t-14 -6q-12 0 -28 0.5t-31.5 0.5t-30 0.5t-23.5 0.5t-23 -0.5 t-30 -0.5t-32 -0.5t-28 -0.5q-11 0 -14 6t-3 14q1 12 5.5 14t12.5 2q22 0 37 1t24 7t13 18t4 33v160q0 18 -3.5 28t-12.5 14.5t-23.5 5.5t-36.5 1z" />
<glyph unicode="&#xba;" horiz-adv-x="407" d="M204 633q37 0 67.5 -13.5t52.5 -36.5t34 -52.5t12 -61.5q0 -42 -15.5 -74.5t-40 -54.5t-54 -33.5t-56.5 -11.5q-38 0 -68.5 13.5t-52 36.5t-33.5 52.5t-12 61.5q0 42 15 74.5t39 54.5t53.5 33.5t58.5 11.5zM204 327q25 0 41.5 11.5t26.5 31t14.5 45t4.5 54.5 q0 27 -4.5 51t-15 42t-27 29t-40.5 11q-25 0 -42 -11.5t-27 -30.5t-14.5 -45t-4.5 -54q0 -27 4.5 -51t15 -42.5t27 -29.5t41.5 -11z" />
<glyph unicode="&#xbb;" horiz-adv-x="473" d="M72 394q3 -1 19.5 -15.5t38.5 -35.5t46.5 -44.5t44.5 -41.5q13 -11 13 -22t-13 -23q-41 -34 -72 -65.5t-62 -63.5q-5 -5 -11 -6.5t-11.5 0t-9.5 5.5t-3 12q2 13 28.5 46.5t68.5 93.5l-41 48q-28 37 -41 60.5t-15 31.5q-2 11 5.5 17t14.5 3zM272 394q3 -1 19.5 -15.5 t38.5 -35.5t46.5 -44.5t44.5 -41.5q13 -11 13 -22t-13 -23q-41 -34 -72 -65.5t-62 -63.5q-5 -5 -11 -6.5t-11.5 0t-9.5 5.5t-3 12q2 13 28.5 46.5t68.5 93.5l-41 48q-28 37 -41 60.5t-15 31.5q-2 11 5.5 17t14.5 3z" />
<glyph unicode="&#xbc;" horiz-adv-x="809" d="M309 14q-6 -10 -16.5 -13t-18.5 0q-11 4 -16 13t-1 19l298 584q6 11 16.5 13.5t19.5 -0.5q11 -4 16.5 -14t1.5 -19zM72 565q-11 0 -13.5 6t-2.5 14q0 15 5.5 17.5t15.5 2.5q22 0 42.5 4.5t37 10.5t27.5 10.5t15 4.5q7 0 12 -4.5t5 -12.5v-262q0 -21 4 -33t13 -18t23.5 -7 t35.5 -1q11 0 15.5 -2.5t4.5 -13.5q0 -8 -3 -14t-14 -6q-12 0 -28 0.5t-31.5 0.5t-30 0.5t-23.5 0.5t-23 -0.5t-30 -0.5t-32 -0.5t-28 -0.5q-11 0 -14 6t-3 14q1 12 5.5 14t12.5 2q22 0 37 1t24 7t13 18t4 33v160q0 18 -3.5 28t-12.5 14.5t-23.5 5.5t-36.5 1zM485 111 q-11 0 -20.5 5.5t-9.5 18.5q0 7 2 11l199 218q6 5 12 6.5t12 1.5q10 0 20 -6t11 -20v-195h37q9 0 14.5 -2.5t6.5 -16.5q0 -8 -3 -14.5t-14 -6.5h-41v-100q0 -8 -10.5 -12.5t-23.5 -4.5t-23 4.5t-11 12.5v100h-158zM643 151v150q-32 -38 -65 -74t-68 -76h133z" />
<glyph unicode="&#xbd;" horiz-adv-x="852" d="M307 14q-6 -10 -16.5 -13t-18.5 0q-11 4 -16 13t-1 19l298 584q6 11 16.5 13.5t19.5 -0.5q11 -4 16.5 -14t1.5 -19zM536 283q0 23 12 40t30.5 27.5t40.5 15.5t43 5q24 0 47 -6t41.5 -18.5t30 -33t11.5 -49.5q0 -39 -20 -68t-49 -52.5t-62 -44t-60 -41.5h173q17 0 27 -4.5 t10 -24.5q0 -12 -7 -20t-22 -8h-228q-15 0 -21.5 8t-6.5 20q0 17 9.5 27t23.5 19q25 16 53 36t52 44t39.5 53.5t15.5 64.5q0 31 -16.5 48t-46.5 17q-24 0 -40 -12t-16 -33q0 -9 3.5 -15t7.5 -10t7.5 -7t3.5 -6q0 -5 -10 -13.5t-25 -8.5q-26 0 -38.5 14t-12.5 36zM70 565 q-11 0 -13.5 6t-2.5 14q0 15 5.5 17.5t15.5 2.5q22 0 42.5 4.5t37 10.5t27.5 10.5t15 4.5q7 0 12 -4.5t5 -12.5v-262q0 -21 4 -33t13 -18t23.5 -7t35.5 -1q11 0 15.5 -2.5t4.5 -13.5q0 -8 -3 -14t-14 -6q-12 0 -28 0.5t-31.5 0.5t-30 0.5t-23.5 0.5t-23 -0.5t-30 -0.5 t-32 -0.5t-28 -0.5q-11 0 -14 6t-3 14q1 12 5.5 14t12.5 2q22 0 37 1t24 7t13 18t4 33v160q0 18 -3.5 28t-12.5 14.5t-23.5 5.5t-36.5 1z" />
<glyph unicode="&#xbe;" horiz-adv-x="852" d="M324 14q-6 -10 -16.5 -13t-18.5 0q-11 4 -16 13t-1 19l298 584q6 11 16.5 13.5t19.5 -0.5q11 -4 16.5 -14t1.5 -19zM530 111q-11 0 -20.5 5.5t-9.5 18.5q0 7 2 11l199 218q6 5 12 6.5t12 1.5q10 0 20 -6t11 -20v-195h37q9 0 14.5 -2.5t6.5 -16.5q0 -8 -3 -14.5t-14 -6.5 h-41v-100q0 -8 -10.5 -12.5t-23.5 -4.5t-23 4.5t-11 12.5v100h-158zM688 151v150q-32 -38 -65 -74t-68 -76h133zM153 431q-8 0 -11 5.5t-3 12.5t3 13t11 6h26q25 3 39.5 23.5t14.5 48.5q0 26 -12.5 43t-43.5 17q-23 0 -39 -9.5t-16 -31.5q0 -8 3.5 -13.5t8 -10t8.5 -7.5 t4 -6q0 -5 -10.5 -13t-26.5 -8q-25 0 -38 15t-13 37q0 21 10.5 36t28 25t39 14.5t42.5 4.5q22 0 44.5 -4.5t40.5 -15.5t29 -29t11 -44q0 -25 -16 -49.5t-49 -39.5q15 -3 29.5 -9t26.5 -17t19 -27t7 -39q0 -31 -12 -52t-32.5 -34.5t-47 -19.5t-54.5 -6q-21 0 -43 4.5 t-39.5 14t-29 25t-11.5 38.5q0 20 12 36t38 16q18 0 27 -10t9 -15q-2 -5 -12.5 -14t-10.5 -20q0 -20 17.5 -30.5t44.5 -10.5q29 0 49 17.5t20 59.5q0 31 -15.5 51t-50.5 22h-26z" />
<glyph unicode="&#xbf;" horiz-adv-x="432" d="M103 220q22 22 49 34t52 12q22 0 43.5 -8.5t38 -24.5t26.5 -39t10 -51q0 -23 -9 -41.5t-24 -34t-34 -28.5t-38 -25t-37 -24t-32 -26t-22.5 -30.5t-8.5 -37.5q0 -37 24.5 -64.5t66.5 -27.5q16 0 33 5t30.5 14.5t22 23.5t8.5 32q0 20 -11 32t-19 19q-7 5 -7 7 q0 5 13.5 16.5t38.5 11.5q21 0 37 -9.5t26 -24.5t12.5 -33.5t-1.5 -36.5q-8 -31 -31.5 -50t-51 -29t-53.5 -13t-41 -3q-56 0 -90 15t-52.5 37t-24.5 45.5t-6 41.5q0 28 10.5 50.5t28 42t39 35.5t42.5 30q19 13 36.5 26t31.5 27t22.5 30.5t8.5 35.5t-12.5 31t-26.5 12 q-17 0 -32 -8.5t-29 -22.5q-9 -9 -18 -12t-17 -2q-17 1 -26 13.5t4 26.5zM219 465q27 0 45 -17.5t18 -46.5q0 -26 -18 -44.5t-46 -18.5t-46 18.5t-18 44.5q0 29 18 46.5t47 17.5z" />
<glyph unicode="&#xc0;" d="M196 243h210l-101 257h-3zM236 637q31 0 54.5 -4.5t42 -15.5t33.5 -32t29 -54l168 -414q5 -13 11 -26.5t14 -24.5t19 -18.5t27 -7.5q11 0 17.5 -2t7.5 -19q0 -8 -4.5 -15t-13.5 -7q-32 2 -56 2.5t-54 0.5q-60 0 -124 -3q-10 0 -14 7t-4 15q1 17 7.5 19t17.5 2 q24 0 37 4.5t16.5 13.5t1 23.5t-10.5 35.5l-34 83h-247q-24 -61 -32 -83q-8 -26 -11 -41t3 -23t22.5 -10.5t45.5 -2.5q11 0 17.5 -2t7.5 -19q0 -8 -4.5 -15t-13.5 -7q-32 2 -55.5 2.5t-53.5 0.5h-26t-21.5 -0.5t-22 -1t-27.5 -1.5q-10 0 -14 7t-4 15q1 17 7.5 19t17.5 2 q20 0 32.5 6.5t21 17.5t14.5 25l12 28l175 414q7 18 5 29t-9.5 18t-19 10.5t-23.5 5.5q-15 3 -20 5.5t-5 17.5q0 17 11.5 18.5t28.5 1.5zM282 673q-20 10 -47.5 25.5t-53 32t-43 32.5t-17.5 29q0 14 12.5 26t24.5 12t38 -18.5t52.5 -42t47 -45.5t20.5 -29q0 -9 -7.5 -16.5 t-17.5 -7.5q-6 0 -9 2z" />
<glyph unicode="&#xc1;" d="M196 243h210l-101 257h-3zM236 637q31 0 54.5 -4.5t42 -15.5t33.5 -32t29 -54l168 -414q5 -13 11 -26.5t14 -24.5t19 -18.5t27 -7.5q11 0 17.5 -2t7.5 -19q0 -8 -4.5 -15t-13.5 -7q-32 2 -56 2.5t-54 0.5q-60 0 -124 -3q-10 0 -14 7t-4 15q1 17 7.5 19t17.5 2 q24 0 37 4.5t16.5 13.5t1 23.5t-10.5 35.5l-34 83h-247q-24 -61 -32 -83q-8 -26 -11 -41t3 -23t22.5 -10.5t45.5 -2.5q11 0 17.5 -2t7.5 -19q0 -8 -4.5 -15t-13.5 -7q-32 2 -55.5 2.5t-53.5 0.5h-26t-21.5 -0.5t-22 -1t-27.5 -1.5q-10 0 -14 7t-4 15q1 17 7.5 19t17.5 2 q20 0 32.5 6.5t21 17.5t14.5 25l12 28l175 414q7 18 5 29t-9.5 18t-19 10.5t-23.5 5.5q-15 3 -20 5.5t-5 17.5q0 17 11.5 18.5t28.5 1.5zM260 673q-3 -2 -9 -2q-11 0 -18 7.5t-7 16.5q0 7 10 17.5t25.5 25.5t34 32t36 31t31.5 21.5t21 7.5q12 0 24.5 -12t12.5 -26 q0 -15 -17.5 -30t-43 -30.5t-53 -32t-47.5 -26.5z" />
<glyph unicode="&#xc2;" d="M196 243h210l-101 257h-3zM236 637q31 0 54.5 -4.5t42 -15.5t33.5 -32t29 -54l168 -414q5 -13 11 -26.5t14 -24.5t19 -18.5t27 -7.5q11 0 17.5 -2t7.5 -19q0 -8 -4.5 -15t-13.5 -7q-32 2 -56 2.5t-54 0.5q-60 0 -124 -3q-10 0 -14 7t-4 15q1 17 7.5 19t17.5 2 q24 0 37 4.5t16.5 13.5t1 23.5t-10.5 35.5l-34 83h-247q-24 -61 -32 -83q-8 -26 -11 -41t3 -23t22.5 -10.5t45.5 -2.5q11 0 17.5 -2t7.5 -19q0 -8 -4.5 -15t-13.5 -7q-32 2 -55.5 2.5t-53.5 0.5h-26t-21.5 -0.5t-22 -1t-27.5 -1.5q-10 0 -14 7t-4 15q1 17 7.5 19t17.5 2 q20 0 32.5 6.5t21 17.5t14.5 25l12 28l175 414q7 18 5 29t-9.5 18t-19 10.5t-23.5 5.5q-15 3 -20 5.5t-5 17.5q0 17 11.5 18.5t28.5 1.5zM258 813q13 9 24 9q12 0 24 -9l127 -93q8 -7 8 -18q0 -7 -4 -12t-12 -5h-3q-32 8 -68.5 27.5t-71.5 37.5q-35 -18 -71.5 -37.5 t-68.5 -27.5h-3q-8 0 -12.5 5t-4.5 12q0 10 9 18z" />
<glyph unicode="&#xc3;" d="M196 243h210l-101 257h-3zM236 637q31 0 54.5 -4.5t42 -15.5t33.5 -32t29 -54l168 -414q5 -13 11 -26.5t14 -24.5t19 -18.5t27 -7.5q11 0 17.5 -2t7.5 -19q0 -8 -4.5 -15t-13.5 -7q-32 2 -56 2.5t-54 0.5q-60 0 -124 -3q-10 0 -14 7t-4 15q1 17 7.5 19t17.5 2 q24 0 37 4.5t16.5 13.5t1 23.5t-10.5 35.5l-34 83h-247q-24 -61 -32 -83q-8 -26 -11 -41t3 -23t22.5 -10.5t45.5 -2.5q11 0 17.5 -2t7.5 -19q0 -8 -4.5 -15t-13.5 -7q-32 2 -55.5 2.5t-53.5 0.5h-26t-21.5 -0.5t-22 -1t-27.5 -1.5q-10 0 -14 7t-4 15q1 17 7.5 19t17.5 2 q20 0 32.5 6.5t21 17.5t14.5 25l12 28l175 414q7 18 5 29t-9.5 18t-19 10.5t-23.5 5.5q-15 3 -20 5.5t-5 17.5q0 17 11.5 18.5t28.5 1.5zM456 780q-7 -16 -17 -31.5t-23.5 -28t-30.5 -20t-37 -7.5q-21 0 -40 9t-35.5 20t-31.5 20t-28 9q-12 0 -29.5 -9.5t-36.5 -32.5 q-7 -8 -17 -8q-7 0 -12.5 5t-5.5 12q0 9 11.5 30.5t27 36.5t34.5 24t39 9q21 0 40 -9t35.5 -20t31.5 -20t28 -9q12 0 30 10t36 32q7 8 16 8q7 0 12.5 -5t5.5 -14q0 -5 -3 -11z" />
<glyph unicode="&#xc4;" d="M196 243h210l-101 257h-3zM236 637q31 0 54.5 -4.5t42 -15.5t33.5 -32t29 -54l168 -414q5 -13 11 -26.5t14 -24.5t19 -18.5t27 -7.5q11 0 17.5 -2t7.5 -19q0 -8 -4.5 -15t-13.5 -7q-32 2 -56 2.5t-54 0.5q-60 0 -124 -3q-10 0 -14 7t-4 15q1 17 7.5 19t17.5 2 q24 0 37 4.5t16.5 13.5t1 23.5t-10.5 35.5l-34 83h-247q-24 -61 -32 -83q-8 -26 -11 -41t3 -23t22.5 -10.5t45.5 -2.5q11 0 17.5 -2t7.5 -19q0 -8 -4.5 -15t-13.5 -7q-32 2 -55.5 2.5t-53.5 0.5h-26t-21.5 -0.5t-22 -1t-27.5 -1.5q-10 0 -14 7t-4 15q1 17 7.5 19t17.5 2 q20 0 32.5 6.5t21 17.5t14.5 25l12 28l175 414q7 18 5 29t-9.5 18t-19 10.5t-23.5 5.5q-15 3 -20 5.5t-5 17.5q0 17 11.5 18.5t28.5 1.5zM190 821q26 0 43 -17t17 -43q0 -24 -17.5 -42t-43.5 -18t-44 18t-18 42q0 26 18.5 43t44.5 17zM382 821q26 0 43 -17t17 -43 q0 -24 -17.5 -42t-43.5 -18t-44 18t-18 42q0 26 18.5 43t44.5 17z" />
<glyph unicode="&#xc5;" d="M196 243h210l-101 257h-3zM236 637q31 0 54.5 -4.5t42 -15.5t33.5 -32t29 -54l168 -414q5 -13 11 -26.5t14 -24.5t19 -18.5t27 -7.5q11 0 17.5 -2t7.5 -19q0 -8 -4.5 -15t-13.5 -7q-32 2 -56 2.5t-54 0.5q-60 0 -124 -3q-10 0 -14 7t-4 15q1 17 7.5 19t17.5 2 q24 0 37 4.5t16.5 13.5t1 23.5t-10.5 35.5l-34 83h-247q-24 -61 -32 -83q-8 -26 -11 -41t3 -23t22.5 -10.5t45.5 -2.5q11 0 17.5 -2t7.5 -19q0 -8 -4.5 -15t-13.5 -7q-32 2 -55.5 2.5t-53.5 0.5h-26t-21.5 -0.5t-22 -1t-27.5 -1.5q-10 0 -14 7t-4 15q1 17 7.5 19t17.5 2 q20 0 32.5 6.5t21 17.5t14.5 25l12 28l175 414q7 18 5 29t-9.5 18t-19 10.5t-23.5 5.5q-15 3 -20 5.5t-5 17.5q0 17 11.5 18.5t28.5 1.5zM392 761q0 -44 -29 -69.5t-79 -25.5q-51 0 -80.5 26t-29.5 69q0 98 110 98q53 0 80.5 -26t27.5 -72zM327 761q0 29 -9 46t-34 17 q-23 0 -34 -18t-11 -45q0 -58 45 -58q26 0 34.5 16t8.5 42z" />
<glyph unicode="&#xc6;" horiz-adv-x="902" d="M418 591q-15 1 -21 -5.5t-14 -20.5l-138 -274h196v300h-23zM801 631q11 0 18.5 -5t7.5 -19l3 -140q0 -10 -9.5 -15t-17.5 -5q-11 0 -20 4.5t-11 13.5q-5 34 -11.5 57.5t-17 38.5t-27 22t-42.5 8h-134v-254h181q8 -1 11.5 -8t3.5 -15t-3.5 -14t-11.5 -6h-181v-189 q1 -10 2 -21.5t7.5 -21.5t20.5 -16.5t40 -5.5h92q26 1 42.5 6.5t27.5 19t19 35.5t18 55q4 10 13.5 13t20.5 1q8 -2 16.5 -7.5t7.5 -15.5l-20 -126q-3 -14 -9.5 -17.5t-19.5 -3.5h-330q-30 0 -58.5 -0.5t-61.5 -2.5q-9 0 -13 7t-4 15q1 17 7.5 19t17.5 2q24 0 37 6.5t19 17.5 t7.5 25t1.5 28v131h-217l-67 -131q-13 -25 -17.5 -40t1 -23.5t21.5 -11t45 -2.5q11 0 17.5 -2t7.5 -19q0 -8 -4.5 -15t-13.5 -7q-32 2 -55.5 2.5t-53.5 0.5h-26t-21.5 -0.5t-22 -1t-27.5 -1.5q-10 0 -14 7t-4 15q1 17 7.5 19.5t17.5 1.5q15 -1 28 5.5t24.5 17.5t21 25 t16.5 29l213 414q7 18 5 28t-9.5 16t-19 8.5t-23.5 4.5q-15 3 -20.5 5.5t-4.5 17.5q1 17 12 18.5t28 1.5h515z" />
<glyph unicode="&#xc7;" horiz-adv-x="639" d="M596 510q0 -21 -6.5 -40.5t-19.5 -34.5t-32 -24t-44 -9q-15 0 -25.5 4.5t-17 10.5t-9 12t-2.5 9q0 2 8 6.5t17 13t17 22t8 33.5q0 45 -30 71.5t-85 26.5q-45 0 -83.5 -19.5t-66.5 -57t-43.5 -92.5t-15.5 -125q0 -60 16.5 -112.5t46.5 -91.5t72 -61.5t93 -22.5q54 0 92 22 t70 73q4 9 14 9q9 0 21.5 -8.5t12.5 -19.5q0 -4 -4 -10q-28 -35 -52 -56.5t-49 -34t-54.5 -17.5t-69.5 -7v-25q17 0 34.5 -3.5t31.5 -10t22.5 -20t8.5 -32.5q0 -26 -13.5 -44.5t-37.5 -30t-58 -17t-75 -5.5q-10 0 -15 7.5t-5 16.5q0 14 6 18t14 4q21 0 40.5 0.5t35.5 4 t25.5 10.5t9.5 21q0 11 -11.5 15t-25 6t-25 7t-11.5 21v59q-59 6 -109.5 31t-87.5 67t-58.5 100.5t-21.5 130.5q0 76 23 139t65.5 107.5t103 69t135.5 24.5q36 0 75 -7t71.5 -23.5t53 -43.5t20.5 -67z" />
<glyph unicode="&#xc8;" horiz-adv-x="594" d="M493 631q11 0 18.5 -5t7.5 -19l3 -140q0 -10 -9.5 -15t-17.5 -5q-11 0 -20 4.5t-11 13.5q-5 34 -11.5 57.5t-17 38.5t-27 22t-42.5 8h-134v-254h181q8 -1 11.5 -8t3.5 -15t-3.5 -14t-11.5 -6h-181v-189q1 -10 2 -21.5t7.5 -21.5t20.5 -16.5t40 -5.5h92q26 1 42.5 6.5 t27.5 19t19 35.5t18 55q4 10 13.5 13t20.5 1q8 -2 16.5 -7.5t7.5 -15.5l-20 -126q-3 -14 -9.5 -17.5t-19.5 -3.5h-330q-30 0 -58.5 -0.5t-61.5 -2.5q-9 0 -13 7t-4 15q1 17 7.5 19t17.5 2q24 0 37 6.5t19 17.5t7.5 25t1.5 28v397q0 14 -1.5 28t-7.5 25t-19 17.5t-37 6.5 q-11 0 -17.5 2t-7.5 19q0 8 4 15t13 7q33 -2 61 -2.5t58 -0.5h314zM334 673q-20 10 -47.5 25.5t-53 32t-43 32.5t-17.5 29q0 14 12.5 26t24.5 12t38 -18.5t52.5 -42t47 -45.5t20.5 -29q0 -9 -7.5 -16.5t-17.5 -7.5q-6 0 -9 2z" />
<glyph unicode="&#xc9;" horiz-adv-x="594" d="M493 631q11 0 18.5 -5t7.5 -19l3 -140q0 -10 -9.5 -15t-17.5 -5q-11 0 -20 4.5t-11 13.5q-5 34 -11.5 57.5t-17 38.5t-27 22t-42.5 8h-134v-254h181q8 -1 11.5 -8t3.5 -15t-3.5 -14t-11.5 -6h-181v-189q1 -10 2 -21.5t7.5 -21.5t20.5 -16.5t40 -5.5h92q26 1 42.5 6.5 t27.5 19t19 35.5t18 55q4 10 13.5 13t20.5 1q8 -2 16.5 -7.5t7.5 -15.5l-20 -126q-3 -14 -9.5 -17.5t-19.5 -3.5h-330q-30 0 -58.5 -0.5t-61.5 -2.5q-9 0 -13 7t-4 15q1 17 7.5 19t17.5 2q24 0 37 6.5t19 17.5t7.5 25t1.5 28v397q0 14 -1.5 28t-7.5 25t-19 17.5t-37 6.5 q-11 0 -17.5 2t-7.5 19q0 8 4 15t13 7q33 -2 61 -2.5t58 -0.5h314zM292 673q-3 -2 -9 -2q-11 0 -18 7.5t-7 16.5q0 7 10 17.5t25.5 25.5t34 32t36 31t31.5 21.5t21 7.5q12 0 24.5 -12t12.5 -26q0 -15 -17.5 -30t-43 -30.5t-53 -32t-47.5 -26.5z" />
<glyph unicode="&#xca;" horiz-adv-x="594" d="M493 631q11 0 18.5 -5t7.5 -19l3 -140q0 -10 -9.5 -15t-17.5 -5q-11 0 -20 4.5t-11 13.5q-5 34 -11.5 57.5t-17 38.5t-27 22t-42.5 8h-134v-254h181q8 -1 11.5 -8t3.5 -15t-3.5 -14t-11.5 -6h-181v-189q1 -10 2 -21.5t7.5 -21.5t20.5 -16.5t40 -5.5h92q26 1 42.5 6.5 t27.5 19t19 35.5t18 55q4 10 13.5 13t20.5 1q8 -2 16.5 -7.5t7.5 -15.5l-20 -126q-3 -14 -9.5 -17.5t-19.5 -3.5h-330q-30 0 -58.5 -0.5t-61.5 -2.5q-9 0 -13 7t-4 15q1 17 7.5 19t17.5 2q24 0 37 6.5t19 17.5t7.5 25t1.5 28v397q0 14 -1.5 28t-7.5 25t-19 17.5t-37 6.5 q-11 0 -17.5 2t-7.5 19q0 8 4 15t13 7q33 -2 61 -2.5t58 -0.5h314zM290 813q13 9 24 9q12 0 24 -9l127 -93q8 -7 8 -18q0 -7 -4 -12t-12 -5h-3q-32 8 -68.5 27.5t-71.5 37.5q-35 -18 -71.5 -37.5t-68.5 -27.5h-3q-8 0 -12.5 5t-4.5 12q0 10 9 18z" />
<glyph unicode="&#xcb;" horiz-adv-x="594" d="M493 631q11 0 18.5 -5t7.5 -19l3 -140q0 -10 -9.5 -15t-17.5 -5q-11 0 -20 4.5t-11 13.5q-5 34 -11.5 57.5t-17 38.5t-27 22t-42.5 8h-134v-254h181q8 -1 11.5 -8t3.5 -15t-3.5 -14t-11.5 -6h-181v-189q1 -10 2 -21.5t7.5 -21.5t20.5 -16.5t40 -5.5h92q26 1 42.5 6.5 t27.5 19t19 35.5t18 55q4 10 13.5 13t20.5 1q8 -2 16.5 -7.5t7.5 -15.5l-20 -126q-3 -14 -9.5 -17.5t-19.5 -3.5h-330q-30 0 -58.5 -0.5t-61.5 -2.5q-9 0 -13 7t-4 15q1 17 7.5 19t17.5 2q24 0 37 6.5t19 17.5t7.5 25t1.5 28v397q0 14 -1.5 28t-7.5 25t-19 17.5t-37 6.5 q-11 0 -17.5 2t-7.5 19q0 8 4 15t13 7q33 -2 61 -2.5t58 -0.5h314zM222 821q26 0 43 -17t17 -43q0 -24 -17.5 -42t-43.5 -18t-44 18t-18 42q0 26 18.5 43t44.5 17zM414 821q26 0 43 -17t17 -43q0 -24 -17.5 -42t-43.5 -18t-44 18t-18 42q0 26 18.5 43t44.5 17z" />
<glyph unicode="&#xcc;" horiz-adv-x="364" d="M231 117q0 -14 1.5 -28t7.5 -25t19 -17.5t37 -6.5q11 0 17.5 -2t8.5 -19q0 -8 -4.5 -15t-13.5 -7q-65 3 -124 3q-30 0 -59 -0.5t-61 -2.5q-10 0 -14 7t-4 15q1 17 8 19t17 2q24 0 37 6.5t19 17.5t7.5 25t2.5 28v397q-1 14 -2.5 28t-7.5 25t-19 17.5t-37 6.5q-10 0 -17 2 t-8 19q0 8 4 15t14 7q32 -2 60.5 -2.5t58.5 -0.5q60 0 125 3q9 0 13.5 -7t4.5 -15q-2 -17 -8.5 -19t-17.5 -2q-24 0 -37 -6.5t-19 -17.5t-7.5 -25t-1.5 -28v-397zM188 673q-20 10 -47.5 25.5t-53 32t-43 32.5t-17.5 29q0 14 12.5 26t24.5 12t38 -18.5t52.5 -42t47 -45.5 t20.5 -29q0 -9 -7.5 -16.5t-17.5 -7.5q-6 0 -9 2z" />
<glyph unicode="&#xcd;" horiz-adv-x="364" d="M231 117q0 -14 1.5 -28t7.5 -25t19 -17.5t37 -6.5q11 0 17.5 -2t8.5 -19q0 -8 -4.5 -15t-13.5 -7q-65 3 -124 3q-30 0 -59 -0.5t-61 -2.5q-10 0 -14 7t-4 15q1 17 8 19t17 2q24 0 37 6.5t19 17.5t7.5 25t2.5 28v397q-1 14 -2.5 28t-7.5 25t-19 17.5t-37 6.5q-10 0 -17 2 t-8 19q0 8 4 15t14 7q32 -2 60.5 -2.5t58.5 -0.5q60 0 125 3q9 0 13.5 -7t4.5 -15q-2 -17 -8.5 -19t-17.5 -2q-24 0 -37 -6.5t-19 -17.5t-7.5 -25t-1.5 -28v-397zM166 673q-3 -2 -9 -2q-11 0 -18 7.5t-7 16.5q0 7 10 17.5t25.5 25.5t34 32t36 31t31.5 21.5t21 7.5 q12 0 24.5 -12t12.5 -26q0 -15 -17.5 -30t-43 -30.5t-53 -32t-47.5 -26.5z" />
<glyph unicode="&#xce;" horiz-adv-x="364" d="M231 117q0 -14 1.5 -28t7.5 -25t19 -17.5t37 -6.5q11 0 17.5 -2t8.5 -19q0 -8 -4.5 -15t-13.5 -7q-65 3 -124 3q-30 0 -59 -0.5t-61 -2.5q-10 0 -14 7t-4 15q1 17 8 19t17 2q24 0 37 6.5t19 17.5t7.5 25t2.5 28v397q-1 14 -2.5 28t-7.5 25t-19 17.5t-37 6.5q-10 0 -17 2 t-8 19q0 8 4 15t14 7q32 -2 60.5 -2.5t58.5 -0.5q60 0 125 3q9 0 13.5 -7t4.5 -15q-2 -17 -8.5 -19t-17.5 -2q-24 0 -37 -6.5t-19 -17.5t-7.5 -25t-1.5 -28v-397zM155 813q13 9 24 9q12 0 24 -9l127 -93q8 -7 8 -18q0 -7 -4 -12t-12 -5h-3q-32 8 -68.5 27.5t-71.5 37.5 q-35 -18 -71.5 -37.5t-68.5 -27.5h-3q-8 0 -12.5 5t-4.5 12q0 10 9 18z" />
<glyph unicode="&#xcf;" horiz-adv-x="364" d="M231 117q0 -14 1.5 -28t7.5 -25t19 -17.5t37 -6.5q11 0 17.5 -2t8.5 -19q0 -8 -4.5 -15t-13.5 -7q-65 3 -124 3q-30 0 -59 -0.5t-61 -2.5q-10 0 -14 7t-4 15q1 17 8 19t17 2q24 0 37 6.5t19 17.5t7.5 25t2.5 28v397q-1 14 -2.5 28t-7.5 25t-19 17.5t-37 6.5q-10 0 -17 2 t-8 19q0 8 4 15t14 7q32 -2 60.5 -2.5t58.5 -0.5q60 0 125 3q9 0 13.5 -7t4.5 -15q-2 -17 -8.5 -19t-17.5 -2q-24 0 -37 -6.5t-19 -17.5t-7.5 -25t-1.5 -28v-397zM87 821q26 0 43 -17t17 -43q0 -24 -17.5 -42t-43.5 -18t-44 18t-18 42q0 26 18.5 43t44.5 17zM279 821 q26 0 43 -17t17 -43q0 -24 -17.5 -42t-43.5 -18t-44 18t-18 42q0 26 18.5 43t44.5 17z" />
<glyph unicode="&#xd0;" horiz-adv-x="728" d="M78 311q-11 0 -15 7t-4 14q0 8 4 15t15 7h55v160q0 14 -1.5 28t-7.5 25t-19 17.5t-37 6.5q-11 0 -17.5 2t-7.5 19q0 8 4 15t13 7q33 -2 61 -2.5t58 -0.5h156q72 0 134.5 -21.5t109 -62.5t73.5 -100.5t27 -134.5q0 -80 -31.5 -139t-82.5 -97.5t-116 -57t-132 -18.5h-138 q-30 0 -58 -0.5t-61 -2.5q-9 0 -13 7t-4 15q1 17 7.5 19t17.5 2q24 0 37 6.5t19 17.5t7.5 25t1.5 28v194h-55zM558 312q0 61 -16.5 113t-48 90t-78 59t-105.5 21h-19.5t-23 -0.5t-21 -0.5h-14.5v-240h115q11 0 15 -7t4 -15q0 -7 -4 -14t-15 -7h-115v-206q0 -41 24.5 -54.5 t75.5 -13.5q61 0 104 20t70 56t39.5 86.5t12.5 112.5z" />
<glyph unicode="&#xd1;" horiz-adv-x="737" d="M182 514h-3l2 -397q0 -14 1 -28t7 -25t18.5 -17.5t36.5 -6.5q11 0 18 -2t8 -19q0 -8 -4.5 -15t-13.5 -7q-16 1 -27.5 1.5t-22 1t-21.5 0.5h-26h-25.5t-20 -0.5t-20.5 -1t-27 -1.5q-10 0 -14 7t-4 15q1 17 7.5 19t17.5 2q24 0 36.5 6.5t18.5 17.5t7 25t1 28l2 397 q0 23 -4 37.5t-12 22.5t-20.5 12.5t-30.5 7.5q-15 3 -20 5.5t-5 17.5q0 17 11.5 18.5t28.5 1.5q42 0 71 -5t52 -17t43 -32.5t43 -51.5l274 -360h3l-2 343q0 14 -1 28t-7 25t-18.5 17.5t-36.5 6.5q-11 0 -17.5 2t-8.5 19q0 8 4.5 15t13.5 7q16 -1 27.5 -1.5t21.5 -1t21 -0.5 h26h25.5t20.5 0.5t21 1t27 1.5q10 0 14 -7t4 -15q-1 -17 -7.5 -19t-17.5 -2q-24 0 -36.5 -6.5t-18.5 -17.5t-7 -25t-1 -28l-2 -504q-1 -8 -9.5 -10.5t-15.5 -2.5q-19 0 -29 13zM543 780q-7 -16 -17 -31.5t-23.5 -28t-30.5 -20t-37 -7.5q-21 0 -40 9t-35.5 20t-31.5 20t-28 9 q-12 0 -29.5 -9.5t-36.5 -32.5q-7 -8 -17 -8q-7 0 -12.5 5t-5.5 12q0 9 11.5 30.5t27 36.5t34.5 24t39 9q21 0 40 -9t35.5 -20t31.5 -20t28 -9q12 0 30 10t36 32q7 8 16 8q7 0 12.5 -5t5.5 -14q0 -5 -3 -11z" />
<glyph unicode="&#xd2;" horiz-adv-x="735" d="M366 651q75 0 134.5 -27t101 -72.5t64 -104.5t22.5 -122q0 -83 -29.5 -147t-76 -108t-104 -67t-112.5 -23q-74 0 -133 27t-100 72.5t-63.5 104.5t-22.5 123q0 83 29 147t75 108t103 66.5t112 22.5zM365 24q53 0 91.5 24.5t63.5 66t37 96t12 114.5q0 56 -12.5 107.5 t-38 90.5t-64 62t-89.5 23q-53 0 -91 -24t-62.5 -65t-36 -95t-11.5 -114q0 -57 12 -108.5t37 -91t63 -63t89 -23.5zM375 682q-20 10 -47.5 25.5t-53 32t-43 32.5t-17.5 29q0 14 12.5 26t24.5 12t38 -18.5t52.5 -42t47 -45.5t20.5 -29q0 -9 -7.5 -16.5t-17.5 -7.5q-6 0 -9 2z " />
<glyph unicode="&#xd3;" horiz-adv-x="735" d="M366 651q75 0 134.5 -27t101 -72.5t64 -104.5t22.5 -122q0 -83 -29.5 -147t-76 -108t-104 -67t-112.5 -23q-74 0 -133 27t-100 72.5t-63.5 104.5t-22.5 123q0 83 29 147t75 108t103 66.5t112 22.5zM365 24q53 0 91.5 24.5t63.5 66t37 96t12 114.5q0 56 -12.5 107.5 t-38 90.5t-64 62t-89.5 23q-53 0 -91 -24t-62.5 -65t-36 -95t-11.5 -114q0 -57 12 -108.5t37 -91t63 -63t89 -23.5zM353 682q-3 -2 -9 -2q-11 0 -18 7.5t-7 16.5q0 7 10 17.5t25.5 25.5t34 32t36 31t31.5 21.5t21 7.5q12 0 24.5 -12t12.5 -26q0 -15 -17.5 -30t-43 -30.5 t-53 -32t-47.5 -26.5z" />
<glyph unicode="&#xd4;" horiz-adv-x="735" d="M366 651q75 0 134.5 -27t101 -72.5t64 -104.5t22.5 -122q0 -83 -29.5 -147t-76 -108t-104 -67t-112.5 -23q-74 0 -133 27t-100 72.5t-63.5 104.5t-22.5 123q0 83 29 147t75 108t103 66.5t112 22.5zM365 24q53 0 91.5 24.5t63.5 66t37 96t12 114.5q0 56 -12.5 107.5 t-38 90.5t-64 62t-89.5 23q-53 0 -91 -24t-62.5 -65t-36 -95t-11.5 -114q0 -57 12 -108.5t37 -91t63 -63t89 -23.5zM351 822q13 9 24 9q12 0 24 -9l127 -93q8 -7 8 -18q0 -7 -4 -12t-12 -5h-3q-32 8 -68.5 27.5t-71.5 37.5q-35 -18 -71.5 -37.5t-68.5 -27.5h-3q-8 0 -12.5 5 t-4.5 12q0 10 9 18z" />
<glyph unicode="&#xd5;" horiz-adv-x="735" d="M366 651q75 0 134.5 -27t101 -72.5t64 -104.5t22.5 -122q0 -83 -29.5 -147t-76 -108t-104 -67t-112.5 -23q-74 0 -133 27t-100 72.5t-63.5 104.5t-22.5 123q0 83 29 147t75 108t103 66.5t112 22.5zM365 24q53 0 91.5 24.5t63.5 66t37 96t12 114.5q0 56 -12.5 107.5 t-38 90.5t-64 62t-89.5 23q-53 0 -91 -24t-62.5 -65t-36 -95t-11.5 -114q0 -57 12 -108.5t37 -91t63 -63t89 -23.5zM539 789q-7 -16 -17 -31.5t-23.5 -28t-30.5 -20t-37 -7.5q-21 0 -40 9t-35.5 20t-31.5 20t-28 9q-12 0 -29.5 -9.5t-36.5 -32.5q-7 -8 -17 -8q-7 0 -12.5 5 t-5.5 12q0 9 11.5 30.5t27 36.5t34.5 24t39 9q21 0 40 -9t35.5 -20t31.5 -20t28 -9q12 0 30 10t36 32q7 8 16 8q7 0 12.5 -5t5.5 -14q0 -5 -3 -11z" />
<glyph unicode="&#xd6;" horiz-adv-x="735" d="M366 651q75 0 134.5 -27t101 -72.5t64 -104.5t22.5 -122q0 -83 -29.5 -147t-76 -108t-104 -67t-112.5 -23q-74 0 -133 27t-100 72.5t-63.5 104.5t-22.5 123q0 83 29 147t75 108t103 66.5t112 22.5zM365 24q53 0 91.5 24.5t63.5 66t37 96t12 114.5q0 56 -12.5 107.5 t-38 90.5t-64 62t-89.5 23q-53 0 -91 -24t-62.5 -65t-36 -95t-11.5 -114q0 -57 12 -108.5t37 -91t63 -63t89 -23.5zM283 830q26 0 43 -17t17 -43q0 -24 -17.5 -42t-43.5 -18t-44 18t-18 42q0 26 18.5 43t44.5 17zM475 830q26 0 43 -17t17 -43q0 -24 -17.5 -42t-43.5 -18 t-44 18t-18 42q0 26 18.5 43t44.5 17z" />
<glyph unicode="&#xd7;" horiz-adv-x="518" d="M425 463q5 5 10 5q9 0 21.5 -11.5t12.5 -21.5q0 -7 -4 -12l-167 -167l167 -165q4 -5 4 -12q0 -11 -12.5 -22t-21.5 -11q-5 0 -10 5l-166 166l-166 -166q-5 -5 -11 -5q-4 0 -9.5 3t-11 8t-9 11t-3.5 11q0 7 4 12l167 165l-167 167q-4 5 -4 12q0 5 3.5 10.5t9 10.5t11 8.5 t9.5 3.5q6 0 11 -5l166 -167z" />
<glyph unicode="&#xd8;" horiz-adv-x="735" d="M599 554q43 -46 66 -105.5t23 -123.5q0 -83 -29.5 -147t-76 -108t-104 -67t-112.5 -23q-64 0 -116 20.5t-93 55.5l-54 -61q-6 -7 -15 -6.5t-14 5.5q-6 5 -6.5 12.5t4.5 12.5l57 65q-40 45 -61 102.5t-21 120.5q0 83 29 147t75 108t103 66.5t112 22.5q62 0 113 -19t91 -52 l57 64q6 7 15 6.5t14 -5.5q6 -5 6.5 -12.5t-4.5 -12.5zM365 24q53 0 91.5 24.5t63.5 66t37 96t12 114.5q0 44 -7.5 84.5t-23.5 75.5l-328 -370q25 -42 63 -66.5t92 -24.5zM164 310q0 -88 27 -157l328 369q-26 40 -64 63t-90 23q-53 0 -91 -24t-62.5 -65t-36 -95t-11.5 -114z " />
<glyph unicode="&#xd9;" horiz-adv-x="720" d="M600 178q0 -53 -23 -90.5t-58.5 -61.5t-78 -35t-81.5 -11q-60 0 -105.5 16.5t-75.5 43.5t-45.5 61.5t-15.5 71.5v341q0 14 -1.5 28t-7.5 25t-19 17.5t-37 6.5q-11 0 -17.5 2t-7.5 19q0 8 4 15t14 7q32 -2 60 -2.5t58 -0.5q60 0 125 3q10 0 14 -7t4 -15q-1 -15 -6 -18 t-14 -3q-26 0 -39.5 -6.5t-20.5 -17t-8.5 -24.5t-1.5 -29v-312q0 -26 5 -54.5t21.5 -52.5t48 -40t84.5 -16q51 0 83.5 13t51.5 34.5t26.5 48t7.5 53.5v263q0 49 -2.5 77t-10.5 42t-23.5 17.5t-40.5 3.5q-10 0 -17 2t-8 19q0 8 4 15t14 7q32 -2 57 -2.5t55 -0.5t55 0.5 t57 2.5q10 0 14 -7t4 -15q-1 -15 -6 -18t-14 -3q-27 0 -43.5 -3t-25 -16t-11 -40t-2.5 -75v-279zM388 673q-20 10 -47.5 25.5t-53 32t-43 32.5t-17.5 29q0 14 12.5 26t24.5 12t38 -18.5t52.5 -42t47 -45.5t20.5 -29q0 -9 -7.5 -16.5t-17.5 -7.5q-6 0 -9 2z" />
<glyph unicode="&#xda;" horiz-adv-x="720" d="M600 178q0 -53 -23 -90.5t-58.5 -61.5t-78 -35t-81.5 -11q-60 0 -105.5 16.5t-75.5 43.5t-45.5 61.5t-15.5 71.5v341q0 14 -1.5 28t-7.5 25t-19 17.5t-37 6.5q-11 0 -17.5 2t-7.5 19q0 8 4 15t14 7q32 -2 60 -2.5t58 -0.5q60 0 125 3q10 0 14 -7t4 -15q-1 -15 -6 -18 t-14 -3q-26 0 -39.5 -6.5t-20.5 -17t-8.5 -24.5t-1.5 -29v-312q0 -26 5 -54.5t21.5 -52.5t48 -40t84.5 -16q51 0 83.5 13t51.5 34.5t26.5 48t7.5 53.5v263q0 49 -2.5 77t-10.5 42t-23.5 17.5t-40.5 3.5q-10 0 -17 2t-8 19q0 8 4 15t14 7q32 -2 57 -2.5t55 -0.5t55 0.5 t57 2.5q10 0 14 -7t4 -15q-1 -15 -6 -18t-14 -3q-27 0 -43.5 -3t-25 -16t-11 -40t-2.5 -75v-279zM356 673q-3 -2 -9 -2q-11 0 -18 7.5t-7 16.5q0 7 10 17.5t25.5 25.5t34 32t36 31t31.5 21.5t21 7.5q12 0 24.5 -12t12.5 -26q0 -15 -17.5 -30t-43 -30.5t-53 -32t-47.5 -26.5z " />
<glyph unicode="&#xdb;" horiz-adv-x="720" d="M600 178q0 -53 -23 -90.5t-58.5 -61.5t-78 -35t-81.5 -11q-60 0 -105.5 16.5t-75.5 43.5t-45.5 61.5t-15.5 71.5v341q0 14 -1.5 28t-7.5 25t-19 17.5t-37 6.5q-11 0 -17.5 2t-7.5 19q0 8 4 15t14 7q32 -2 60 -2.5t58 -0.5q60 0 125 3q10 0 14 -7t4 -15q-1 -15 -6 -18 t-14 -3q-26 0 -39.5 -6.5t-20.5 -17t-8.5 -24.5t-1.5 -29v-312q0 -26 5 -54.5t21.5 -52.5t48 -40t84.5 -16q51 0 83.5 13t51.5 34.5t26.5 48t7.5 53.5v263q0 49 -2.5 77t-10.5 42t-23.5 17.5t-40.5 3.5q-10 0 -17 2t-8 19q0 8 4 15t14 7q32 -2 57 -2.5t55 -0.5t55 0.5 t57 2.5q10 0 14 -7t4 -15q-1 -15 -6 -18t-14 -3q-27 0 -43.5 -3t-25 -16t-11 -40t-2.5 -75v-279zM354 813q13 9 24 9q12 0 24 -9l127 -93q8 -7 8 -18q0 -7 -4 -12t-12 -5h-3q-32 8 -68.5 27.5t-71.5 37.5q-35 -18 -71.5 -37.5t-68.5 -27.5h-3q-8 0 -12.5 5t-4.5 12 q0 10 9 18z" />
<glyph unicode="&#xdc;" horiz-adv-x="720" d="M600 178q0 -53 -23 -90.5t-58.5 -61.5t-78 -35t-81.5 -11q-60 0 -105.5 16.5t-75.5 43.5t-45.5 61.5t-15.5 71.5v341q0 14 -1.5 28t-7.5 25t-19 17.5t-37 6.5q-11 0 -17.5 2t-7.5 19q0 8 4 15t14 7q32 -2 60 -2.5t58 -0.5q60 0 125 3q10 0 14 -7t4 -15q-1 -15 -6 -18 t-14 -3q-26 0 -39.5 -6.5t-20.5 -17t-8.5 -24.5t-1.5 -29v-312q0 -26 5 -54.5t21.5 -52.5t48 -40t84.5 -16q51 0 83.5 13t51.5 34.5t26.5 48t7.5 53.5v263q0 49 -2.5 77t-10.5 42t-23.5 17.5t-40.5 3.5q-10 0 -17 2t-8 19q0 8 4 15t14 7q32 -2 57 -2.5t55 -0.5t55 0.5 t57 2.5q10 0 14 -7t4 -15q-1 -15 -6 -18t-14 -3q-27 0 -43.5 -3t-25 -16t-11 -40t-2.5 -75v-279zM286 821q26 0 43 -17t17 -43q0 -24 -17.5 -42t-43.5 -18t-44 18t-18 42q0 26 18.5 43t44.5 17zM478 821q26 0 43 -17t17 -43q0 -24 -17.5 -42t-43.5 -18t-44 18t-18 42 q0 26 18.5 43t44.5 17z" />
<glyph unicode="&#xdd;" horiz-adv-x="621" d="M236 532q29 -54 52.5 -104.5t52.5 -104.5h3l111 219q9 17 9.5 26.5t-5.5 14.5t-18.5 6.5t-29.5 1.5q-11 0 -17.5 2t-7.5 19q0 8 4 15t13 7q32 -2 55.5 -2.5t53.5 -0.5h26.5t23 0.5t23.5 1t28 1.5q10 0 14 -7t4 -15q-1 -17 -7.5 -19t-17.5 -2q-38 0 -62 -16.5t-43 -51.5 l-113 -213q-7 -15 -12 -25t-8.5 -20t-5 -22t-1.5 -29v-97q0 -14 1.5 -28t7.5 -25t19 -17.5t37 -6.5q11 0 17.5 -2t7.5 -19q0 -8 -4 -15t-13 -7q-32 2 -61 2.5t-59 0.5q-60 0 -124 -3q-10 0 -14 7t-4 15q1 17 8 19t17 2q24 0 37 6.5t19 17.5t7.5 25t1.5 28v125q0 6 -7.5 25 t-19.5 45t-27 56t-29.5 58.5t-27 52t-19.5 36.5q-21 38 -46 54.5t-57 23.5q-14 3 -19.5 5t-5.5 18q0 17 11.5 18.5t28.5 1.5q35 0 63 -5t51 -17t42 -32t36 -50zM282 673q-3 -2 -9 -2q-11 0 -18 7.5t-7 16.5q0 7 10 17.5t25.5 25.5t34 32t36 31t31.5 21.5t21 7.5 q12 0 24.5 -12t12.5 -26q0 -15 -17.5 -30t-43 -30.5t-53 -32t-47.5 -26.5z" />
<glyph unicode="&#xde;" horiz-adv-x="606" d="M231 117q0 -14 1.5 -28t7.5 -25t19 -17.5t37 -6.5q11 0 17.5 -2t8.5 -19q0 -8 -4.5 -15t-13.5 -7q-65 3 -124 3q-30 0 -59 -0.5t-61 -2.5q-10 0 -14 7t-4 15q1 17 8 19t17 2q24 0 37 6.5t19 17.5t7.5 25t2.5 28v397q-1 14 -2.5 28t-7.5 25t-19 17.5t-37 6.5q-10 0 -17 2 t-8 19q0 8 4 15t14 7q32 -2 60.5 -2.5t58.5 -0.5q60 0 125 3q9 0 13.5 -7t4.5 -15q-2 -17 -8.5 -19t-17.5 -2q-22 0 -35 -6t-19.5 -15.5t-8.5 -22t-2 -25.5h100q30 0 72.5 -7t81.5 -26.5t67 -56.5t28 -97q0 -48 -21.5 -85t-57 -62.5t-80.5 -39t-92 -13.5q-26 0 -50.5 4 t-47.5 13v-35zM231 476v-285q22 -10 71 -10q23 0 52 6t54.5 22.5t43 46t17.5 76.5q0 48 -17.5 76t-43 43t-54 19.5t-51.5 5.5h-72z" />
<glyph unicode="&#xdf;" horiz-adv-x="604" d="M303 401q-11 0 -15.5 5.5t-4.5 13.5q0 7 4.5 12.5t15.5 6.5h29q19 0 35 11t27.5 28.5t18 40t6.5 45.5t-5.5 45t-18 39.5t-32.5 28t-48 10.5q-36 0 -60 -10.5t-39 -29.5t-21 -44.5t-6 -56.5v-443q0 -17 0.5 -29.5t4 -21.5t12.5 -13.5t27 -3.5q8 0 14.5 -1.5t7.5 -16.5 q0 -8 -4 -14t-12 -6q-29 2 -49.5 2.5t-46.5 0.5q-27 0 -51 -0.5t-53 -2.5q-8 0 -12 6t-4 14q1 15 7 16.5t16 1.5q21 0 31.5 5.5t15 15t4.5 22v25.5v425q0 95 54.5 147.5t155.5 52.5q46 1 84.5 -11.5t66.5 -34.5t43 -51.5t15 -60.5q0 -40 -25 -78.5t-87 -66.5v-3 q77 -15 117.5 -65.5t40.5 -128.5q0 -55 -15 -98.5t-41.5 -73.5t-61.5 -46t-74 -16q-46 0 -75 24.5t-29 60.5q1 26 16.5 46t43.5 20q17 0 26.5 -9t9.5 -13q0 -2 -4 -5t-9 -8.5t-9.5 -13.5t-4.5 -19q0 -22 10.5 -33t23.5 -11q25 0 42.5 19.5t28 46.5t15 56t4.5 48 q0 41 -7.5 77t-23 63t-39.5 42.5t-57 15.5h-29z" />
<glyph unicode="&#xe0;" horiz-adv-x="501" d="M223 436q-29 0 -53 -18t-24 -52q0 -12 5 -21.5t11 -15.5t11 -10t5 -5q0 -5 -11.5 -15t-31.5 -10q-32 0 -48.5 23t-16.5 51t14 47.5t36.5 31.5t51 17.5t57.5 5.5q34 0 67 -5.5t59 -21.5t42.5 -44.5t16.5 -74.5v-233q0 -8 2.5 -18t8.5 -19t16 -15.5t25 -6.5q7 0 11 -2.5 t4 -13.5q0 -7 -6 -11.5t-15 -7t-18.5 -3.5t-15.5 -1q-37 0 -66 21.5t-34 59.5q-11 -20 -31 -35t-43.5 -25.5t-48 -15.5t-45.5 -5q-26 0 -48.5 9.5t-39 25.5t-26.5 37.5t-10 46.5q0 36 17.5 61t44.5 41t60.5 25t66 13.5t60 6t43.5 3.5v79q0 47 -23 73.5t-80 26.5zM326 227 q-48 -6 -84 -14t-59.5 -20t-35.5 -30t-12 -43q0 -32 18 -55t47 -23q25 0 48 10t40.5 27t27.5 41t10 51v56zM122 637q-9 10 -9 23q0 15 13 28.5t31 13.5q23 0 36 -23l75 -137q4 -8 4 -14q0 -11 -7 -16.5t-17 -5.5q-13 0 -24 12z" />
<glyph unicode="&#xe1;" horiz-adv-x="501" d="M223 436q-29 0 -53 -18t-24 -52q0 -12 5 -21.5t11 -15.5t11 -10t5 -5q0 -5 -11.5 -15t-31.5 -10q-32 0 -48.5 23t-16.5 51t14 47.5t36.5 31.5t51 17.5t57.5 5.5q34 0 67 -5.5t59 -21.5t42.5 -44.5t16.5 -74.5v-233q0 -8 2.5 -18t8.5 -19t16 -15.5t25 -6.5q7 0 11 -2.5 t4 -13.5q0 -7 -6 -11.5t-15 -7t-18.5 -3.5t-15.5 -1q-37 0 -66 21.5t-34 59.5q-11 -20 -31 -35t-43.5 -25.5t-48 -15.5t-45.5 -5q-26 0 -48.5 9.5t-39 25.5t-26.5 37.5t-10 46.5q0 36 17.5 61t44.5 41t60.5 25t66 13.5t60 6t43.5 3.5v79q0 47 -23 73.5t-80 26.5zM326 227 q-48 -6 -84 -14t-59.5 -20t-35.5 -30t-12 -43q0 -32 18 -55t47 -23q25 0 48 10t40.5 27t27.5 41t10 51v56zM251 518q-11 -12 -24 -12q-10 0 -17 5.5t-7 16.5q0 7 4 14l75 137q11 23 36 23q18 0 30.5 -13.5t12.5 -28.5q0 -14 -8 -23z" />
<glyph unicode="&#xe2;" horiz-adv-x="501" d="M223 436q-29 0 -53 -18t-24 -52q0 -12 5 -21.5t11 -15.5t11 -10t5 -5q0 -5 -11.5 -15t-31.5 -10q-32 0 -48.5 23t-16.5 51t14 47.5t36.5 31.5t51 17.5t57.5 5.5q34 0 67 -5.5t59 -21.5t42.5 -44.5t16.5 -74.5v-233q0 -8 2.5 -18t8.5 -19t16 -15.5t25 -6.5q7 0 11 -2.5 t4 -13.5q0 -7 -6 -11.5t-15 -7t-18.5 -3.5t-15.5 -1q-37 0 -66 21.5t-34 59.5q-11 -20 -31 -35t-43.5 -25.5t-48 -15.5t-45.5 -5q-26 0 -48.5 9.5t-39 25.5t-26.5 37.5t-10 46.5q0 36 17.5 61t44.5 41t60.5 25t66 13.5t60 6t43.5 3.5v79q0 47 -23 73.5t-80 26.5zM326 227 q-48 -6 -84 -14t-59.5 -20t-35.5 -30t-12 -43q0 -32 18 -55t47 -23q25 0 48 10t40.5 27t27.5 41t10 51v56zM354 549q4 -7 4 -13q0 -10 -6.5 -15t-14.5 -5q-15 0 -39 23.5t-71 84.5q-47 -61 -71 -84.5t-39 -23.5q-8 0 -14.5 5t-6.5 15q0 6 4 13l102 148q9 13 24 13 q7 0 13.5 -2.5t12.5 -10.5z" />
<glyph unicode="&#xe3;" horiz-adv-x="501" d="M223 436q-29 0 -53 -18t-24 -52q0 -12 5 -21.5t11 -15.5t11 -10t5 -5q0 -5 -11.5 -15t-31.5 -10q-32 0 -48.5 23t-16.5 51t14 47.5t36.5 31.5t51 17.5t57.5 5.5q34 0 67 -5.5t59 -21.5t42.5 -44.5t16.5 -74.5v-233q0 -8 2.5 -18t8.5 -19t16 -15.5t25 -6.5q7 0 11 -2.5 t4 -13.5q0 -7 -6 -11.5t-15 -7t-18.5 -3.5t-15.5 -1q-37 0 -66 21.5t-34 59.5q-11 -20 -31 -35t-43.5 -25.5t-48 -15.5t-45.5 -5q-26 0 -48.5 9.5t-39 25.5t-26.5 37.5t-10 46.5q0 36 17.5 61t44.5 41t60.5 25t66 13.5t60 6t43.5 3.5v79q0 47 -23 73.5t-80 26.5zM326 227 q-48 -6 -84 -14t-59.5 -20t-35.5 -30t-12 -43q0 -32 18 -55t47 -23q25 0 48 10t40.5 27t27.5 41t10 51v56zM390 641q-7 -16 -17 -31.5t-23.5 -28t-30.5 -20t-37 -7.5q-21 0 -37 9.5t-29 20t-24.5 19.5t-24.5 9q-12 0 -29.5 -9.5t-36.5 -32.5q-5 -6 -12 -7t-12.5 1t-8.5 8.5 t0 15.5q6 16 16.5 32.5t24.5 29.5t31 21t38 8t37 -9.5t29 -20t24.5 -19.5t24.5 -9q12 0 30 10t36 32q6 7 13 8t12.5 -2.5t7.5 -11t-2 -16.5z" />
<glyph unicode="&#xe4;" horiz-adv-x="501" d="M223 436q-29 0 -53 -18t-24 -52q0 -12 5 -21.5t11 -15.5t11 -10t5 -5q0 -5 -11.5 -15t-31.5 -10q-32 0 -48.5 23t-16.5 51t14 47.5t36.5 31.5t51 17.5t57.5 5.5q34 0 67 -5.5t59 -21.5t42.5 -44.5t16.5 -74.5v-233q0 -8 2.5 -18t8.5 -19t16 -15.5t25 -6.5q7 0 11 -2.5 t4 -13.5q0 -7 -6 -11.5t-15 -7t-18.5 -3.5t-15.5 -1q-37 0 -66 21.5t-34 59.5q-11 -20 -31 -35t-43.5 -25.5t-48 -15.5t-45.5 -5q-26 0 -48.5 9.5t-39 25.5t-26.5 37.5t-10 46.5q0 36 17.5 61t44.5 41t60.5 25t66 13.5t60 6t43.5 3.5v79q0 47 -23 73.5t-80 26.5zM326 227 q-48 -6 -84 -14t-59.5 -20t-35.5 -30t-12 -43q0 -32 18 -55t47 -23q25 0 48 10t40.5 27t27.5 41t10 51v56zM150 667q26 0 43 -17t17 -43q0 -24 -17.5 -42t-43.5 -18t-44 18t-18 42q0 26 18.5 43t44.5 17zM323 667q26 0 43 -17t17 -43q0 -24 -17.5 -42t-43.5 -18t-44 18 t-18 42q0 26 18.5 43t44.5 17z" />
<glyph unicode="&#xe5;" horiz-adv-x="501" d="M223 436q-29 0 -53 -18t-24 -52q0 -12 5 -21.5t11 -15.5t11 -10t5 -5q0 -5 -11.5 -15t-31.5 -10q-32 0 -48.5 23t-16.5 51t14 47.5t36.5 31.5t51 17.5t57.5 5.5q34 0 67 -5.5t59 -21.5t42.5 -44.5t16.5 -74.5v-233q0 -8 2.5 -18t8.5 -19t16 -15.5t25 -6.5q7 0 11 -2.5 t4 -13.5q0 -7 -6 -11.5t-15 -7t-18.5 -3.5t-15.5 -1q-37 0 -66 21.5t-34 59.5q-11 -20 -31 -35t-43.5 -25.5t-48 -15.5t-45.5 -5q-26 0 -48.5 9.5t-39 25.5t-26.5 37.5t-10 46.5q0 36 17.5 61t44.5 41t60.5 25t66 13.5t60 6t43.5 3.5v79q0 47 -23 73.5t-80 26.5zM326 227 q-48 -6 -84 -14t-59.5 -20t-35.5 -30t-12 -43q0 -32 18 -55t47 -23q25 0 48 10t40.5 27t27.5 41t10 51v56zM337 602q0 -44 -29 -69.5t-79 -25.5q-51 0 -80.5 26t-29.5 69q0 98 110 98q53 0 80.5 -26t27.5 -72zM272 602q0 29 -9 46t-34 17q-23 0 -34 -18t-11 -45 q0 -58 45 -58q26 0 34.5 16t8.5 42z" />
<glyph unicode="&#xe6;" horiz-adv-x="773" d="M388 408q28 26 65 41.5t82 15.5q46 0 80.5 -12.5t58 -35t37 -53.5t16.5 -67q0 -35 -19.5 -46t-50.5 -11h-243q0 -44 9 -81t28 -64t49 -42t72 -15t72 18t58 63q8 10 22 1q8 -5 10 -13t-2 -14q-31 -49 -78 -77t-108 -28q-75 0 -125.5 30.5t-77.5 80.5q-5 -10 -10.5 -19.5 t-11.5 -18.5q-12 -18 -32 -31.5t-42.5 -23t-46 -14t-42.5 -4.5q-26 0 -48.5 9.5t-39 25.5t-26.5 37.5t-10 46.5q0 36 17.5 61t44.5 41t60.5 25t66 13.5t60 6t43.5 3.5v79q0 47 -23 73.5t-80 26.5q-29 0 -53 -18t-24 -52q0 -12 5 -21.5t11 -15.5t11 -10t5 -5q0 -5 -11.5 -15 t-31.5 -10q-32 0 -48.5 23t-16.5 51t14 47.5t36.5 31.5t51 17.5t57.5 5.5q46 0 89.5 -11t69.5 -46zM326 227q-48 -6 -84 -14t-59.5 -20t-35.5 -30t-12 -43q0 -32 18 -55t47 -23q25 0 48 10t40.5 27t27.5 41t10 51v56zM577 278q24 0 38 9.5t16 32.5q0 21 -6 41t-18 35.5 t-30 24.5t-42 9q-51 0 -84 -40t-37 -112h163z" />
<glyph unicode="&#xe7;" horiz-adv-x="475" d="M411 113q7 10 21 2q7 -4 10 -11t-2 -14q-33 -48 -82 -75q-42 -23 -86 -26v-30q17 0 34.5 -3.5t31.5 -12t22.5 -21.5t8.5 -33q0 -26 -13.5 -44.5t-37.5 -30t-58 -17t-75 -5.5q-10 0 -15 7.5t-5 16.5q0 14 6 18t14 4q21 0 40.5 0.5t35.5 4t25.5 10.5t9.5 21q0 16 -15.5 22 t-41.5 8q-5 1 -10.5 4t-5.5 19v64q-30 3 -56 14q-40 17 -68 48.5t-43 75.5t-15 98q2 52 20.5 95t50 74.5t74 49t90.5 19.5q13 0 36.5 -2t47 -10t43.5 -24.5t28 -46.5q4 -17 1.5 -34.5t-11 -32t-23 -23.5t-33.5 -9q-22 0 -34 11t-12 16q0 1 5 5t11.5 11t11.5 16.5t5 22.5 q0 32 -23 47t-52 16q-44 0 -70.5 -18.5t-40.5 -47.5t-18.5 -64t-4.5 -68q0 -41 9.5 -76.5t27.5 -61t44 -40t58 -14.5q44 0 74 18.5t55 56.5z" />
<glyph unicode="&#xe8;" horiz-adv-x="502" d="M306 278q24 0 38 9.5t16 32.5q0 21 -6 41t-18 35.5t-30 24.5t-42 9q-51 0 -84 -40t-37 -112h163zM461 93q-31 -49 -78 -77t-108 -28q-58 0 -102 19t-73 52t-44 77t-15 93q0 43 15.5 85.5t44.5 76t70 54t93 20.5q46 0 80.5 -12.5t58 -35t37 -53.5t16.5 -67 q0 -35 -19.5 -46t-50.5 -11h-243q0 -44 9 -81t28 -64t49 -42t72 -15t72 18t58 63q8 10 22 1q8 -5 10 -13t-2 -14zM158 637q-9 10 -9 23q0 15 13 28.5t31 13.5q23 0 36 -23l75 -137q4 -8 4 -14q0 -11 -7 -16.5t-17 -5.5q-13 0 -24 12z" />
<glyph unicode="&#xe9;" horiz-adv-x="502" d="M306 278q24 0 38 9.5t16 32.5q0 21 -6 41t-18 35.5t-30 24.5t-42 9q-51 0 -84 -40t-37 -112h163zM461 93q-31 -49 -78 -77t-108 -28q-58 0 -102 19t-73 52t-44 77t-15 93q0 43 15.5 85.5t44.5 76t70 54t93 20.5q46 0 80.5 -12.5t58 -35t37 -53.5t16.5 -67 q0 -35 -19.5 -46t-50.5 -11h-243q0 -44 9 -81t28 -64t49 -42t72 -15t72 18t58 63q8 10 22 1q8 -5 10 -13t-2 -14zM277 518q-11 -12 -24 -12q-10 0 -17 5.5t-7 16.5q0 7 4 14l75 137q11 23 36 23q18 0 30.5 -13.5t12.5 -28.5q0 -14 -8 -23z" />
<glyph unicode="&#xea;" horiz-adv-x="502" d="M306 278q24 0 38 9.5t16 32.5q0 21 -6 41t-18 35.5t-30 24.5t-42 9q-51 0 -84 -40t-37 -112h163zM461 93q-31 -49 -78 -77t-108 -28q-58 0 -102 19t-73 52t-44 77t-15 93q0 43 15.5 85.5t44.5 76t70 54t93 20.5q46 0 80.5 -12.5t58 -35t37 -53.5t16.5 -67 q0 -35 -19.5 -46t-50.5 -11h-243q0 -44 9 -81t28 -64t49 -42t72 -15t72 18t58 63q8 10 22 1q8 -5 10 -13t-2 -14zM390 549q4 -7 4 -13q0 -10 -6.5 -15t-14.5 -5q-15 0 -39 23.5t-71 84.5q-47 -61 -71 -84.5t-39 -23.5q-8 0 -14.5 5t-6.5 15q0 6 4 13l102 148q9 13 24 13 q7 0 13.5 -2.5t12.5 -10.5z" />
<glyph unicode="&#xeb;" horiz-adv-x="502" d="M306 278q24 0 38 9.5t16 32.5q0 21 -6 41t-18 35.5t-30 24.5t-42 9q-51 0 -84 -40t-37 -112h163zM461 93q-31 -49 -78 -77t-108 -28q-58 0 -102 19t-73 52t-44 77t-15 93q0 43 15.5 85.5t44.5 76t70 54t93 20.5q46 0 80.5 -12.5t58 -35t37 -53.5t16.5 -67 q0 -35 -19.5 -46t-50.5 -11h-243q0 -44 9 -81t28 -64t49 -42t72 -15t72 18t58 63q8 10 22 1q8 -5 10 -13t-2 -14zM186 667q26 0 43 -17t17 -43q0 -24 -17.5 -42t-43.5 -18t-44 18t-18 42q0 26 18.5 43t44.5 17zM359 667q26 0 43 -17t17 -43q0 -24 -17.5 -42t-43.5 -18 t-44 18t-18 42q0 26 18.5 43t44.5 17z" />
<glyph unicode="&#xec;" horiz-adv-x="296" d="M199 103v-25.5t4.5 -22t15.5 -15t32 -5.5q9 0 15.5 -1.5t7.5 -16.5q0 -8 -4 -14t-12 -6q-29 2 -53.5 2.5t-51.5 0.5t-51 -0.5t-53 -2.5q-8 0 -12 6t-4 14q2 15 8 16.5t16 1.5q21 0 31.5 5.5t15 15t4.5 22v25.5v229v25.5t-4.5 22t-15 15t-31.5 5.5q-9 0 -16.5 2.5 t-7.5 17.5q0 6 4 11t12 7q34 5 56 10.5t36 10t22.5 7.5t16.5 4t13.5 -3t5.5 -16v-348zM23 637q-9 10 -9 23q0 15 13 28.5t31 13.5q23 0 36 -23l75 -137q4 -8 4 -14q0 -11 -7 -16.5t-17 -5.5q-13 0 -24 12z" />
<glyph unicode="&#xed;" horiz-adv-x="296" d="M199 103v-25.5t4.5 -22t15.5 -15t32 -5.5q9 0 15.5 -1.5t7.5 -16.5q0 -8 -4 -14t-12 -6q-29 2 -53.5 2.5t-51.5 0.5t-51 -0.5t-53 -2.5q-8 0 -12 6t-4 14q2 15 8 16.5t16 1.5q21 0 31.5 5.5t15 15t4.5 22v25.5v229v25.5t-4.5 22t-15 15t-31.5 5.5q-9 0 -16.5 2.5 t-7.5 17.5q0 6 4 11t12 7q34 5 56 10.5t36 10t22.5 7.5t16.5 4t13.5 -3t5.5 -16v-348zM121 518q-11 -12 -24 -12q-10 0 -17 5.5t-7 16.5q0 7 4 14l75 137q11 23 36 23q18 0 30.5 -13.5t12.5 -28.5q0 -14 -8 -23z" />
<glyph unicode="&#xee;" horiz-adv-x="296" d="M199 103v-25.5t4.5 -22t15.5 -15t32 -5.5q9 0 15.5 -1.5t7.5 -16.5q0 -8 -4 -14t-12 -6q-29 2 -53.5 2.5t-51.5 0.5t-51 -0.5t-53 -2.5q-8 0 -12 6t-4 14q2 15 8 16.5t16 1.5q21 0 31.5 5.5t15 15t4.5 22v25.5v229v25.5t-4.5 22t-15 15t-31.5 5.5q-9 0 -16.5 2.5 t-7.5 17.5q0 6 4 11t12 7q34 5 56 10.5t36 10t22.5 7.5t16.5 4t13.5 -3t5.5 -16v-348zM255 549q4 -7 4 -13q0 -10 -6.5 -15t-14.5 -5q-15 0 -39 23.5t-71 84.5q-47 -61 -71 -84.5t-39 -23.5q-8 0 -14.5 5t-6.5 15q0 6 4 13l102 148q9 13 24 13q7 0 13.5 -2.5t12.5 -10.5z " />
<glyph unicode="&#xef;" horiz-adv-x="296" d="M199 103v-25.5t4.5 -22t15.5 -15t32 -5.5q9 0 15.5 -1.5t7.5 -16.5q0 -8 -4 -14t-12 -6q-29 2 -53.5 2.5t-51.5 0.5t-51 -0.5t-53 -2.5q-8 0 -12 6t-4 14q2 15 8 16.5t16 1.5q21 0 31.5 5.5t15 15t4.5 22v25.5v229v25.5t-4.5 22t-15 15t-31.5 5.5q-9 0 -16.5 2.5 t-7.5 17.5q0 6 4 11t12 7q34 5 56 10.5t36 10t22.5 7.5t16.5 4t13.5 -3t5.5 -16v-348zM51 667q26 0 43 -17t17 -43q0 -24 -17.5 -42t-43.5 -18t-44 18t-18 42q0 26 18.5 43t44.5 17zM224 667q26 0 43 -17t17 -43q0 -24 -17.5 -42t-43.5 -18t-44 18t-18 42q0 26 18.5 43 t44.5 17z" />
<glyph unicode="&#xf0;" horiz-adv-x="563" d="M271 25q36 0 61 16t40.5 44t22.5 64.5t7 78.5q0 39 -7.5 74t-23 60.5t-40.5 40.5t-60 15q-37 0 -62 -16t-40.5 -43t-22 -63.5t-6.5 -78.5q0 -39 7 -74t22.5 -61t40.5 -41.5t61 -15.5zM231 691q-9 7 -11 12.5t0 12.5q2 6 7.5 10.5t14.5 -0.5q10 -5 23.5 -13.5t27.5 -18 t26.5 -19.5t20.5 -18l86 52q5 3 10.5 -1.5t9.5 -11.5t4 -14.5t-5 -10.5l-76 -44q32 -34 57.5 -78.5t43 -96.5t26 -109t5.5 -115q-2 -60 -23.5 -105t-54.5 -75t-73 -45t-79 -15q-53 0 -95 18.5t-72 50t-46 72.5t-16 86q0 59 21 104.5t54 75.5t73.5 45.5t80.5 14.5 q47 -1 74 -16t51 -34l4 1q-7 60 -30 106.5t-51 86.5l-97 -57q-6 -2 -11.5 3t-8.5 12t-3 14t6 10l90 51q-12 16 -29 31t-35 28z" />
<glyph unicode="&#xf1;" horiz-adv-x="599" d="M198 388h3q15 14 30 27.5t33.5 24.5t42 18t55.5 7q69 0 108.5 -41t39.5 -108v-213v-25.5t4.5 -22t15.5 -15t32 -5.5q9 0 15.5 -1.5t7.5 -16.5q0 -8 -4 -14t-12 -6q-29 2 -53.5 2.5t-51.5 0.5t-51 -0.5t-53 -2.5q-8 0 -12 6t-4 14q1 15 7.5 16.5t15.5 1.5q21 0 31.5 5.5 t15 15t5 22t0.5 25.5v212q0 25 -8.5 43t-22 29.5t-31 17t-34.5 5.5q-26 0 -47 -7.5t-36.5 -18.5t-26 -22.5t-14.5 -20.5v-238v-25.5t4.5 -22t15.5 -15t32 -5.5q9 0 15.5 -1.5t7.5 -16.5q0 -8 -4 -14t-12 -6q-29 2 -53.5 2.5t-51.5 0.5t-51 -0.5t-53 -2.5q-8 0 -12 6t-4 14 q2 15 8 16.5t16 1.5q21 0 31.5 5.5t15 15t4.5 22v25.5v229v25.5t-4.5 22t-15 15t-31.5 5.5q-9 0 -16.5 2.5t-7.5 17.5q0 6 4 11t12 7q34 5 56 10.5t36 10t22 7.5t16 4t13.5 -3t5.5 -16v-63zM472 641q-7 -16 -17 -31.5t-23.5 -28t-30.5 -20t-37 -7.5q-21 0 -37 9.5t-29 20 t-24.5 19.5t-24.5 9q-12 0 -29.5 -9.5t-36.5 -32.5q-5 -6 -12 -7t-12.5 1t-8.5 8.5t0 15.5q6 16 16.5 32.5t24.5 29.5t31 21t38 8t37 -9.5t29 -20t24.5 -19.5t24.5 -9q12 0 30 10t36 32q6 7 13 8t12.5 -2.5t7.5 -11t-2 -16.5z" />
<glyph unicode="&#xf2;" horiz-adv-x="548" d="M274 465q52 0 95 -19.5t74 -51.5t47.5 -74t16.5 -87q0 -59 -22 -105t-55.5 -77t-75 -47t-80.5 -16q-53 0 -95.5 19.5t-73.5 51.5t-47.5 74t-16.5 87q0 59 21.5 105t55 77t75 47t81.5 16zM274 25q36 0 61 17t40.5 45.5t22.5 66t7 79.5q0 39 -7.5 74.5t-23 62.5t-40.5 42.5 t-60 15.5q-37 0 -62 -16.5t-40.5 -45t-22 -65.5t-6.5 -79q0 -39 7 -74.5t22.5 -63t40.5 -43.5t61 -16zM168 637q-9 10 -9 23q0 15 13 28.5t31 13.5q23 0 36 -23l75 -137q4 -8 4 -14q0 -11 -7 -16.5t-17 -5.5q-13 0 -24 12z" />
<glyph unicode="&#xf3;" horiz-adv-x="548" d="M274 465q52 0 95 -19.5t74 -51.5t47.5 -74t16.5 -87q0 -59 -22 -105t-55.5 -77t-75 -47t-80.5 -16q-53 0 -95.5 19.5t-73.5 51.5t-47.5 74t-16.5 87q0 59 21.5 105t55 77t75 47t81.5 16zM274 25q36 0 61 17t40.5 45.5t22.5 66t7 79.5q0 39 -7.5 74.5t-23 62.5t-40.5 42.5 t-60 15.5q-37 0 -62 -16.5t-40.5 -45t-22 -65.5t-6.5 -79q0 -39 7 -74.5t22.5 -63t40.5 -43.5t61 -16zM297 518q-11 -12 -24 -12q-10 0 -17 5.5t-7 16.5q0 7 4 14l75 137q11 23 36 23q18 0 30.5 -13.5t12.5 -28.5q0 -14 -8 -23z" />
<glyph unicode="&#xf4;" horiz-adv-x="548" d="M274 465q52 0 95 -19.5t74 -51.5t47.5 -74t16.5 -87q0 -59 -22 -105t-55.5 -77t-75 -47t-80.5 -16q-53 0 -95.5 19.5t-73.5 51.5t-47.5 74t-16.5 87q0 59 21.5 105t55 77t75 47t81.5 16zM274 25q36 0 61 17t40.5 45.5t22.5 66t7 79.5q0 39 -7.5 74.5t-23 62.5t-40.5 42.5 t-60 15.5q-37 0 -62 -16.5t-40.5 -45t-22 -65.5t-6.5 -79q0 -39 7 -74.5t22.5 -63t40.5 -43.5t61 -16zM400 549q4 -7 4 -13q0 -10 -6.5 -15t-14.5 -5q-15 0 -39 23.5t-71 84.5q-47 -61 -71 -84.5t-39 -23.5q-8 0 -14.5 5t-6.5 15q0 6 4 13l102 148q9 13 24 13q7 0 13.5 -2.5 t12.5 -10.5z" />
<glyph unicode="&#xf5;" horiz-adv-x="548" d="M274 465q52 0 95 -19.5t74 -51.5t47.5 -74t16.5 -87q0 -59 -22 -105t-55.5 -77t-75 -47t-80.5 -16q-53 0 -95.5 19.5t-73.5 51.5t-47.5 74t-16.5 87q0 59 21.5 105t55 77t75 47t81.5 16zM274 25q36 0 61 17t40.5 45.5t22.5 66t7 79.5q0 39 -7.5 74.5t-23 62.5t-40.5 42.5 t-60 15.5q-37 0 -62 -16.5t-40.5 -45t-22 -65.5t-6.5 -79q0 -39 7 -74.5t22.5 -63t40.5 -43.5t61 -16zM436 641q-7 -16 -17 -31.5t-23.5 -28t-30.5 -20t-37 -7.5q-21 0 -37 9.5t-29 20t-24.5 19.5t-24.5 9q-12 0 -29.5 -9.5t-36.5 -32.5q-5 -6 -12 -7t-12.5 1t-8.5 8.5 t0 15.5q6 16 16.5 32.5t24.5 29.5t31 21t38 8t37 -9.5t29 -20t24.5 -19.5t24.5 -9q12 0 30 10t36 32q6 7 13 8t12.5 -2.5t7.5 -11t-2 -16.5z" />
<glyph unicode="&#xf6;" horiz-adv-x="548" d="M274 465q52 0 95 -19.5t74 -51.5t47.5 -74t16.5 -87q0 -59 -22 -105t-55.5 -77t-75 -47t-80.5 -16q-53 0 -95.5 19.5t-73.5 51.5t-47.5 74t-16.5 87q0 59 21.5 105t55 77t75 47t81.5 16zM274 25q36 0 61 17t40.5 45.5t22.5 66t7 79.5q0 39 -7.5 74.5t-23 62.5t-40.5 42.5 t-60 15.5q-37 0 -62 -16.5t-40.5 -45t-22 -65.5t-6.5 -79q0 -39 7 -74.5t22.5 -63t40.5 -43.5t61 -16zM196 667q26 0 43 -17t17 -43q0 -24 -17.5 -42t-43.5 -18t-44 18t-18 42q0 26 18.5 43t44.5 17zM369 667q26 0 43 -17t17 -43q0 -24 -17.5 -42t-43.5 -18t-44 18t-18 42 q0 26 18.5 43t44.5 17z" />
<glyph unicode="&#xf7;" horiz-adv-x="600" d="M74 237q-10 0 -16 8.5t-6 18.5t6 18.5t16 8.5h450q10 0 16 -8.5t6 -18.5t-6 -18.5t-16 -8.5h-450zM298 381q-27 0 -45 17t-18 46q0 26 18 44t46 18q27 0 45.5 -18t18.5 -44q0 -29 -18.5 -46t-46.5 -17zM298 9q-27 0 -45 17t-18 46q0 26 18 44t46 18q27 0 45.5 -18 t18.5 -44q0 -29 -18.5 -46t-46.5 -17z" />
<glyph unicode="&#xf8;" horiz-adv-x="547" d="M446 390q29 -32 45 -72.5t16 -84.5q0 -59 -22 -105t-55.5 -77t-75 -47t-80.5 -16q-42 0 -77.5 12t-64.5 34l-35 -39q-6 -7 -15 -6.5t-14 5.5q-6 5 -6.5 12.5t4.5 12.5l37 42q-30 32 -46 73t-16 86q0 59 21.5 105t55 77t75 47t81.5 16q42 0 78.5 -12.5t65.5 -35.5l47 53 q6 7 15 6.5t14 -5.5q6 -5 6.5 -12.5t-4.5 -12.5zM143 222q0 -27 3 -52.5t10 -48.5l219 248q-16 27 -41 43t-60 16q-37 0 -62 -16.5t-40.5 -45t-22 -65.5t-6.5 -79zM274 25q36 0 61 17t40.5 45.5t22.5 66t7 79.5q0 26 -3 50t-10 45l-218 -246q16 -26 40.5 -41.5t59.5 -15.5z " />
<glyph unicode="&#xf9;" horiz-adv-x="596" d="M494 95q0 -59 79 -59q11 0 14 -6t3 -13q0 -14 -17 -17l-161 -11q-8 0 -8.5 6t-0.5 14v56h-2q-15 -14 -30 -27.5t-33.5 -24.5t-42.5 -18t-55 -7q-69 0 -108.5 41t-39.5 108v185v25.5t-4.5 22t-15 15t-31.5 5.5q-9 0 -16.5 2.5t-7.5 17.5q0 6 4 11t12 7q34 5 56 10.5t36 10 t22.5 7.5t16.5 4t13.5 -3t5.5 -16v-303q0 -25 8.5 -43t22 -29.5t31 -17t34.5 -5.5q26 0 47 7.5t37 18.5t26 22.5t14 20.5v210v25.5t-4.5 22t-15 15t-31.5 5.5q-9 0 -16.5 2.5t-7.5 17.5q0 6 4 11t12 7q34 5 56 10.5t36 10t22.5 7.5t16.5 4t13.5 -3t5.5 -16v-346zM174 637 q-9 10 -9 23q0 15 13 28.5t31 13.5q23 0 36 -23l75 -137q4 -8 4 -14q0 -11 -7 -16.5t-17 -5.5q-13 0 -24 12z" />
<glyph unicode="&#xfa;" horiz-adv-x="596" d="M494 95q0 -59 79 -59q11 0 14 -6t3 -13q0 -14 -17 -17l-161 -11q-8 0 -8.5 6t-0.5 14v56h-2q-15 -14 -30 -27.5t-33.5 -24.5t-42.5 -18t-55 -7q-69 0 -108.5 41t-39.5 108v185v25.5t-4.5 22t-15 15t-31.5 5.5q-9 0 -16.5 2.5t-7.5 17.5q0 6 4 11t12 7q34 5 56 10.5t36 10 t22.5 7.5t16.5 4t13.5 -3t5.5 -16v-303q0 -25 8.5 -43t22 -29.5t31 -17t34.5 -5.5q26 0 47 7.5t37 18.5t26 22.5t14 20.5v210v25.5t-4.5 22t-15 15t-31.5 5.5q-9 0 -16.5 2.5t-7.5 17.5q0 6 4 11t12 7q34 5 56 10.5t36 10t22.5 7.5t16.5 4t13.5 -3t5.5 -16v-346zM273 518 q-11 -12 -24 -12q-10 0 -17 5.5t-7 16.5q0 7 4 14l75 137q11 23 36 23q18 0 30.5 -13.5t12.5 -28.5q0 -14 -8 -23z" />
<glyph unicode="&#xfb;" horiz-adv-x="596" d="M494 95q0 -59 79 -59q11 0 14 -6t3 -13q0 -14 -17 -17l-161 -11q-8 0 -8.5 6t-0.5 14v56h-2q-15 -14 -30 -27.5t-33.5 -24.5t-42.5 -18t-55 -7q-69 0 -108.5 41t-39.5 108v185v25.5t-4.5 22t-15 15t-31.5 5.5q-9 0 -16.5 2.5t-7.5 17.5q0 6 4 11t12 7q34 5 56 10.5t36 10 t22.5 7.5t16.5 4t13.5 -3t5.5 -16v-303q0 -25 8.5 -43t22 -29.5t31 -17t34.5 -5.5q26 0 47 7.5t37 18.5t26 22.5t14 20.5v210v25.5t-4.5 22t-15 15t-31.5 5.5q-9 0 -16.5 2.5t-7.5 17.5q0 6 4 11t12 7q34 5 56 10.5t36 10t22.5 7.5t16.5 4t13.5 -3t5.5 -16v-346zM406 549 q4 -7 4 -13q0 -10 -6.5 -15t-14.5 -5q-15 0 -39 23.5t-71 84.5q-47 -61 -71 -84.5t-39 -23.5q-8 0 -14.5 5t-6.5 15q0 6 4 13l102 148q9 13 24 13q7 0 13.5 -2.5t12.5 -10.5z" />
<glyph unicode="&#xfc;" horiz-adv-x="596" d="M494 95q0 -59 79 -59q11 0 14 -6t3 -13q0 -14 -17 -17l-161 -11q-8 0 -8.5 6t-0.5 14v56h-2q-15 -14 -30 -27.5t-33.5 -24.5t-42.5 -18t-55 -7q-69 0 -108.5 41t-39.5 108v185v25.5t-4.5 22t-15 15t-31.5 5.5q-9 0 -16.5 2.5t-7.5 17.5q0 6 4 11t12 7q34 5 56 10.5t36 10 t22.5 7.5t16.5 4t13.5 -3t5.5 -16v-303q0 -25 8.5 -43t22 -29.5t31 -17t34.5 -5.5q26 0 47 7.5t37 18.5t26 22.5t14 20.5v210v25.5t-4.5 22t-15 15t-31.5 5.5q-9 0 -16.5 2.5t-7.5 17.5q0 6 4 11t12 7q34 5 56 10.5t36 10t22.5 7.5t16.5 4t13.5 -3t5.5 -16v-346zM202 667 q26 0 43 -17t17 -43q0 -24 -17.5 -42t-43.5 -18t-44 18t-18 42q0 26 18.5 43t44.5 17zM375 667q26 0 43 -17t17 -43q0 -24 -17.5 -42t-43.5 -18t-44 18t-18 42q0 26 18.5 43t44.5 17z" />
<glyph unicode="&#xfd;" horiz-adv-x="552" d="M296 -10q-13 -32 -31.5 -68t-43 -67.5t-55.5 -52t-69 -20.5q-22 0 -42 7.5t-35 20.5t-24 30t-9 36q1 27 12 41t23 20.5t21.5 7t7.5 0.5q19 0 29 -7.5t10 -12.5q0 -2 -7.5 -9.5t-8.5 -26.5q-1 -18 11 -35t37 -17q21 0 39 12.5t33.5 31t28 41.5t22.5 44q7 22 -1 46 q-18 40 -35.5 85t-34 89.5t-33 85.5t-31.5 73q-8 18 -15.5 31t-16 21.5t-19 13t-25.5 6.5q-13 2 -17.5 3.5t-5.5 15.5q-1 17 9.5 18.5t25.5 2.5q61 3 96 -18t58 -71q10 -24 22.5 -56t26 -67t27.5 -69.5t28 -62.5h3l98 262q10 29 1 36t-39 7q-9 0 -15 1.5t-7 16.5q0 6 3 13 t11 7q29 -2 50 -2.5t47 -0.5h22t18 0.5t18.5 1t24.5 1.5q8 0 11.5 -7t3.5 -13q-1 -15 -7.5 -16.5t-14.5 -1.5q-33 0 -52.5 -12t-33.5 -47l-74 -182q-14 -35 -27.5 -68t-24 -59t-17.5 -42.5t-7 -17.5zM270 518q-11 -12 -24 -12q-10 0 -17 5.5t-7 16.5q0 7 4 14l75 137 q11 23 36 23q18 0 30.5 -13.5t12.5 -28.5q0 -14 -8 -23z" />
<glyph unicode="&#xfe;" horiz-adv-x="561" d="M169 19v-121q0 -13 0.5 -25.5t5.5 -22t15.5 -15t30.5 -5.5q9 0 15.5 -1.5t7.5 -16.5q0 -8 -4 -14t-12 -6q-29 2 -53.5 2.5t-51.5 0.5t-51 -0.5t-53 -2.5q-8 0 -12 6t-4 14q1 15 7.5 16.5t15.5 1.5q20 0 30.5 5.5t15.5 15t5.5 22t0.5 25.5v692v25.5t-4.5 22t-15 15 t-31.5 5.5q-9 0 -16.5 2.5t-7.5 17.5q0 6 4 11t12 7q34 5 56 10.5t36 10t22.5 7.5t16.5 4t13.5 -3t5.5 -16v-302h3q30 30 66.5 44t71.5 14q44 0 82.5 -17t67 -48t44.5 -74.5t16 -95.5q0 -51 -19 -95.5t-50.5 -77t-73 -51t-86.5 -18.5q-65 0 -118 31h-4zM418 226q0 35 -8 69 t-25.5 60.5t-44.5 43t-65 16.5q-34 0 -60 -12t-46 -34v-264q2 -11 10 -25t22.5 -27t34.5 -22t46 -9q30 0 55 14t43 40.5t28 64.5t10 85z" />
<glyph unicode="&#xff;" horiz-adv-x="552" d="M296 -10q-13 -32 -31.5 -68t-43 -67.5t-55.5 -52t-69 -20.5q-22 0 -42 7.5t-35 20.5t-24 30t-9 36q1 27 12 41t23 20.5t21.5 7t7.5 0.5q19 0 29 -7.5t10 -12.5q0 -2 -7.5 -9.5t-8.5 -26.5q-1 -18 11 -35t37 -17q21 0 39 12.5t33.5 31t28 41.5t22.5 44q7 22 -1 46 q-18 40 -35.5 85t-34 89.5t-33 85.5t-31.5 73q-8 18 -15.5 31t-16 21.5t-19 13t-25.5 6.5q-13 2 -17.5 3.5t-5.5 15.5q-1 17 9.5 18.5t25.5 2.5q61 3 96 -18t58 -71q10 -24 22.5 -56t26 -67t27.5 -69.5t28 -62.5h3l98 262q10 29 1 36t-39 7q-9 0 -15 1.5t-7 16.5q0 6 3 13 t11 7q29 -2 50 -2.5t47 -0.5h22t18 0.5t18.5 1t24.5 1.5q8 0 11.5 -7t3.5 -13q-1 -15 -7.5 -16.5t-14.5 -1.5q-33 0 -52.5 -12t-33.5 -47l-74 -182q-14 -35 -27.5 -68t-24 -59t-17.5 -42.5t-7 -17.5zM199 667q26 0 43 -17t17 -43q0 -24 -17.5 -42t-43.5 -18t-44 18t-18 42 q0 26 18.5 43t44.5 17zM372 667q26 0 43 -17t17 -43q0 -24 -17.5 -42t-43.5 -18t-44 18t-18 42q0 26 18.5 43t44.5 17z" />
<glyph unicode="&#x131;" horiz-adv-x="296" d="M199 103v-25.5t4.5 -22t15.5 -15t32 -5.5q9 0 15.5 -1.5t7.5 -16.5q0 -8 -4 -14t-12 -6q-29 2 -53.5 2.5t-51.5 0.5t-51 -0.5t-53 -2.5q-8 0 -12 6t-4 14q2 15 8 16.5t16 1.5q21 0 31.5 5.5t15 15t4.5 22v25.5v229v25.5t-4.5 22t-15 15t-31.5 5.5q-9 0 -16.5 2.5 t-7.5 17.5q0 6 4 11t12 7q34 5 56 10.5t36 10t22.5 7.5t16.5 4t13.5 -3t5.5 -16v-348z" />
<glyph unicode="&#x152;" horiz-adv-x="1008" d="M907 631q11 0 18.5 -5t7.5 -19l3 -140q0 -10 -9.5 -15t-17.5 -5q-11 0 -20 4.5t-11 13.5q-5 34 -11.5 57.5t-17 38.5t-27 22t-42.5 8h-134v-254h181q8 -1 11.5 -8t3.5 -15t-3.5 -14t-11.5 -6h-181v-189q1 -10 2 -21.5t7.5 -21.5t20.5 -16.5t40 -5.5h92q26 1 42.5 6.5 t27.5 19t19 35.5t18 55q4 10 13.5 13t20.5 1q8 -2 16.5 -7.5t7.5 -15.5l-20 -126q-3 -14 -9.5 -17.5t-19.5 -3.5h-535q-71 0 -133 22t-108 63t-72.5 100.5t-26.5 133.5q0 80 31.5 139t81.5 97.5t113.5 57t128.5 18.5h503zM403 591q-48 0 -91 -14.5t-75 -46.5t-51 -84 t-19 -128q0 -63 17.5 -114t49.5 -87.5t77 -56.5t100 -20h71q24 0 37 6.5t19 17.5t7.5 25t1.5 28v397q0 14 -1.5 28t-7.5 25t-19 17.5t-37 6.5h-79z" />
<glyph unicode="&#x153;" horiz-adv-x="866" d="M456 379q29 38 72.5 62t99.5 24q46 0 80.5 -12.5t58 -35t37 -53.5t16.5 -67q0 -35 -19.5 -46t-50.5 -11h-243q0 -44 9 -81t28 -64t49 -42t72 -15t72 18t58 63q8 10 22 1q8 -5 10 -13t-2 -14q-31 -49 -78 -77t-108 -28q-66 0 -112.5 24t-75.5 65q-31 -40 -75.5 -64.5 t-101.5 -24.5q-53 0 -95.5 19.5t-73.5 51.5t-47.5 74t-16.5 87q0 59 21.5 105t55 77t75 47t81.5 16q59 0 105 -24t77 -62zM274 25q36 0 61 17t40.5 45.5t22.5 66t7 79.5q0 39 -7.5 74.5t-23 62.5t-40.5 42.5t-60 15.5q-37 0 -62 -16.5t-40.5 -45t-22 -65.5t-6.5 -79 q0 -39 7 -74.5t22.5 -63t40.5 -43.5t61 -16zM670 278q24 0 38 9.5t16 32.5q0 21 -6 41t-18 35.5t-30 24.5t-42 9q-51 0 -86 -40t-39 -112h167z" />
<glyph unicode="&#x2c6;" horiz-adv-x="386" d="M319 549q4 -7 4 -13q0 -10 -6.5 -15t-14.5 -5q-15 0 -39 23.5t-71 84.5q-47 -61 -71 -84.5t-39 -23.5q-8 0 -14.5 5t-6.5 15q0 6 4 13l102 148q9 13 24 13q7 0 13.5 -2.5t12.5 -10.5z" />
<glyph unicode="&#x2c7;" horiz-adv-x="386" d="M65 685q-4 7 -4 13q0 9 6.5 14.5t14.5 5.5q15 0 39 -24t71 -84q47 60 71 84t39 24q8 0 14.5 -5.5t6.5 -14.5q0 -6 -4 -13l-102 -148q-9 -13 -24 -13q-7 0 -14 2.5t-12 10.5z" />
<glyph unicode="&#x2da;" horiz-adv-x="306" d="M261 620q0 -44 -29 -69.5t-79 -25.5q-51 0 -80.5 26t-29.5 69q0 98 110 98q53 0 80.5 -26t27.5 -72zM196 620q0 29 -9 46t-34 17q-23 0 -34 -18t-11 -45q0 -58 45 -58q26 0 34.5 16t8.5 42z" />
<glyph unicode="&#x2dc;" horiz-adv-x="425" d="M370 641q-7 -16 -17 -31.5t-23.5 -28t-30.5 -20t-37 -7.5q-21 0 -37 9.5t-29 20t-24.5 19.5t-24.5 9q-12 0 -29.5 -9.5t-36.5 -32.5q-5 -6 -12 -7t-12.5 1t-8.5 8.5t0 15.5q6 16 16.5 32.5t24.5 29.5t31 21t38 8t37 -9.5t29 -20t24.5 -19.5t24.5 -9q12 0 30 10t36 32 q6 7 13 8t12.5 -2.5t7.5 -11t-2 -16.5z" />
<glyph unicode="&#x2013;" horiz-adv-x="558" d="M84 237q-11 0 -17 8.5t-6 18.5q0 11 6 19t17 8h386q11 0 17 -8t6 -19q0 -10 -6 -18.5t-17 -8.5h-386z" />
<glyph unicode="&#x2014;" horiz-adv-x="868" d="M84 237q-11 0 -17 8.5t-6 18.5q0 11 6 19t17 8h696q11 0 17 -8t6 -19q0 -10 -6 -18.5t-17 -8.5h-696z" />
<glyph unicode="&#x2018;" horiz-adv-x="226" d="M189 509q0 -19 -14.5 -34.5t-35.5 -15.5q-22 0 -40.5 10.5t-32 28t-21 38.5t-7.5 42q0 31 13.5 55.5t34.5 42.5t47.5 30t52.5 20q7 3 13 -0.5t8.5 -9.5t0.5 -12t-9 -9q-42 -16 -63.5 -37.5t-21.5 -51.5q0 -18 11.5 -29t26 -20.5t26 -20t11.5 -27.5z" />
<glyph unicode="&#x2019;" horiz-adv-x="239" d="M58 678q0 19 14.5 34.5t35.5 15.5q22 0 40.5 -10.5t32 -28t21 -38.5t7.5 -42q0 -31 -13.5 -55.5t-34.5 -42.5t-47.5 -30.5t-52.5 -19.5q-8 -3 -13.5 0.5t-8 9.5t-1 12t9.5 9q42 16 63.5 37.5t21.5 51.5q0 18 -11.5 29t-26 20.5t-26 20t-11.5 27.5z" />
<glyph unicode="&#x201a;" horiz-adv-x="237" d="M45 97q0 19 14.5 34.5t35.5 15.5q22 0 40.5 -10.5t32 -28t21 -38.5t7.5 -42q0 -31 -13.5 -55.5t-34.5 -42.5t-47.5 -30.5t-52.5 -19.5q-8 -3 -13.5 0.5t-8 9.5t-1 12t9.5 9q42 16 63.5 37.5t21.5 51.5q0 18 -11.5 29t-26 20.5t-26 20t-11.5 27.5z" />
<glyph unicode="&#x201c;" horiz-adv-x="426" d="M389 510q0 -19 -14.5 -34.5t-35.5 -15.5q-22 0 -40.5 10.5t-32 28t-21 38.5t-7.5 42q0 31 13.5 55.5t34.5 42.5t47.5 30t52.5 20q7 3 13 -0.5t8.5 -9.5t0.5 -12t-9 -9q-42 -16 -63.5 -37.5t-21.5 -51.5q0 -18 11.5 -29t26 -20.5t26 -20t11.5 -27.5zM189 510 q0 -19 -14.5 -34.5t-35.5 -15.5q-22 0 -40.5 10.5t-32 28t-21 38.5t-7.5 42q0 31 13.5 55.5t34.5 42.5t47.5 30t52.5 20q7 3 13 -0.5t8.5 -9.5t0.5 -12t-9 -9q-42 -16 -63.5 -37.5t-21.5 -51.5q0 -18 11.5 -29t26 -20.5t26 -20t11.5 -27.5z" />
<glyph unicode="&#x201d;" horiz-adv-x="438" d="M58 684q0 19 14.5 34.5t35.5 15.5q22 0 40.5 -10.5t32 -28t21 -38.5t7.5 -42q0 -31 -13.5 -55.5t-34.5 -42.5t-47.5 -30.5t-52.5 -19.5q-8 -3 -13.5 0.5t-8 9.5t-1 12t9.5 9q42 16 63.5 37.5t21.5 51.5q0 18 -11.5 29t-26 20.5t-26 20t-11.5 27.5zM258 684 q0 19 14.5 34.5t35.5 15.5q22 0 40.5 -10.5t32 -28t21 -38.5t7.5 -42q0 -31 -13.5 -55.5t-34.5 -42.5t-47.5 -30.5t-52.5 -19.5q-8 -3 -13.5 0.5t-8 9.5t-1 12t9.5 9q42 16 63.5 37.5t21.5 51.5q0 18 -11.5 29t-26 20.5t-26 20t-11.5 27.5z" />
<glyph unicode="&#x201e;" horiz-adv-x="437" d="M45 97q0 19 14.5 34.5t35.5 15.5q22 0 40.5 -10.5t32 -28t21 -38.5t7.5 -42q0 -31 -13.5 -55.5t-34.5 -42.5t-47.5 -30.5t-52.5 -19.5q-8 -3 -13.5 0.5t-8 9.5t-1 12t9.5 9q42 16 63.5 37.5t21.5 51.5q0 18 -11.5 29t-26 20.5t-26 20t-11.5 27.5zM245 97q0 19 14.5 34.5 t35.5 15.5q22 0 40.5 -10.5t32 -28t21 -38.5t7.5 -42q0 -31 -13.5 -55.5t-34.5 -42.5t-47.5 -30.5t-52.5 -19.5q-8 -3 -13.5 0.5t-8 9.5t-1 12t9.5 9q42 16 63.5 37.5t21.5 51.5q0 18 -11.5 29t-26 20.5t-26 20t-11.5 27.5z" />
<glyph unicode="&#x2022;" horiz-adv-x="427" d="M212 153q-52 0 -87 33.5t-35 89.5q0 25 9.5 46.5t26 38t39 26t48.5 9.5q27 0 49.5 -9.5t39.5 -26t26.5 -38t9.5 -46.5q0 -28 -9.5 -50.5t-26.5 -38.5t-40 -25t-50 -9z" />
<glyph unicode="&#x2039;" horiz-adv-x="274" d="M212 394q7 3 14.5 -3t5.5 -17q-2 -8 -15 -31.5t-41 -60.5l-41 -48q42 -60 68.5 -93.5t28.5 -46.5q1 -15 -12.5 -17.5t-22.5 6.5q-31 32 -62 63.5t-72 65.5q-13 12 -13 23t13 22q19 18 44 41.5t47 44.5t38.5 35.5t19.5 15.5z" />
<glyph unicode="&#x203a;" horiz-adv-x="274" d="M72 394q3 -1 19.5 -15.5t38.5 -35.5t46.5 -44.5t44.5 -41.5q13 -11 13 -22t-13 -23q-41 -34 -72 -65.5t-62 -63.5q-5 -5 -11 -6.5t-11.5 0t-9.5 5.5t-3 12q2 13 28.5 46.5t68.5 93.5l-41 48q-28 37 -41 60.5t-15 31.5q-2 11 5.5 17t14.5 3z" />
<glyph unicode="&#x2044;" horiz-adv-x="350" d="M51 14q-6 -10 -16.5 -13t-18.5 0q-11 4 -16 13t-1 19l298 584q6 11 16.5 13.5t19.5 -0.5q11 -4 16.5 -14t1.5 -19z" />
<glyph unicode="&#x2074;" horiz-adv-x="359" d="M46 372q-11 0 -20.5 5.5t-9.5 18.5q0 7 2 11l199 218q6 5 12 6.5t12 1.5q10 0 20 -6t11 -20v-195h37q9 0 14.5 -2.5t6.5 -16.5q0 -8 -3 -14.5t-14 -6.5h-41v-100q0 -8 -10.5 -12.5t-23.5 -4.5t-23 4.5t-11 12.5v100h-158zM204 412v150q-32 -38 -65 -74t-68 -76h133z" />
<glyph unicode="&#x20ac;" horiz-adv-x="617" d="M366 566q15 0 45 -4t61 -17t54 -38t23 -68q0 -29 -17.5 -53t-50.5 -24q-22 0 -34 11t-12 16q0 1 5 5t11.5 11t11.5 16.5t5 22.5q0 23 -9.5 40t-24 27.5t-32.5 15.5t-34 5q-36 0 -63 -14t-45.5 -38t-30.5 -55t-18 -64h190q8 0 8 -12q0 -8 -6 -17.5t-18 -9.5h-179 q-3 -21 -3 -41q0 -21 3 -40h149q8 0 8 -12q0 -8 -6 -17.5t-18 -9.5h-127q8 -38 23.5 -69.5t37 -54t49.5 -35.5t60 -13q30 0 53 9.5t41.5 26t32 38.5t23.5 46q4 7 11 7t15.5 -4.5t9.5 -16.5q0 -6 -3 -13q-31 -72 -84.5 -103.5t-126.5 -31.5q-42 0 -81.5 14.5t-72 42t-55.5 67 t-33 90.5h-58q-8 0 -8 12q0 8 6 17.5t18 9.5h36q-1 17 -1 21v12q0 24 3 48h-54q-8 0 -8 12q0 8 6 17.5t18 9.5h45q12 47 35.5 85t56.5 64.5t73.5 41t85.5 14.5z" />
<glyph unicode="&#x2212;" horiz-adv-x="630" d="M90 237q-10 0 -16 8.5t-6 18.5t6 18.5t16 8.5h450q10 0 16 -8.5t6 -18.5t-6 -18.5t-16 -8.5h-450z" />
<glyph unicode="&#xe000;" horiz-adv-x="455" d="M0 455h455v-455h-455v455z" />
<glyph horiz-adv-x="0" />
<glyph horiz-adv-x="486" d="M248 12q0 -10 -8.5 -16t-18.5 -6t-18.5 6t-8.5 16v363q-85 4 -132.5 49.5t-47.5 117.5q0 37 13 67.5t37.5 52.5t59 34.5t78.5 12.5h223q10 0 17.5 -2t8.5 -20q0 -8 -5 -15.5t-14 -7.5h-41v-652q0 -10 -8.5 -16t-18.5 -6t-18.5 6t-8.5 16v652h-29q-18 0 -29.5 -2.5 t-18 -10.5t-9.5 -23.5t-3 -40.5v-575z" />
<glyph horiz-adv-x="306" d="M268 766q0 -45 -32.5 -68t-83.5 -23t-84 23t-33 68q0 48 31 69.5t86 21.5q54 0 85 -23t31 -68zM200 766q0 28 -12 40t-36 12q-23 0 -36 -13t-13 -39q0 -28 13 -39t36 -11q48 0 48 50z" />
<glyph horiz-adv-x="425" d="M380 790q-7 -16 -17 -31.5t-23.5 -28t-30.5 -20t-37 -7.5q-21 0 -40 9t-35.5 20t-31.5 20t-28 9q-12 0 -29.5 -9.5t-36.5 -32.5q-7 -8 -17 -8q-7 0 -12.5 5t-5.5 12q0 9 11.5 30.5t27 36.5t34.5 24t39 9q21 0 40 -9t35.5 -20t31.5 -20t28 -9q12 0 30 10t36 32q7 8 16 8 q7 0 12.5 -5t5.5 -14q0 -5 -3 -11z" />
<glyph horiz-adv-x="386" d="M216 714q-14 -9 -24 -9q-12 0 -24 9l-127 93q-9 6 -9 17q0 8 5 13t15 5q32 -8 68.5 -27.5t71.5 -37.5q35 18 71.5 37.5t68.5 27.5q9 0 14.5 -5t5.5 -13q0 -11 -9 -17z" />
<glyph horiz-adv-x="386" d="M169 823q13 9 24 9q12 0 24 -9l127 -93q8 -7 8 -18q0 -7 -4 -12t-12 -5h-3q-32 8 -68.5 27.5t-71.5 37.5q-35 -18 -71.5 -37.5t-68.5 -27.5h-3q-8 0 -12.5 5t-4.5 12q0 10 9 18z" />
<glyph horiz-adv-x="282" d="M83 683q-3 -2 -9 -2q-11 0 -18 7.5t-7 16.5q0 7 10 17.5t25.5 25.5t34 32t36 31t31.5 21.5t21 7.5q12 0 24.5 -12t12.5 -26q0 -15 -17.5 -30t-43 -30.5t-53 -32t-47.5 -26.5z" />
<glyph horiz-adv-x="282" d="M212 683q-20 10 -47.5 25.5t-53 32t-43 32.5t-17.5 29q0 14 12.5 26t24.5 12t38 -18.5t52.5 -42t47 -45.5t20.5 -29q0 -9 -7.5 -16.5t-17.5 -7.5q-6 0 -9 2z" />
<glyph horiz-adv-x="387" d="M99 831q26 0 43 -17t17 -43q0 -24 -17.5 -42t-43.5 -18t-44 18t-18 42q0 26 18.5 43t44.5 17zM291 831q26 0 43 -17t17 -43q0 -24 -17.5 -42t-43.5 -18t-44 18t-18 42q0 26 18.5 43t44.5 17z" />
<glyph horiz-adv-x="1056" d="M1007 251h-16q1 -2 1 -5q0 -14 -11 -24.5t-34 -10.5q-9 0 -12 1v-15h18q39 0 39 -36q0 -8 -2 -13.5t-4 -9.5h-27v29h-46q-5 4 -7.5 10t-2.5 12q0 18 14 30q-14 8 -14 28q0 16 11.5 26.5t31.5 10.5q18 0 31 -10q8 10 19 10q4 0 6 -0.5t5 -1.5v-31zM245 175 q-6 -22 -17.5 -29.5t-25.5 -7.5q-19 0 -26 7v26h17q16 0 21 11h-14l-24 69h-10v31h38l14 -49l5 -24l11 42h-9v31h43v-31zM158 187q-18 -8 -41 -8q-31 0 -48.5 17.5t-17.5 48.5q0 32 17 51.5t51 19.5q9 0 19 -2t20 -5v-40h-31v15q-3 1 -9 1q-14 0 -21.5 -10t-7.5 -26 q0 -37 37 -37h32v-25zM748 179q-49 0 -49 52q0 25 13.5 39t36.5 14t36.5 -13.5t13.5 -38.5t-13.5 -39t-37.5 -14zM484 277q9 3 17.5 5t18.5 2q46 0 46 -38v-34h11v-27q-8 -5 -20 -5q-16 0 -22 7q-9 -8 -25 -8q-14 0 -24 8t-10 23q0 14 9 22t30 8h16v1q0 4 -4.5 7t-17.5 3 h-25v26zM461 212v-26q-8 -4 -18 -5.5t-19 -1.5q-26 0 -39.5 13.5t-13.5 37.5t12 39t37 15q20 0 32 -12t12 -30q0 -4 -0.5 -8.5t-1.5 -9.5h-55q4 -12 25 -12h29zM811 251v31h34l10 -16q2 5 4.5 7.5l5.5 5.5q7 5 15 5q6 0 12 -2v-31h-34v-39h17v-30h-62v30h9v39h-11zM282 251 v31h34l10 -16q2 5 4.5 7.5l5.5 5.5q7 5 15 5q6 0 12 -2v-31h-34v-39h17v-30h-62v30h10v39h-12zM589 285h-12v31h47v-104h14v-28q-9 -4 -22 -4q-27 0 -27 28v77zM651 199q0 8 5 14t15 6q11 0 16.5 -6t5.5 -14t-5.5 -13.5t-16.5 -5.5q-10 0 -15 5.5t-5 13.5zM749 206 q14 0 14 26q0 24 -14 24t-14 -24q0 -26 14 -26zM936 247q0 -15 12 -15q10 0 10 15t-10 15q-12 0 -12 -15zM520 204q7 0 11 3v15h-8q-13 0 -13 -9t10 -9zM419 258q-10 0 -13 -16h25q0 16 -12 16z" />
</font>
</defs>
</svg>
